<?xml version="1.0" encoding="UTF-8" standalone="no"?>
<!-- Created with Inkscape (http://www.inkscape.org/) -->

<svg
   xmlns:dc="http://purl.org/dc/elements/1.1/"
   xmlns:cc="http://creativecommons.org/ns#"
   xmlns:rdf="http://www.w3.org/1999/02/22-rdf-syntax-ns#"
   xmlns:svg="http://www.w3.org/2000/svg"
   xmlns="http://www.w3.org/2000/svg"
   xmlns:sodipodi="http://sodipodi.sourceforge.net/DTD/sodipodi-0.dtd"
   xmlns:inkscape="http://www.inkscape.org/namespaces/inkscape"
   width="140.89767mm"
   height="49.528343mm"
   viewBox="0 0 499.24373 175.49413"
   id="svg2"
   version="1.1"
   inkscape:version="0.91 r13725"
   sodipodi:docname="bluetooth.svg"
   inkscape:export-filename="bluetooth.png"
   inkscape:export-xdpi="194.87476"
   inkscape:export-ydpi="194.87476">
  <defs
     id="defs4" />
  <sodipodi:namedview
     id="base"
     pagecolor="#ffffff"
     bordercolor="#666666"
     borderopacity="1.0"
     inkscape:pageopacity="0.0"
     inkscape:pageshadow="2"
     inkscape:zoom="0.98994949"
     inkscape:cx="435.00934"
     inkscape:cy="91.353462"
     inkscape:document-units="px"
     inkscape:current-layer="layer1"
     showgrid="false"
     fit-margin-top="0"
     fit-margin-left="0"
     fit-margin-right="0"
     fit-margin-bottom="0"
     inkscape:window-width="1920"
     inkscape:window-height="1012"
     inkscape:window-x="0"
     inkscape:window-y="0"
     inkscape:window-maximized="1" />
  <metadata
     id="metadata7">
    <rdf:RDF>
      <cc:Work
         rdf:about="">
        <dc:format>image/svg+xml</dc:format>
        <dc:type
           rdf:resource="http://purl.org/dc/dcmitype/StillImage" />
        <dc:title></dc:title>
      </cc:Work>
    </rdf:RDF>
  </metadata>
  <g
     inkscape:label="Layer 1"
     inkscape:groupmode="layer"
     id="layer1"
     transform="translate(-72.369616,-444.3511)">
    <path
       style="fill:#000000"
       d="m 532.17899,615.51093 -4.32657,-4.3343 -7.06956,-2.42737 c -3.88825,-1.33505 -8.72285,-2.99587 -10.74354,-3.6907 l -3.674,-1.26333 3.524,-0.1726 c 8.24183,-0.40367 12.98778,-4.00671 14.33634,-10.88389 0.79628,-4.06078 1.12887,-17.29805 0.83016,-33.04122 -0.15338,-8.08375 -0.16617,-15.41641 -0.0284,-16.29481 0.13775,-0.8784 0.53527,-2.42011 0.88339,-3.42602 1.22247,-3.53243 0.33996,-11.90828 -1.8577,-17.63146 -0.34848,-0.9075 -1.93434,-4.215 -3.52415,-7.35 -4.15849,-8.2003 -4.50458,-8.94188 -4.89292,-10.4841 -0.45865,-1.82145 -0.21161,-5.43531 0.4625,-6.7659 0.66625,-1.31505 2.15695,-2.91616 3.24622,-3.48662 1.29885,-0.68024 2.61568,0.12202 4.6864,2.85512 3.42153,4.51599 14.00135,19.44095 15.73191,22.19301 3.74551,5.95636 5.95558,11.16496 7.9722,18.78849 0.6547,2.475 1.88525,6.9975 2.73456,10.05 0.84931,3.0525 2.71404,10.15792 4.14385,15.78983 l 2.59964,10.23983 4.65,5.19319 c 2.5575,2.85626 5.7975,6.46371 7.2,8.01657 1.4025,1.55286 2.55,2.97543 2.55,3.16127 0,0.33546 -34.49955,29.29931 -34.89913,29.29931 -0.11475,0 -2.15559,-1.95044 -4.5352,-4.3343 z m -93.86507,-16.38777 c -1.25762,-0.62844 -2.20557,-1.3788 -2.91402,-2.30663 -2.08931,-2.73629 -1.95034,2.36868 -1.86433,-68.48249 l 0.0777,-64.03881 0.66066,-1.23494 c 1.0152,-1.89767 1.99201,-2.91087 3.73952,-3.87887 l 1.59982,-0.88619 37.78387,-0.0796 c 42.45592,-0.0894 39.40239,-0.2483 42.11646,2.19188 0.87544,0.78709 1.75715,1.95946 2.18393,2.90385 0.71264,1.57698 0.71613,1.63839 0.80561,14.20405 l 0.0899,12.62022 -1.79817,-0.13007 c -1.42577,-0.10313 -2.08143,0.007 -3.16601,0.5321 -2.01294,0.97445 -3.93993,2.89871 -5.11476,5.10753 l -1.03717,1.95 -0.007,-12.825 -0.007,-12.825 -33.6,0 -33.6,0 0,51.3 0,51.3 33.59873,0 33.59874,0 0.0763,-34.425 c 0.073,-32.96021 0.0982,-34.36117 0.59098,-32.925 0.28309,0.825 1.80562,3.9975 3.3834,7.05 5.49252,10.62624 5.40494,9.86009 5.39597,47.20335 -0.007,27.62122 -0.12358,29.95084 -1.66204,33.10906 -1.07144,2.19949 -2.71143,3.71042 -5.05823,4.66019 l -1.67381,0.6774 -36.1677,0.0797 -36.16769,0.0797 -1.864,-0.93145 z m 42.39939,-5.03813 c 2.87119,-1.30885 4.45771,-3.6784 4.43003,-6.61652 -0.0388,-4.11587 -3.1088,-7.22328 -7.1364,-7.22328 -2.11956,0 -3.56727,0.60889 -5.16364,2.17177 -2.24518,2.19807 -2.75398,5.43897 -1.30101,8.28704 0.71312,1.39782 2.52137,3.00905 3.96214,3.53045 1.49707,0.54176 3.84003,0.47454 5.20888,-0.14946 z"
       id="path4201"
       inkscape:connector-curvature="0"
       sodipodi:nodetypes="scsscssscssssscssssscssssscsscsscsssscscscccccccccscscsscccccsssssss" />
    <path
       style="fill:#000000"
       d="m 111.80395,615.51093 4.32657,-4.3343 7.06956,-2.42737 c 3.88825,-1.33505 8.72285,-2.99587 10.74354,-3.6907 l 3.674,-1.26333 -3.524,-0.1726 c -8.24183,-0.40367 -12.98778,-4.00671 -14.33634,-10.88389 -0.79628,-4.06078 -1.12887,-17.29805 -0.83016,-33.04122 0.15338,-8.08375 0.16617,-15.41641 0.0284,-16.29481 -0.13775,-0.8784 -0.53527,-2.42011 -0.88339,-3.42602 -1.22247,-3.53243 -0.33996,-11.90828 1.8577,-17.63146 0.34848,-0.9075 1.93434,-4.215 3.52415,-7.35 4.15849,-8.2003 4.50458,-8.94188 4.89292,-10.4841 0.45865,-1.82145 0.21161,-5.43531 -0.4625,-6.7659 -0.66625,-1.31505 -2.15695,-2.91616 -3.24622,-3.48662 -1.29885,-0.68024 -2.61568,0.12202 -4.6864,2.85512 -3.42153,4.51599 -14.00135,19.44095 -15.73191,22.19301 -3.74551,5.95636 -5.955584,11.16496 -7.972204,18.78849 -0.6547,2.475 -1.88525,6.9975 -2.73456,10.05 -0.84931,3.0525 -2.71404,10.15792 -4.14385,15.78983 l -2.59964,10.23983 -4.65,5.19319 c -2.5575,2.85626 -5.7975,6.46371 -7.2,8.01657 -1.4025,1.55286 -2.55,2.97543 -2.55,3.16127 0,0.33546 34.499554,29.29931 34.899134,29.29931 0.11475,0 2.15559,-1.95044 4.53519,-4.3343 z m 93.86506,-16.38777 c 1.25762,-0.62844 2.20557,-1.3788 2.91402,-2.30663 2.08931,-2.73629 1.95034,2.36868 1.86433,-68.48249 l -0.0777,-64.03881 -0.66066,-1.23494 c -1.0152,-1.89767 -1.99201,-2.91087 -3.73952,-3.87887 l -1.59982,-0.88619 -37.78386,-0.0796 c -42.45592,-0.0894 -39.40239,-0.2483 -42.11646,2.19188 -0.87544,0.78709 -1.75715,1.95946 -2.18393,2.90385 -0.71264,1.57698 -0.71613,1.63839 -0.80561,14.20405 l -0.0899,12.62022 1.79817,-0.13007 c 1.42577,-0.10313 2.08143,0.007 3.16601,0.5321 2.01294,0.97445 3.93993,2.89871 5.11476,5.10753 l 1.03717,1.95 0.007,-12.825 0.007,-12.825 33.6,0 33.59999,0 0,51.3 0,51.3 -33.59872,0 -33.59874,0 -0.0763,-34.425 c -0.073,-32.96021 -0.0982,-34.36117 -0.59098,-32.925 -0.28309,0.825 -1.80562,3.9975 -3.3834,7.05 -5.49252,10.62624 -5.40494,9.86009 -5.39597,47.20335 0.007,27.62122 0.12358,29.95084 1.66204,33.10906 1.07144,2.19949 2.71143,3.71042 5.05823,4.66019 l 1.67381,0.6774 36.1677,0.0797 36.16768,0.0797 1.864,-0.93145 z m -42.39938,-5.03813 c -2.87119,-1.30885 -4.45771,-3.6784 -4.43003,-6.61652 0.0388,-4.11587 3.1088,-7.22328 7.1364,-7.22328 2.11956,0 3.56727,0.60889 5.16364,2.17177 2.24518,2.19807 2.75398,5.43897 1.30101,8.28704 -0.71312,1.39782 -2.52137,3.00905 -3.96214,3.53045 -1.49707,0.54176 -3.84003,0.47454 -5.20888,-0.14946 z"
       id="path4201-1"
       inkscape:connector-curvature="0"
       sodipodi:nodetypes="ccsscssscssssscssssscsssscccsscsscsssscscscccccccccscscsscccccsssssss" />
    <g
       id="g4838"
       transform="matrix(0.08166146,0,0,0.08166146,285.28364,535.81196)">
      <rect
         id="rect4270"
         width="640"
         height="976"
         ry="291"
         style="fill:#0a3d91"
         x="129.51247"
         y="-189.58334" />
      <path
         id="path4272"
         d="m 286.51248,140.41666 305,307.00003 -147,178 0,-636.000027 147,169.999997 -305,299.00003"
         style="fill:none;stroke:#ffffff;stroke-width:53"
         inkscape:connector-curvature="0" />
    </g>
    <path
       style="fill:none;fill-opacity:1;fill-rule:evenodd;stroke:#0a3d91;stroke-width:7.55;stroke-linecap:round;stroke-linejoin:round;stroke-miterlimit:4;stroke-dasharray:7.55,22.65;stroke-dashoffset:0;stroke-opacity:1"
       d="m 219.05071,474.19795 c 70.76376,46.48067 139.93534,38.03285 208.24431,-0.1739"
       id="path4844"
       inkscape:connector-curvature="0"
       sodipodi:nodetypes="cc" />
  </g>
</svg>
