<?xml version="1.0" encoding="UTF-8" standalone="no"?>
<svg
   xmlns:dc="http://purl.org/dc/elements/1.1/"
   xmlns:cc="http://creativecommons.org/ns#"
   xmlns:rdf="http://www.w3.org/1999/02/22-rdf-syntax-ns#"
   xmlns:svg="http://www.w3.org/2000/svg"
   xmlns="http://www.w3.org/2000/svg"
   width="499.24374"
   height="175.49413"
   viewBox="0 0 499.24373 175.49413"
   id="svg2"
   version="1.1">
  <defs
     id="defs4" />
  <metadata
     id="metadata7">
    <rdf:RDF>
      <cc:Work
         rdf:about="">
        <dc:format>image/svg+xml</dc:format>
        <dc:type
           rdf:resource="http://purl.org/dc/dcmitype/StillImage" />
        <dc:title></dc:title>
      </cc:Work>
    </rdf:RDF>
  </metadata>
  <path
     id="path4201"
     d="m 459.80937,171.15983 -4.32657,-4.3343 -7.06956,-2.42737 c -3.88825,-1.33505 -8.72285,-2.99587 -10.74354,-3.6907 l -3.674,-1.26333 3.524,-0.1726 c 8.24183,-0.40367 12.98778,-4.00671 14.33634,-10.88389 0.79628,-4.06078 1.12887,-17.29805 0.83016,-33.04122 -0.15338,-8.08375 -0.16617,-15.41641 -0.0284,-16.29481 0.13775,-0.8784 0.53527,-2.42011 0.88339,-3.42602 1.22247,-3.53243 0.33996,-11.90828 -1.8577,-17.63146 -0.34848,-0.9075 -1.93434,-4.215 -3.52415,-7.35 -4.15849,-8.2003 -4.50458,-8.94188 -4.89292,-10.4841 -0.45865,-1.82145 -0.21161,-5.43531 0.4625,-6.7659 0.66625,-1.31505 2.15695,-2.91616 3.24622,-3.48662 1.29885,-0.68024 2.61568,0.12202 4.6864,2.85512 3.42153,4.51599 14.00135,19.44095 15.73191,22.19301 3.74551,5.95636 5.95558,11.16496 7.9722,18.78849 0.6547,2.475 1.88525,6.9975 2.73456,10.05 0.84931,3.0525 2.71404,10.15792 4.14385,15.78983 l 2.59964,10.23983 4.65,5.19319 c 2.5575,2.85626 5.7975,6.46371 7.2,8.01657 1.4025,1.55286 2.55,2.97543 2.55,3.16127 0,0.33546 -34.49955,29.29931 -34.89913,29.29931 -0.11475,0 -2.15559,-1.95044 -4.5352,-4.3343 z M 365.9443,154.77206 c -1.25762,-0.62844 -2.20557,-1.3788 -2.91402,-2.30663 -2.08931,-2.73629 -1.95034,2.36868 -1.86433,-68.48249 l 0.0777,-64.03881 0.66066,-1.23494 c 1.0152,-1.89767 1.99201,-2.91087 3.73952,-3.87887 l 1.59982,-0.88619 37.78387,-0.0796 c 42.45592,-0.0894 39.40239,-0.2483 42.11646,2.19188 0.87544,0.78709 1.75715,1.95946 2.18393,2.90385 0.71264,1.57698 0.71613,1.63839 0.80561,14.20405 l 0.0899,12.62022 -1.79817,-0.13007 c -1.42577,-0.10313 -2.08143,0.007 -3.16601,0.5321 -2.01294,0.97445 -3.93993,2.89871 -5.11476,5.10753 l -1.03717,1.95 -0.007,-12.825 -0.007,-12.825 -33.6,0 -33.6,0 0,51.3 0,51.3 33.59873,0 33.59874,0 0.0763,-34.425 c 0.073,-32.96021 0.0982,-34.36117 0.59098,-32.925 0.28309,0.825 1.80562,3.9975 3.3834,7.05 5.49252,10.62624 5.40494,9.86009 5.39597,47.20335 -0.007,27.62122 -0.12358,29.95084 -1.66204,33.10906 -1.07144,2.19949 -2.71143,3.71042 -5.05823,4.66019 l -1.67381,0.6774 -36.1677,0.0797 -36.16769,0.0797 -1.864,-0.93145 z m 42.39939,-5.03813 c 2.87119,-1.30885 4.45771,-3.6784 4.43003,-6.61652 -0.0388,-4.11587 -3.1088,-7.22328 -7.1364,-7.22328 -2.11956,0 -3.56727,0.60889 -5.16364,2.17177 -2.24518,2.19807 -2.75398,5.43897 -1.30101,8.28704 0.71312,1.39782 2.52137,3.00905 3.96214,3.53045 1.49707,0.54176 3.84003,0.47454 5.20888,-0.14946 z"
     style="fill:#000000" />
  <path
     id="path4201-1"
     d="m 39.434334,171.15983 4.32657,-4.3343 7.06956,-2.42737 c 3.88825,-1.33505 8.72285,-2.99587 10.74354,-3.6907 l 3.674,-1.26333 -3.524,-0.1726 c -8.24183,-0.40367 -12.98778,-4.00671 -14.33634,-10.88389 -0.79628,-4.06078 -1.12887,-17.29805 -0.83016,-33.04122 0.15338,-8.08375 0.16617,-15.41641 0.0284,-16.29481 -0.13775,-0.8784 -0.53527,-2.42011 -0.88339,-3.42602 -1.22247,-3.53243 -0.33996,-11.90828 1.8577,-17.63146 0.34848,-0.9075 1.93434,-4.215 3.52415,-7.35 4.15849,-8.2003 4.50458,-8.94188 4.89292,-10.4841 0.45865,-1.82145 0.21161,-5.43531 -0.4625,-6.7659 -0.66625,-1.31505 -2.15695,-2.91616 -3.24622,-3.48662 -1.29885,-0.68024 -2.61568,0.12202 -4.6864,2.85512 -3.42153,4.51599 -14.00135,19.44095 -15.73191,22.19301 -3.74551,5.95636 -5.955584,11.16496 -7.972204,18.78849 -0.6547,2.475 -1.88525,6.9975 -2.73456,10.05 -0.84931,3.0525 -2.71404,10.15792 -4.14385,15.78983 L 14.4,129.82379 9.75,135.01698 c -2.5575,2.85626 -5.7975,6.46371 -7.2,8.01657 -1.4025,1.55286 -2.55,2.97543 -2.55,3.16127 0,0.33546 34.499554,29.29931 34.899134,29.29931 0.11475,0 2.15559,-1.95044 4.53519,-4.3343 z m 93.865056,-16.38777 c 1.25762,-0.62844 2.20557,-1.3788 2.91402,-2.30663 2.08931,-2.73629 1.95034,2.36868 1.86433,-68.48249 l -0.0777,-64.03881 -0.66066,-1.23494 c -1.0152,-1.89767 -1.99201,-2.91087 -3.73952,-3.87887 l -1.59982,-0.88619 -37.783856,-0.0796 c -42.45592,-0.0894 -39.40239,-0.2483 -42.11646,2.19188 -0.87544,0.78709 -1.75715,1.95946 -2.18393,2.90385 -0.71264,1.57698 -0.71613,1.63839 -0.80561,14.20405 l -0.0899,12.62022 1.79817,-0.13007 c 1.42577,-0.10313 2.08143,0.007 3.16601,0.5321 2.01294,0.97445 3.93993,2.89871 5.11476,5.10753 l 1.03717,1.95 0.007,-12.825 0.007,-12.825 33.6,0 33.599986,0 0,51.3 0,51.3 -33.598716,0 -33.59874,0 -0.0763,-34.425 c -0.073,-32.96021 -0.0982,-34.36117 -0.59098,-32.925 -0.28309,0.825 -1.80562,3.9975 -3.3834,7.05 -5.49252,10.62624 -5.40494,9.86009 -5.39597,47.20335 0.007,27.62122 0.12358,29.95084 1.66204,33.10906 1.07144,2.19949 2.71143,3.71042 5.05823,4.66019 l 1.67381,0.6774 36.1677,0.0797 36.167676,0.0797 1.864,-0.93145 z m -42.399376,-5.03813 c -2.87119,-1.30885 -4.45771,-3.6784 -4.43003,-6.61652 0.0388,-4.11587 3.1088,-7.22328 7.1364,-7.22328 2.11956,0 3.56727,0.60889 5.16364,2.17177 2.245176,2.19807 2.753976,5.43897 1.301006,8.28704 -0.713116,1.39782 -2.521366,3.00905 -3.962136,3.53045 -1.49707,0.54176 -3.84003,0.47454 -5.20888,-0.14946 z"
     style="fill:#000000" />
  <path
     id="rect4270"
     d="m 247.25369,75.97921 4.73637,0 c 13.16497,0 23.76348,10.598514 23.76348,23.763485 l 0,32.174615 c 0,13.16497 -10.59851,23.76348 -23.76348,23.76348 l -4.73637,0 c -13.16497,0 -23.76349,-10.59851 -23.76349,-23.76348 l 0,-32.174615 c 0,-13.164971 10.59852,-23.763485 23.76349,-23.763485 z"
     style="fill:#0a3d91" />
  <path
     id="path4272"
     d="m 236.31105,102.92749 24.90674,25.07007 -12.00423,14.53574 0,-51.936691 12.00423,13.882451 -24.90674,24.41678"
     style="fill:none;stroke:#ffffff;stroke-width:4.32805729" />
  <path
     id="path4844"
     d="m 143.67921,27.5571 c -1.59043,2.623831 0.18153,5.574737 2.78461,6.642714 2.69504,1.572445 6.1706,4.987176 9.14793,2.232151 2.23313,-2.039515 0.60129,-5.727894 -2.04109,-6.67035 -3.06433,-1.676733 -6.55172,-5.514807 -9.89145,-2.204515 z M 351.7046,27.12937 c -2.76779,1.960623 -7.06819,2.694997 -8.37782,6.042717 -0.64195,2.73095 1.93572,4.99255 4.58419,4.426453 3.2021,-1.637914 7.05658,-2.8424 9.17849,-5.94769 0.56931,-2.60435 -1.49324,-5.35066 -4.26769,-4.745697 -0.41558,-0.107679 -0.76003,0.03505 -1.11717,0.224217 z m -26.76172,13.17187 c -2.93431,1.708015 -7.32039,1.922759 -8.93076,5.153004 -0.90775,2.654328 1.43202,5.159236 4.12365,4.861044 3.35587,-1.304271 7.31954,-2.112696 9.73662,-5.002268 0.81368,-2.537666 -0.97658,-5.469583 -3.79644,-5.128908 -0.4035,-0.14574 -0.75969,-0.03824 -1.13307,0.117128 z m -155.23633,2.46289 c -1.21948,2.711869 0.75683,5.460507 3.4437,6.14538 2.85847,1.080772 6.66937,4.11785 9.31224,1.23392 2.3151,-2.03652 0.33929,-5.835383 -2.40983,-6.41823 -3.32833,-1.175814 -7.38479,-4.713633 -10.34611,-0.96107 z m 127.27344,7.61719 c -3.12289,1.309174 -7.49226,0.970678 -9.49244,3.970097 -1.23184,2.518748 0.7727,5.298264 3.48037,5.339749 3.48706,-0.907308 7.56742,-1.1128 10.30314,-3.739116 1.11397,-2.422222 -0.31199,-5.546068 -3.1516,-5.551016 -0.3827,-0.195662 -0.75023,-0.126964 -1.13947,-0.01971 z m -97.49023,1.54492 c -2.22858,1.461838 -2.68005,4.865948 -0.27553,6.376909 2.5869,1.470583 5.91459,1.954941 8.83971,2.495346 2.78485,0.332188 4.74603,-2.479173 3.89118,-5.048668 -2.04264,-3.279676 -6.47206,-2.73364 -9.71704,-4.089227 -0.91277,0.08855 -1.82555,0.177093 -2.73832,0.26564 z m 68.51367,4.50782 c -3.27623,0.788856 -7.46081,-0.187875 -9.93635,2.381992 -1.64972,2.268076 -0.15709,5.353662 2.50432,5.86185 3.61172,-0.292365 7.71764,0.09072 10.84009,-2.093962 1.46245,-2.227649 0.52336,-5.531725 -2.28478,-5.959415 -0.34949,-0.249225 -0.72211,-0.239347 -1.12328,-0.190465 z m -39.44922,1.41796 c -1.93309,1.83595 -1.76537,5.266611 0.87081,6.321491 2.80857,0.988807 6.17065,0.846733 9.1444,0.861366 2.79909,-0.172766 4.22635,-3.289835 2.92376,-5.664738 -2.60365,-2.851635 -6.84699,-1.541752 -10.29251,-2.269899 -0.88215,0.250593 -1.76431,0.501187 -2.64646,0.75178 z"
     style="color:#000000;font-style:normal;font-variant:normal;font-weight:normal;font-stretch:normal;font-size:medium;line-height:normal;font-family:sans-serif;text-indent:0;text-align:start;text-decoration:none;text-decoration-line:none;text-decoration-style:solid;text-decoration-color:#000000;letter-spacing:normal;word-spacing:normal;text-transform:none;direction:ltr;block-progression:tb;writing-mode:lr-tb;baseline-shift:baseline;text-anchor:start;white-space:normal;clip-rule:nonzero;display:inline;overflow:visible;visibility:visible;opacity:1;isolation:auto;mix-blend-mode:normal;color-interpolation:sRGB;color-interpolation-filters:linearRGB;solid-color:#000000;solid-opacity:1;fill:#0a3d91;fill-opacity:1;fill-rule:evenodd;stroke:none;stroke-width:7.55000019;stroke-linecap:round;stroke-linejoin:round;stroke-miterlimit:4;stroke-dasharray:7.55, 22.65;stroke-dashoffset:0;stroke-opacity:1;color-rendering:auto;image-rendering:auto;shape-rendering:auto;text-rendering:auto;enable-background:accumulate" />
</svg>
