<?xml version="1.0" encoding="UTF-8" standalone="no"?>
<!-- Generator: Adobe Illustrator 19.0.0, SVG Export Plug-In . SVG Version: 6.00 Build 0)  -->

<svg
   xmlns:dc="http://purl.org/dc/elements/1.1/"
   xmlns:cc="http://creativecommons.org/ns#"
   xmlns:rdf="http://www.w3.org/1999/02/22-rdf-syntax-ns#"
   xmlns:svg="http://www.w3.org/2000/svg"
   xmlns="http://www.w3.org/2000/svg"
   xmlns:sodipodi="http://sodipodi.sourceforge.net/DTD/sodipodi-0.dtd"
   xmlns:inkscape="http://www.inkscape.org/namespaces/inkscape"
   version="1.1"
   id="Ebene_1"
   x="0px"
   y="0px"
   viewBox="0 0 320 179.99999"
   xml:space="preserve"
   inkscape:version="0.92.4 (5da689c313, 2019-01-14)"
   sodipodi:docname="briar-android_tv_artwork_logo_horizontal_black.svg"
   width="320"
   height="180"
   inkscape:export-filename="C:\Users\hughi\Downloads\briar-android_tv_artwork_logo_horizontal_black.png"
   inkscape:export-xdpi="95.967941"
   inkscape:export-ydpi="95.967941"><metadata
     id="metadata71"><rdf:RDF><cc:Work
         rdf:about=""><dc:format>image/svg+xml</dc:format><dc:type
           rdf:resource="http://purl.org/dc/dcmitype/StillImage" /><dc:title></dc:title></cc:Work></rdf:RDF></metadata><defs
     id="defs69" /><sodipodi:namedview
     pagecolor="#ffffff"
     bordercolor="#666666"
     borderopacity="1"
     objecttolerance="10"
     gridtolerance="10"
     guidetolerance="10"
     inkscape:pageopacity="0"
     inkscape:pageshadow="2"
     inkscape:window-width="1366"
     inkscape:window-height="705"
     id="namedview67"
     showgrid="false"
     inkscape:zoom="2"
     inkscape:cx="215.47343"
     inkscape:cy="62.929329"
     inkscape:window-x="-8"
     inkscape:window-y="-8"
     inkscape:window-maximized="1"
     inkscape:current-layer="Ebene_1" /><style
     type="text/css"
     id="style3">
	.st0{display:none;fill:#87C214;}
	.st1{fill:#87C214;}
	.st2{display:none;fill:#FFFFFF;}
	.st3{fill:#95D220;}
	.st4{display:none;fill:#95D220;}
</style><rect
     style="opacity:1;fill:#ffffff;fill-opacity:0.98492461;stroke:none;stroke-width:0;stroke-miterlimit:1.41420996;stroke-dasharray:none;stroke-opacity:1"
     id="rect3747"
     width="320"
     height="180"
     x="0"
     y="0" /><rect
     style="display:none;fill:#87c214"
     id="rect11"
     height="43.700001"
     width="43.700001"
     class="st0"
     y="-82.800049"
     x="47.200001" /><path
     class="st2"
     d="m 73.2,-130 c 9.7,0 17.7,8 17.7,17.7 V 87.4 c 0,9.7 -8,17.7 -17.7,17.7 h -8.3 c -9.7,0 -17.7,-8 -17.7,-17.7 v -199.7 c 0,-9.7 7.9,-17.7 17.6,-17.7 h 8.4 m 0,-7 h -8.3 c -13.7,0 -24.7,11.1 -24.7,24.7 V 87.4 c 0,13.6 11.1,24.7 24.7,24.7 h 8.3 c 13.6,0 24.7,-11.1 24.7,-24.7 V -112.3 C 97.8,-125.9 86.8,-137 73.2,-137 Z"
     id="path17"
     inkscape:connector-curvature="0"
     style="display:none;fill:#ffffff" /><rect
     style="display:none;fill:#87c214"
     id="rect25"
     height="43.700001"
     width="43.700001"
     class="st0"
     y="14.199951"
     x="144.2" /><path
     class="st2"
     d="m 170.2,-130 c 9.7,0 17.7,8 17.7,17.7 V 87.4 c 0,9.7 -7.9,17.7 -17.7,17.7 h -8.3 c -9.7,0 -17.7,-8 -17.7,-17.7 v -199.7 c 0,-9.7 8,-17.7 17.7,-17.7 h 8.3 m 0,-7 h -8.3 c -13.6,0 -24.7,11.1 -24.7,24.7 V 87.4 c 0,13.6 11.1,24.7 24.7,24.7 h 8.3 c 13.6,0 24.7,-11.1 24.7,-24.7 v -199.7 c -0.1,-13.6 -11.1,-24.7 -24.7,-24.7 z"
     id="path29"
     inkscape:connector-curvature="0"
     style="display:none;fill:#ffffff" /><g
     id="g3745"
     transform="matrix(0.65979376,0,0,0.65979376,0,-1020.103)"><path
       inkscape:connector-curvature="0"
       id="path13"
       d="m 64.900391,1565 c -9.7,0 -17.701172,7.9992 -17.701172,17.6992 v 22.5 h 43.601562 v -22.5 c 0,-9.7 -7.901562,-17.6992 -17.601562,-17.6992 z m 96.999999,0 c -9.7,0 -17.70117,7.9992 -17.70117,17.6992 v 119.5 h 43.60156 v -119.5 c 0,-9.7 -7.90156,-17.6992 -17.60156,-17.6992 z m -114.701171,97.8008 v 119.5 c 0,9.7 7.901172,17.6992 17.701172,17.6992 h 8.298828 c 9.7,0 17.701172,-7.9992 17.701172,-17.6992 v -119.5 z m 97.000001,97 v 22.5 c 0,9.7 8.00117,17.6992 17.70117,17.6992 h 8.29883 c 9.7,0 17.70117,-7.9992 17.70117,-17.6992 v -22.5 z"
       style="fill:#87c214" /><path
       inkscape:connector-curvature="0"
       id="path35"
       d="M 17.699219,1612.1992 C 7.9992186,1612.1992 0,1620.1004 0,1629.9004 v 8.2988 c 0,9.7 7.8992186,17.7012 17.699219,17.7012 H 137.19922 v -43.7012 z m 177.101561,0 v 43.7012 h 22.5 c 9.7,0 17.69922,-7.9012 17.69922,-17.7012 v -8.2988 c 0,-9.8 -7.99922,-17.7012 -17.69922,-17.7012 z m -177.101561,97 C 7.9992186,1709.1992 0,1717.1004 0,1726.9004 v 8.2988 c 0,9.7 7.8992186,17.7012 17.699219,17.7012 h 22.5 v -43.7012 z m 80.101562,0 v 43.7012 H 217.30078 c 9.7,0 17.69922,-8.0012 17.69922,-17.7012 v -8.2988 c 0,-9.8 -7.99922,-17.7012 -17.69922,-17.7012 z"
       style="fill:#95d220" /></g><rect
     style="display:none;fill:#95d220"
     id="rect37"
     height="43.700001"
     width="43.700001"
     class="st4"
     y="14.199951"
     x="47.200001" /><path
     class="st2"
     d="m 217.3,14.2 c 9.7,0 17.7,7.9 17.7,17.7 v 8.3 c 0,9.7 -8,17.7 -17.7,17.7 H 17.7 C 8,57.9 0,49.9 0,40.2 V 31.9 C 0,22.2 7.9,14.2 17.7,14.2 h 199.6 m 0,-7 H 17.7 C 4.1,7.2 -7,18.3 -7,31.9 v 8.3 c 0,13.6 11.1,24.7 24.7,24.7 h 199.7 c 13.6,0 24.7,-11.1 24.7,-24.7 V 31.9 C 242,18.2 230.9,7.2 217.3,7.2 Z"
     id="path41"
     inkscape:connector-curvature="0"
     style="display:none;fill:#ffffff" /><rect
     style="display:none;fill:#95d220"
     id="rect47"
     height="43.700001"
     width="43.700001"
     class="st4"
     y="-82.800049"
     x="144.2" /><path
     class="st2"
     d="m 217.3,-82.8 c 9.7,0 17.7,7.9 17.7,17.7 v 8.3 c 0,9.7 -8,17.7 -17.7,17.7 H 17.7 C 8,-39.1 0,-47 0,-56.8 v -8.3 c 0,-9.7 7.9,-17.7 17.7,-17.7 h 199.6 m 0,-7 H 17.7 c -13.6,0 -24.7,11 -24.7,24.6 v 8.3 c 0,13.6 11.1,24.7 24.7,24.7 h 199.7 c 13.6,0 24.7,-11.1 24.7,-24.7 v -8.3 C 242,-78.8 230.9,-89.8 217.3,-89.8 Z"
     id="path53"
     inkscape:connector-curvature="0"
     style="display:none;fill:#ffffff" /><path
     inkscape:connector-curvature="0"
     d="m 164.94845,130.5118 v 37.0142 h 17.3299 c 8.17094,0 12.45497,-4.0911 12.45497,-10.4911 0,-4.156 -1.91138,-7.2578 -5.73332,-8.9728 v -0.083 c 2.89934,-1.7808 4.15207,-4.0233 4.15207,-7.521 0,-5.2791 -3.62408,-9.9627 -11.26806,-9.9627 z m 35.97934,0 v 37.0142 h 4.34796 v -14.8454 l -0.45977,-0.4615 h 8.76264 c 4.87623,0 7.64484,1.7133 9.424,5.5433 l 4.61191,9.7636 h 4.87655 l -5.46909,-11.5461 c -1.18614,-2.5738 -3.0974,-4.2227 -4.81061,-4.9483 v -0.083 c 4.0196,-1.0565 7.38013,-4.6856 7.38013,-9.5024 0,-7.3236 -5.66649,-10.9515 -12.45366,-10.9515 z m 36.10959,0 v 37.0142 h 4.34922 v -37.0142 z m 25.56832,0 -16.27714,37.0142 h 4.74504 l 3.95341,-8.9069 -0.19703,-0.4619 h 20.2293 l -0.19713,0.4619 3.9535,8.9069 h 4.74491 l -16.34284,-37.0142 z m 25.82985,0 v 37.0142 h 4.34912 v -14.8454 l -0.4612,-0.4615 h 8.76406 c 4.87643,0 7.64485,1.7133 9.42429,5.5433 l 4.61186,9.7636 H 320 l -5.46903,-11.5461 c -1.18594,-2.5738 -3.09737,-4.2227 -4.81072,-4.9483 v -0.083 c 4.01975,-1.0565 7.38026,-4.6856 7.38026,-9.5024 0,-7.3236 -5.6664,-10.9515 -12.45361,-10.9515 z m -119.59919,4.0908 h 12.58636 c 4.7444,0 7.24733,1.9136 7.24733,5.8723 0,3.2982 -1.97576,5.9394 -7.24733,5.9394 h -12.58636 l 0.46124,-0.4633 v -10.8868 z m 35.97962,0 h 12.32187 c 4.48085,0 7.907,1.8468 7.97296,6.7961 0,3.9585 -3.09676,6.7292 -8.43423,6.7292 h -11.8606 l 0.45977,-0.4614 v -12.6023 z m 87.44177,0 h 12.32223 c 4.54673,0 7.97414,1.8468 7.97414,6.7961 0,3.9585 -3.09683,6.7292 -8.43417,6.7292 h -11.8622 l 0.46141,-0.4614 v -12.6023 z m -27.28106,0.4616 h 0.0674 l 1.11984,3.6954 6.52328,14.8464 0.46124,0.46 h -16.27578 l 0.46131,-0.46 6.52318,-14.8464 z m -96.14033,15.4387 h 13.44199 c 5.46934,0 7.97421,2.5073 7.97421,6.532 0,4.0908 -2.30722,6.401 -7.97421,6.401 h -13.44199 l 0.46124,-0.463 V 150.966 Z"
     id="path57"
     style="stroke-width:0.65979397" /></svg>