<?xml version="1.0" encoding="UTF-8" standalone="no"?>
<svg
   xmlns:dc="http://purl.org/dc/elements/1.1/"
   xmlns:cc="http://creativecommons.org/ns#"
   xmlns:rdf="http://www.w3.org/1999/02/22-rdf-syntax-ns#"
   xmlns:svg="http://www.w3.org/2000/svg"
   xmlns="http://www.w3.org/2000/svg"
   xmlns:sodipodi="http://sodipodi.sourceforge.net/DTD/sodipodi-0.dtd"
   xmlns:inkscape="http://www.inkscape.org/namespaces/inkscape"
   width="172"
   height="140"
   viewBox="0 0 172 140"
   fill="none"
   version="1.1"
   id="svg14"
   sodipodi:docname="No-Groups.svg"
   inkscape:version="0.92.3 (2405546, 2018-03-11)">
  <metadata
     id="metadata20">
    <rdf:RDF>
      <cc:Work
         rdf:about="">
        <dc:format>image/svg+xml</dc:format>
        <dc:type
           rdf:resource="http://purl.org/dc/dcmitype/StillImage" />
        <dc:title></dc:title>
      </cc:Work>
    </rdf:RDF>
  </metadata>
  <defs
     id="defs18" />
  <sodipodi:namedview
     pagecolor="#ffffff"
     bordercolor="#666666"
     borderopacity="1"
     objecttolerance="10"
     gridtolerance="10"
     guidetolerance="10"
     inkscape:pageopacity="0"
     inkscape:pageshadow="2"
     inkscape:window-width="754"
     inkscape:window-height="480"
     id="namedview16"
     showgrid="false"
     inkscape:zoom="1.6857143"
     inkscape:cx="86"
     inkscape:cy="70"
     inkscape:window-x="0"
     inkscape:window-y="20"
     inkscape:window-maximized="0"
     inkscape:current-layer="svg14" />
  <rect
     width="85.9999"
     height="70"
     fill="black"
     fill-opacity="0"
     transform="scale(2)"
     id="rect2" />
  <rect
     width="85.9999"
     height="70"
     fill="black"
     fill-opacity="0"
     transform="scale(2)"
     id="rect4" />
  <path
     d="M125.091 103.444L71.9274 50.5556L38.3092 17.1111L21.1091 0L10.9455 10.1111L31.2728 30.3333C31.2728 31.8889 31.2728 32.6667 31.2728 34.2222C31.2728 47.4444 41.4365 57.5556 54.7274 57.5556C56.291 57.5556 57.0729 57.5556 58.6365 56.7778L78.182 76.2222C69.582 74.6667 60.982 73.1111 54.7274 73.1111C36.7455 73.1111 0 82.4444 0 100.333V119.778H109.455V107.333L142.291 140L152.455 129.889L142.291 119.778L125.091 103.444Z"
     fill="white"
     fill-opacity="0.6"
     id="path6" />
  <path
     d="M117.273 57.5549C130.227 57.5549 140.728 47.1082 140.728 34.2215C140.728 21.3349 130.227 10.8882 117.273 10.8882C104.319 10.8882 93.8184 21.3349 93.8184 34.2215C93.8184 47.1082 104.319 57.5549 117.273 57.5549Z"
     fill="white"
     fill-opacity="0.6"
     id="path8" />
  <path
     d="M78.1819 34.2215C78.1819 20.9993 68.0182 10.8882 54.7273 10.8882C53.9455 10.8882 53.1637 10.8882 52.3818 10.8882L78.1819 36.5548C78.1819 35.7771 78.1819 34.9993 78.1819 34.2215Z"
     fill="white"
     fill-opacity="0.6"
     id="path10" />
  <path
     d="M117.272 73.1104C116.49 73.1104 115.709 73.1104 114.927 73.1104L161.836 119.777H172V100.333C172 82.4437 135.254 73.1104 117.272 73.1104Z"
     fill="white"
     fill-opacity="0.6"
     id="path12" />
</svg>
