<?xml version="1.0" encoding="UTF-8" standalone="no"?>
<svg
   xmlns:dc="http://purl.org/dc/elements/1.1/"
   xmlns:cc="http://creativecommons.org/ns#"
   xmlns:rdf="http://www.w3.org/1999/02/22-rdf-syntax-ns#"
   xmlns:svg="http://www.w3.org/2000/svg"
   xmlns="http://www.w3.org/2000/svg"
   xmlns:sodipodi="http://sodipodi.sourceforge.net/DTD/sodipodi-0.dtd"
   xmlns:inkscape="http://www.inkscape.org/namespaces/inkscape"
   width="164"
   height="164"
   viewBox="0 0 164 164"
   fill="none"
   version="1.1"
   id="svg12"
   sodipodi:docname="empty_state_contact_list.svg"
   inkscape:version="0.92.3 (2405546, 2018-03-11)">
  <metadata
     id="metadata18">
    <rdf:RDF>
      <cc:Work
         rdf:about="">
        <dc:format>image/svg+xml</dc:format>
        <dc:type
           rdf:resource="http://purl.org/dc/dcmitype/StillImage" />
        <dc:title></dc:title>
      </cc:Work>
    </rdf:RDF>
  </metadata>
  <defs
     id="defs16" />
  <sodipodi:namedview
     pagecolor="#000000"
     bordercolor="#666666"
     borderopacity="1"
     objecttolerance="10"
     gridtolerance="10"
     guidetolerance="10"
     inkscape:pageopacity="0"
     inkscape:pageshadow="2"
     inkscape:window-width="1920"
     inkscape:window-height="1020"
     id="namedview14"
     showgrid="false"
     inkscape:zoom="1.4390244"
     inkscape:cx="81.305085"
     inkscape:cy="109.79661"
     inkscape:window-x="1440"
     inkscape:window-y="24"
     inkscape:window-maximized="0"
     inkscape:current-layer="svg12" />
  <path
     style="clip-rule:evenodd;display:inline;fill:#ffffff;fill-rule:evenodd"
     d="M 27.333984 0 L 27.333984 13.666016 L 136.66797 13.666016 L 136.66797 0 L 27.333984 0 z M 27.333984 27.333984 C 19.817284 27.333984 13.666016 33.4834 13.666016 41 L 13.666016 123 C 13.666016 130.517 19.817284 136.66797 27.333984 136.66797 L 136.66797 136.66797 C 144.18397 136.66797 150.33203 130.517 150.33203 123 L 150.33203 41 C 150.33203 33.4834 144.18397 27.333984 136.66797 27.333984 L 27.333984 27.333984 z M 82.150391 44.757812 C 89.592295 44.757812 95.348492 46.476807 99.419922 49.914062 C 103.52467 53.351338 105.57617 58.23949 105.57617 64.580078 C 105.57617 67.349967 105.0272 69.869409 103.92578 72.138672 C 102.82458 74.407935 101.05521 76.728225 98.619141 79.097656 L 92.863281 84.453125 C 91.227921 86.021639 90.093094 87.640125 89.458984 89.308594 C 88.824874 90.943745 88.475053 93.030171 88.408203 95.566406 L 74.091797 95.566406 C 74.091797 90.694273 74.640917 86.855942 75.742188 84.052734 C 76.843435 81.216209 78.63001 78.762286 81.099609 76.693359 C 83.568995 74.624218 85.436853 72.739109 86.705078 71.037109 C 88.006403 69.30179 88.658203 67.400958 88.658203 65.332031 C 88.658203 60.292857 86.488795 57.771484 82.150391 57.771484 C 80.1481 57.771484 78.529614 58.506262 77.294922 59.974609 C 76.060186 61.442955 75.40854 63.42881 75.341797 65.931641 L 58.423828 65.931641 C 58.490468 59.25736 60.592402 54.067509 64.730469 50.363281 C 68.868538 46.625672 74.675257 44.757813 82.150391 44.757812 z M 81.398438 102.32422 C 84.068159 102.32422 86.287795 103.12473 88.056641 104.72656 C 89.858601 106.29508 90.759766 108.31381 90.759766 110.7832 C 90.759766 113.2528 89.858601 115.28879 88.056641 116.89062 C 86.287795 118.45914 84.068159 119.24219 81.398438 119.24219 C 78.728717 119.24219 76.493467 118.45914 74.691406 116.89062 C 72.922705 115.28879 72.039062 113.2528 72.039062 110.7832 C 72.039062 108.31381 72.922705 106.29508 74.691406 104.72656 C 76.493467 103.12473 78.728716 102.32422 81.398438 102.32422 z M 27.333984 150.33203 L 27.333984 164 L 136.66797 164 L 136.66797 150.33203 L 27.333984 150.33203 z "
     id="path8" />
</svg>
