<?xml version="1.0" encoding="UTF-8" standalone="no"?>
<svg
   xmlns:dc="http://purl.org/dc/elements/1.1/"
   xmlns:cc="http://creativecommons.org/ns#"
   xmlns:rdf="http://www.w3.org/1999/02/22-rdf-syntax-ns#"
   xmlns:svg="http://www.w3.org/2000/svg"
   xmlns="http://www.w3.org/2000/svg"
   xmlns:sodipodi="http://sodipodi.sourceforge.net/DTD/sodipodi-0.dtd"
   xmlns:inkscape="http://www.inkscape.org/namespaces/inkscape"
   width="162"
   height="156"
   viewBox="0 0 162 156"
   fill="none"
   version="1.1"
   id="svg16"
   sodipodi:docname="No-Posts.svg"
   inkscape:version="0.92.3 (2405546, 2018-03-11)">
  <metadata
     id="metadata22">
    <rdf:RDF>
      <cc:Work
         rdf:about="">
        <dc:format>image/svg+xml</dc:format>
        <dc:type
           rdf:resource="http://purl.org/dc/dcmitype/StillImage" />
        <dc:title></dc:title>
      </cc:Work>
    </rdf:RDF>
  </metadata>
  <defs
     id="defs20" />
  <sodipodi:namedview
     pagecolor="#ffffff"
     bordercolor="#666666"
     borderopacity="1"
     objecttolerance="10"
     gridtolerance="10"
     guidetolerance="10"
     inkscape:pageopacity="0"
     inkscape:pageshadow="2"
     inkscape:window-width="754"
     inkscape:window-height="480"
     id="namedview18"
     showgrid="false"
     inkscape:zoom="1.5128205"
     inkscape:cx="81"
     inkscape:cy="78"
     inkscape:window-x="0"
     inkscape:window-y="20"
     inkscape:window-maximized="0"
     inkscape:current-layer="svg16" />
  <rect
     width="80.9997"
     height="78"
     fill="black"
     fill-opacity="0"
     transform="scale(2)"
     id="rect2" />
  <rect
     width="80.9997"
     height="78"
     fill="black"
     fill-opacity="0"
     transform="scale(2)"
     id="rect4" />
  <path
     d="M140.87 53.647H91.5654V64.2352H140.87V53.647Z"
     fill="white"
     fill-opacity="0.6"
     id="path6" />
  <path
     d="M140.869 99.5292V88.9409H115.512L126.077 99.5292H140.869Z"
     fill="white"
     fill-opacity="0.6"
     id="path8" />
  <path
     d="M140.869 71.2939H97.9038L108.469 81.8822H140.869V71.2939Z"
     fill="white"
     fill-opacity="0.6"
     id="path10" />
  <path
     d="M147.912 14.8232H41.5557L84.5209 57.8821V28.9409H147.912V120.706H147.208L157.773 131.294C160.59 128.47 161.999 124.941 161.999 120.706V28.9409C161.999 21.1762 155.66 14.8232 147.912 14.8232Z"
     fill="white"
     fill-opacity="0.6"
     id="path12" />
  <path
     d="M129.6 120.706L84.5217 75.5294L23.9478 14.8235L9.15652 0L0 9.17647L10.5652 19.7647C8.45217 21.8824 7.04348 25.4118 7.04348 28.9412V120.706C7.04348 128.471 13.3826 134.824 21.1304 134.824H125.374L146.504 156L155.661 146.824L143.687 134.824L129.6 120.706ZM84.5217 120.706V93.8824L111.287 120.706H84.5217Z"
     fill="white"
     fill-opacity="0.6"
     id="path14" />
</svg>
