<?xml version="1.0" encoding="UTF-8" standalone="no"?>
<svg
   xmlns:dc="http://purl.org/dc/elements/1.1/"
   xmlns:cc="http://creativecommons.org/ns#"
   xmlns:rdf="http://www.w3.org/1999/02/22-rdf-syntax-ns#"
   xmlns:svg="http://www.w3.org/2000/svg"
   xmlns="http://www.w3.org/2000/svg"
   xmlns:sodipodi="http://sodipodi.sourceforge.net/DTD/sodipodi-0.dtd"
   xmlns:inkscape="http://www.inkscape.org/namespaces/inkscape"
   width="148"
   height="148"
   viewBox="0 0 148 148"
   fill="none"
   version="1.1"
   id="svg12"
   sodipodi:docname="No-Forums.svg"
   inkscape:version="0.92.3 (2405546, 2018-03-11)">
  <metadata
     id="metadata18">
    <rdf:RDF>
      <cc:Work
         rdf:about="">
        <dc:format>image/svg+xml</dc:format>
        <dc:type
           rdf:resource="http://purl.org/dc/dcmitype/StillImage" />
        <dc:title></dc:title>
      </cc:Work>
    </rdf:RDF>
  </metadata>
  <defs
     id="defs16" />
  <sodipodi:namedview
     pagecolor="#ffffff"
     bordercolor="#666666"
     borderopacity="1"
     objecttolerance="10"
     gridtolerance="10"
     guidetolerance="10"
     inkscape:pageopacity="0"
     inkscape:pageshadow="2"
     inkscape:window-width="1366"
     inkscape:window-height="720"
     id="namedview14"
     showgrid="false"
     inkscape:zoom="1.5945946"
     inkscape:cx="74"
     inkscape:cy="74"
     inkscape:window-x="0"
     inkscape:window-y="20"
     inkscape:window-maximized="1"
     inkscape:current-layer="svg12" />
  <rect
     width="74"
     height="74"
     fill="black"
     fill-opacity="0"
     transform="scale(2)"
     id="rect2" />
  <rect
     width="74"
     height="74"
     fill="black"
     fill-opacity="0"
     transform="scale(2)"
     id="rect4" />
  <path
     d="M107.266 74.6791C111.34 74.6791 114.055 71.9635 114.055 67.8901V6.78901C114.055 2.7156 111.34 0 107.266 0H24.4404L99.1194 74.6791H107.266Z"
     fill="white"
     fill-opacity="0.6"
     id="path6" />
  <path
     d="M141.211 27.156H127.633V88.2571H112.697L148 123.56V33.945C148 29.8716 144.606 27.156 141.211 27.156Z"
     fill="white"
     fill-opacity="0.6"
     id="path8" />
  <path
     d="M8.8257 1.35742L0 10.1831L12.2202 22.4033V101.835L39.3762 74.6787H64.4955L78.0735 88.2567H39.3762V101.835C39.3762 105.908 42.0918 108.624 46.1652 108.624H98.4405L137.817 148L146.642 139.174L8.8257 1.35742Z"
     fill="white"
     fill-opacity="0.6"
     id="path10" />
</svg>
