<svg width="91" height="90" viewBox="0 0 91 90" fill="none" xmlns="http://www.w3.org/2000/svg">
<path d="M62.5714 35.1634C63.214 34.5173 63.2111 33.4726 62.5649 32.83C61.9188 32.1874 60.8741 32.1903 60.2315 32.8365L39.5238 53.66L30.5714 44.6578C29.9288 44.0117 28.8841 44.0088 28.238 44.6514C27.5918 45.2939 27.5889 46.3387 28.2315 46.9848L39.5238 58.3399L62.5714 35.1634Z" fill="#A3E635"/>
<path fill-rule="evenodd" clip-rule="evenodd" d="M89.4014 45C89.4014 69.3005 69.7019 89 45.4014 89C21.1008 89 1.40137 69.3005 1.40137 45C1.40137 20.6995 21.1008 1 45.4014 1C69.7019 1 89.4014 20.6995 89.4014 45ZM86.1014 45C86.1014 67.478 67.8794 85.7 45.4014 85.7C22.9234 85.7 4.70137 67.478 4.70137 45C4.70137 22.522 22.9234 4.3 45.4014 4.3C67.8794 4.3 86.1014 22.522 86.1014 45Z" fill="#A3E635"/>
</svg>
