<svg width="91" height="90" viewBox="0 0 91 90" fill="none" xmlns="http://www.w3.org/2000/svg">
<path d="M33.5682 30.8334C32.9238 30.189 31.8791 30.189 31.2347 30.8334C30.5904 31.4777 30.5904 32.5225 31.2347 33.1668L43.068 45.0001L31.2347 56.8334C30.5904 57.4777 30.5904 58.5225 31.2347 59.1668C31.8791 59.8112 32.9238 59.8112 33.5682 59.1668L45.4015 47.3335L57.2347 59.1668C57.8791 59.8112 58.9238 59.8112 59.5682 59.1668C60.2126 58.5225 60.2126 57.4777 59.5682 56.8334L47.7349 45.0001L59.5682 33.1668C60.2126 32.5225 60.2126 31.4777 59.5682 30.8334C58.9238 30.189 57.8791 30.189 57.2347 30.8334L45.4015 42.6666L33.5682 30.8334Z" fill="#EF4444"/>
<path fill-rule="evenodd" clip-rule="evenodd" d="M89.4014 45C89.4014 69.3005 69.7019 89 45.4014 89C21.1008 89 1.40137 69.3005 1.40137 45C1.40137 20.6995 21.1008 1 45.4014 1C69.7019 1 89.4014 20.6995 89.4014 45ZM86.1014 45C86.1014 67.478 67.8794 85.7 45.4014 85.7C22.9234 85.7 4.70137 67.478 4.70137 45C4.70137 22.522 22.9234 4.3 45.4014 4.3C67.8794 4.3 86.1014 22.522 86.1014 45Z" fill="#EF4444"/>
</svg>
