<svg width="91" height="90" viewBox="0 0 91 90" fill="none" xmlns="http://www.w3.org/2000/svg">
<path d="M43.7972 23.7552C43.7972 22.844 44.5359 22.1052 45.4472 22.1052C46.3584 22.1052 47.0972 22.844 47.0972 23.7552V50.8604C47.0972 51.7717 46.3584 52.5104 45.4472 52.5104C44.5359 52.5104 43.7972 51.7717 43.7972 50.8604V23.7552Z" fill="#FBBF24"/>
<path d="M43.7972 61.4861C43.7972 60.5749 44.5359 59.8361 45.4472 59.8361C46.3584 59.8361 47.0972 60.5749 47.0972 61.4861V61.7552C47.0972 62.6665 46.3584 63.4052 45.4472 63.4052C44.5359 63.4052 43.7972 62.6665 43.7972 61.7552V61.4861Z" fill="#FBBF24"/>
<path fill-rule="evenodd" clip-rule="evenodd" d="M89.4004 45C89.4004 69.3005 69.7009 89 45.4004 89C21.0999 89 1.40039 69.3005 1.40039 45C1.40039 20.6995 21.0999 1 45.4004 1C69.7009 1 89.4004 20.6995 89.4004 45ZM86.1004 45C86.1004 67.478 67.8784 85.7 45.4004 85.7C22.9224 85.7 4.70039 67.478 4.70039 45C4.70039 22.522 22.9224 4.3 45.4004 4.3C67.8784 4.3 86.1004 22.522 86.1004 45Z" fill="#FBBF24"/>
</svg>
