<?xml version="1.0" encoding="UTF-8" standalone="no"?>
<svg
   xmlns:dc="http://purl.org/dc/elements/1.1/"
   xmlns:cc="http://creativecommons.org/ns#"
   xmlns:rdf="http://www.w3.org/1999/02/22-rdf-syntax-ns#"
   xmlns:svg="http://www.w3.org/2000/svg"
   xmlns="http://www.w3.org/2000/svg"
   xmlns:sodipodi="http://sodipodi.sourceforge.net/DTD/sodipodi-0.dtd"
   xmlns:inkscape="http://www.inkscape.org/namespaces/inkscape"
   version="1.1"
   x="0px"
   y="0px"
   viewBox="0 0 24 24"
   xml:space="preserve"
   id="svg22"
   sodipodi:docname="ic_nearby.svg"
   width="24"
   height="24"
   inkscape:version="0.92.3 (2405546, 2018-03-11)"><metadata
     id="metadata28"><rdf:RDF><cc:Work
         rdf:about=""><dc:format>image/svg+xml</dc:format><dc:type
           rdf:resource="http://purl.org/dc/dcmitype/StillImage" /><dc:title></dc:title></cc:Work></rdf:RDF></metadata><defs
     id="defs26" /><sodipodi:namedview
     pagecolor="#ffffff"
     bordercolor="#666666"
     borderopacity="1"
     objecttolerance="10"
     gridtolerance="10"
     guidetolerance="10"
     inkscape:pageopacity="0"
     inkscape:pageshadow="2"
     inkscape:window-width="1920"
     inkscape:window-height="1020"
     id="namedview24"
     showgrid="false"
     inkscape:zoom="11.125147"
     inkscape:cx="-4.1072694"
     inkscape:cy="21.111303"
     inkscape:window-x="1440"
     inkscape:window-y="24"
     inkscape:window-maximized="0"
     inkscape:current-layer="svg22" /><path
     d="M 12,0 C 5.373,0 0,5.373 0,12 c 0,6.627 5.373,12 12,12 2.235,0 4.320281,-0.6235 6.113281,-1.6875 -0.266,-0.217 -0.492875,-0.472625 -0.671875,-0.765625 C 15.835406,22.466875 13.98,23 12,23 5.935,23 1,18.065 1,12 1,5.935 5.935,1 12,1 c 6.064,0 11,4.935 11,11 0,1.981 -0.533125,3.834406 -1.453125,5.441406 0.293,0.178 0.548625,0.405922 0.765625,0.669922 C 23.3765,16.320328 24,14.235 24,12 24,5.373 18.627,0 12,0 Z m 3,4 a 2,2 0 0 0 -2,2 2,2 0 0 0 2,2 2,2 0 0 0 2,-2 2,2 0 0 0 -2,-2 z m -3,1 c -3.866,0 -7,3.134 -7,7 0,0.061 0.00777,0.120641 0.00977,0.181641 C 5.3197656,12.070641 5.65,12 6,12 6,8.691 8.691,6 12,6 12,5.651 12.070641,5.3217656 12.181641,5.0097656 12.120641,5.0087656 12.061,5 12,5 Z m 5.492188,2.6679688 c -0.190001,0.283 -0.435032,0.5245156 -0.707032,0.7285156 C 17.544156,9.4014844 18,10.648 18,12 c 0,3.309 -2.691,6 -6,6 -1.354,0 -2.5985156,-0.456844 -3.6035156,-1.214844 -0.204,0.272 -0.4455157,0.517032 -0.7285156,0.707032 C 8.8589687,18.434187 10.362,19 12,19 c 3.866,0 7,-3.134 7,-7 0,-1.638 -0.565812,-3.1400312 -1.507812,-4.3320312 z M 12,10 a 2,2 0 0 0 -2,2 2,2 0 0 0 2,2 2,2 0 0 0 2,-2 2,2 0 0 0 -2,-2 z m -6,3 a 2,2 0 0 0 -2,2 2,2 0 0 0 2,2 2,2 0 0 0 2,-2 2,2 0 0 0 -2,-2 z m 14,5 a 2,2 0 0 0 -2,2 2,2 0 0 0 2,2 2,2 0 0 0 2,-2 2,2 0 0 0 -2,-2 z"
     id="path2"
     inkscape:connector-curvature="0" /></svg>