<svg width="193" height="192" viewBox="0 0 193 192" fill="none" xmlns="http://www.w3.org/2000/svg">
<path d="M41.8016 13.7002H95.8016C102.002 13.7002 107.002 18.7002 107.002 24.9002V145.9C107.002 152.1 102.002 157.1 95.8016 157.1H41.8016C35.6016 157.1 30.6016 152.1 30.6016 145.9V25.0002C30.6016 18.7002 35.6016 13.7002 41.8016 13.7002Z" fill="#1E293B"/>
<path d="M100.101 40.5999C100.101 36.5999 96.9012 33.3999 92.9012 33.3999H44.9012C40.9012 33.3999 37.7012 36.5999 37.7012 40.5999V136.6C37.7012 140.6 40.9012 143.8 44.9012 143.8H92.9012C96.9012 143.8 100.101 140.6 100.101 136.6V40.5999Z" fill="#0B1120"/>
<path d="M95.8013 13H41.8013C35.2013 13 29.8013 18.4 29.8013 25V146C29.8013 152.6 35.2013 158 41.8013 158H95.8013C102.401 158 107.801 152.6 107.801 146V25C107.801 18.3 102.501 13 95.8013 13ZM106.301 146C106.301 151.8 101.601 156.5 95.8013 156.5H41.8013C36.0013 156.5 31.3013 151.8 31.3013 146V25C31.3013 19.2 36.0013 14.5 41.8013 14.5H95.8013C101.601 14.5 106.301 19.2 106.301 25V146Z" fill="#52ADF9"/>
<path d="M68.8013 26.8999C70.5013 26.8999 71.8013 25.5999 71.8013 23.8999C71.8013 22.1999 70.5013 20.8999 68.8013 20.8999C67.1013 20.8999 65.8013 22.1999 65.8013 23.8999C65.8013 25.5999 67.2013 26.8999 68.8013 26.8999ZM68.8013 22.3999C69.6013 22.3999 70.3013 23.0999 70.3013 23.8999C70.3013 24.6999 69.6013 25.3999 68.8013 25.3999C68.0013 25.3999 67.3013 24.6999 67.3013 23.8999C67.3013 23.0999 68.0013 22.3999 68.8013 22.3999Z" fill="#52ADF9"/>
<path d="M50.8015 24.3998H60.8015C61.2015 24.3998 61.6015 24.0998 61.6015 23.5998C61.6015 23.0998 61.3015 22.7998 60.8015 22.7998H50.8015C50.4015 22.7998 50.0015 23.0998 50.0015 23.5998C50.0015 24.0998 50.4015 24.3998 50.8015 24.3998Z" fill="#52ADF9"/>
<path d="M76.8015 24.3998H86.8015C87.2015 24.3998 87.6015 24.0998 87.6015 23.5998C87.6015 23.0998 87.3015 22.7998 86.8015 22.7998H76.8015C76.4015 22.7998 76.0015 23.0998 76.0015 23.5998C76.0015 24.0998 76.4015 24.3998 76.8015 24.3998Z" fill="#52ADF9"/>
<path d="M92.8013 32.6001H44.8013C40.4013 32.6001 36.8013 36.2001 36.8013 40.6001V136.6C36.8013 141 40.4013 144.6 44.8013 144.6H92.8013C97.2013 144.6 100.801 141 100.801 136.6V40.6001C100.801 36.2001 97.2013 32.6001 92.8013 32.6001ZM99.3013 136.6C99.3013 140.2 96.4013 143.1 92.8013 143.1H44.8013C41.2013 143.1 38.3013 140.2 38.3013 136.6V40.6001C38.3013 37.0001 41.2013 34.1001 44.8013 34.1001H92.8013C96.4013 34.1001 99.3013 37.0001 99.3013 40.6001V136.6Z" fill="#52ADF9"/>
<path d="M90.8016 45.8002H61.4016C61.0016 45.8002 60.6016 45.5002 60.6016 45.0002C60.6016 44.5002 60.9016 44.2002 61.4016 44.2002H90.9016C91.3016 44.2002 91.7016 44.5002 91.7016 45.0002C91.7016 45.5002 91.2016 45.8002 90.8016 45.8002Z" fill="#184080"/>
<path d="M77.2016 51.7001H61.4016C61.0016 51.7001 60.6016 51.4001 60.6016 50.9001C60.6016 50.4001 60.9016 50.1001 61.4016 50.1001H77.2016C77.6016 50.1001 78.0016 50.4001 78.0016 50.9001C78.0016 51.4001 77.6016 51.7001 77.2016 51.7001Z" fill="#184080"/>
<path d="M90.8016 87.8002H61.4016C61.0016 87.8002 60.6016 87.5002 60.6016 87.0002C60.6016 86.5002 60.9016 86.2002 61.4016 86.2002H90.9016C91.3016 86.2002 91.7016 86.5002 91.7016 87.0002C91.7016 87.5002 91.2016 87.8002 90.8016 87.8002Z" fill="#184080"/>
<path d="M77.2016 93.7001H61.4016C61.0016 93.7001 60.6016 93.4001 60.6016 92.9001C60.6016 92.4001 60.9016 92.1001 61.4016 92.1001H77.2016C77.6016 92.1001 78.0016 92.4001 78.0016 92.9001C78.0016 93.4001 77.6016 93.7001 77.2016 93.7001Z" fill="#184080"/>
<path d="M90.8016 66.8002H61.4016C61.0016 66.8002 60.6016 66.5002 60.6016 66.0002C60.6016 65.5002 60.9016 65.2002 61.4016 65.2002H90.9016C91.3016 65.2002 91.7016 65.5002 91.7016 66.0002C91.7016 66.5002 91.2016 66.8002 90.8016 66.8002Z" fill="#184080"/>
<path d="M77.2016 72.7001H61.4016C61.0016 72.7001 60.6016 72.4001 60.6016 71.9001C60.6016 71.4001 60.9016 71.1001 61.4016 71.1001H77.2016C77.6016 71.1001 78.0016 71.4001 78.0016 71.9001C78.0016 72.4001 77.6016 72.7001 77.2016 72.7001Z" fill="#184080"/>
<path d="M90.8016 129.8H61.4016C61.0016 129.8 60.6016 129.5 60.6016 129C60.6016 128.5 60.9016 128.2 61.4016 128.2H90.9016C91.3016 128.2 91.7016 128.5 91.7016 129C91.7016 129.5 91.2016 129.8 90.8016 129.8Z" fill="#184080"/>
<path d="M77.2016 135.7H61.4016C61.0016 135.7 60.6016 135.4 60.6016 134.9C60.6016 134.4 60.9016 134.1 61.4016 134.1H77.2016C77.6016 134.1 78.0016 134.4 78.0016 134.9C78.0016 135.4 77.6016 135.7 77.2016 135.7Z" fill="#184080"/>
<path d="M90.8016 108.8H61.4016C61.0016 108.8 60.6016 108.5 60.6016 108C60.6016 107.5 60.9016 107.2 61.4016 107.2H90.9016C91.3016 107.2 91.7016 107.5 91.7016 108C91.7016 108.5 91.2016 108.8 90.8016 108.8Z" fill="#184080"/>
<path d="M77.2016 114.7H61.4016C61.0016 114.7 60.6016 114.4 60.6016 113.9C60.6016 113.4 60.9016 113.1 61.4016 113.1H77.2016C77.6016 113.1 78.0016 113.4 78.0016 113.9C78.0016 114.4 77.6016 114.7 77.2016 114.7Z" fill="#184080"/>
<path d="M96.8016 34.7998H150.802C157.002 34.7998 162.002 39.7998 162.002 45.9998V167C162.002 173.2 157.002 178.2 150.802 178.2H96.8016C90.6016 178.2 85.6016 173.2 85.6016 167V45.9998C85.6016 39.7998 90.6016 34.7998 96.8016 34.7998Z" fill="#1E293B"/>
<path d="M155.101 61.5999C155.101 57.5999 151.901 54.3999 147.901 54.3999H99.9012C95.9012 54.3999 92.7012 57.5999 92.7012 61.5999V157.6C92.7012 161.6 95.9012 164.8 99.9012 164.8H147.901C151.901 164.8 155.101 161.6 155.101 157.6V61.5999Z" fill="#0B1120"/>
<path d="M150.801 34H96.8013C90.2013 34 84.8013 39.4 84.8013 46V167C84.8013 173.6 90.2013 179 96.8013 179H150.801C157.401 179 162.801 173.6 162.801 167V46C162.801 39.4 157.501 34 150.801 34ZM161.301 167C161.301 172.8 156.601 177.5 150.801 177.5H96.8013C91.0013 177.5 86.3013 172.8 86.3013 167V46C86.3013 40.2 91.0013 35.5 96.8013 35.5H150.801C156.601 35.5 161.301 40.2 161.301 46V167Z" fill="#A3E635"/>
<path d="M123.801 47.8999C125.501 47.8999 126.801 46.5999 126.801 44.8999C126.801 43.1999 125.501 41.8999 123.801 41.8999C122.101 41.8999 120.801 43.1999 120.801 44.8999C120.801 46.5999 122.201 47.8999 123.801 47.8999ZM123.801 43.3999C124.601 43.3999 125.301 44.0999 125.301 44.8999C125.301 45.6999 124.601 46.3999 123.801 46.3999C123.001 46.3999 122.301 45.6999 122.301 44.8999C122.301 44.0999 123.001 43.3999 123.801 43.3999Z" fill="#A3E635"/>
<path d="M105.801 45.3998H115.801C116.201 45.3998 116.601 45.0998 116.601 44.5998C116.601 44.0998 116.301 43.7998 115.801 43.7998H105.801C105.401 43.7998 105.001 44.0998 105.001 44.5998C105.001 45.0998 105.401 45.3998 105.801 45.3998Z" fill="#A3E635"/>
<path d="M131.801 45.3998H141.801C142.201 45.3998 142.601 45.0998 142.601 44.5998C142.601 44.0998 142.301 43.7998 141.801 43.7998H131.801C131.401 43.7998 131.001 44.0998 131.001 44.5998C131.001 45.0998 131.401 45.3998 131.801 45.3998Z" fill="#A3E635"/>
<path d="M147.801 53.6001H99.8013C95.4013 53.6001 91.8013 57.2001 91.8013 61.6001V157.6C91.8013 162 95.4013 165.6 99.8013 165.6H147.801C152.201 165.6 155.801 162 155.801 157.6V61.6001C155.801 57.2001 152.201 53.6001 147.801 53.6001ZM154.301 157.6C154.301 161.2 151.401 164.1 147.801 164.1H99.8013C96.2013 164.1 93.3013 161.2 93.3013 157.6V61.6001C93.3013 58.0001 96.2013 55.1001 99.8013 55.1001H147.801C151.401 55.1001 154.301 58.0001 154.301 61.6001V157.6Z" fill="#A3E635"/>
<path d="M49.8014 54C53.0598 54 55.7014 51.3137 55.7014 48C55.7014 44.6863 53.0598 42 49.8014 42C46.5429 42 43.9014 44.6863 43.9014 48C43.9014 51.3137 46.5429 54 49.8014 54Z" fill="#1E293B"/>
<path d="M49.8014 96C53.0598 96 55.7014 93.3137 55.7014 90C55.7014 86.6863 53.0598 84 49.8014 84C46.5429 84 43.9014 86.6863 43.9014 90C43.9014 93.3137 46.5429 96 49.8014 96Z" fill="#1E293B"/>
<path d="M49.8014 75C53.0598 75 55.7014 72.3137 55.7014 69C55.7014 65.6863 53.0598 63 49.8014 63C46.5429 63 43.9014 65.6863 43.9014 69C43.9014 72.3137 46.5429 75 49.8014 75Z" fill="#1E293B"/>
<path d="M49.8014 138C53.0598 138 55.7014 135.314 55.7014 132C55.7014 128.686 53.0598 126 49.8014 126C46.5429 126 43.9014 128.686 43.9014 132C43.9014 135.314 46.5429 138 49.8014 138Z" fill="#1E293B"/>
<path d="M49.8014 117C53.0598 117 55.7014 114.314 55.7014 111C55.7014 107.686 53.0598 105 49.8014 105C46.5429 105 43.9014 107.686 43.9014 111C43.9014 114.314 46.5429 117 49.8014 117Z" fill="#1E293B"/>
<path d="M104.801 75C108.06 75 110.701 72.3137 110.701 69C110.701 65.6863 108.06 63 104.801 63C101.543 63 98.9014 65.6863 98.9014 69C98.9014 72.3137 101.543 75 104.801 75Z" fill="#1E293B"/>
<path d="M104.801 159C108.06 159 110.701 156.314 110.701 153C110.701 149.686 108.06 147 104.801 147C101.543 147 98.9014 149.686 98.9014 153C98.9014 156.314 101.543 159 104.801 159Z" fill="#1E293B"/>
<path d="M104.801 138C108.06 138 110.701 135.314 110.701 132C110.701 128.686 108.06 126 104.801 126C101.543 126 98.9014 128.686 98.9014 132C98.9014 135.314 101.543 138 104.801 138Z" fill="#1E293B"/>
<path d="M116.402 66.8002H145.902C146.302 66.8002 146.702 66.5002 146.702 66.0002C146.702 65.5002 146.402 65.2002 145.902 65.2002H116.402C116.002 65.2002 115.602 65.5002 115.602 66.0002C115.602 66.5002 116.002 66.8002 116.402 66.8002Z" fill="#365314"/>
<path d="M116.402 72.7001H132.202C132.602 72.7001 133.002 72.4001 133.002 71.9001C133.002 71.4001 132.702 71.1001 132.202 71.1001H116.402C116.002 71.1001 115.602 71.4001 115.602 71.9001C115.602 72.4001 116.002 72.7001 116.402 72.7001Z" fill="#365314"/>
<path d="M145.802 149.3H116.402C116.002 149.3 115.602 149.6 115.602 150.1C115.602 150.6 115.902 150.9 116.402 150.9H145.902C146.302 150.9 146.702 150.6 146.702 150.1C146.702 149.6 146.202 149.3 145.802 149.3Z" fill="#365314"/>
<path d="M132.202 155.2H116.402C116.002 155.2 115.602 155.5 115.602 156C115.602 156.5 115.902 156.8 116.402 156.8H132.202C132.602 156.8 133.002 156.5 133.002 156C133.002 155.5 132.602 155.2 132.202 155.2Z" fill="#365314"/>
<path d="M145.802 128.3H116.402C116.002 128.3 115.602 128.6 115.602 129.1C115.602 129.6 115.902 129.9 116.402 129.9H145.902C146.302 129.9 146.702 129.6 146.702 129.1C146.702 128.6 146.202 128.3 145.802 128.3Z" fill="#365314"/>
<path d="M116.402 135.7H132.202C132.602 135.7 133.002 135.4 133.002 134.9C133.002 134.4 132.702 134.1 132.202 134.1H116.402C116.002 134.1 115.602 134.4 115.602 134.9C115.602 135.4 116.002 135.7 116.402 135.7Z" fill="#365314"/>
<path d="M74.8013 83H172.801C175.001 83 176.801 84.8 176.801 87V114C176.801 116.2 175.001 118 172.801 118H74.8013C72.6013 118 70.8013 116.2 70.8013 114V87C70.8013 84.8 72.6013 83 74.8013 83Z" fill="#1649A0"/>
<path d="M164.801 95.2998H112.801C112.401 95.2998 112.001 95.5998 112.001 96.0998C112.001 96.5998 112.301 96.8998 112.801 96.8998H164.801C165.201 96.8998 165.601 96.5998 165.601 96.0998C165.601 95.5998 165.201 95.2998 164.801 95.2998Z" fill="#52ADF9"/>
<path d="M140.801 104.1H112.801C112.401 104.1 112.001 104.4 112.001 104.9C112.001 105.4 112.301 105.7 112.801 105.7H140.801C141.201 105.7 141.601 105.4 141.601 104.9C141.601 104.4 141.201 104.1 140.801 104.1Z" fill="#52ADF9"/>
<path d="M92.3015 102.2H90.8015C86.0015 102.2 82.0015 106.1 82.0015 111V111.1C82.0015 111.5 82.3015 111.8 82.8015 111.8C83.3015 111.8 83.6015 111.4 83.6015 111C83.6015 107 86.9015 103.8 90.8015 103.8H92.3015C96.3015 103.8 99.5015 107.1 99.5015 111.1C99.5015 111.5 99.8015 111.8 100.301 111.8C100.801 111.8 101.101 111.4 101.101 111C101.001 106.1 97.1015 102.2 92.3015 102.2Z" fill="#E2E8F0"/>
<path d="M91.6012 99.5002C94.3012 99.5002 96.5012 97.3002 96.5012 94.6002C96.5012 91.9002 94.3012 89.7002 91.6012 89.7002C88.9012 89.7002 86.7012 91.9002 86.7012 94.6002C86.7012 97.4002 88.9012 99.5002 91.6012 99.5002ZM91.6012 91.3002C93.5012 91.3002 95.0012 92.8002 95.0012 94.7002C95.0012 96.6002 93.4012 98.0002 91.6012 98.0002C89.8012 98.0002 88.2012 96.5002 88.2012 94.6002C88.2012 92.7002 89.7012 91.3002 91.6012 91.3002Z" fill="#E2E8F0"/>
</svg>
