<svg width="193" height="192" viewBox="0 0 193 192" fill="none" xmlns="http://www.w3.org/2000/svg">
<path d="M41.3016 13.7002H95.3016C101.502 13.7002 106.502 18.7002 106.502 24.9002V145.9C106.502 152.1 101.502 157.1 95.3016 157.1H41.3016C35.1016 157.1 30.1016 152.1 30.1016 145.9V25.0002C30.1016 18.7002 35.1016 13.7002 41.3016 13.7002Z" fill="#DDEDFE"/>
<path d="M99.6012 40.5999C99.6012 36.5999 96.4012 33.3999 92.4012 33.3999H44.4012C40.4012 33.3999 37.2012 36.5999 37.2012 40.5999V136.6C37.2012 140.6 40.4012 143.8 44.4012 143.8H92.4012C96.4012 143.8 99.6012 140.6 99.6012 136.6V40.5999Z" fill="#F9FAFB"/>
<path d="M95.3013 13H41.3013C34.7013 13 29.3013 18.4 29.3013 25V146C29.3013 152.6 34.7013 158 41.3013 158H95.3013C101.901 158 107.301 152.6 107.301 146V25C107.301 18.3 102.001 13 95.3013 13ZM105.801 146C105.801 151.8 101.101 156.5 95.3013 156.5H41.3013C35.5013 156.5 30.8013 151.8 30.8013 146V25C30.8013 19.2 35.5013 14.5 41.3013 14.5H95.3013C101.101 14.5 105.801 19.2 105.801 25V146Z" fill="#196FDE"/>
<path d="M68.3013 26.8999C70.0013 26.8999 71.3013 25.5999 71.3013 23.8999C71.3013 22.1999 70.0013 20.8999 68.3013 20.8999C66.6013 20.8999 65.3013 22.1999 65.3013 23.8999C65.3013 25.5999 66.7013 26.8999 68.3013 26.8999ZM68.3013 22.3999C69.1013 22.3999 69.8013 23.0999 69.8013 23.8999C69.8013 24.6999 69.1013 25.3999 68.3013 25.3999C67.5013 25.3999 66.8013 24.6999 66.8013 23.8999C66.8013 23.0999 67.5013 22.3999 68.3013 22.3999Z" fill="#196FDE"/>
<path d="M50.3015 24.3998H60.3015C60.7015 24.3998 61.1015 24.0998 61.1015 23.5998C61.1015 23.0998 60.8015 22.7998 60.3015 22.7998H50.3015C49.9015 22.7998 49.5015 23.0998 49.5015 23.5998C49.5015 24.0998 49.9015 24.3998 50.3015 24.3998Z" fill="#196FDE"/>
<path d="M76.3015 24.3998H86.3015C86.7015 24.3998 87.1015 24.0998 87.1015 23.5998C87.1015 23.0998 86.8015 22.7998 86.3015 22.7998H76.3015C75.9015 22.7998 75.5015 23.0998 75.5015 23.5998C75.5015 24.0998 75.9015 24.3998 76.3015 24.3998Z" fill="#196FDE"/>
<path d="M92.3013 32.6001H44.3013C39.9013 32.6001 36.3013 36.2001 36.3013 40.6001V136.6C36.3013 141 39.9013 144.6 44.3013 144.6H92.3013C96.7013 144.6 100.301 141 100.301 136.6V40.6001C100.301 36.2001 96.7013 32.6001 92.3013 32.6001ZM98.8013 136.6C98.8013 140.2 95.9013 143.1 92.3013 143.1H44.3013C40.7013 143.1 37.8013 140.2 37.8013 136.6V40.6001C37.8013 37.0001 40.7013 34.1001 44.3013 34.1001H92.3013C95.9013 34.1001 98.8013 37.0001 98.8013 40.6001V136.6Z" fill="#196FDE"/>
<path d="M90.3016 45.8002H60.9016C60.5016 45.8002 60.1016 45.5002 60.1016 45.0002C60.1016 44.5002 60.4016 44.2002 60.9016 44.2002H90.4016C90.8016 44.2002 91.2016 44.5002 91.2016 45.0002C91.2016 45.5002 90.7016 45.8002 90.3016 45.8002Z" fill="#BDDFFE"/>
<path d="M76.7016 51.7001H60.9016C60.5016 51.7001 60.1016 51.4001 60.1016 50.9001C60.1016 50.4001 60.4016 50.1001 60.9016 50.1001H76.7016C77.1016 50.1001 77.5016 50.4001 77.5016 50.9001C77.5016 51.4001 77.1016 51.7001 76.7016 51.7001Z" fill="#BDDFFE"/>
<path d="M90.3016 87.8002H60.9016C60.5016 87.8002 60.1016 87.5002 60.1016 87.0002C60.1016 86.5002 60.4016 86.2002 60.9016 86.2002H90.4016C90.8016 86.2002 91.2016 86.5002 91.2016 87.0002C91.2016 87.5002 90.7016 87.8002 90.3016 87.8002Z" fill="#BDDFFE"/>
<path d="M76.7016 93.7001H60.9016C60.5016 93.7001 60.1016 93.4001 60.1016 92.9001C60.1016 92.4001 60.4016 92.1001 60.9016 92.1001H76.7016C77.1016 92.1001 77.5016 92.4001 77.5016 92.9001C77.5016 93.4001 77.1016 93.7001 76.7016 93.7001Z" fill="#BDDFFE"/>
<path d="M90.3016 66.8002H60.9016C60.5016 66.8002 60.1016 66.5002 60.1016 66.0002C60.1016 65.5002 60.4016 65.2002 60.9016 65.2002H90.4016C90.8016 65.2002 91.2016 65.5002 91.2016 66.0002C91.2016 66.5002 90.7016 66.8002 90.3016 66.8002Z" fill="#BDDFFE"/>
<path d="M76.7016 72.7001H60.9016C60.5016 72.7001 60.1016 72.4001 60.1016 71.9001C60.1016 71.4001 60.4016 71.1001 60.9016 71.1001H76.7016C77.1016 71.1001 77.5016 71.4001 77.5016 71.9001C77.5016 72.4001 77.1016 72.7001 76.7016 72.7001Z" fill="#BDDFFE"/>
<path d="M90.3016 129.8H60.9016C60.5016 129.8 60.1016 129.5 60.1016 129C60.1016 128.5 60.4016 128.2 60.9016 128.2H90.4016C90.8016 128.2 91.2016 128.5 91.2016 129C91.2016 129.5 90.7016 129.8 90.3016 129.8Z" fill="#BDDFFE"/>
<path d="M76.7016 135.7H60.9016C60.5016 135.7 60.1016 135.4 60.1016 134.9C60.1016 134.4 60.4016 134.1 60.9016 134.1H76.7016C77.1016 134.1 77.5016 134.4 77.5016 134.9C77.5016 135.4 77.1016 135.7 76.7016 135.7Z" fill="#BDDFFE"/>
<path d="M90.3016 108.8H60.9016C60.5016 108.8 60.1016 108.5 60.1016 108C60.1016 107.5 60.4016 107.2 60.9016 107.2H90.4016C90.8016 107.2 91.2016 107.5 91.2016 108C91.2016 108.5 90.7016 108.8 90.3016 108.8Z" fill="#BDDFFE"/>
<path d="M76.7016 114.7H60.9016C60.5016 114.7 60.1016 114.4 60.1016 113.9C60.1016 113.4 60.4016 113.1 60.9016 113.1H76.7016C77.1016 113.1 77.5016 113.4 77.5016 113.9C77.5016 114.4 77.1016 114.7 76.7016 114.7Z" fill="#BDDFFE"/>
<path d="M96.3016 34.7998H150.302C156.502 34.7998 161.502 39.7998 161.502 45.9998V167C161.502 173.2 156.502 178.2 150.302 178.2H96.3016C90.1016 178.2 85.1016 173.2 85.1016 167V45.9998C85.1016 39.7998 90.1016 34.7998 96.3016 34.7998Z" fill="#ECFCCB"/>
<path d="M154.601 61.5999C154.601 57.5999 151.401 54.3999 147.401 54.3999H99.4012C95.4012 54.3999 92.2012 57.5999 92.2012 61.5999V157.6C92.2012 161.6 95.4012 164.8 99.4012 164.8H147.401C151.401 164.8 154.601 161.6 154.601 157.6V61.5999Z" fill="#F9FAFB"/>
<path d="M150.301 34H96.3013C89.7013 34 84.3013 39.4 84.3013 46V167C84.3013 173.6 89.7013 179 96.3013 179H150.301C156.901 179 162.301 173.6 162.301 167V46C162.301 39.4 157.001 34 150.301 34ZM160.801 167C160.801 172.8 156.101 177.5 150.301 177.5H96.3013C90.5013 177.5 85.8013 172.8 85.8013 167V46C85.8013 40.2 90.5013 35.5 96.3013 35.5H150.301C156.101 35.5 160.801 40.2 160.801 46V167Z" fill="#65A30D"/>
<path d="M123.301 47.8999C125.001 47.8999 126.301 46.5999 126.301 44.8999C126.301 43.1999 125.001 41.8999 123.301 41.8999C121.601 41.8999 120.301 43.1999 120.301 44.8999C120.301 46.5999 121.701 47.8999 123.301 47.8999ZM123.301 43.3999C124.101 43.3999 124.801 44.0999 124.801 44.8999C124.801 45.6999 124.101 46.3999 123.301 46.3999C122.501 46.3999 121.801 45.6999 121.801 44.8999C121.801 44.0999 122.501 43.3999 123.301 43.3999Z" fill="#65A30D"/>
<path d="M105.301 45.3998H115.301C115.701 45.3998 116.101 45.0998 116.101 44.5998C116.101 44.0998 115.801 43.7998 115.301 43.7998H105.301C104.901 43.7998 104.501 44.0998 104.501 44.5998C104.501 45.0998 104.901 45.3998 105.301 45.3998Z" fill="#65A30D"/>
<path d="M131.301 45.3998H141.301C141.701 45.3998 142.101 45.0998 142.101 44.5998C142.101 44.0998 141.801 43.7998 141.301 43.7998H131.301C130.901 43.7998 130.501 44.0998 130.501 44.5998C130.501 45.0998 130.901 45.3998 131.301 45.3998Z" fill="#65A30D"/>
<path d="M147.301 53.6001H99.3013C94.9013 53.6001 91.3013 57.2001 91.3013 61.6001V157.6C91.3013 162 94.9013 165.6 99.3013 165.6H147.301C151.701 165.6 155.301 162 155.301 157.6V61.6001C155.301 57.2001 151.701 53.6001 147.301 53.6001ZM153.801 157.6C153.801 161.2 150.901 164.1 147.301 164.1H99.3013C95.7013 164.1 92.8013 161.2 92.8013 157.6V61.6001C92.8013 58.0001 95.7013 55.1001 99.3013 55.1001H147.301C150.901 55.1001 153.801 58.0001 153.801 61.6001V157.6Z" fill="#65A30D"/>
<path d="M49.3014 54C52.5598 54 55.2014 51.3137 55.2014 48C55.2014 44.6863 52.5598 42 49.3014 42C46.0429 42 43.4014 44.6863 43.4014 48C43.4014 51.3137 46.0429 54 49.3014 54Z" fill="#E5E7EB"/>
<path d="M49.3014 96C52.5598 96 55.2014 93.3137 55.2014 90C55.2014 86.6863 52.5598 84 49.3014 84C46.0429 84 43.4014 86.6863 43.4014 90C43.4014 93.3137 46.0429 96 49.3014 96Z" fill="#E5E7EB"/>
<path d="M49.3014 75C52.5598 75 55.2014 72.3137 55.2014 69C55.2014 65.6863 52.5598 63 49.3014 63C46.0429 63 43.4014 65.6863 43.4014 69C43.4014 72.3137 46.0429 75 49.3014 75Z" fill="#E5E7EB"/>
<path d="M49.3014 138C52.5598 138 55.2014 135.314 55.2014 132C55.2014 128.686 52.5598 126 49.3014 126C46.0429 126 43.4014 128.686 43.4014 132C43.4014 135.314 46.0429 138 49.3014 138Z" fill="#E5E7EB"/>
<path d="M49.3014 117C52.5598 117 55.2014 114.314 55.2014 111C55.2014 107.686 52.5598 105 49.3014 105C46.0429 105 43.4014 107.686 43.4014 111C43.4014 114.314 46.0429 117 49.3014 117Z" fill="#E5E7EB"/>
<path d="M104.301 75C107.56 75 110.201 72.3137 110.201 69C110.201 65.6863 107.56 63 104.301 63C101.043 63 98.4014 65.6863 98.4014 69C98.4014 72.3137 101.043 75 104.301 75Z" fill="#E5E7EB"/>
<path d="M104.301 159C107.56 159 110.201 156.314 110.201 153C110.201 149.686 107.56 147 104.301 147C101.043 147 98.4014 149.686 98.4014 153C98.4014 156.314 101.043 159 104.301 159Z" fill="#E5E7EB"/>
<path d="M104.301 138C107.56 138 110.201 135.314 110.201 132C110.201 128.686 107.56 126 104.301 126C101.043 126 98.4014 128.686 98.4014 132C98.4014 135.314 101.043 138 104.301 138Z" fill="#E5E7EB"/>
<path d="M115.902 66.8002H145.402C145.802 66.8002 146.202 66.5002 146.202 66.0002C146.202 65.5002 145.902 65.2002 145.402 65.2002H115.902C115.502 65.2002 115.102 65.5002 115.102 66.0002C115.102 66.5002 115.502 66.8002 115.902 66.8002Z" fill="#D9F99D"/>
<path d="M115.902 72.7001H131.702C132.102 72.7001 132.502 72.4001 132.502 71.9001C132.502 71.4001 132.202 71.1001 131.702 71.1001H115.902C115.502 71.1001 115.102 71.4001 115.102 71.9001C115.102 72.4001 115.502 72.7001 115.902 72.7001Z" fill="#D9F99D"/>
<path d="M145.301 149.3H115.801C115.401 149.3 115.001 149.6 115.001 150.1C115.001 150.6 115.301 150.9 115.801 150.9H145.301C145.701 150.9 146.101 150.6 146.101 150.1C146.101 149.6 145.701 149.3 145.301 149.3Z" fill="#D9F99D"/>
<path d="M131.702 155.2H115.902C115.502 155.2 115.102 155.5 115.102 156C115.102 156.5 115.402 156.8 115.902 156.8H131.702C132.102 156.8 132.502 156.5 132.502 156C132.502 155.5 132.102 155.2 131.702 155.2Z" fill="#D9F99D"/>
<path d="M145.301 128.3H115.801C115.401 128.3 115.001 128.6 115.001 129.1C115.001 129.6 115.301 129.9 115.801 129.9H145.301C145.701 129.9 146.101 129.6 146.101 129.1C146.101 128.6 145.701 128.3 145.301 128.3Z" fill="#D9F99D"/>
<path d="M115.902 135.7H131.702C132.102 135.7 132.502 135.4 132.502 134.9C132.502 134.4 132.202 134.1 131.702 134.1H115.902C115.502 134.1 115.102 134.4 115.102 134.9C115.102 135.4 115.502 135.7 115.902 135.7Z" fill="#D9F99D"/>
<path d="M74.3013 83H172.301C174.501 83 176.301 84.8 176.301 87V114C176.301 116.2 174.501 118 172.301 118H74.3013C72.1013 118 70.3013 116.2 70.3013 114V87C70.3013 84.8 72.1013 83 74.3013 83Z" fill="#52ADF9"/>
<path d="M164.301 95.2998H112.301C111.901 95.2998 111.501 95.5998 111.501 96.0998C111.501 96.5998 111.801 96.8998 112.301 96.8998H164.301C164.701 96.8998 165.101 96.5998 165.101 96.0998C165.101 95.5998 164.701 95.2998 164.301 95.2998Z" fill="#F9FAFB"/>
<path d="M140.301 104.1H112.301C111.901 104.1 111.501 104.4 111.501 104.9C111.501 105.4 111.801 105.7 112.301 105.7H140.301C140.701 105.7 141.101 105.4 141.101 104.9C141.101 104.4 140.701 104.1 140.301 104.1Z" fill="#F9FAFB"/>
<path d="M91.8015 102.2H90.3015C85.5015 102.2 81.5015 106.1 81.5015 111V111.1C81.5015 111.5 81.8015 111.8 82.3015 111.8C82.8015 111.8 83.1015 111.4 83.1015 111C83.1015 107 86.4015 103.8 90.3015 103.8H91.8015C95.8015 103.8 99.0015 107.1 99.0015 111.1C99.0015 111.5 99.3015 111.8 99.8015 111.8C100.301 111.8 100.601 111.4 100.601 111C100.501 106.1 96.6015 102.2 91.8015 102.2Z" fill="#F9FAFB"/>
<path d="M91.1012 99.5002C93.8012 99.5002 96.0012 97.3002 96.0012 94.6002C96.0012 91.9002 93.8012 89.7002 91.1012 89.7002C88.4012 89.7002 86.2012 91.9002 86.2012 94.6002C86.2012 97.4002 88.4012 99.5002 91.1012 99.5002ZM91.1012 91.3002C93.0012 91.3002 94.5012 92.8002 94.5012 94.7002C94.5012 96.6002 92.9012 98.0002 91.1012 98.0002C89.3012 98.0002 87.7012 96.5002 87.7012 94.6002C87.7012 92.7002 89.2012 91.3002 91.1012 91.3002Z" fill="#F9FAFB"/>
</svg>
