<svg width="289" height="145" viewBox="0 0 289 145" fill="none" xmlns="http://www.w3.org/2000/svg">
<path d="M48.3203 41C48.3203 36.5817 44.7386 33 40.3203 33H14.3203C9.90203 33 6.32031 36.5817 6.32031 41V103C6.32031 107.418 9.90203 111 14.3203 111H40.3203C44.7386 111 48.3203 107.418 48.3203 103V41Z" fill="#ECFCCB"/>
<path fill-rule="evenodd" clip-rule="evenodd" d="M14.3203 34.5H40.3203C43.9102 34.5 46.8203 37.4101 46.8203 41V103C46.8203 106.59 43.9102 109.5 40.3203 109.5H14.3203C10.7305 109.5 7.82031 106.59 7.82031 103V41C7.82031 37.4101 10.7305 34.5 14.3203 34.5ZM40.3203 33C44.7386 33 48.3203 36.5817 48.3203 41V103C48.3203 107.418 44.7386 111 40.3203 111H14.3203C9.90203 111 6.32031 107.418 6.32031 103V41C6.32031 36.5817 9.90203 33 14.3203 33H40.3203Z" fill="#65A30D"/>
<path d="M48.3203 47.248H6.32049V101.248H48.3203V47.248Z" fill="#F9FAFB"/>
<path fill-rule="evenodd" clip-rule="evenodd" d="M7.82049 48.748H46.8203V99.748H7.82049V48.748ZM48.3203 47.248V101.248H6.32049V47.248H48.3203Z" fill="#65A30D"/>
<path d="M10.9258 69.1006C10.9258 66.8914 12.7166 65.1006 14.9258 65.1006H39.7154C41.9245 65.1006 43.7154 66.8914 43.7154 69.1006V79.3936C43.7154 81.6028 41.9245 83.3936 39.7154 83.3936H14.9258C12.7166 83.3936 10.9258 81.6028 10.9258 79.3936V69.1006Z" fill="#DDEDFE"/>
<path fill-rule="evenodd" clip-rule="evenodd" d="M16.6885 71.5547C16.6885 71.1405 17.0243 70.8047 17.4385 70.8047H37.311C37.7252 70.8047 38.061 71.1405 38.061 71.5547C38.061 71.9689 37.7252 72.3047 37.311 72.3047H17.4385C17.0243 72.3047 16.6885 71.9689 16.6885 71.5547Z" fill="#196FDE"/>
<path fill-rule="evenodd" clip-rule="evenodd" d="M16.6885 77.6523C16.6885 77.2381 17.0243 76.9023 17.4385 76.9023H28.1185C28.5327 76.9023 28.8685 77.2381 28.8685 77.6523C28.8685 78.0666 28.5327 78.4023 28.1185 78.4023H17.4385C17.0243 78.4023 16.6885 78.0666 16.6885 77.6523Z" fill="#196FDE"/>
<path d="M26.3203 41.0012C26.3203 41.5541 26.768 42.0024 27.3203 42.0024C27.8726 42.0024 28.3203 41.5541 28.3203 41.0012C28.3203 40.4482 27.8726 40 27.3203 40C26.768 40 26.3203 40.4482 26.3203 41.0012Z" fill="#65A30D"/>
<path fill-rule="evenodd" clip-rule="evenodd" d="M18.5703 41.0244C18.5703 40.6102 18.9061 40.2744 19.3203 40.2744H23.3203C23.7345 40.2744 24.0703 40.6102 24.0703 41.0244C24.0703 41.4386 23.7345 41.7744 23.3203 41.7744H19.3203C18.9061 41.7744 18.5703 41.4386 18.5703 41.0244Z" fill="#65A30D"/>
<path fill-rule="evenodd" clip-rule="evenodd" d="M30.5703 41.0244C30.5703 40.6102 30.9061 40.2744 31.3203 40.2744H35.3203C35.7345 40.2744 36.0703 40.6102 36.0703 41.0244C36.0703 41.4386 35.7345 41.7744 35.3203 41.7744H31.3203C30.9061 41.7744 30.5703 41.4386 30.5703 41.0244Z" fill="#65A30D"/>
<path d="M150.32 54C150.32 49.5817 146.739 46 142.32 46H126.32C121.902 46 118.32 49.5817 118.32 54V70C118.32 74.4183 121.902 78 126.32 78H142.32C146.739 78 150.32 74.4183 150.32 70V54Z" fill="#DDEDFE"/>
<path fill-rule="evenodd" clip-rule="evenodd" d="M126.32 47.5H142.32C145.91 47.5 148.82 50.4101 148.82 54V70C148.82 73.5899 145.91 76.5 142.32 76.5H126.32C122.73 76.5 119.82 73.5899 119.82 70V54C119.82 50.4101 122.73 47.5 126.32 47.5ZM142.32 46C146.739 46 150.32 49.5817 150.32 54V70C150.32 74.4183 146.739 78 142.32 78H126.32C121.902 78 118.32 74.4183 118.32 70V54C118.32 49.5817 121.902 46 126.32 46H142.32Z" fill="#196FDE"/>
<path fill-rule="evenodd" clip-rule="evenodd" d="M132.932 60.4207C134.253 59.1005 136.393 59.1005 137.713 60.4207C139.033 61.7409 139.033 63.8814 137.713 65.2015L133.734 69.1804C132.414 70.5006 130.274 70.5006 128.953 69.1804C127.633 67.8602 127.633 65.7197 128.953 64.3996L132.932 60.4207ZM136.653 61.4814C135.918 60.7469 134.727 60.7469 133.993 61.4814L130.014 65.4602C129.28 66.1946 129.28 67.3853 130.014 68.1197C130.749 68.8541 131.939 68.8541 132.674 68.1197L136.653 64.1409C137.387 63.4065 137.387 62.2158 136.653 61.4814Z" fill="#BEF264"/>
<path d="M137.184 59.3223L138.813 60.9512L137.184 62.5802L135.555 60.9512L137.184 59.3223Z" fill="#D9D9D9"/>
<path fill-rule="evenodd" clip-rule="evenodd" d="M135.708 63.5783C134.388 64.8985 132.248 64.8985 130.927 63.5783C129.607 62.2581 129.607 60.1177 130.927 58.7975L134.906 54.8186C136.226 53.4984 138.367 53.4984 139.687 54.8186C141.007 56.1388 141.007 58.2793 139.687 59.5995L135.708 63.5783ZM131.988 62.5177C132.723 63.2521 133.913 63.2521 134.648 62.5177L138.626 58.5388C139.361 57.8044 139.361 56.6137 138.626 55.8793C137.892 55.1449 136.701 55.1449 135.967 55.8793L131.988 59.8581C131.254 60.5925 131.254 61.7833 131.988 62.5177Z" fill="#BEF264"/>
<path d="M131.457 64.6768L129.828 63.0478L131.457 61.4189L133.086 63.0478L131.457 64.6768Z" fill="#D9D9D9"/>
<path d="M281.32 41C281.32 36.5817 277.739 33 273.32 33H247.32C242.902 33 239.32 36.5817 239.32 41V103C239.32 107.418 242.902 111 247.32 111H273.32C277.739 111 281.32 107.418 281.32 103V41Z" fill="#DDEDFE"/>
<path fill-rule="evenodd" clip-rule="evenodd" d="M247.32 34.5H273.32C276.91 34.5 279.82 37.4101 279.82 41V103C279.82 106.59 276.91 109.5 273.32 109.5H247.32C243.73 109.5 240.82 106.59 240.82 103V41C240.82 37.4101 243.73 34.5 247.32 34.5ZM273.32 33C277.739 33 281.32 36.5817 281.32 41V103C281.32 107.418 277.739 111 273.32 111H247.32C242.902 111 239.32 107.418 239.32 103V41C239.32 36.5817 242.902 33 247.32 33H273.32Z" fill="#196FDE"/>
<path d="M281.32 47.248H239.32V101.248H281.32V47.248Z" fill="#F9FAFB"/>
<path fill-rule="evenodd" clip-rule="evenodd" d="M240.82 48.748H279.82V99.748H240.82V48.748ZM281.32 47.248V101.248H239.32V47.248H281.32Z" fill="#196FDE"/>
<path d="M243.925 69.1006C243.925 66.8914 245.716 65.1006 247.925 65.1006H272.715C274.924 65.1006 276.715 66.8914 276.715 69.1006V79.3936C276.715 81.6028 274.924 83.3936 272.715 83.3936H247.925C245.716 83.3936 243.925 81.6028 243.925 79.3936V69.1006Z" fill="#ECFCCB"/>
<path fill-rule="evenodd" clip-rule="evenodd" d="M249.688 71.5547C249.688 71.1405 250.023 70.8047 250.438 70.8047H270.31C270.724 70.8047 271.06 71.1405 271.06 71.5547C271.06 71.9689 270.724 72.3047 270.31 72.3047H250.438C250.023 72.3047 249.688 71.9689 249.688 71.5547Z" fill="#65A30D"/>
<path fill-rule="evenodd" clip-rule="evenodd" d="M249.688 77.6523C249.688 77.2381 250.023 76.9023 250.438 76.9023H261.117C261.532 76.9023 261.867 77.2381 261.867 77.6523C261.867 78.0666 261.532 78.4023 261.117 78.4023H250.438C250.023 78.4023 249.688 78.0666 249.688 77.6523Z" fill="#65A30D"/>
<path d="M259.32 41.0012C259.32 41.5541 259.768 42.0024 260.32 42.0024C260.873 42.0024 261.32 41.5541 261.32 41.0012C261.32 40.4482 260.873 40 260.32 40C259.768 40 259.32 40.4482 259.32 41.0012Z" fill="#196FDE"/>
<path fill-rule="evenodd" clip-rule="evenodd" d="M251.57 41.0244C251.57 40.6102 251.906 40.2744 252.32 40.2744H256.32C256.735 40.2744 257.07 40.6102 257.07 41.0244C257.07 41.4386 256.735 41.7744 256.32 41.7744H252.32C251.906 41.7744 251.57 41.4386 251.57 41.0244Z" fill="#196FDE"/>
<path fill-rule="evenodd" clip-rule="evenodd" d="M263.57 41.0244C263.57 40.6102 263.906 40.2744 264.32 40.2744H268.32C268.735 40.2744 269.07 40.6102 269.07 41.0244C269.07 41.4386 268.735 41.7744 268.32 41.7744H264.32C263.906 41.7744 263.57 41.4386 263.57 41.0244Z" fill="#196FDE"/>
<path d="M169.32 73C169.32 68.5817 165.739 65 161.32 65H145.32C140.902 65 137.32 68.5817 137.32 73V89C137.32 93.4183 140.902 97 145.32 97H161.32C165.739 97 169.32 93.4183 169.32 89V73Z" fill="#ECFCCB"/>
<path fill-rule="evenodd" clip-rule="evenodd" d="M145.32 66.5H161.32C164.91 66.5 167.82 69.4101 167.82 73V89C167.82 92.5899 164.91 95.5 161.32 95.5H145.32C141.73 95.5 138.82 92.5899 138.82 89V73C138.82 69.4101 141.73 66.5 145.32 66.5ZM161.32 65C165.739 65 169.32 68.5817 169.32 73V89C169.32 93.4183 165.739 97 161.32 97H145.32C140.902 97 137.32 93.4183 137.32 89V73C137.32 68.5817 140.902 65 145.32 65H161.32Z" fill="#65A30D"/>
<path fill-rule="evenodd" clip-rule="evenodd" d="M151.932 79.4207C153.253 78.1005 155.393 78.1005 156.713 79.4207C158.033 80.7409 158.033 82.8814 156.713 84.2015L152.734 88.1804C151.414 89.5006 149.274 89.5006 147.953 88.1804C146.633 86.8602 146.633 84.7197 147.953 83.3996L151.932 79.4207ZM155.653 80.4814C154.918 79.7469 153.727 79.7469 152.993 80.4814L149.014 84.4602C148.28 85.1946 148.28 86.3853 149.014 87.1197C149.749 87.8541 150.939 87.8541 151.674 87.1197L155.653 83.1409C156.387 82.4065 156.387 81.2158 155.653 80.4814Z" fill="#BEF264"/>
<path d="M156.184 78.3223L157.813 79.9512L156.184 81.5802L154.555 79.9512L156.184 78.3223Z" fill="#D9D9D9"/>
<path fill-rule="evenodd" clip-rule="evenodd" d="M154.708 82.5783C153.388 83.8985 151.248 83.8985 149.927 82.5783C148.607 81.2581 148.607 79.1177 149.927 77.7975L153.906 73.8186C155.226 72.4984 157.367 72.4984 158.687 73.8186C160.007 75.1388 160.007 77.2793 158.687 78.5995L154.708 82.5783ZM150.988 81.5177C151.723 82.2521 152.913 82.2521 153.648 81.5177L157.626 77.5388C158.361 76.8044 158.361 75.6137 157.626 74.8793C156.892 74.1449 155.701 74.1449 154.967 74.8793L150.988 78.8581C150.254 79.5925 150.254 80.7833 150.988 81.5177Z" fill="#BEF264"/>
<path d="M150.457 83.6768L148.828 82.0478L150.457 80.4189L152.086 82.0478L150.457 83.6768Z" fill="#D9D9D9"/>
<path d="M87.3203 62C87.3203 64.2091 85.5295 66 83.3203 66C81.1112 66 79.3203 64.2091 79.3203 62C79.3203 59.7909 81.1112 58 83.3203 58C85.5295 58 87.3203 59.7909 87.3203 62Z" fill="#8BCAFD"/>
<path d="M103.32 62C103.32 64.2091 101.529 66 99.3203 66C97.1112 66 95.3203 64.2091 95.3203 62C95.3203 59.7909 97.1112 58 99.3203 58C101.529 58 103.32 59.7909 103.32 62Z" fill="#52ADF9"/>
<path d="M71.3203 62C71.3203 64.2091 69.5295 66 67.3203 66C65.1112 66 63.3203 64.2091 63.3203 62C63.3203 59.7909 65.1112 58 67.3203 58C69.5295 58 71.3203 59.7909 71.3203 62Z" fill="#BDDFFE"/>
<path d="M200.32 81C200.32 78.7909 202.111 77 204.32 77C206.529 77 208.32 78.7909 208.32 81C208.32 83.2091 206.529 85 204.32 85C202.111 85 200.32 83.2091 200.32 81Z" fill="#BEF264"/>
<path d="M184.32 81C184.32 78.7909 186.111 77 188.32 77C190.529 77 192.32 78.7909 192.32 81C192.32 83.2091 190.529 85 188.32 85C186.111 85 184.32 83.2091 184.32 81Z" fill="#A3E635"/>
<path d="M216.32 81C216.32 78.7909 218.111 77 220.32 77C222.529 77 224.32 78.7909 224.32 81C224.32 83.2091 222.529 85 220.32 85C218.111 85 216.32 83.2091 216.32 81Z" fill="#D9F99D"/>
</svg>
