<svg width="289" height="145" viewBox="0 0 289 145" fill="none" xmlns="http://www.w3.org/2000/svg">
<path d="M48.8682 41C48.8682 36.5817 45.2864 33 40.8682 33H14.8682C10.4499 33 6.86816 36.5817 6.86816 41V103C6.86816 107.418 10.4499 111 14.8682 111H40.8682C45.2864 111 48.8682 107.418 48.8682 103V41Z" fill="#1E293B"/>
<path d="M48.8682 47.248H6.86834V101.248H48.8682V47.248Z" fill="#0B1120"/>
<path d="M11.4736 69.1006C11.4736 66.8914 13.2645 65.1006 15.4736 65.1006H40.2633C42.4724 65.1006 44.2633 66.8914 44.2633 69.1006V79.3936C44.2633 81.6028 42.4724 83.3936 40.2633 83.3936H15.4736C13.2645 83.3936 11.4736 81.6028 11.4736 79.3936V69.1006Z" fill="#184080"/>
<path fill-rule="evenodd" clip-rule="evenodd" d="M17.2358 71.5547C17.2358 71.1405 17.5716 70.8047 17.9858 70.8047H37.8583C38.2726 70.8047 38.6083 71.1405 38.6083 71.5547C38.6083 71.9689 38.2726 72.3047 37.8583 72.3047H17.9858C17.5716 72.3047 17.2358 71.9689 17.2358 71.5547Z" fill="#52ADF9"/>
<path fill-rule="evenodd" clip-rule="evenodd" d="M17.2358 77.6523C17.2358 77.2381 17.5716 76.9023 17.9858 76.9023H28.6658C29.08 76.9023 29.4158 77.2381 29.4158 77.6523C29.4158 78.0666 29.08 78.4023 28.6658 78.4023H17.9858C17.5716 78.4023 17.2358 78.0666 17.2358 77.6523Z" fill="#52ADF9"/>
<path d="M27.8682 42.0024C27.3159 42.0024 26.8682 41.5541 26.8682 41.0012C26.8682 40.4482 27.3159 40 27.8682 40C28.4204 40 28.8682 40.4482 28.8682 41.0012C28.8682 41.5541 28.4204 42.0024 27.8682 42.0024Z" fill="#A3E635"/>
<path d="M19.1182 41.0244C19.1182 40.6102 19.454 40.2744 19.8682 40.2744H23.8682C24.2824 40.2744 24.6182 40.6102 24.6182 41.0244C24.6182 41.4386 24.2824 41.7744 23.8682 41.7744H19.8682C19.454 41.7744 19.1182 41.4386 19.1182 41.0244Z" fill="#A3E635"/>
<path d="M31.8682 40.2744C31.454 40.2744 31.1182 40.6102 31.1182 41.0244C31.1182 41.4386 31.454 41.7744 31.8682 41.7744H35.8682C36.2824 41.7744 36.6182 41.4386 36.6182 41.0244C36.6182 40.6102 36.2824 40.2744 35.8682 40.2744H31.8682Z" fill="#A3E635"/>
<path fill-rule="evenodd" clip-rule="evenodd" d="M48.8682 41V103C48.8682 107.418 45.2864 111 40.8682 111H14.8682C10.4499 111 6.86816 107.418 6.86816 103V41C6.86816 36.5817 10.4499 33 14.8682 33H40.8682C45.2864 33 48.8682 36.5817 48.8682 41ZM14.8682 34.5H40.8682C44.458 34.5 47.3682 37.4101 47.3682 41V47.248H8.36816V41C8.36816 37.4101 11.2783 34.5 14.8682 34.5ZM47.3682 48.748V99.748H8.36834V48.748H47.3682ZM47.3682 103V101.248H8.36816V103C8.36816 106.59 11.2783 109.5 14.8682 109.5H40.8682C44.458 109.5 47.3682 106.59 47.3682 103Z" fill="#A3E635"/>
<path d="M281.868 41C281.868 36.5817 278.286 33 273.868 33H247.868C243.45 33 239.868 36.5817 239.868 41V103C239.868 107.418 243.45 111 247.868 111H273.868C278.286 111 281.868 107.418 281.868 103V41Z" fill="#1E293B"/>
<path d="M281.868 47.248H239.868V101.248H281.868V47.248Z" fill="#0B1120"/>
<path d="M244.473 69.1006C244.473 66.8914 246.264 65.1006 248.473 65.1006H273.263C275.472 65.1006 277.263 66.8914 277.263 69.1006V79.3936C277.263 81.6028 275.472 83.3936 273.263 83.3936H248.473C246.264 83.3936 244.473 81.6028 244.473 79.3936V69.1006Z" fill="#365314"/>
<path fill-rule="evenodd" clip-rule="evenodd" d="M250.236 71.5547C250.236 71.1405 250.572 70.8047 250.986 70.8047H270.858C271.273 70.8047 271.608 71.1405 271.608 71.5547C271.608 71.9689 271.273 72.3047 270.858 72.3047H250.986C250.572 72.3047 250.236 71.9689 250.236 71.5547Z" fill="#A3E635"/>
<path fill-rule="evenodd" clip-rule="evenodd" d="M250.236 77.6523C250.236 77.2381 250.572 76.9023 250.986 76.9023H261.666C262.08 76.9023 262.416 77.2381 262.416 77.6523C262.416 78.0666 262.08 78.4023 261.666 78.4023H250.986C250.572 78.4023 250.236 78.0666 250.236 77.6523Z" fill="#A3E635"/>
<path d="M260.868 42.0024C260.316 42.0024 259.868 41.5541 259.868 41.0012C259.868 40.4482 260.316 40 260.868 40C261.42 40 261.868 40.4482 261.868 41.0012C261.868 41.5541 261.42 42.0024 260.868 42.0024Z" fill="#52ADF9"/>
<path d="M252.118 41.0244C252.118 40.6102 252.454 40.2744 252.868 40.2744H256.868C257.282 40.2744 257.618 40.6102 257.618 41.0244C257.618 41.4386 257.282 41.7744 256.868 41.7744H252.868C252.454 41.7744 252.118 41.4386 252.118 41.0244Z" fill="#52ADF9"/>
<path d="M264.868 40.2744C264.454 40.2744 264.118 40.6102 264.118 41.0244C264.118 41.4386 264.454 41.7744 264.868 41.7744H268.868C269.282 41.7744 269.618 41.4386 269.618 41.0244C269.618 40.6102 269.282 40.2744 268.868 40.2744H264.868Z" fill="#52ADF9"/>
<path fill-rule="evenodd" clip-rule="evenodd" d="M281.868 41V103C281.868 107.418 278.286 111 273.868 111H247.868C243.45 111 239.868 107.418 239.868 103V41C239.868 36.5817 243.45 33 247.868 33H273.868C278.286 33 281.868 36.5817 281.868 41ZM247.868 34.5H273.868C277.458 34.5 280.368 37.4101 280.368 41V47.248H241.368V41C241.368 37.4101 244.278 34.5 247.868 34.5ZM280.368 48.748V99.748H241.368V48.748H280.368ZM280.368 103V101.248H241.368V103C241.368 106.59 244.278 109.5 247.868 109.5H273.868C277.458 109.5 280.368 106.59 280.368 103Z" fill="#52ADF9"/>
<path d="M150.868 54C150.868 49.5817 147.286 46 142.868 46H126.868C122.45 46 118.868 49.5817 118.868 54V70C118.868 74.4183 122.45 78 126.868 78H142.868C147.286 78 150.868 74.4183 150.868 70V54Z" fill="#1E293B"/>
<path fill-rule="evenodd" clip-rule="evenodd" d="M126.868 47.5H142.868C146.458 47.5 149.368 50.4101 149.368 54V70C149.368 73.5899 146.458 76.5 142.868 76.5H126.868C123.278 76.5 120.368 73.5899 120.368 70V54C120.368 50.4101 123.278 47.5 126.868 47.5ZM142.868 46C147.286 46 150.868 49.5817 150.868 54V70C150.868 74.4183 147.286 78 142.868 78H126.868C122.45 78 118.868 74.4183 118.868 70V54C118.868 49.5817 122.45 46 126.868 46H142.868Z" fill="#52ADF9"/>
<path fill-rule="evenodd" clip-rule="evenodd" d="M138.934 61.3778C139.519 62.63 139.295 64.1672 138.261 65.2012L134.282 69.1801C132.962 70.5002 130.822 70.5002 129.501 69.1801C128.181 67.8599 128.181 65.7194 129.501 64.3992L133.48 60.4203C134.515 59.386 136.052 59.162 137.305 59.7485L136.108 60.9452C135.551 60.8746 134.969 61.0533 134.541 61.481L130.562 65.4599C129.828 66.1943 129.828 67.385 130.562 68.1194C131.296 68.8538 132.487 68.8538 133.222 68.1194L137.2 64.1405C137.628 63.7132 137.806 63.1314 137.736 62.5749L138.934 61.3778Z" fill="#BEF264"/>
<path fill-rule="evenodd" clip-rule="evenodd" d="M132.432 64.25C133.684 64.8362 135.222 64.6123 136.256 63.578L140.235 59.5991C141.555 58.2789 141.555 56.1385 140.235 54.8183C138.915 53.4981 136.774 53.4981 135.454 54.8183L131.475 58.7971C130.441 59.8312 130.217 61.3686 130.803 62.6209L132 61.4239C131.93 60.8672 132.109 60.2852 132.536 59.8578L136.515 55.8789C137.249 55.1445 138.44 55.1445 139.174 55.8789C139.909 56.6133 139.909 57.8041 139.174 58.5385L135.196 62.5173C134.768 62.945 134.186 63.1236 133.629 63.0532L132.432 64.25Z" fill="#BEF264"/>
<path d="M169.868 73C169.868 68.5817 166.286 65 161.868 65H145.868C141.45 65 137.868 68.5817 137.868 73V89C137.868 93.4183 141.45 97 145.868 97H161.868C166.286 97 169.868 93.4183 169.868 89V73Z" fill="#1E293B"/>
<path fill-rule="evenodd" clip-rule="evenodd" d="M145.868 66.5H161.868C165.458 66.5 168.368 69.4101 168.368 73V89C168.368 92.5899 165.458 95.5 161.868 95.5H145.868C142.278 95.5 139.368 92.5899 139.368 89V73C139.368 69.4101 142.278 66.5 145.868 66.5ZM161.868 65C166.286 65 169.868 68.5817 169.868 73V89C169.868 93.4183 166.286 97 161.868 97H145.868C141.45 97 137.868 93.4183 137.868 89V73C137.868 68.5817 141.45 65 145.868 65H161.868Z" fill="#A3E635"/>
<path fill-rule="evenodd" clip-rule="evenodd" d="M157.934 80.3778C158.519 81.63 158.295 83.1672 157.261 84.2012L153.282 88.18C151.962 89.5002 149.822 89.5002 148.501 88.18C147.181 86.8599 147.181 84.7194 148.501 83.3992L152.48 79.4203C153.515 78.386 155.052 78.162 156.305 78.7485L155.108 79.9452C154.551 79.8746 153.969 80.0532 153.541 80.481L149.562 84.4599C148.828 85.1943 148.828 86.385 149.562 87.1194C150.296 87.8538 151.487 87.8538 152.222 87.1194L156.2 83.1405C156.628 82.7132 156.806 82.1314 156.736 81.5749L157.934 80.3778Z" fill="#BEF264"/>
<path fill-rule="evenodd" clip-rule="evenodd" d="M151.432 83.25C152.684 83.8362 154.222 83.6123 155.256 82.578L159.235 78.5991C160.555 77.2789 160.555 75.1385 159.235 73.8183C157.915 72.4981 155.774 72.4981 154.454 73.8183L150.475 77.7971C149.441 78.8312 149.217 80.3686 149.803 81.6209L151 80.4239C150.93 79.8672 151.109 79.2852 151.536 78.8578L155.515 74.8789C156.249 74.1445 157.44 74.1445 158.174 74.8789C158.909 75.6133 158.909 76.8041 158.174 77.5385L154.196 81.5173C153.768 81.945 153.186 82.1236 152.629 82.0532L151.432 83.25Z" fill="#BEF264"/>
<path d="M87.8682 62C87.8682 64.2091 86.0773 66 83.8682 66C81.659 66 79.8682 64.2091 79.8682 62C79.8682 59.7909 81.659 58 83.8682 58C86.0773 58 87.8682 59.7909 87.8682 62Z" fill="#1457C5"/>
<path d="M103.868 62C103.868 64.2091 102.077 66 99.8682 66C97.659 66 95.8682 64.2091 95.8682 62C95.8682 59.7909 97.659 58 99.8682 58C102.077 58 103.868 59.7909 103.868 62Z" fill="#2B8EF1"/>
<path d="M71.8682 62C71.8682 64.2091 70.0773 66 67.8682 66C65.659 66 63.8682 64.2091 63.8682 62C63.8682 59.7909 65.659 58 67.8682 58C70.0773 58 71.8682 59.7909 71.8682 62Z" fill="#184080"/>
<path d="M200.868 81C200.868 78.7909 202.659 77 204.868 77C207.077 77 208.868 78.7909 208.868 81C208.868 83.2091 207.077 85 204.868 85C202.659 85 200.868 83.2091 200.868 81Z" fill="#4D7C0F"/>
<path d="M184.868 81C184.868 78.7909 186.659 77 188.868 77C191.077 77 192.868 78.7909 192.868 81C192.868 83.2091 191.077 85 188.868 85C186.659 85 184.868 83.2091 184.868 81Z" fill="#82C91E"/>
<path d="M216.868 81C216.868 78.7909 218.659 77 220.868 77C223.077 77 224.868 78.7909 224.868 81C224.868 83.2091 223.077 85 220.868 85C218.659 85 216.868 83.2091 216.868 81Z" fill="#365314"/>
</svg>
