<svg width="289" height="145" viewBox="0 0 289 145" fill="none" xmlns="http://www.w3.org/2000/svg">
<path d="M268.901 41.8047C268.901 37.3864 265.32 33.8047 260.901 33.8047H234.901C230.483 33.8047 226.901 37.3864 226.901 41.8047V103.805C226.901 108.223 230.483 111.805 234.901 111.805H260.901C265.32 111.805 268.901 108.223 268.901 103.805V41.8047Z" fill="#1E293B"/>
<path fill-rule="evenodd" clip-rule="evenodd" d="M234.901 35.3047H260.901C264.491 35.3047 267.401 38.2148 267.401 41.8047V103.805C267.401 107.395 264.491 110.305 260.901 110.305H234.901C231.312 110.305 228.401 107.395 228.401 103.805V41.8047C228.401 38.2148 231.312 35.3047 234.901 35.3047ZM260.901 33.8047C265.32 33.8047 268.901 37.3864 268.901 41.8047V103.805C268.901 108.223 265.32 111.805 260.901 111.805H234.901C230.483 111.805 226.901 108.223 226.901 103.805V41.8047C226.901 37.3864 230.483 33.8047 234.901 33.8047H260.901Z" fill="#52ADF9"/>
<path d="M246.901 41.8059C246.901 42.3588 247.349 42.8071 247.901 42.8071C248.454 42.8071 248.901 42.3588 248.901 41.8059C248.901 41.2529 248.454 40.8047 247.901 40.8047C247.349 40.8047 246.901 41.2529 246.901 41.8059Z" fill="#52ADF9"/>
<path fill-rule="evenodd" clip-rule="evenodd" d="M239.151 41.8291C239.151 41.4149 239.487 41.0791 239.901 41.0791H243.901C244.316 41.0791 244.651 41.4149 244.651 41.8291C244.651 42.2433 244.316 42.5791 243.901 42.5791H239.901C239.487 42.5791 239.151 42.2433 239.151 41.8291Z" fill="#52ADF9"/>
<path fill-rule="evenodd" clip-rule="evenodd" d="M251.151 41.8291C251.151 41.4149 251.487 41.0791 251.901 41.0791H255.901C256.316 41.0791 256.651 41.4149 256.651 41.8291C256.651 42.2433 256.316 42.5791 255.901 42.5791H251.901C251.487 42.5791 251.151 42.2433 251.151 41.8291Z" fill="#52ADF9"/>
<path d="M268.901 48.0527H226.902V102.053H268.901V48.0527Z" fill="#0B1120"/>
<path fill-rule="evenodd" clip-rule="evenodd" d="M228.402 49.5527H267.401V100.553H228.402V49.5527ZM268.901 48.0527V102.053H226.902V48.0527H268.901Z" fill="#52ADF9"/>
<path d="M61.9014 41.8047C61.9014 37.3864 58.3196 33.8047 53.9014 33.8047H27.9014C23.4831 33.8047 19.9014 37.3864 19.9014 41.8047V103.805C19.9014 108.223 23.4831 111.805 27.9014 111.805H53.9014C58.3196 111.805 61.9014 108.223 61.9014 103.805V41.8047Z" fill="#1E293B"/>
<path fill-rule="evenodd" clip-rule="evenodd" d="M27.9014 35.3047H53.9014C57.4912 35.3047 60.4014 38.2148 60.4014 41.8047V103.805C60.4014 107.395 57.4912 110.305 53.9014 110.305H27.9014C24.3115 110.305 21.4014 107.395 21.4014 103.805V41.8047C21.4014 38.2148 24.3115 35.3047 27.9014 35.3047ZM53.9014 33.8047C58.3196 33.8047 61.9014 37.3864 61.9014 41.8047V103.805C61.9014 108.223 58.3196 111.805 53.9014 111.805H27.9014C23.4831 111.805 19.9014 108.223 19.9014 103.805V41.8047C19.9014 37.3864 23.4831 33.8047 27.9014 33.8047H53.9014Z" fill="#A3E635"/>
<path d="M39.9014 41.8059C39.9014 42.3588 40.3491 42.8071 40.9014 42.8071C41.4537 42.8071 41.9014 42.3588 41.9014 41.8059C41.9014 41.2529 41.4537 40.8047 40.9014 40.8047C40.3491 40.8047 39.9014 41.2529 39.9014 41.8059Z" fill="#A3E635"/>
<path fill-rule="evenodd" clip-rule="evenodd" d="M32.1514 41.8291C32.1514 41.4149 32.4872 41.0791 32.9014 41.0791H36.9014C37.3156 41.0791 37.6514 41.4149 37.6514 41.8291C37.6514 42.2433 37.3156 42.5791 36.9014 42.5791H32.9014C32.4872 42.5791 32.1514 42.2433 32.1514 41.8291Z" fill="#A3E635"/>
<path fill-rule="evenodd" clip-rule="evenodd" d="M44.1514 41.8291C44.1514 41.4149 44.4872 41.0791 44.9014 41.0791H48.9014C49.3156 41.0791 49.6514 41.4149 49.6514 41.8291C49.6514 42.2433 49.3156 42.5791 48.9014 42.5791H44.9014C44.4872 42.5791 44.1514 42.2433 44.1514 41.8291Z" fill="#A3E635"/>
<path d="M61.9014 48.0527H19.9015V102.053H61.9014V48.0527Z" fill="#0B1120"/>
<path fill-rule="evenodd" clip-rule="evenodd" d="M21.4015 49.5527H60.4014V100.553H21.4015V49.5527ZM61.9014 48.0527V102.053H19.9015V48.0527H61.9014Z" fill="#A3E635"/>
<path d="M96.1514 72.8047C96.1514 75.0138 94.3605 76.8047 92.1514 76.8047C89.9422 76.8047 88.1514 75.0138 88.1514 72.8047C88.1514 70.5955 89.9422 68.8047 92.1514 68.8047C94.3605 68.8047 96.1514 70.5955 96.1514 72.8047Z" fill="#4D7C0F"/>
<path d="M112.151 72.8047C112.151 75.0138 110.361 76.8047 108.151 76.8047C105.942 76.8047 104.151 75.0138 104.151 72.8047C104.151 70.5955 105.942 68.8047 108.151 68.8047C110.361 68.8047 112.151 70.5955 112.151 72.8047Z" fill="#82C91E"/>
<path d="M80.1514 72.8047C80.1514 75.0138 78.3605 76.8047 76.1514 76.8047C73.9422 76.8047 72.1514 75.0138 72.1514 72.8047C72.1514 70.5955 73.9422 68.8047 76.1514 68.8047C78.3605 68.8047 80.1514 70.5955 80.1514 72.8047Z" fill="#365314"/>
<path d="M192.651 72.8047C192.651 70.5955 194.442 68.8047 196.651 68.8047C198.861 68.8047 200.651 70.5955 200.651 72.8047C200.651 75.0138 198.861 76.8047 196.651 76.8047C194.442 76.8047 192.651 75.0138 192.651 72.8047Z" fill="#1457C5"/>
<path d="M176.651 72.8047C176.651 70.5955 178.442 68.8047 180.651 68.8047C182.861 68.8047 184.651 70.5955 184.651 72.8047C184.651 75.0138 182.861 76.8047 180.651 76.8047C178.442 76.8047 176.651 75.0138 176.651 72.8047Z" fill="#2B8EF1"/>
<path d="M208.651 72.8047C208.651 70.5955 210.442 68.8047 212.651 68.8047C214.861 68.8047 216.651 70.5955 216.651 72.8047C216.651 75.0138 214.861 76.8047 212.651 76.8047C210.442 76.8047 208.651 75.0138 208.651 72.8047Z" fill="#184080"/>
<path d="M166.271 62.8047C166.271 56.1773 160.899 50.8047 154.271 50.8047H134.271C127.644 50.8047 122.271 56.1773 122.271 62.8047V82.8047C122.271 89.4321 127.644 94.8047 134.271 94.8047H154.271C160.899 94.8047 166.271 89.4321 166.271 82.8047V62.8047Z" fill="#1E293B"/>
<path fill-rule="evenodd" clip-rule="evenodd" d="M134.271 52.3047H154.271C160.07 52.3047 164.771 57.0057 164.771 62.8047V82.8047C164.771 88.6037 160.07 93.3047 154.271 93.3047H134.271C128.472 93.3047 123.771 88.6037 123.771 82.8047V62.8047C123.771 57.0057 128.472 52.3047 134.271 52.3047ZM154.271 50.8047C160.899 50.8047 166.271 56.1773 166.271 62.8047V82.8047C166.271 89.4321 160.899 94.8047 154.271 94.8047H134.271C127.644 94.8047 122.271 89.4321 122.271 82.8047V62.8047C122.271 56.1773 127.644 50.8047 134.271 50.8047H154.271Z" fill="#52ADF9"/>
<path fill-rule="evenodd" clip-rule="evenodd" d="M144.082 62.349C144.344 62.2252 144.655 62.264 144.879 62.4488L150.582 67.1538C150.753 67.2942 150.852 67.5025 150.855 67.7232C150.858 67.9439 150.763 68.1546 150.596 68.2991L145.547 72.6754L150.596 77.0516C150.761 77.1939 150.855 77.4004 150.855 77.6176C150.855 77.8348 150.761 78.0415 150.598 78.1841L144.894 83.1486C144.672 83.3416 144.358 83.3873 144.091 83.2655C143.823 83.1437 143.651 82.8768 143.651 82.5829V74.3178L139.189 78.1852C138.876 78.4564 138.402 78.4226 138.131 78.1096C137.86 77.7966 137.894 77.3229 138.207 77.0516L143.256 72.6754L138.207 68.2991C137.894 68.0278 137.86 67.5542 138.131 67.2411C138.402 66.9281 138.876 66.8943 139.189 67.1655L143.651 71.0329V63.0274C143.651 62.737 143.819 62.4728 144.082 62.349ZM145.151 74.3178L148.961 77.6196L145.151 80.9358V74.3178ZM145.151 71.0329V64.6183L148.944 67.7465L145.151 71.0329Z" fill="#52ADF9"/>
</svg>
