<svg width="289" height="145" viewBox="0 0 289 145" fill="none" xmlns="http://www.w3.org/2000/svg">
<path d="M268.901 40.8047C268.901 36.3864 265.32 32.8047 260.901 32.8047H234.901C230.483 32.8047 226.901 36.3864 226.901 40.8047V102.805C226.901 107.223 230.483 110.805 234.901 110.805H260.901C265.32 110.805 268.901 107.223 268.901 102.805V40.8047Z" fill="#DDEDFE"/>
<path fill-rule="evenodd" clip-rule="evenodd" d="M234.901 34.3047H260.901C264.491 34.3047 267.401 37.2148 267.401 40.8047V102.805C267.401 106.395 264.491 109.305 260.901 109.305H234.901C231.312 109.305 228.401 106.395 228.401 102.805V40.8047C228.401 37.2148 231.312 34.3047 234.901 34.3047ZM260.901 32.8047C265.32 32.8047 268.901 36.3864 268.901 40.8047V102.805C268.901 107.223 265.32 110.805 260.901 110.805H234.901C230.483 110.805 226.901 107.223 226.901 102.805V40.8047C226.901 36.3864 230.483 32.8047 234.901 32.8047H260.901Z" fill="#196FDE"/>
<path d="M246.901 40.8059C246.901 41.3588 247.349 41.8071 247.901 41.8071C248.454 41.8071 248.901 41.3588 248.901 40.8059C248.901 40.2529 248.454 39.8047 247.901 39.8047C247.349 39.8047 246.901 40.2529 246.901 40.8059Z" fill="#196FDE"/>
<path fill-rule="evenodd" clip-rule="evenodd" d="M239.151 40.8291C239.151 40.4149 239.487 40.0791 239.901 40.0791H243.901C244.316 40.0791 244.651 40.4149 244.651 40.8291C244.651 41.2433 244.316 41.5791 243.901 41.5791H239.901C239.487 41.5791 239.151 41.2433 239.151 40.8291Z" fill="#196FDE"/>
<path fill-rule="evenodd" clip-rule="evenodd" d="M251.151 40.8291C251.151 40.4149 251.487 40.0791 251.901 40.0791H255.901C256.316 40.0791 256.651 40.4149 256.651 40.8291C256.651 41.2433 256.316 41.5791 255.901 41.5791H251.901C251.487 41.5791 251.151 41.2433 251.151 40.8291Z" fill="#196FDE"/>
<path d="M268.901 47.0527H226.902V101.053H268.901V47.0527Z" fill="#F9FAFB"/>
<path fill-rule="evenodd" clip-rule="evenodd" d="M228.402 48.5527H267.401V99.5527H228.402V48.5527ZM268.901 47.0527V101.053H226.902V47.0527H268.901Z" fill="#196FDE"/>
<path d="M61.9014 40.8047C61.9014 36.3864 58.3196 32.8047 53.9014 32.8047H27.9014C23.4831 32.8047 19.9014 36.3864 19.9014 40.8047V102.805C19.9014 107.223 23.4831 110.805 27.9014 110.805H53.9014C58.3196 110.805 61.9014 107.223 61.9014 102.805V40.8047Z" fill="#ECFCCB"/>
<path fill-rule="evenodd" clip-rule="evenodd" d="M27.9014 34.3047H53.9014C57.4912 34.3047 60.4014 37.2148 60.4014 40.8047V102.805C60.4014 106.395 57.4912 109.305 53.9014 109.305H27.9014C24.3115 109.305 21.4014 106.395 21.4014 102.805V40.8047C21.4014 37.2148 24.3115 34.3047 27.9014 34.3047ZM53.9014 32.8047C58.3196 32.8047 61.9014 36.3864 61.9014 40.8047V102.805C61.9014 107.223 58.3196 110.805 53.9014 110.805H27.9014C23.4831 110.805 19.9014 107.223 19.9014 102.805V40.8047C19.9014 36.3864 23.4831 32.8047 27.9014 32.8047H53.9014Z" fill="#65A30D"/>
<path d="M39.9014 40.8059C39.9014 41.3588 40.3491 41.8071 40.9014 41.8071C41.4537 41.8071 41.9014 41.3588 41.9014 40.8059C41.9014 40.2529 41.4537 39.8047 40.9014 39.8047C40.3491 39.8047 39.9014 40.2529 39.9014 40.8059Z" fill="#65A30D"/>
<path fill-rule="evenodd" clip-rule="evenodd" d="M32.1514 40.8291C32.1514 40.4149 32.4872 40.0791 32.9014 40.0791H36.9014C37.3156 40.0791 37.6514 40.4149 37.6514 40.8291C37.6514 41.2433 37.3156 41.5791 36.9014 41.5791H32.9014C32.4872 41.5791 32.1514 41.2433 32.1514 40.8291Z" fill="#65A30D"/>
<path fill-rule="evenodd" clip-rule="evenodd" d="M44.1514 40.8291C44.1514 40.4149 44.4872 40.0791 44.9014 40.0791H48.9014C49.3156 40.0791 49.6514 40.4149 49.6514 40.8291C49.6514 41.2433 49.3156 41.5791 48.9014 41.5791H44.9014C44.4872 41.5791 44.1514 41.2433 44.1514 40.8291Z" fill="#65A30D"/>
<path d="M61.9014 47.0527H19.9015V101.053H61.9014V47.0527Z" fill="#F9FAFB"/>
<path fill-rule="evenodd" clip-rule="evenodd" d="M21.4015 48.5527H60.4014V99.5527H21.4015V48.5527ZM61.9014 47.0527V101.053H19.9015V47.0527H61.9014Z" fill="#65A30D"/>
<path d="M96.1514 71.8047C96.1514 74.0138 94.3605 75.8047 92.1514 75.8047C89.9422 75.8047 88.1514 74.0138 88.1514 71.8047C88.1514 69.5955 89.9422 67.8047 92.1514 67.8047C94.3605 67.8047 96.1514 69.5955 96.1514 71.8047Z" fill="#BEF264"/>
<path d="M112.151 71.8047C112.151 74.0138 110.361 75.8047 108.151 75.8047C105.942 75.8047 104.151 74.0138 104.151 71.8047C104.151 69.5955 105.942 67.8047 108.151 67.8047C110.361 67.8047 112.151 69.5955 112.151 71.8047Z" fill="#A3E635"/>
<path d="M80.1514 71.8047C80.1514 74.0138 78.3605 75.8047 76.1514 75.8047C73.9422 75.8047 72.1514 74.0138 72.1514 71.8047C72.1514 69.5955 73.9422 67.8047 76.1514 67.8047C78.3605 67.8047 80.1514 69.5955 80.1514 71.8047Z" fill="#D9F99D"/>
<path d="M192.651 71.8047C192.651 69.5955 194.442 67.8047 196.651 67.8047C198.861 67.8047 200.651 69.5955 200.651 71.8047C200.651 74.0138 198.861 75.8047 196.651 75.8047C194.442 75.8047 192.651 74.0138 192.651 71.8047Z" fill="#8BCAFD"/>
<path d="M176.651 71.8047C176.651 69.5955 178.442 67.8047 180.651 67.8047C182.861 67.8047 184.651 69.5955 184.651 71.8047C184.651 74.0138 182.861 75.8047 180.651 75.8047C178.442 75.8047 176.651 74.0138 176.651 71.8047Z" fill="#52ADF9"/>
<path d="M208.651 71.8047C208.651 69.5955 210.442 67.8047 212.651 67.8047C214.861 67.8047 216.651 69.5955 216.651 71.8047C216.651 74.0138 214.861 75.8047 212.651 75.8047C210.442 75.8047 208.651 74.0138 208.651 71.8047Z" fill="#BDDFFE"/>
<path d="M166.271 61.8047C166.271 55.1773 160.899 49.8047 154.271 49.8047H134.271C127.644 49.8047 122.271 55.1773 122.271 61.8047V81.8047C122.271 88.4321 127.644 93.8047 134.271 93.8047H154.271C160.899 93.8047 166.271 88.4321 166.271 81.8047V61.8047Z" fill="#DDEDFE"/>
<path fill-rule="evenodd" clip-rule="evenodd" d="M134.271 51.3047H154.271C160.07 51.3047 164.771 56.0057 164.771 61.8047V81.8047C164.771 87.6037 160.07 92.3047 154.271 92.3047H134.271C128.472 92.3047 123.771 87.6037 123.771 81.8047V61.8047C123.771 56.0057 128.472 51.3047 134.271 51.3047ZM154.271 49.8047C160.899 49.8047 166.271 55.1773 166.271 61.8047V81.8047C166.271 88.4321 160.899 93.8047 154.271 93.8047H134.271C127.644 93.8047 122.271 88.4321 122.271 81.8047V61.8047C122.271 55.1773 127.644 49.8047 134.271 49.8047H154.271Z" fill="#196FDE"/>
<path fill-rule="evenodd" clip-rule="evenodd" d="M144.082 61.349C144.344 61.2252 144.655 61.264 144.879 61.4488L150.582 66.1538C150.753 66.2942 150.852 66.5025 150.855 66.7232C150.858 66.9439 150.763 67.1546 150.596 67.2991L145.547 71.6754L150.596 76.0516C150.761 76.1939 150.855 76.4004 150.855 76.6176C150.855 76.8348 150.761 77.0415 150.598 77.1841L144.894 82.1486C144.672 82.3416 144.358 82.3873 144.091 82.2655C143.823 82.1437 143.651 81.8768 143.651 81.5829V73.3178L139.189 77.1852C138.876 77.4564 138.402 77.4226 138.131 77.1096C137.86 76.7966 137.894 76.3229 138.207 76.0516L143.256 71.6754L138.207 67.2991C137.894 67.0278 137.86 66.5542 138.131 66.2411C138.402 65.9281 138.876 65.8943 139.189 66.1655L143.651 70.0329V62.0274C143.651 61.737 143.819 61.4728 144.082 61.349ZM145.151 73.3178L148.961 76.6196L145.151 79.9358V73.3178ZM145.151 70.0329V63.6183L148.944 66.7465L145.151 70.0329Z" fill="#196FDE"/>
</svg>
