<svg width="81" height="80" viewBox="0 0 81 80" fill="none" xmlns="http://www.w3.org/2000/svg">
<path fill-rule="evenodd" clip-rule="evenodd" d="M40.6514 76.5C60.8098 76.5 77.1514 60.1584 77.1514 40C77.1514 19.8416 60.8098 3.5 40.6514 3.5C20.493 3.5 4.15137 19.8416 4.15137 40C4.15137 60.1584 20.493 76.5 40.6514 76.5ZM40.6514 78C61.6382 78 78.6514 60.9868 78.6514 40C78.6514 19.0132 61.6382 2 40.6514 2C19.6645 2 2.65137 19.0132 2.65137 40C2.65137 60.9868 19.6645 78 40.6514 78Z" fill="#9CA3AF"/>
<path fill-rule="evenodd" clip-rule="evenodd" d="M16.0834 26.6513C16.3763 26.3584 16.8512 26.3584 17.1441 26.6513L24.6138 34.121L32.0834 26.6513C32.3763 26.3584 32.8512 26.3584 33.1441 26.6513C33.437 26.9442 33.437 27.4191 33.1441 27.712L25.6744 35.1816L33.1441 42.6513C33.437 42.9442 33.437 43.4191 33.1441 43.712C32.8512 44.0049 32.3763 44.0049 32.0834 43.712L24.6138 36.2423L17.1441 43.712C16.8512 44.0049 16.3763 44.0049 16.0834 43.712C15.7905 43.4191 15.7905 42.9442 16.0834 42.6513L23.5531 35.1816L16.0834 27.712C15.7905 27.4191 15.7905 26.9442 16.0834 26.6513Z" fill="#9CA3AF"/>
<path fill-rule="evenodd" clip-rule="evenodd" d="M48.1591 26.6513C48.452 26.3584 48.9269 26.3584 49.2198 26.6513L56.6895 34.121L64.1591 26.6513C64.452 26.3584 64.9269 26.3584 65.2198 26.6513C65.5127 26.9442 65.5127 27.4191 65.2198 27.712L57.7501 35.1816L65.2198 42.6513C65.5127 42.9442 65.5127 43.4191 65.2198 43.712C64.9269 44.0049 64.452 44.0049 64.1591 43.712L56.6895 36.2423L49.2198 43.712C48.9269 44.0049 48.452 44.0049 48.1591 43.712C47.8662 43.4191 47.8662 42.9442 48.1591 42.6513L55.6288 35.1816L48.1591 27.712C47.8662 27.4191 47.8662 26.9442 48.1591 26.6513Z" fill="#9CA3AF"/>
<path d="M53.7133 63.4028C53.7133 59.9385 52.3371 56.6162 49.8875 54.1666C47.4379 51.717 44.1156 50.3408 40.6513 50.3408C37.1871 50.3408 33.8647 51.717 31.4151 54.1666C28.9655 56.6162 27.5894 59.9385 27.5894 63.4028L40.6513 63.4028L53.7133 63.4028Z" fill="#E5E7EB"/>
<path fill-rule="evenodd" clip-rule="evenodd" d="M52.1156 61.9028C51.7868 59.3899 50.6385 57.0389 48.8268 55.2272C46.6586 53.059 43.7177 51.8408 40.6513 51.8408C37.5849 51.8408 34.6441 53.059 32.4758 55.2272C30.6641 57.0389 29.5158 59.3898 29.187 61.9028L52.1156 61.9028ZM53.6269 61.9028C53.2903 58.9907 51.9809 56.26 49.8875 54.1666C47.4379 51.717 44.1156 50.3408 40.6513 50.3408C37.1871 50.3408 33.8647 51.717 31.4151 54.1666C29.3217 56.26 28.0123 58.9907 27.6757 61.9028C27.6185 62.3983 27.5894 62.899 27.5894 63.4028L53.7133 63.4028C53.7133 62.899 53.6842 62.3983 53.6269 61.9028Z" fill="#9CA3AF"/>
</svg>
