<svg width="81" height="80" viewBox="0 0 81 80" fill="none" xmlns="http://www.w3.org/2000/svg">
<path fill-rule="evenodd" clip-rule="evenodd" d="M40.4014 76.8438C60.5598 76.8438 76.9014 60.5021 76.9014 40.3438C76.9014 20.1854 60.5598 3.84375 40.4014 3.84375C20.243 3.84375 3.90137 20.1854 3.90137 40.3438C3.90137 60.5021 20.243 76.8438 40.4014 76.8438ZM40.4014 78.3438C61.3882 78.3438 78.4014 61.3306 78.4014 40.3438C78.4014 19.3569 61.3882 2.34375 40.4014 2.34375C19.4145 2.34375 2.40137 19.3569 2.40137 40.3438C2.40137 61.3306 19.4145 78.3438 40.4014 78.3438Z" fill="#64748B"/>
<path fill-rule="evenodd" clip-rule="evenodd" d="M15.8334 26.9951C16.1263 26.7022 16.6012 26.7022 16.8941 26.9951L24.3638 34.4647L31.8334 26.9951C32.1263 26.7022 32.6012 26.7022 32.8941 26.9951C33.187 27.288 33.187 27.7628 32.8941 28.0557L25.4244 35.5254L32.8941 42.9951C33.187 43.288 33.187 43.7628 32.8941 44.0557C32.6012 44.3486 32.1263 44.3486 31.8334 44.0557L24.3638 36.5861L16.8941 44.0557C16.6012 44.3486 16.1263 44.3486 15.8334 44.0557C15.5405 43.7628 15.5405 43.288 15.8334 42.9951L23.3031 35.5254L15.8334 28.0557C15.5405 27.7628 15.5405 27.288 15.8334 26.9951Z" fill="#64748B"/>
<path fill-rule="evenodd" clip-rule="evenodd" d="M47.9091 26.9951C48.202 26.7022 48.6769 26.7022 48.9698 26.9951L56.4395 34.4647L63.9091 26.9951C64.202 26.7022 64.6769 26.7022 64.9698 26.9951C65.2627 27.288 65.2627 27.7628 64.9698 28.0557L57.5001 35.5254L64.9698 42.9951C65.2627 43.288 65.2627 43.7628 64.9698 44.0557C64.6769 44.3486 64.202 44.3486 63.9091 44.0557L56.4395 36.5861L48.9698 44.0557C48.6769 44.3486 48.202 44.3486 47.9091 44.0557C47.6162 43.7628 47.6162 43.288 47.9091 42.9951L55.3788 35.5254L47.9091 28.0557C47.6162 27.7628 47.6162 27.288 47.9091 26.9951Z" fill="#64748B"/>
<path d="M53.4633 63.7465C53.4633 60.2823 52.0871 56.9599 49.6375 54.5103C47.1879 52.0607 43.8656 50.6846 40.4013 50.6846C36.9371 50.6846 33.6147 52.0607 31.1651 54.5103C28.7155 56.9599 27.3394 60.2823 27.3394 63.7465L40.4013 63.7465L53.4633 63.7465Z" fill="#334155"/>
<path fill-rule="evenodd" clip-rule="evenodd" d="M51.8656 62.2465C51.5368 59.7336 50.3885 57.3826 48.5768 55.571C46.4086 53.4027 43.4677 52.1846 40.4013 52.1846C37.3349 52.1846 34.3941 53.4027 32.2258 55.571C30.4141 57.3826 29.2658 59.7336 28.937 62.2465L51.8656 62.2465ZM53.3769 62.2465C53.0403 59.3345 51.7309 56.6037 49.6375 54.5103C47.1879 52.0607 43.8656 50.6846 40.4013 50.6846C36.9371 50.6846 33.6147 52.0607 31.1651 54.5103C29.0717 56.6037 27.7623 59.3345 27.4257 62.2465C27.3685 62.742 27.3394 63.2428 27.3394 63.7465L53.4633 63.7465C53.4633 63.2428 53.4342 62.742 53.3769 62.2465Z" fill="#64748B"/>
</svg>
