<svg width="81" height="81" viewBox="0 0 81 81" fill="none" xmlns="http://www.w3.org/2000/svg">
<g clip-path="url(#clip0_142_9298)">
<path fill-rule="evenodd" clip-rule="evenodd" d="M48.6662 16.6539C48.6662 21.2186 44.9657 24.9191 40.401 24.9191C35.8362 24.9191 32.1357 21.2186 32.1357 16.6539C32.1357 12.0891 35.8362 8.38867 40.401 8.38867C44.9657 8.38867 48.6662 12.0891 48.6662 16.6539ZM47.1662 16.6539C47.1662 20.3902 44.1373 23.4191 40.401 23.4191C36.6646 23.4191 33.6357 20.3902 33.6357 16.6539C33.6357 12.9176 36.6646 9.88867 40.401 9.88867C44.1373 9.88867 47.1662 12.9176 47.1662 16.6539Z" fill="#64748B"/>
<path fill-rule="evenodd" clip-rule="evenodd" d="M25.2785 25.9195C25.2785 30.4843 21.578 34.1847 17.0133 34.1847C12.4485 34.1847 8.74805 30.4843 8.74805 25.9195C8.74805 21.3548 12.4485 17.6543 17.0133 17.6543C21.578 17.6543 25.2785 21.3548 25.2785 25.9195ZM23.7785 25.9195C23.7785 29.6558 20.7496 32.6847 17.0133 32.6847C13.2769 32.6847 10.248 29.6558 10.248 25.9195C10.248 22.1832 13.2769 19.1543 17.0133 19.1543C20.7496 19.1543 23.7785 22.1832 23.7785 25.9195Z" fill="#64748B"/>
<path d="M2.15137 49.1689C2.15137 45.1649 5.3973 41.9189 9.40137 41.9189H24.0391V61.1648C24.0391 61.579 24.3748 61.9148 24.7891 61.9148C25.2033 61.9148 25.5391 61.579 25.5391 61.1648V41.976C29.1119 42.4252 31.8755 45.4743 31.8755 49.1689V72.3931C31.8755 72.8073 32.2113 73.1431 32.6255 73.1431C33.0397 73.1431 33.3755 72.8073 33.3755 72.3931V49.1689C33.3755 44.645 29.9422 40.9229 25.5391 40.4661V39.7774C25.5391 35.7733 28.785 32.5273 32.7891 32.5273H48.0132C52.0173 32.5273 55.2632 35.7733 55.2632 39.7773V40.4661C50.8603 40.9231 47.4272 44.6451 47.4272 49.169V70.5564C47.4272 70.9706 47.763 71.3064 48.1772 71.3064C48.5915 71.3064 48.9272 70.9706 48.9272 70.5564V49.169C48.9272 45.4745 51.6906 42.4254 55.2632 41.976V61.1648C55.2632 61.579 55.599 61.9148 56.0132 61.9148C56.4274 61.9148 56.7632 61.579 56.7632 61.1648V41.9189H71.4014C75.4054 41.9189 78.6514 45.1649 78.6514 49.1689V70.5564C78.6514 70.9706 78.9872 71.3064 79.4014 71.3064C79.8156 71.3064 80.1514 70.9706 80.1514 70.5564V49.1689C80.1514 44.3365 76.2339 40.4189 71.4014 40.4189H56.7632V39.7773C56.7632 34.9449 52.8457 31.0273 48.0132 31.0273H32.7891C27.9566 31.0273 24.0391 34.9449 24.0391 39.7774V40.4189H9.40137C4.56888 40.4189 0.651367 44.3365 0.651367 49.1689V72.3931C0.651367 72.8073 0.987154 73.1431 1.40137 73.1431C1.81558 73.1431 2.15137 72.8073 2.15137 72.3931V49.1689Z" fill="#64748B"/>
<path fill-rule="evenodd" clip-rule="evenodd" d="M72.0543 25.9195C72.0543 30.4843 68.3539 34.1847 63.7891 34.1847C59.2244 34.1847 55.5239 30.4843 55.5239 25.9195C55.5239 21.3548 59.2244 17.6543 63.7891 17.6543C68.3539 17.6543 72.0543 21.3548 72.0543 25.9195ZM70.5543 25.9195C70.5543 29.6558 67.5255 32.6847 63.7891 32.6847C60.0528 32.6847 57.0239 29.6558 57.0239 25.9195C57.0239 22.1832 60.0528 19.1543 63.7891 19.1543C67.5255 19.1543 70.5543 22.1832 70.5543 25.9195Z" fill="#64748B"/>
</g>
<defs>
<clipPath id="clip0_142_9298">
<rect width="80" height="80" fill="white" transform="translate(0.401367 0.390625)"/>
</clipPath>
</defs>
</svg>
