<svg width="81" height="81" viewBox="0 0 81 81" fill="none" xmlns="http://www.w3.org/2000/svg">
<g clip-path="url(#clip0_142_9184)">
<path d="M14.4937 62.0026C13.3891 62.0026 12.4937 61.1071 12.4937 60.0026L12.4937 30.003C12.4936 28.8984 13.3891 28.003 14.4937 28.003L34.4936 28.003C35.5982 28.003 36.4936 28.8984 36.4936 30.003L36.4936 60.0029C36.4936 61.1075 35.5982 62.0029 34.4936 62.0029L14.4937 62.0026Z" fill="#334155"/>
<path fill-rule="evenodd" clip-rule="evenodd" d="M34.4936 29.503L14.4937 29.503C14.2175 29.503 13.9937 29.7268 13.9937 30.003L13.9937 60.0026C13.9937 60.2787 14.2176 60.5026 14.4937 60.5026L34.4936 60.5029C34.7698 60.5029 34.9936 60.2791 34.9936 60.0029L34.9936 30.003C34.9936 29.7268 34.7698 29.503 34.4936 29.503ZM12.4937 60.0026C12.4937 61.1071 13.3891 62.0026 14.4937 62.0026L34.4936 62.0029C35.5982 62.0029 36.4936 61.1075 36.4936 60.0029L36.4936 30.003C36.4936 28.8984 35.5982 28.003 34.4936 28.003L14.4937 28.003C13.3891 28.003 12.4936 28.8984 12.4937 30.003L12.4937 60.0026Z" fill="#64748B"/>
<path fill-rule="evenodd" clip-rule="evenodd" d="M45.1289 40.6699C45.1289 40.2557 45.4647 39.9199 45.8789 39.9199L67.8786 39.9199C68.2928 39.9199 68.6286 40.2557 68.6286 40.6699C68.6286 41.0841 68.2928 41.4199 67.8786 41.4199L45.8789 41.4199C45.4647 41.4199 45.1289 41.0841 45.1289 40.6699Z" fill="#64748B"/>
<path fill-rule="evenodd" clip-rule="evenodd" d="M45.1289 32.0039C45.1289 31.5897 45.4647 31.2539 45.8789 31.2539L67.8786 31.2539C68.2928 31.2539 68.6286 31.5897 68.6286 32.0039C68.6286 32.4181 68.2928 32.7539 67.8786 32.7539L45.8789 32.7539C45.4647 32.7539 45.1289 32.4181 45.1289 32.0039Z" fill="#64748B"/>
<path fill-rule="evenodd" clip-rule="evenodd" d="M45.1289 49.3369C45.1289 48.9227 45.4647 48.5869 45.8789 48.5869L67.8789 48.5869C68.2931 48.5869 68.6289 48.9227 68.6289 49.3369C68.6289 49.7511 68.2931 50.0869 67.8789 50.0869L45.8789 50.0869C45.4647 50.0869 45.1289 49.7511 45.1289 49.3369Z" fill="#64748B"/>
<path fill-rule="evenodd" clip-rule="evenodd" d="M45.1289 58.0029C45.1289 57.5887 45.4647 57.2529 45.8789 57.2529L56.879 57.2529C57.2932 57.2529 57.629 57.5887 57.629 58.0029C57.629 58.4171 57.2932 58.7529 56.879 58.7529L45.8789 58.7529C45.4647 58.7529 45.1289 58.4171 45.1289 58.0029Z" fill="#64748B"/>
<path fill-rule="evenodd" clip-rule="evenodd" d="M79.4013 24.9019C79.3854 20.4972 75.8098 16.9314 71.4014 16.9314L9.40142 16.9314C4.98314 16.9314 1.40142 20.5131 1.40142 24.9314L1.40137 16.874C1.40137 12.4557 4.98309 8.87403 9.40137 8.87403L71.4013 8.87402C75.8196 8.87402 79.4013 12.4557 79.4013 16.874V24.9019Z" fill="#334155"/>
<path fill-rule="evenodd" clip-rule="evenodd" d="M0.651422 16.874C0.651429 12.0415 4.56894 8.12403 9.40142 8.12403L71.4014 8.12402C76.2339 8.12402 80.1514 12.0415 80.1514 16.874V64.874C80.1514 69.7065 76.2338 73.6241 71.4013 73.624L9.40129 73.6235C4.56882 73.6234 0.651361 69.7059 0.651367 64.8735L0.651378 56.8491L0.651367 56.8435L0.651422 16.874ZM9.40142 9.62403L71.4014 9.62402C75.4054 9.62402 78.6514 12.87 78.6514 16.874V19.954C77.0782 17.6312 74.4181 16.1046 71.4014 16.1046L9.40142 16.1046C6.38472 16.1046 3.72458 17.6312 2.15142 19.954L2.15142 16.874C2.15143 12.87 5.39736 9.62403 9.40142 9.62403ZM2.15137 64.8735C2.15136 68.8775 5.39726 72.1234 9.4013 72.1235L71.4013 72.124C75.4054 72.1241 78.6514 68.8781 78.6514 64.874L78.6514 24.9046L78.6514 24.9026C78.6358 20.9118 75.3959 17.6814 71.4014 17.6814L9.40147 17.6814C5.39741 17.6814 2.15148 20.9273 2.15147 24.9314L2.15137 64.8735Z" fill="#64748B"/>
</g>
<defs>
<clipPath id="clip0_142_9184">
<rect width="80" height="80" fill="white" transform="translate(0.401367 0.78125)"/>
</clipPath>
</defs>
</svg>
