<svg width="81" height="80" viewBox="0 0 81 80" fill="none" xmlns="http://www.w3.org/2000/svg">
<path fill-rule="evenodd" clip-rule="evenodd" d="M54.8771 3.19912L70.2942 5.82176C75.4078 6.69164 78.8553 11.4996 78.0387 16.6225L69.73 68.746C68.7481 74.9062 62.0013 78.3146 56.4761 75.4418L57.1751 74.1118C61.7908 76.5117 67.4271 73.6643 68.2474 68.5181L76.5561 16.3946C77.2438 12.0806 74.3406 8.03176 70.0344 7.29922L56.3985 4.9796L57.1751 74.1118L55.6739 74.1365L54.8771 3.19912Z" fill="#9CA3AF"/>
<path fill-rule="evenodd" clip-rule="evenodd" d="M9.60205 74.9992L9.60205 4H57.6021C62.0203 4 65.6021 7.58172 65.6021 12V67C65.6021 71.4183 62.0202 75.0001 57.6019 75L9.60205 74.9992ZM21.8896 49.1657V53.0394C21.8896 57.4577 25.4714 61.0394 29.8896 61.0394H45.8472C50.2655 61.0394 53.8472 57.4577 53.8472 53.0394V49.1657C53.8472 44.7474 50.2655 41.1657 45.8472 41.1657H29.8896C25.4714 41.1657 21.8896 44.7474 21.8896 49.1657ZM37.8685 34.8533C42.5566 34.8533 46.3572 31.0717 46.3572 26.4069C46.3572 21.7421 42.5566 17.9606 37.8685 17.9606C33.1803 17.9606 29.3797 21.7421 29.3797 26.4069C29.3797 31.0717 33.1803 34.8533 37.8685 34.8533Z" fill="#E5E7EB"/>
<path fill-rule="evenodd" clip-rule="evenodd" d="M21.8896 49.1657V53.0394C21.8896 57.4577 25.4714 61.0394 29.8896 61.0394H45.8472C50.2655 61.0394 53.8472 57.4577 53.8472 53.0394V49.1657C53.8472 44.7474 50.2655 41.1657 45.8472 41.1657H29.8896C25.4714 41.1657 21.8896 44.7474 21.8896 49.1657ZM23.3896 53.0394V49.1657C23.3896 45.5758 26.2998 42.6657 29.8896 42.6657H45.8472C49.437 42.6657 52.3472 45.5758 52.3472 49.1657V53.0394C52.3472 56.6293 49.437 59.5394 45.8472 59.5394H29.8896C26.2998 59.5394 23.3896 56.6293 23.3896 53.0394Z" fill="#9CA3AF"/>
<path fill-rule="evenodd" clip-rule="evenodd" d="M37.8685 34.8532C42.5566 34.8532 46.3572 31.0717 46.3572 26.4069C46.3572 21.7421 42.5566 17.9606 37.8685 17.9606C33.1803 17.9606 29.3797 21.7421 29.3797 26.4069C29.3797 31.0717 33.1803 34.8532 37.8685 34.8532ZM44.8572 26.4069C44.8572 30.2362 41.7353 33.3533 37.8685 33.3533C34.0016 33.3533 30.8797 30.2362 30.8797 26.4069C30.8797 22.5776 34.0016 19.4606 37.8685 19.4606C41.7353 19.4606 44.8572 22.5776 44.8572 26.4069Z" fill="#9CA3AF"/>
<path fill-rule="evenodd" clip-rule="evenodd" d="M57.6021 2.5H8.10205L8.10205 17.7334H2.85059C2.43637 17.7334 2.10059 18.0692 2.10059 18.4834C2.10059 18.8976 2.43637 19.2334 2.85059 19.2334H8.10205L8.10205 38.8779H2.85059C2.43637 38.8779 2.10059 39.2137 2.10059 39.6279C2.10059 40.0421 2.43637 40.3779 2.85059 40.3779H8.10205L8.10205 60.752H2.85059C2.43637 60.752 2.10059 61.0877 2.10059 61.502C2.10059 61.9162 2.43637 62.252 2.85059 62.252H8.10205L8.10205 76.4992L57.6019 76.5C62.8487 76.5001 67.1021 72.2468 67.1021 67V12C67.1021 6.75329 62.8488 2.5 57.6021 2.5ZM9.60205 62.252L9.60205 74.9992L57.6019 75C62.0202 75.0001 65.6021 71.4183 65.6021 67V12C65.6021 7.58172 62.0203 4 57.6021 4H9.60205L9.60205 17.7334H14.6148C15.029 17.7334 15.3648 18.0692 15.3648 18.4834C15.3648 18.8976 15.029 19.2334 14.6148 19.2334H9.60205L9.60205 38.8779H14.6148C15.029 38.8779 15.3648 39.2137 15.3648 39.6279C15.3648 40.0421 15.029 40.3779 14.6148 40.3779H9.60205L9.60205 60.752H14.6148C15.029 60.752 15.3648 61.0877 15.3648 61.502C15.3648 61.9162 15.029 62.252 14.6148 62.252H9.60205Z" fill="#9CA3AF"/>
</svg>
