<svg width="81" height="80" viewBox="0 0 81 80" fill="none" xmlns="http://www.w3.org/2000/svg">
<path fill-rule="evenodd" clip-rule="evenodd" d="M55.8771 3.19912L71.2942 5.82176C76.4078 6.69164 79.8553 11.4996 79.0387 16.6225L70.73 68.746C69.7481 74.9062 63.0013 78.3146 57.4761 75.4418L58.1751 74.1118C62.7908 76.5117 68.4271 73.6643 69.2474 68.5181L77.5561 16.3946C78.2438 12.0806 75.3406 8.03176 71.0344 7.29922L57.3985 4.9796L58.1751 74.1118L56.6739 74.1365L55.8771 3.19912Z" fill="#64748B"/>
<path fill-rule="evenodd" clip-rule="evenodd" d="M10.6021 74.9992L10.6021 4H58.6021C63.0203 4 66.6021 7.58172 66.6021 12V67C66.6021 71.4183 63.0202 75.0001 58.6019 75L10.6021 74.9992ZM22.8896 49.1657V53.0394C22.8896 57.4577 26.4714 61.0394 30.8896 61.0394H46.8472C51.2655 61.0394 54.8472 57.4577 54.8472 53.0394V49.1657C54.8472 44.7474 51.2655 41.1657 46.8472 41.1657H30.8896C26.4714 41.1657 22.8896 44.7474 22.8896 49.1657ZM38.8685 34.8533C43.5566 34.8533 47.3572 31.0717 47.3572 26.4069C47.3572 21.7421 43.5566 17.9606 38.8685 17.9606C34.1803 17.9606 30.3797 21.7421 30.3797 26.4069C30.3797 31.0717 34.1803 34.8533 38.8685 34.8533Z" fill="#334155"/>
<path fill-rule="evenodd" clip-rule="evenodd" d="M22.8896 49.1657V53.0394C22.8896 57.4577 26.4714 61.0394 30.8896 61.0394H46.8472C51.2655 61.0394 54.8472 57.4577 54.8472 53.0394V49.1657C54.8472 44.7474 51.2655 41.1657 46.8472 41.1657H30.8896C26.4714 41.1657 22.8896 44.7474 22.8896 49.1657ZM24.3896 53.0394V49.1657C24.3896 45.5758 27.2998 42.6657 30.8896 42.6657H46.8472C50.437 42.6657 53.3472 45.5758 53.3472 49.1657V53.0394C53.3472 56.6293 50.437 59.5394 46.8472 59.5394H30.8896C27.2998 59.5394 24.3896 56.6293 24.3896 53.0394Z" fill="#64748B"/>
<path fill-rule="evenodd" clip-rule="evenodd" d="M38.8685 34.8532C43.5566 34.8532 47.3572 31.0717 47.3572 26.4069C47.3572 21.7421 43.5566 17.9606 38.8685 17.9606C34.1803 17.9606 30.3797 21.7421 30.3797 26.4069C30.3797 31.0717 34.1803 34.8532 38.8685 34.8532ZM45.8572 26.4069C45.8572 30.2362 42.7353 33.3533 38.8685 33.3533C35.0016 33.3533 31.8797 30.2362 31.8797 26.4069C31.8797 22.5776 35.0016 19.4606 38.8685 19.4606C42.7353 19.4606 45.8572 22.5776 45.8572 26.4069Z" fill="#64748B"/>
<path fill-rule="evenodd" clip-rule="evenodd" d="M58.6021 2.5H9.10205L9.10205 17.7334H3.85059C3.43637 17.7334 3.10059 18.0692 3.10059 18.4834C3.10059 18.8976 3.43637 19.2334 3.85059 19.2334H9.10205L9.10205 38.8779H3.85059C3.43637 38.8779 3.10059 39.2137 3.10059 39.6279C3.10059 40.0421 3.43637 40.3779 3.85059 40.3779H9.10205L9.10205 60.752H3.85059C3.43637 60.752 3.10059 61.0877 3.10059 61.502C3.10059 61.9162 3.43637 62.252 3.85059 62.252H9.10205L9.10205 76.4992L58.6019 76.5C63.8487 76.5001 68.1021 72.2468 68.1021 67V12C68.1021 6.75329 63.8488 2.5 58.6021 2.5ZM10.6021 62.252L10.6021 74.9992L58.6019 75C63.0202 75.0001 66.6021 71.4183 66.6021 67V12C66.6021 7.58172 63.0203 4 58.6021 4H10.6021L10.6021 17.7334H15.6148C16.029 17.7334 16.3648 18.0692 16.3648 18.4834C16.3648 18.8976 16.029 19.2334 15.6148 19.2334H10.6021L10.6021 38.8779H15.6148C16.029 38.8779 16.3648 39.2137 16.3648 39.6279C16.3648 40.0421 16.029 40.3779 15.6148 40.3779H10.6021L10.6021 60.752H15.6148C16.029 60.752 16.3648 61.0877 16.3648 61.502C16.3648 61.9162 16.029 62.252 15.6148 62.252H10.6021Z" fill="#64748B"/>
</svg>
