<svg width="81" height="81" viewBox="0 0 81 81" fill="none" xmlns="http://www.w3.org/2000/svg">
<g clip-path="url(#clip0_142_9300)">
<path fill-rule="evenodd" clip-rule="evenodd" d="M49.1334 16.6539C49.1334 21.2186 45.4329 24.919 40.8682 24.919C36.3035 24.919 32.603 21.2186 32.603 16.6539C32.603 12.0891 36.3035 8.38867 40.8682 8.38867C45.4329 8.38867 49.1334 12.0891 49.1334 16.6539ZM47.6334 16.6539C47.6334 20.3902 44.6045 23.419 40.8682 23.419C37.1319 23.419 34.103 20.3902 34.103 16.6539C34.103 12.9175 37.1319 9.88867 40.8682 9.88867C44.6045 9.88867 47.6334 12.9175 47.6334 16.6539Z" fill="#9CA3AF"/>
<path fill-rule="evenodd" clip-rule="evenodd" d="M25.7452 25.9195C25.7452 30.4842 22.0448 34.1847 17.48 34.1847C12.9153 34.1847 9.21484 30.4842 9.21484 25.9195C9.21484 21.3547 12.9153 17.6543 17.48 17.6543C22.0448 17.6543 25.7452 21.3547 25.7452 25.9195ZM24.2452 25.9195C24.2452 29.6558 21.2163 32.6847 17.48 32.6847C13.7437 32.6847 10.7148 29.6558 10.7148 25.9195C10.7148 22.1832 13.7437 19.1543 17.48 19.1543C21.2163 19.1543 24.2452 22.1832 24.2452 25.9195Z" fill="#9CA3AF"/>
<path d="M2.61816 49.168C2.61816 45.1639 5.8641 41.918 9.86816 41.918H24.5063V61.1647C24.5063 61.5789 24.8421 61.9147 25.2563 61.9147C25.6706 61.9147 26.0063 61.5789 26.0063 61.1647V41.975C29.5789 42.4245 32.3422 45.4735 32.3422 49.168V72.392C32.3422 72.8062 32.678 73.142 33.0922 73.142C33.5064 73.142 33.8422 72.8062 33.8422 72.392V49.168C33.8422 44.6442 30.4092 40.9222 26.0063 40.4651V39.7773C26.0063 35.7733 29.2523 32.5273 33.2563 32.5273H48.4804C52.4845 32.5273 55.7304 35.7733 55.7304 39.7773V40.4651C51.3273 40.9219 47.894 44.644 47.894 49.168V70.5553C47.894 70.9695 48.2298 71.3053 48.644 71.3053C49.0583 71.3053 49.394 70.9695 49.394 70.5553V49.168C49.394 45.4734 52.1576 42.4242 55.7304 41.975V61.1647C55.7304 61.5789 56.0662 61.9147 56.4804 61.9147C56.8946 61.9147 57.2304 61.5789 57.2304 61.1647V41.918H71.8681C75.8721 41.918 79.1181 45.1639 79.1181 49.168V70.5553C79.1181 70.9695 79.4539 71.3053 79.8681 71.3053C80.2823 71.3053 80.6181 70.9695 80.6181 70.5553V49.168C80.6181 44.3355 76.7006 40.418 71.8681 40.418H57.2304V39.7773C57.2304 34.9449 53.3129 31.0273 48.4804 31.0273H33.2563C28.4239 31.0273 24.5063 34.9449 24.5063 39.7773V40.418H9.86816C5.03567 40.418 1.11816 44.3355 1.11816 49.168V72.392C1.11816 72.8062 1.45395 73.142 1.86816 73.142C2.28238 73.142 2.61816 72.8062 2.61816 72.392V49.168Z" fill="#9CA3AF"/>
<path fill-rule="evenodd" clip-rule="evenodd" d="M72.5216 25.9195C72.5216 30.4842 68.8211 34.1847 64.2564 34.1847C59.6917 34.1847 55.9912 30.4842 55.9912 25.9195C55.9912 21.3547 59.6917 17.6543 64.2564 17.6543C68.8211 17.6543 72.5216 21.3547 72.5216 25.9195ZM71.0216 25.9195C71.0216 29.6558 67.9927 32.6847 64.2564 32.6847C60.5201 32.6847 57.4912 29.6558 57.4912 25.9195C57.4912 22.1832 60.5201 19.1543 64.2564 19.1543C67.9927 19.1543 71.0216 22.1832 71.0216 25.9195Z" fill="#9CA3AF"/>
</g>
<defs>
<clipPath id="clip0_142_9300">
<rect width="80" height="80" fill="white" transform="translate(0.868164 0.390625)"/>
</clipPath>
</defs>
</svg>
