<svg width="81" height="81" viewBox="0 0 81 81" fill="none" xmlns="http://www.w3.org/2000/svg">
<g clip-path="url(#clip0_142_9186)">
<path d="M14.9605 62.0026C13.8559 62.0026 12.9605 61.1071 12.9605 60.0026L12.9604 30.003C12.9604 28.8984 13.8559 28.003 14.9604 28.003L34.9604 28.003C36.065 28.003 36.9604 28.8984 36.9604 30.003L36.9604 60.0029C36.9604 61.1075 36.065 62.0029 34.9604 62.0029L14.9605 62.0026Z" fill="#E5E7EB"/>
<path fill-rule="evenodd" clip-rule="evenodd" d="M34.9604 29.503L14.9604 29.503C14.6843 29.503 14.4604 29.7268 14.4604 30.003L14.4605 60.0026C14.4605 60.2787 14.6844 60.5026 14.9605 60.5026L34.9604 60.5029C35.2366 60.5029 35.4604 60.2791 35.4604 60.0029L35.4604 30.003C35.4604 29.7268 35.2366 29.503 34.9604 29.503ZM12.9605 60.0026C12.9605 61.1071 13.8559 62.0026 14.9605 62.0026L34.9604 62.0029C36.065 62.0029 36.9604 61.1075 36.9604 60.0029L36.9604 30.003C36.9604 28.8984 36.065 28.003 34.9604 28.003L14.9604 28.003C13.8559 28.003 12.9604 28.8984 12.9604 30.003L12.9605 60.0026Z" fill="#9CA3AF"/>
<path fill-rule="evenodd" clip-rule="evenodd" d="M45.5957 40.6699C45.5957 40.2557 45.9315 39.9199 46.3457 39.9199L68.3454 39.9199C68.7596 39.9199 69.0954 40.2557 69.0954 40.6699C69.0954 41.0841 68.7596 41.4199 68.3454 41.4199L46.3457 41.4199C45.9315 41.4199 45.5957 41.0841 45.5957 40.6699Z" fill="#9CA3AF"/>
<path fill-rule="evenodd" clip-rule="evenodd" d="M45.5957 32.0039C45.5957 31.5897 45.9315 31.2539 46.3457 31.2539L68.3454 31.2539C68.7596 31.2539 69.0954 31.5897 69.0954 32.0039C69.0954 32.4181 68.7596 32.7539 68.3454 32.7539L46.3457 32.7539C45.9315 32.7539 45.5957 32.4181 45.5957 32.0039Z" fill="#9CA3AF"/>
<path fill-rule="evenodd" clip-rule="evenodd" d="M45.5957 49.3369C45.5957 48.9227 45.9315 48.5869 46.3457 48.5869L68.3457 48.5869C68.7599 48.5869 69.0957 48.9227 69.0957 49.3369C69.0957 49.7511 68.7599 50.0869 68.3457 50.0869L46.3457 50.0869C45.9315 50.0869 45.5957 49.7511 45.5957 49.3369Z" fill="#9CA3AF"/>
<path fill-rule="evenodd" clip-rule="evenodd" d="M45.5957 58.0029C45.5957 57.5887 45.9315 57.2529 46.3457 57.2529L57.3458 57.2529C57.76 57.2529 58.0958 57.5887 58.0958 58.0029C58.0958 58.4171 57.76 58.7529 57.3458 58.7529L46.3457 58.7529C45.9315 58.7529 45.5957 58.4171 45.5957 58.0029Z" fill="#9CA3AF"/>
<path fill-rule="evenodd" clip-rule="evenodd" d="M79.8681 24.9019C79.8522 20.4972 76.2766 16.9314 71.8682 16.9314L9.86821 16.9314C5.44994 16.9314 1.86822 20.5131 1.86822 24.9314L1.86816 16.874C1.86817 12.4557 5.44989 8.87403 9.86816 8.87403L71.8681 8.87402C76.2864 8.87402 79.8681 12.4557 79.8681 16.874V24.9019Z" fill="#E5E7EB"/>
<path fill-rule="evenodd" clip-rule="evenodd" d="M1.11822 16.874C1.11823 12.0415 5.03573 8.12403 9.86822 8.12403L71.8682 8.12402C76.7007 8.12402 80.6182 12.0415 80.6182 16.874V64.874C80.6182 69.7065 76.7006 73.6241 71.8681 73.624L9.86809 73.6235C5.03562 73.6234 1.11816 69.7059 1.11816 64.8735L1.11818 56.8491L1.11816 56.8435L1.11822 16.874ZM9.86822 9.62403L71.8682 9.62402C75.8722 9.62402 79.1182 12.87 79.1182 16.874V19.954C77.545 17.6312 74.8849 16.1046 71.8682 16.1046L9.86822 16.1046C6.85152 16.1046 4.19138 17.6312 2.61822 19.954L2.61822 16.874C2.61822 12.87 5.86416 9.62403 9.86822 9.62403ZM2.61816 64.8735C2.61816 68.8775 5.86406 72.1234 9.8681 72.1235L71.8681 72.124C75.8722 72.1241 79.1182 68.8781 79.1182 64.874L79.1182 24.9046L79.1182 24.9026C79.1026 20.9118 75.8627 17.6814 71.8682 17.6814L9.86827 17.6814C5.86421 17.6814 2.61828 20.9273 2.61827 24.9314L2.61816 64.8735Z" fill="#9CA3AF"/>
</g>
<defs>
<clipPath id="clip0_142_9186">
<rect width="80" height="80" fill="white" transform="translate(0.868164 0.78125)"/>
</clipPath>
</defs>
</svg>
