<svg width="81" height="81" viewBox="0 0 81 81" fill="none" xmlns="http://www.w3.org/2000/svg">
<g clip-path="url(#clip0_142_9249)">
<path fill-rule="evenodd" clip-rule="evenodd" d="M20.3936 48.6422V58.2131C20.3936 62.6314 23.9753 66.2131 28.3936 66.2131H63.0813L79.4015 75.3286V30.9092C79.4015 26.4909 75.8198 22.9092 71.4015 22.9092H60.4067V40.6422C60.4067 45.0605 56.825 48.6422 52.4067 48.6422H20.3936Z" fill="#334155"/>
<path fill-rule="evenodd" clip-rule="evenodd" d="M9.40137 4.5791C4.56888 4.5791 0.651367 8.4966 0.651367 13.3291V59.0201L17.9148 49.3778H19.6436V58.2131C19.6436 63.0456 23.5611 66.9631 28.3936 66.9631H62.8861L80.1515 76.6065V30.9092C80.1515 26.0767 76.234 22.1592 71.4015 22.1592H61.1522V13.3291C61.1522 8.49661 57.2347 4.5791 52.4022 4.5791H9.40137ZM2.15137 13.3291C2.15137 9.32503 5.3973 6.0791 9.40137 6.0791H52.4022C56.4062 6.0791 59.6522 9.32504 59.6522 13.3291V40.6278C59.6522 44.6319 56.4062 47.8778 52.4022 47.8778H17.5243L2.15137 56.4642V13.3291ZM61.1567 40.6422V23.6592H71.4015C75.4055 23.6592 78.6515 26.9051 78.6515 30.9092V74.0506L63.2766 65.4631H28.3936C24.3895 65.4631 21.1436 62.2172 21.1436 58.2131V49.3922H52.4067C57.2392 49.3922 61.1567 45.4747 61.1567 40.6422Z" fill="#64748B"/>
</g>
<defs>
<clipPath id="clip0_142_9249">
<rect width="80" height="80" fill="white" transform="translate(0.401367 0.0859375)"/>
</clipPath>
</defs>
</svg>
