<svg width="193" height="192" viewBox="0 0 193 192" fill="none" xmlns="http://www.w3.org/2000/svg">
<path d="M112.401 21C112.401 16.5817 108.82 13 104.401 13H88.4014C83.9831 13 80.4014 16.5817 80.4014 21V37C80.4014 41.4183 83.9831 45 88.4014 45H104.401C108.82 45 112.401 41.4183 112.401 37V21Z" fill="#1E293B"/>
<path fill-rule="evenodd" clip-rule="evenodd" d="M88.4014 14.5H104.401C107.991 14.5 110.901 17.4101 110.901 21V37C110.901 40.5899 107.991 43.5 104.401 43.5H88.4014C84.8115 43.5 81.9014 40.5899 81.9014 37V21C81.9014 17.4101 84.8115 14.5 88.4014 14.5ZM104.401 13C108.82 13 112.401 16.5817 112.401 21V37C112.401 41.4183 108.82 45 104.401 45H88.4014C83.9831 45 80.4014 41.4183 80.4014 37V21C80.4014 16.5817 83.9831 13 88.4014 13H104.401Z" fill="#52ADF9"/>
<path d="M60.4014 127C60.4014 122.582 56.8196 119 52.4014 119H36.4014C31.9831 119 28.4014 122.582 28.4014 127V143C28.4014 147.418 31.9831 151 36.4014 151H52.4014C56.8196 151 60.4014 147.418 60.4014 143V127Z" fill="#1E293B"/>
<path fill-rule="evenodd" clip-rule="evenodd" d="M36.4014 120.5H52.4014C55.9912 120.5 58.9014 123.41 58.9014 127V143C58.9014 146.59 55.9912 149.5 52.4014 149.5H36.4014C32.8115 149.5 29.9014 146.59 29.9014 143V127C29.9014 123.41 32.8115 120.5 36.4014 120.5ZM52.4014 119C56.8196 119 60.4014 122.582 60.4014 127V143C60.4014 147.418 56.8196 151 52.4014 151H36.4014C31.9831 151 28.4014 147.418 28.4014 143V127C28.4014 122.582 31.9831 119 36.4014 119H52.4014Z" fill="#52ADF9"/>
<path fill-rule="evenodd" clip-rule="evenodd" d="M43.6514 116L43.6514 100L45.1514 100L45.1514 116L43.6514 116Z" fill="#64748B"/>
<path fill-rule="evenodd" clip-rule="evenodd" d="M95.6514 66L95.6514 48L97.1514 48L97.1514 66L95.6514 66Z" fill="#64748B"/>
<path fill-rule="evenodd" clip-rule="evenodd" d="M95.6514 155L95.6514 126L97.1514 126L97.1514 155L95.6514 155Z" fill="#64748B"/>
<path fill-rule="evenodd" clip-rule="evenodd" d="M150.151 67V92H148.651V67H150.151Z" fill="#64748B"/>
<path fill-rule="evenodd" clip-rule="evenodd" d="M149.171 96.4512H126.401V94.9512H149.171C153.579 94.9512 157.151 98.524 157.151 102.931L157.151 121.701L155.651 121.701L155.651 102.931C155.651 99.3524 152.75 96.4512 149.171 96.4512Z" fill="#A3E635"/>
<path fill-rule="evenodd" clip-rule="evenodd" d="M43.6314 95.25L66.4014 95.25L66.4014 96.75L43.6314 96.75C39.2241 96.75 35.6514 93.1772 35.6515 88.77L35.6518 70L37.1518 70L37.1515 88.77C37.1514 92.3488 40.0526 95.25 43.6314 95.25Z" fill="#A3E635"/>
<path d="M157.401 52C157.401 49.7909 155.611 48 153.401 48H145.401C143.192 48 141.401 49.7909 141.401 52V60C141.401 62.2091 143.192 64 145.401 64H153.401C155.611 64 157.401 62.2091 157.401 60V52Z" fill="#1E293B"/>
<path fill-rule="evenodd" clip-rule="evenodd" d="M145.401 49.5H153.401C154.782 49.5 155.901 50.6193 155.901 52V60C155.901 61.3807 154.782 62.5 153.401 62.5H145.401C144.021 62.5 142.901 61.3807 142.901 60V52C142.901 50.6193 144.021 49.5 145.401 49.5ZM153.401 48C155.611 48 157.401 49.7909 157.401 52V60C157.401 62.2091 155.611 64 153.401 64H145.401C143.192 64 141.401 62.2091 141.401 60V52C141.401 49.7909 143.192 48 145.401 48H153.401Z" fill="#64748B"/>
<path d="M104.401 162C104.401 159.791 102.611 158 100.401 158H92.4014C90.1922 158 88.4014 159.791 88.4014 162V170C88.4014 172.209 90.1922 174 92.4014 174H100.401C102.611 174 104.401 172.209 104.401 170V162Z" fill="#1E293B"/>
<path fill-rule="evenodd" clip-rule="evenodd" d="M92.4014 159.5H100.401C101.782 159.5 102.901 160.619 102.901 162V170C102.901 171.381 101.782 172.5 100.401 172.5H92.4014C91.0207 172.5 89.9014 171.381 89.9014 170V162C89.9014 160.619 91.0207 159.5 92.4014 159.5ZM100.401 158C102.611 158 104.401 159.791 104.401 162V170C104.401 172.209 102.611 174 100.401 174H92.4014C90.1922 174 88.4014 172.209 88.4014 170V162C88.4014 159.791 90.1922 158 92.4014 158H100.401Z" fill="#64748B"/>
<path d="M123.242 81C123.242 74.3726 117.87 69 111.242 69H81.2422C74.6148 69 69.2422 74.3726 69.2422 81V111C69.2422 117.627 74.6148 123 81.2422 123H111.242C117.87 123 123.242 117.627 123.242 111V81Z" fill="#1E293B"/>
<path fill-rule="evenodd" clip-rule="evenodd" d="M81.2422 70.5H111.242C117.041 70.5 121.742 75.201 121.742 81V111C121.742 116.799 117.041 121.5 111.242 121.5H81.2422C75.4432 121.5 70.7422 116.799 70.7422 111V81C70.7422 75.201 75.4432 70.5 81.2422 70.5ZM111.242 69C117.87 69 123.242 74.3726 123.242 81V111C123.242 117.627 117.87 123 111.242 123H81.2422C74.6148 123 69.2422 117.627 69.2422 111V81C69.2422 74.3726 74.6148 69 81.2422 69H111.242Z" fill="#A3E635"/>
<path fill-rule="evenodd" clip-rule="evenodd" d="M86.1254 83.5728H105.57C106.307 83.5728 107.013 83.8671 107.534 84.3911C108.055 84.9151 108.348 85.6257 108.348 86.3667L108.348 110.313C108.348 111.38 107.11 111.962 106.296 111.278L101.256 107.573H86.1254C85.3887 107.573 84.6822 107.278 84.1613 106.754C83.6403 106.23 83.3477 105.52 83.3477 104.779V86.3667C83.3477 85.6257 83.6403 84.9151 84.1613 84.3911C84.6822 83.8671 85.3887 83.5728 86.1254 83.5728ZM93.5152 95.9531H87.7921V88.0431H103.903V95.9531H98.2747V98.6887H100.333C100.705 98.6887 100.891 99.1402 100.628 99.4042L96.1896 103.869C96.0269 104.032 95.7631 104.032 95.6004 103.869L91.1619 99.4042C90.8994 99.1402 91.0853 98.6887 91.4566 98.6887H93.5152V95.9531Z" fill="#A3E635"/>
<path d="M172.401 132C172.401 127.582 168.82 124 164.401 124H148.401C143.983 124 140.401 127.582 140.401 132V148C140.401 152.418 143.983 156 148.401 156H164.401C168.82 156 172.401 152.418 172.401 148V132Z" fill="#1E293B"/>
<path fill-rule="evenodd" clip-rule="evenodd" d="M148.401 125.5H164.401C167.991 125.5 170.901 128.41 170.901 132V148C170.901 151.59 167.991 154.5 164.401 154.5H148.401C144.812 154.5 141.901 151.59 141.901 148V132C141.901 128.41 144.812 125.5 148.401 125.5ZM164.401 124C168.82 124 172.401 127.582 172.401 132V148C172.401 152.418 168.82 156 164.401 156H148.401C143.983 156 140.401 152.418 140.401 148V132C140.401 127.582 143.983 124 148.401 124H164.401Z" fill="#A3E635"/>
<path d="M152 138.541V145.66C152 146.238 152.471 146.714 153.054 146.714H153.549C154.127 146.714 154.603 146.238 154.603 145.66V138.541H152Z" fill="#82C91E"/>
<path d="M154.597 135.109V133.769C154.597 133.191 154.127 132.714 153.549 132.714H153.054C152.477 132.714 152 133.191 152 133.769V135.109H154.597Z" fill="#82C91E"/>
<path d="M160.376 140.888V133.769C160.376 133.191 159.906 132.714 159.328 132.714H158.833C158.255 132.714 157.779 133.191 157.779 133.769V140.888H160.376Z" fill="#82C91E"/>
<path d="M157.779 144.319V145.66C157.779 146.238 158.255 146.714 158.833 146.714H159.328C159.906 146.714 160.382 146.238 160.382 145.66V144.319H157.779Z" fill="#82C91E"/>
<path d="M151.583 141.305H150.243C149.665 141.305 149.188 141.775 149.188 142.359V142.854C149.188 143.431 149.659 143.908 150.243 143.908H151.583V141.305Z" fill="#A3E635"/>
<path d="M162.134 141.305H155.015V143.908H162.134C162.712 143.908 163.188 143.431 163.188 142.854V142.359C163.188 141.775 162.712 141.305 162.134 141.305Z" fill="#A3E635"/>
<path d="M157.362 135.526H150.243C149.665 135.526 149.188 135.997 149.188 136.58V137.075C149.188 137.653 149.659 138.129 150.243 138.129H157.362V135.526Z" fill="#A3E635"/>
<path d="M162.134 135.526H160.794V138.129H162.134C162.712 138.129 163.188 137.659 163.188 137.075V136.58C163.188 135.997 162.712 135.526 162.134 135.526Z" fill="#A3E635"/>
<path d="M28.0254 50.6526V64.891C28.0254 66.0468 28.9667 67 30.1343 67H31.1233C32.279 67 33.2322 66.0468 33.2322 64.891V50.6526H28.0254Z" fill="#82C91E"/>
<path d="M33.2203 43.7899V41.109C33.2203 39.9532 32.279 39 31.1233 39H30.1343C28.9786 39 28.0254 39.9532 28.0254 41.109V43.7899H33.2203Z" fill="#82C91E"/>
<path d="M44.7777 55.3474V41.109C44.7777 39.9532 43.8364 39 42.6807 39H41.6917C40.536 39 39.5828 39.9532 39.5828 41.109V55.3474H44.7777Z" fill="#82C91E"/>
<path d="M39.5828 62.2099V64.8908C39.5828 66.0466 40.536 66.9998 41.6917 66.9998H42.6807C43.8364 66.9998 44.7896 66.0466 44.7896 64.8908V62.2099H39.5828Z" fill="#82C91E"/>
<path d="M27.1912 56.1805H24.5103C23.3546 56.1805 22.4014 57.1218 22.4014 58.2894V59.2784C22.4014 60.4341 23.3426 61.3873 24.5103 61.3873H27.1912V56.1805Z" fill="#A3E635"/>
<path d="M48.2924 56.1805H34.054V61.3873H48.2924C49.4481 61.3873 50.4013 60.4341 50.4013 59.2784V58.2894C50.4013 57.1218 49.4481 56.1805 48.2924 56.1805Z" fill="#A3E635"/>
<path d="M38.7486 44.6231H24.5103C23.3546 44.6231 22.4014 45.5644 22.4014 46.7321V47.721C22.4014 48.8768 23.3426 49.83 24.5103 49.83H38.7486V44.6231Z" fill="#A3E635"/>
<path d="M48.2924 44.623H45.6116V49.8299H48.2924C49.4482 49.8299 50.4014 48.8886 50.4014 47.721V46.732C50.4014 45.5643 49.4482 44.623 48.2924 44.623Z" fill="#A3E635"/>
</svg>
