<svg width="193" height="192" viewBox="0 0 193 192" fill="none" xmlns="http://www.w3.org/2000/svg">
<path d="M102.266 89.0796L92.9564 83.8145L92.9564 94.3447L102.266 89.0796Z" fill="#82C91E"/>
<path d="M93.4409 102.92L102.75 108.185L102.75 97.6553L93.4409 102.92Z" fill="#2B8EF1"/>
<path d="M6.85352 36.0312C6.85352 29.4038 12.2261 24.0312 18.8535 24.0312H72.8535C79.4809 24.0312 84.8535 29.4038 84.8535 36.0312V157.031C84.8535 163.659 79.4809 169.031 72.8535 169.031H18.8535C12.2261 169.031 6.85352 163.659 6.85352 157.031V36.0312Z" fill="#ECFCCB"/>
<path fill-rule="evenodd" clip-rule="evenodd" d="M72.8535 25.5312H18.8535C13.0545 25.5312 8.35352 30.2323 8.35352 36.0312V157.031C8.35352 162.83 13.0545 167.531 18.8535 167.531H72.8535C78.6525 167.531 83.3535 162.83 83.3535 157.031V36.0312C83.3535 30.2323 78.6525 25.5312 72.8535 25.5312ZM18.8535 24.0312C12.2261 24.0312 6.85352 29.4038 6.85352 36.0312V157.031C6.85352 163.659 12.2261 169.031 18.8535 169.031H72.8535C79.4809 169.031 84.8535 163.659 84.8535 157.031V36.0312C84.8535 29.4038 79.4809 24.0312 72.8535 24.0312H18.8535Z" fill="#65A30D"/>
<path fill-rule="evenodd" clip-rule="evenodd" d="M45.8535 36.4092C45.0251 36.4092 44.3535 35.7376 44.3535 34.9092C44.3535 34.0808 45.0251 33.4092 45.8535 33.4092C46.6819 33.4092 47.3535 34.0808 47.3535 34.9092C47.3535 35.7376 46.6819 36.4092 45.8535 36.4092ZM45.8535 37.9092C44.1967 37.9092 42.8535 36.566 42.8535 34.9092C42.8535 33.2523 44.1967 31.9092 45.8535 31.9092C47.5104 31.9092 48.8535 33.2523 48.8535 34.9092C48.8535 36.566 47.5104 37.9092 45.8535 37.9092Z" fill="#65A30D"/>
<path fill-rule="evenodd" clip-rule="evenodd" d="M27.1035 34.5923C27.1035 34.1781 27.4393 33.8423 27.8535 33.8423H37.8535C38.2677 33.8423 38.6035 34.1781 38.6035 34.5923C38.6035 35.0065 38.2677 35.3423 37.8535 35.3423H27.8535C27.4393 35.3423 27.1035 35.0065 27.1035 34.5923Z" fill="#65A30D"/>
<path fill-rule="evenodd" clip-rule="evenodd" d="M53.1035 34.5923C53.1035 34.1781 53.4393 33.8423 53.8535 33.8423L63.8535 33.8423C64.2677 33.8423 64.6035 34.1781 64.6035 34.5923C64.6035 35.0065 64.2677 35.3423 63.8535 35.3423L53.8535 35.3423C53.4393 35.3423 53.1035 35.0065 53.1035 34.5923Z" fill="#65A30D"/>
<path d="M77.8535 51.6338C77.8535 47.2155 74.2718 43.6338 69.8535 43.6338H21.8535C17.4352 43.6338 13.8535 47.2155 13.8535 51.6338V147.634C13.8535 152.052 17.4352 155.634 21.8535 155.634H69.8535C74.2718 155.634 77.8535 152.052 77.8535 147.634V51.6338Z" fill="#F9FAFB"/>
<path fill-rule="evenodd" clip-rule="evenodd" d="M21.8535 45.1338H69.8535C73.4434 45.1338 76.3535 48.0439 76.3535 51.6338V147.634C76.3535 151.224 73.4434 154.134 69.8535 154.134H21.8535C18.2637 154.134 15.3535 151.224 15.3535 147.634V51.6338C15.3535 48.0439 18.2637 45.1338 21.8535 45.1338ZM69.8535 43.6338C74.2718 43.6338 77.8535 47.2155 77.8535 51.6338V147.634C77.8535 152.052 74.2718 155.634 69.8535 155.634H21.8535C17.4352 155.634 13.8535 152.052 13.8535 147.634V51.6338C13.8535 47.2155 17.4352 43.6338 21.8535 43.6338H69.8535Z" fill="#65A30D"/>
<path d="M51.5202 114H47.7424V110.222H51.5202V114ZM47.7424 100.778H43.9646V110.222H47.7424V100.778ZM62.8535 97H59.0757V104.556H62.8535V97ZM59.0757 93.2222H55.298V97H59.0757V93.2222ZM36.4091 97H32.6313V100.778H36.4091V97ZM32.6313 93.2222H28.8535V97H32.6313V93.2222ZM45.8535 83.7778H49.6313V80H45.8535V83.7778ZM31.6868 82.8333V88.5H37.3535V82.8333H31.6868ZM40.1868 91.3333H28.8535V80H40.1868V91.3333ZM31.6868 105.5V111.167H37.3535V105.5H31.6868ZM40.1868 114H28.8535V102.667H40.1868V114ZM54.3535 82.8333V88.5H60.0202V82.8333H54.3535ZM62.8535 91.3333H51.5202V80H57.1868H62.8535V91.3333ZM59.0757 110.222V104.556H51.5202V108.333H55.298V114H62.8535V110.222H59.0757ZM55.298 97H47.7424V100.778H55.298V97ZM47.7424 93.2222H36.4091V97H40.1868V100.778H43.9646V97H47.7424V93.2222ZM49.6313 91.3333V87.5556H45.8535V83.7778H42.0757V91.3333H49.6313ZM35.9368 84.25H33.1035V87.0833H35.9368V84.25ZM35.9368 106.917H33.1035V109.75H35.9368V106.917ZM58.6035 84.25H55.7702V87.0833H58.6035V84.25Z" fill="#82C91E"/>
<path d="M109.854 36.0312C109.854 29.4038 115.226 24.0312 121.854 24.0312H175.854C182.481 24.0312 187.854 29.4038 187.854 36.0312V157.031C187.854 163.659 182.481 169.031 175.854 169.031H121.854C115.226 169.031 109.854 163.659 109.854 157.031V36.0312Z" fill="#DDEDFE"/>
<path fill-rule="evenodd" clip-rule="evenodd" d="M175.854 25.5312H121.854C116.055 25.5312 111.354 30.2323 111.354 36.0312V157.031C111.354 162.83 116.055 167.531 121.854 167.531H175.854C181.653 167.531 186.354 162.83 186.354 157.031V36.0312C186.354 30.2323 181.653 25.5312 175.854 25.5312ZM121.854 24.0312C115.226 24.0312 109.854 29.4038 109.854 36.0312V157.031C109.854 163.659 115.226 169.031 121.854 169.031H175.854C182.481 169.031 187.854 163.659 187.854 157.031V36.0312C187.854 29.4038 182.481 24.0312 175.854 24.0312H121.854Z" fill="#196FDE"/>
<path fill-rule="evenodd" clip-rule="evenodd" d="M148.854 36.4092C148.025 36.4092 147.354 35.7376 147.354 34.9092C147.354 34.0808 148.025 33.4092 148.854 33.4092C149.682 33.4092 150.354 34.0808 150.354 34.9092C150.354 35.7376 149.682 36.4092 148.854 36.4092ZM148.854 37.9092C147.197 37.9092 145.854 36.566 145.854 34.9092C145.854 33.2523 147.197 31.9092 148.854 31.9092C150.51 31.9092 151.854 33.2523 151.854 34.9092C151.854 36.566 150.51 37.9092 148.854 37.9092Z" fill="#196FDE"/>
<path fill-rule="evenodd" clip-rule="evenodd" d="M130.104 34.5923C130.104 34.1781 130.439 33.8423 130.854 33.8423H140.854C141.268 33.8423 141.604 34.1781 141.604 34.5923C141.604 35.0065 141.268 35.3423 140.854 35.3423H130.854C130.439 35.3423 130.104 35.0065 130.104 34.5923Z" fill="#196FDE"/>
<path fill-rule="evenodd" clip-rule="evenodd" d="M156.104 34.5923C156.104 34.1781 156.439 33.8423 156.854 33.8423L166.854 33.8423C167.268 33.8423 167.604 34.1781 167.604 34.5923C167.604 35.0065 167.268 35.3423 166.854 35.3423L156.854 35.3423C156.439 35.3423 156.104 35.0065 156.104 34.5923Z" fill="#196FDE"/>
<path d="M180.854 51.6338C180.854 47.2155 177.272 43.6338 172.854 43.6338H124.854C120.435 43.6338 116.854 47.2155 116.854 51.6338V147.634C116.854 152.052 120.435 155.634 124.854 155.634H172.854C177.272 155.634 180.854 152.052 180.854 147.634V51.6338Z" fill="#F9FAFB"/>
<path fill-rule="evenodd" clip-rule="evenodd" d="M124.854 45.1338H172.854C176.443 45.1338 179.354 48.0439 179.354 51.6338V147.634C179.354 151.224 176.443 154.134 172.854 154.134H124.854C121.264 154.134 118.354 151.224 118.354 147.634V51.6338C118.354 48.0439 121.264 45.1338 124.854 45.1338ZM172.854 43.6338C177.272 43.6338 180.854 47.2155 180.854 51.6338V147.634C180.854 152.052 177.272 155.634 172.854 155.634H124.854C120.435 155.634 116.854 152.052 116.854 147.634V51.6338C116.854 47.2155 120.435 43.6338 124.854 43.6338H172.854Z" fill="#196FDE"/>
<path d="M154.52 114H150.742V110.222H154.52V114ZM150.742 100.778H146.965V110.222H150.742V100.778ZM165.854 97H162.076V104.556H165.854V97ZM162.076 93.2222H158.298V97H162.076V93.2222ZM139.409 97H135.631V100.778H139.409V97ZM135.631 93.2222H131.854V97H135.631V93.2222ZM148.854 83.7778H152.631V80H148.854V83.7778ZM134.687 82.8333V88.5H140.354V82.8333H134.687ZM143.187 91.3333H131.854V80H143.187V91.3333ZM134.687 105.5V111.167H140.354V105.5H134.687ZM143.187 114H131.854V102.667H143.187V114ZM157.354 82.8333V88.5H163.02V82.8333H157.354ZM165.854 91.3333H154.52V80H160.187H165.854V91.3333ZM162.076 110.222V104.556H154.52V108.333H158.298V114H165.854V110.222H162.076ZM158.298 97H150.742V100.778H158.298V97ZM150.742 93.2222H139.409V97H143.187V100.778H146.965V97H150.742V93.2222ZM152.631 91.3333V87.5556H148.854V83.7778H145.076V91.3333H152.631ZM138.937 84.25H136.103V87.0833H138.937V84.25ZM138.937 106.917H136.103V109.75H138.937V106.917ZM161.604 84.25H158.77V87.0833H161.604V84.25Z" fill="#2B8EF1"/>
</svg>
