<?xml version="1.0" encoding="UTF-8" standalone="no"?>
<svg
   width="192"
   height="96"
   viewBox="0 0 192 96"
   fill="none"
   version="1.1"
   id="svg38"
   sodipodi:docname="29.dark-export(288x144)1.5x.svg"
   inkscape:version="1.2.1 (9c6d41e410, 2022-07-14)"
   xmlns:inkscape="http://www.inkscape.org/namespaces/inkscape"
   xmlns:sodipodi="http://sodipodi.sourceforge.net/DTD/sodipodi-0.dtd"
   xmlns="http://www.w3.org/2000/svg"
   xmlns:svg="http://www.w3.org/2000/svg">
  <defs
     id="defs42" />
  <sodipodi:namedview
     id="namedview40"
     pagecolor="#505050"
     bordercolor="#ffffff"
     borderopacity="1"
     inkscape:showpageshadow="0"
     inkscape:pageopacity="0"
     inkscape:pagecheckerboard="1"
     inkscape:deskcolor="#505050"
     showgrid="false"
     inkscape:zoom="2.3477509"
     inkscape:cx="199.12675"
     inkscape:cy="119.90199"
     inkscape:window-width="1920"
     inkscape:window-height="892"
     inkscape:window-x="1920"
     inkscape:window-y="144"
     inkscape:window-maximized="1"
     inkscape:current-layer="svg38" />
  <path
     fill-rule="evenodd"
     clip-rule="evenodd"
     d="m 95.999995,42.073872 c -0.57705,0 -1.04539,0.468057 -1.04539,1.045393 v 12.593501 c 0,0.577336 0.46834,1.045393 1.04539,1.045393 0.57845,0 1.0454,-0.468057 1.0454,-1.045393 V 43.119265 c 0,-0.577336 -0.46695,-1.045393 -1.0454,-1.045393 z m 0,17.530404 c -0.57705,0 -1.04539,0.468058 -1.04539,1.045393 v 0.125029 c 0,0.577336 0.46834,1.045393 1.04539,1.045393 0.57845,0 1.0454,-0.468057 1.0454,-1.045393 v -0.125029 c 0,-0.577335 -0.46695,-1.045393 -1.0454,-1.045393 z"
     fill="#fbbf24"
     id="path2"
     style="stroke-width:1.39386" />
  <path
     fill-rule="evenodd"
     clip-rule="evenodd"
     d="M 114.71631,64.456712 96.690957,33.857222 c -0.29968,-0.507504 -1.08303,-0.507504 -1.38132,0 l -18.026758,30.59949 c -0.248107,0.423175 0.01951,1.078567 0.691353,1.078567 h 36.052118 c 0.67184,0 0.93946,-0.655392 0.68996,-1.078567 z M 98.491807,32.795939 c -1.10671,-1.880174 -3.87631,-1.880174 -4.98443,0 L 75.482015,63.395568 c -1.108116,1.880175 0.277378,4.230497 2.492217,4.230497 h 36.052118 c 2.21484,0 3.59894,-2.350322 2.49222,-4.230497 z"
     fill="#fbbf24"
     id="path4"
     style="stroke-width:1.39386" />
  <path
     d="m 180.901,17 c 0,-4.4183 -3.581,-8 -8,-8 h -26 c -4.418,0 -8,3.5817 -8,8 v 62 c 0,4.418 3.582,8 8,8 h 26 c 4.419,0 8,-3.582 8,-8 z"
     fill="#334155"
     id="path6" />
  <path
     fill-rule="evenodd"
     clip-rule="evenodd"
     d="m 146.901,10.5 h 26 c 3.59,0 6.5,2.9101 6.5,6.5 v 62 c 0,3.59 -2.91,6.5 -6.5,6.5 h -26 c -3.589,0 -6.5,-2.91 -6.5,-6.5 V 17 c 0,-3.5899 2.911,-6.5 6.5,-6.5 z m 26,-1.5 c 4.419,0 8,3.5817 8,8 v 62 c 0,4.418 -3.581,8 -8,8 h -26 c -4.418,0 -8,-3.582 -8,-8 V 17 c 0,-4.4183 3.582,-8 8,-8 z"
     fill="#64748b"
     id="path8" />
  <path
     d="m 180.901,23.248 h -41.999 v 54 h 41.999 z"
     fill="#0b1120"
     id="path10" />
  <path
     fill-rule="evenodd"
     clip-rule="evenodd"
     d="m 140.402,24.748 h 38.999 v 51 h -38.999 z m 40.499,-1.5 v 54 h -41.999 v -54 z"
     fill="#64748b"
     id="path12" />
  <path
     d="m 163.235,60.248 h -2.223 v -2.2222 h 2.223 z m -2.223,-7.7777 h -2.222 v 5.5555 h 2.222 z m 8.889,-2.2223 h -2.222 v 4.4445 h 2.222 z m -2.222,-2.2222 h -2.222 v 2.2222 h 2.222 z m -13.333,2.2222 h -2.222 v 2.2223 h 2.222 z m -2.222,-2.2222 h -2.223 v 2.2222 h 2.223 z m 7.777,-5.5555 h 2.223 V 40.248 h -2.223 z m -8.333,-0.5556 v 3.3333 h 3.333 v -3.3333 z m 5,5 h -6.667 V 40.248 h 6.667 z m -5,8.3333 v 3.3334 h 3.333 V 55.248 Z m 5,5 h -6.667 v -6.6666 h 6.667 z m 8.333,-18.3333 v 3.3333 h 3.334 v -3.3333 z m 5,5 h -6.666 V 40.248 h 3.333 3.333 z m -2.222,11.1111 v -3.3333 h -4.444 v 2.2222 h 2.222 v 3.3333 h 4.444 v -2.2222 z m -2.222,-7.7778 h -4.445 v 2.2223 h 4.445 z m -4.445,-2.2222 h -6.666 v 2.2222 h 2.222 v 2.2223 h 2.222 V 50.248 h 2.222 z m 1.112,-1.1111 v -2.2222 h -2.223 v -2.2222 h -2.222 v 4.4444 z m -8.056,-4.1667 h -1.667 v 1.6667 h 1.667 z m 0,13.3334 h -1.667 v 1.6666 h 1.667 z M 167.401,42.748 h -1.666 v 1.6667 h 1.666 z"
     fill="#64748b"
     id="path14" />
  <path
     d="m 158.901,17.0012 c 0,0.5529 0.448,1.0012 1,1.0012 0.553,0 1,-0.4483 1,-1.0012 0,-0.553 -0.447,-1.0012 -1,-1.0012 -0.552,0 -1,0.4482 -1,1.0012 z"
     fill="#64748b"
     id="path16" />
  <path
     fill-rule="evenodd"
     clip-rule="evenodd"
     d="m 151.151,17.0244 c 0,-0.4142 0.336,-0.75 0.75,-0.75 h 4 c 0.415,0 0.75,0.3358 0.75,0.75 0,0.4142 -0.335,0.75 -0.75,0.75 h -4 c -0.414,0 -0.75,-0.3358 -0.75,-0.75 z"
     fill="#64748b"
     id="path18" />
  <path
     fill-rule="evenodd"
     clip-rule="evenodd"
     d="m 163.151,17.0244 c 0,-0.4142 0.336,-0.75 0.75,-0.75 h 4 c 0.415,0 0.75,0.3358 0.75,0.75 0,0.4142 -0.335,0.75 -0.75,0.75 h -4 c -0.414,0 -0.75,-0.3358 -0.75,-0.75 z"
     fill="#64748b"
     id="path20" />
  <path
     d="m 55.901,17 c 0,-4.4183 -3.581,-8 -8,-8 H 21.9014 c -4.4183,0 -8,3.5817 -8,8 v 62 c 0,4.418 3.5817,8 8,8 H 47.901 c 4.419,0 8,-3.582 8,-8 z"
     fill="#334155"
     id="path22" />
  <path
     fill-rule="evenodd"
     clip-rule="evenodd"
     d="M 21.9014,10.5 H 47.901 c 3.59,0 6.5,2.9101 6.5,6.5 v 62 c 0,3.59 -2.91,6.5 -6.5,6.5 H 21.9014 c -3.5899,0 -6.5,-2.91 -6.5,-6.5 V 17 c 0,-3.5899 2.9101,-6.5 6.5,-6.5 z M 47.901,9 c 4.419,0 8,3.5817 8,8 v 62 c 0,4.418 -3.581,8 -8,8 H 21.9014 c -4.4183,0 -8,-3.582 -8,-8 V 17 c 0,-4.4183 3.5817,-8 8,-8 z"
     fill="#64748b"
     id="path24" />
  <path
     d="M 55.901,23.248 H 13.9015 v 54 H 55.901 Z"
     fill="#0b1120"
     id="path26" />
  <path
     fill-rule="evenodd"
     clip-rule="evenodd"
     d="M 15.4015,24.748 H 54.401 v 51 H 15.4015 Z m 40.4995,-1.5 v 54 H 13.9015 v -54 z"
     fill="#64748b"
     id="path28" />
  <path
     d="m 38.2347,60.248 h -2.2222 v -2.2222 h 2.2222 z m -2.2222,-7.7777 h -2.2223 v 5.5555 h 2.2223 z M 44.901,50.248 h -2.2219 v 4.4445 h 2.2219 z m -2.2219,-2.2222 h -2.2222 v 2.2222 h 2.2222 z M 29.3458,50.248 h -2.2222 v 2.2223 h 2.2222 z m -2.2222,-2.2222 h -2.2222 v 2.2222 h 2.2222 z m 7.7778,-5.5555 h 2.2222 V 40.248 H 34.9014 Z M 26.568,41.9147 v 3.3333 h 3.3334 v -3.3333 z m 5,5 H 24.9014 V 40.248 h 6.6666 z m -5,8.3333 v 3.3334 h 3.3334 V 55.248 Z m 5,5 h -6.6666 v -6.6666 h 6.6666 z m 8.3334,-18.3333 v 3.3333 h 3.3333 v -3.3333 z m 4.9996,5 H 38.2347 V 40.248 h 3.3333 3.333 z m -2.2219,11.1111 v -3.3333 h -4.4444 v 2.2222 h 2.2222 V 60.248 H 44.901 V 58.0258 Z M 40.4569,50.248 h -4.4444 v 2.2223 h 4.4444 z m -4.4444,-2.2222 h -6.6667 v 2.2222 h 2.2222 v 2.2223 h 2.2222 V 50.248 h 2.2223 z m 1.1111,-1.1111 v -2.2222 h -2.2222 v -2.2222 h -2.2223 v 4.4444 z M 29.068,42.748 h -1.6666 v 1.6667 h 1.6666 z m 0,13.3334 H 27.4014 V 57.748 H 29.068 Z M 42.4014,42.748 h -1.6667 v 1.6667 h 1.6667 z"
     fill="#64748b"
     id="path30" />
  <path
     d="m 33.9014,17.0012 c 0,0.5529 0.4477,1.0012 1,1.0012 0.5523,0 1,-0.4483 1,-1.0012 0,-0.553 -0.4477,-1.0012 -1,-1.0012 -0.5523,0 -1,0.4482 -1,1.0012 z"
     fill="#64748b"
     id="path32" />
  <path
     fill-rule="evenodd"
     clip-rule="evenodd"
     d="m 26.1514,17.0244 c 0,-0.4142 0.3358,-0.75 0.75,-0.75 h 4 c 0.4142,0 0.75,0.3358 0.75,0.75 0,0.4142 -0.3358,0.75 -0.75,0.75 h -4 c -0.4142,0 -0.75,-0.3358 -0.75,-0.75 z"
     fill="#64748b"
     id="path34" />
  <path
     fill-rule="evenodd"
     clip-rule="evenodd"
     d="m 38.1514,17.0244 c 0,-0.4142 0.3358,-0.75 0.75,-0.75 h 4 c 0.4142,0 0.75,0.3358 0.75,0.75 0,0.4142 -0.3358,0.75 -0.75,0.75 h -4 c -0.4142,0 -0.75,-0.3358 -0.75,-0.75 z"
     fill="#64748b"
     id="path36" />
</svg>
