<svg width="289" height="144" viewBox="0 0 289 144" fill="none" xmlns="http://www.w3.org/2000/svg">
<path d="M72.4014 56C72.4014 51.5817 68.8196 48 64.4014 48H38.4014C33.9831 48 30.4014 51.5817 30.4014 56V118C30.4014 122.418 33.9831 126 38.4014 126H64.4014C68.8196 126 72.4014 122.418 72.4014 118V56Z" fill="#E5E7EB"/>
<path fill-rule="evenodd" clip-rule="evenodd" d="M38.4014 49.5H64.4014C67.9912 49.5 70.9014 52.4101 70.9014 56V118C70.9014 121.59 67.9912 124.5 64.4014 124.5H38.4014C34.8115 124.5 31.9014 121.59 31.9014 118V56C31.9014 52.4101 34.8115 49.5 38.4014 49.5ZM64.4014 48C68.8196 48 72.4014 51.5817 72.4014 56V118C72.4014 122.418 68.8196 126 64.4014 126H38.4014C33.9831 126 30.4014 122.418 30.4014 118V56C30.4014 51.5817 33.9831 48 38.4014 48H64.4014Z" fill="#9CA3AF"/>
<path d="M72.4014 62.2476H30.4015V116.248H72.4014V62.2476Z" fill="#F9FAFB"/>
<path fill-rule="evenodd" clip-rule="evenodd" d="M31.9015 63.7476H70.9014V114.748H31.9015V63.7476ZM72.4014 62.2476V116.248H30.4015V62.2476H72.4014Z" fill="#9CA3AF"/>
<path d="M50.4014 56.0012C50.4014 56.5541 50.8491 57.0024 51.4014 57.0024C51.9537 57.0024 52.4014 56.5541 52.4014 56.0012C52.4014 55.4482 51.9537 55 51.4014 55C50.8491 55 50.4014 55.4482 50.4014 56.0012Z" fill="#9CA3AF"/>
<path fill-rule="evenodd" clip-rule="evenodd" d="M42.6514 56.0244C42.6514 55.6102 42.9872 55.2744 43.4014 55.2744H47.4014C47.8156 55.2744 48.1514 55.6102 48.1514 56.0244C48.1514 56.4386 47.8156 56.7744 47.4014 56.7744H43.4014C42.9872 56.7744 42.6514 56.4386 42.6514 56.0244Z" fill="#9CA3AF"/>
<path fill-rule="evenodd" clip-rule="evenodd" d="M54.6514 56.0244C54.6514 55.6102 54.9872 55.2744 55.4014 55.2744H59.4014C59.8156 55.2744 60.1514 55.6102 60.1514 56.0244C60.1514 56.4386 59.8156 56.7744 59.4014 56.7744H55.4014C54.9872 56.7744 54.6514 56.4386 54.6514 56.0244Z" fill="#9CA3AF"/>
<path d="M50.4014 51C50.4014 46.5817 46.8196 43 42.4014 43H16.4014C11.9831 43 8.40137 46.5817 8.40137 51V113C8.40137 117.418 11.9831 121 16.4014 121H42.4014C46.8196 121 50.4014 117.418 50.4014 113V51Z" fill="#E5E7EB"/>
<path fill-rule="evenodd" clip-rule="evenodd" d="M16.4014 44.5H42.4014C45.9912 44.5 48.9014 47.4101 48.9014 51V113C48.9014 116.59 45.9912 119.5 42.4014 119.5H16.4014C12.8115 119.5 9.90137 116.59 9.90137 113V51C9.90137 47.4101 12.8115 44.5 16.4014 44.5ZM42.4014 43C46.8196 43 50.4014 46.5817 50.4014 51V113C50.4014 117.418 46.8196 121 42.4014 121H16.4014C11.9831 121 8.40137 117.418 8.40137 113V51C8.40137 46.5817 11.9831 43 16.4014 43H42.4014Z" fill="#9CA3AF"/>
<path d="M50.4014 57.2476H8.40155V111.248H50.4014V57.2476Z" fill="#F9FAFB"/>
<path fill-rule="evenodd" clip-rule="evenodd" d="M9.90155 58.7476H48.9014V109.748H9.90155V58.7476ZM50.4014 57.2476V111.248H8.40155V57.2476H50.4014Z" fill="#9CA3AF"/>
<path d="M28.4014 51.0012C28.4014 51.5541 28.8491 52.0024 29.4014 52.0024C29.9537 52.0024 30.4014 51.5541 30.4014 51.0012C30.4014 50.4482 29.9537 50 29.4014 50C28.8491 50 28.4014 50.4482 28.4014 51.0012Z" fill="#9CA3AF"/>
<path fill-rule="evenodd" clip-rule="evenodd" d="M20.6514 51.0244C20.6514 50.6102 20.9872 50.2744 21.4014 50.2744H25.4014C25.8156 50.2744 26.1514 50.6102 26.1514 51.0244C26.1514 51.4386 25.8156 51.7744 25.4014 51.7744H21.4014C20.9872 51.7744 20.6514 51.4386 20.6514 51.0244Z" fill="#9CA3AF"/>
<path fill-rule="evenodd" clip-rule="evenodd" d="M32.6514 51.0244C32.6514 50.6102 32.9872 50.2744 33.4014 50.2744H37.4014C37.8156 50.2744 38.1514 50.6102 38.1514 51.0244C38.1514 51.4386 37.8156 51.7744 37.4014 51.7744H33.4014C32.9872 51.7744 32.6514 51.4386 32.6514 51.0244Z" fill="#9CA3AF"/>
<path fill-rule="evenodd" clip-rule="evenodd" d="M61.4014 38.5C66.6481 38.5 70.9014 34.2467 70.9014 29C70.9014 23.7533 66.6481 19.5 61.4014 19.5C56.1547 19.5 51.9014 23.7533 51.9014 29C51.9014 34.2467 56.1547 38.5 61.4014 38.5ZM61.4014 40C67.4765 40 72.4014 35.0751 72.4014 29C72.4014 22.9249 67.4765 18 61.4014 18C55.3262 18 50.4014 22.9249 50.4014 29C50.4014 35.0751 55.3262 40 61.4014 40Z" fill="#65A30D"/>
<path fill-rule="evenodd" clip-rule="evenodd" d="M65.9549 25.994C66.2344 26.2997 66.2131 26.7741 65.9074 27.0536L59.932 32.5162L56.8953 29.7402C56.5896 29.4608 56.5683 28.9864 56.8478 28.6806C57.1273 28.3749 57.6017 28.3536 57.9074 28.6331L59.9319 30.4838L64.8953 25.9465C65.201 25.667 65.6754 25.6882 65.9549 25.994Z" fill="#65A30D"/>
<path d="M176.401 56C176.401 51.5817 172.82 48 168.401 48H142.401C137.983 48 134.401 51.5817 134.401 56V118C134.401 122.418 137.983 126 142.401 126H168.401C172.82 126 176.401 122.418 176.401 118V56Z" fill="#E5E7EB"/>
<path fill-rule="evenodd" clip-rule="evenodd" d="M142.401 49.5H168.401C171.991 49.5 174.901 52.4101 174.901 56V118C174.901 121.59 171.991 124.5 168.401 124.5H142.401C138.812 124.5 135.901 121.59 135.901 118V56C135.901 52.4101 138.812 49.5 142.401 49.5ZM168.401 48C172.82 48 176.401 51.5817 176.401 56V118C176.401 122.418 172.82 126 168.401 126H142.401C137.983 126 134.401 122.418 134.401 118V56C134.401 51.5817 137.983 48 142.401 48H168.401Z" fill="#9CA3AF"/>
<path d="M176.401 62.2476H134.402V116.248H176.401V62.2476Z" fill="#F9FAFB"/>
<path fill-rule="evenodd" clip-rule="evenodd" d="M135.902 63.7476H174.901V114.748H135.902V63.7476ZM176.401 62.2476V116.248H134.402V62.2476H176.401Z" fill="#9CA3AF"/>
<path d="M154.401 56.0012C154.401 56.5541 154.849 57.0024 155.401 57.0024C155.954 57.0024 156.401 56.5541 156.401 56.0012C156.401 55.4482 155.954 55 155.401 55C154.849 55 154.401 55.4482 154.401 56.0012Z" fill="#9CA3AF"/>
<path fill-rule="evenodd" clip-rule="evenodd" d="M146.651 56.0244C146.651 55.6102 146.987 55.2744 147.401 55.2744H151.401C151.816 55.2744 152.151 55.6102 152.151 56.0244C152.151 56.4386 151.816 56.7744 151.401 56.7744H147.401C146.987 56.7744 146.651 56.4386 146.651 56.0244Z" fill="#9CA3AF"/>
<path fill-rule="evenodd" clip-rule="evenodd" d="M158.651 56.0244C158.651 55.6102 158.987 55.2744 159.401 55.2744H163.401C163.816 55.2744 164.151 55.6102 164.151 56.0244C164.151 56.4386 163.816 56.7744 163.401 56.7744H159.401C158.987 56.7744 158.651 56.4386 158.651 56.0244Z" fill="#9CA3AF"/>
<path fill-rule="evenodd" clip-rule="evenodd" d="M165.401 38.5C170.648 38.5 174.901 34.2467 174.901 29C174.901 23.7533 170.648 19.5 165.401 19.5C160.155 19.5 155.901 23.7533 155.901 29C155.901 34.2467 160.155 38.5 165.401 38.5ZM165.401 40C171.476 40 176.401 35.0751 176.401 29C176.401 22.9249 171.476 18 165.401 18C159.326 18 154.401 22.9249 154.401 29C154.401 35.0751 159.326 40 165.401 40Z" fill="#DC2626"/>
<path fill-rule="evenodd" clip-rule="evenodd" d="M161.871 25.4697C162.164 25.1768 162.639 25.1768 162.932 25.4697L165.401 27.9393L167.871 25.4697C168.164 25.1768 168.639 25.1768 168.932 25.4697C169.225 25.7626 169.225 26.2374 168.932 26.5303L166.462 29L168.932 31.4697C169.225 31.7626 169.225 32.2374 168.932 32.5303C168.639 32.8232 168.164 32.8232 167.871 32.5303L165.401 30.0607L162.932 32.5303C162.639 32.8232 162.164 32.8232 161.871 32.5303C161.578 32.2374 161.578 31.7626 161.871 31.4697L164.341 29L161.871 26.5303C161.578 26.2374 161.578 25.7626 161.871 25.4697Z" fill="#DC2626"/>
<path d="M125.561 78.4772C126.157 76.9365 127.639 75.9209 129.291 75.9209H145.617C147.269 75.9209 148.751 76.9365 149.347 78.4772L151.454 83.9209H123.454L125.561 78.4772Z" fill="#E5E7EB"/>
<path fill-rule="evenodd" clip-rule="evenodd" d="M124.862 78.2065C125.57 76.3769 127.33 75.1709 129.291 75.1709H145.617C147.579 75.1709 149.339 76.3769 150.047 78.2065L152.549 84.6709H122.36L124.862 78.2065ZM129.291 76.6709C127.949 76.6709 126.745 77.4961 126.261 78.7479L124.549 83.1709H150.36L148.648 78.7479C148.164 77.4961 146.959 76.6709 145.617 76.6709H129.291Z" fill="#9CA3AF"/>
<path d="M113.401 91.9209C113.401 87.5026 116.983 83.9209 121.401 83.9209H153.401C157.82 83.9209 161.401 87.5026 161.401 91.9209V111.921C161.401 116.339 157.82 119.921 153.401 119.921H121.401C116.983 119.921 113.401 116.339 113.401 111.921V91.9209Z" fill="#F9FAFB"/>
<path fill-rule="evenodd" clip-rule="evenodd" d="M112.651 91.9209C112.651 87.0884 116.569 83.1709 121.401 83.1709H153.401C158.234 83.1709 162.151 87.0884 162.151 91.9209V111.921C162.151 116.753 158.234 120.671 153.401 120.671H121.401C116.569 120.671 112.651 116.753 112.651 111.921V91.9209ZM121.401 84.6709C117.397 84.6709 114.151 87.9168 114.151 91.9209V111.921C114.151 115.925 117.397 119.171 121.401 119.171H153.401C157.405 119.171 160.651 115.925 160.651 111.921V91.9209C160.651 87.9168 157.405 84.6709 153.401 84.6709H121.401Z" fill="#9CA3AF"/>
<path d="M150.401 101.921C150.401 109.101 144.581 114.921 137.401 114.921C130.222 114.921 124.401 109.101 124.401 101.921C124.401 94.7412 130.222 88.9209 137.401 88.9209C144.581 88.9209 150.401 94.7412 150.401 101.921Z" fill="#E5E7EB"/>
<path fill-rule="evenodd" clip-rule="evenodd" d="M137.401 113.421C143.753 113.421 148.901 108.272 148.901 101.921C148.901 95.5696 143.753 90.4209 137.401 90.4209C131.05 90.4209 125.901 95.5696 125.901 101.921C125.901 108.272 131.05 113.421 137.401 113.421ZM137.401 114.921C144.581 114.921 150.401 109.101 150.401 101.921C150.401 94.7412 144.581 88.9209 137.401 88.9209C130.222 88.9209 124.401 94.7412 124.401 101.921C124.401 109.101 130.222 114.921 137.401 114.921Z" fill="#9CA3AF"/>
<path d="M144.401 101.921C144.401 105.787 141.267 108.921 137.401 108.921C133.535 108.921 130.401 105.787 130.401 101.921C130.401 98.0549 133.535 94.9209 137.401 94.9209C141.267 94.9209 144.401 98.0549 144.401 101.921Z" fill="#F9FAFB"/>
<path fill-rule="evenodd" clip-rule="evenodd" d="M137.401 107.421C140.439 107.421 142.901 104.958 142.901 101.921C142.901 98.8833 140.439 96.4209 137.401 96.4209C134.364 96.4209 131.901 98.8833 131.901 101.921C131.901 104.958 134.364 107.421 137.401 107.421ZM137.401 108.921C141.267 108.921 144.401 105.787 144.401 101.921C144.401 98.0549 141.267 94.9209 137.401 94.9209C133.535 94.9209 130.401 98.0549 130.401 101.921C130.401 105.787 133.535 108.921 137.401 108.921Z" fill="#9CA3AF"/>
<path d="M280.401 56C280.401 51.5817 276.82 48 272.401 48H246.401C241.983 48 238.401 51.5817 238.401 56V118C238.401 122.418 241.983 126 246.401 126H272.401C276.82 126 280.401 122.418 280.401 118V56Z" fill="#E5E7EB"/>
<path fill-rule="evenodd" clip-rule="evenodd" d="M246.401 49.5H272.401C275.991 49.5 278.901 52.4101 278.901 56V118C278.901 121.59 275.991 124.5 272.401 124.5H246.401C242.812 124.5 239.901 121.59 239.901 118V56C239.901 52.4101 242.812 49.5 246.401 49.5ZM272.401 48C276.82 48 280.401 51.5817 280.401 56V118C280.401 122.418 276.82 126 272.401 126H246.401C241.983 126 238.401 122.418 238.401 118V56C238.401 51.5817 241.983 48 246.401 48H272.401Z" fill="#9CA3AF"/>
<path d="M280.401 62.2476H238.402V116.248H280.401V62.2476Z" fill="#F9FAFB"/>
<path fill-rule="evenodd" clip-rule="evenodd" d="M239.902 63.7476H278.901V114.748H239.902V63.7476ZM280.401 62.2476V116.248H238.402V62.2476H280.401Z" fill="#9CA3AF"/>
<path d="M258.401 56.0012C258.401 56.5541 258.849 57.0024 259.401 57.0024C259.954 57.0024 260.401 56.5541 260.401 56.0012C260.401 55.4482 259.954 55 259.401 55C258.849 55 258.401 55.4482 258.401 56.0012Z" fill="#9CA3AF"/>
<path fill-rule="evenodd" clip-rule="evenodd" d="M250.651 56.0244C250.651 55.6102 250.987 55.2744 251.401 55.2744H255.401C255.816 55.2744 256.151 55.6102 256.151 56.0244C256.151 56.4386 255.816 56.7744 255.401 56.7744H251.401C250.987 56.7744 250.651 56.4386 250.651 56.0244Z" fill="#9CA3AF"/>
<path fill-rule="evenodd" clip-rule="evenodd" d="M262.651 56.0244C262.651 55.6102 262.987 55.2744 263.401 55.2744H267.401C267.816 55.2744 268.151 55.6102 268.151 56.0244C268.151 56.4386 267.816 56.7744 267.401 56.7744H263.401C262.987 56.7744 262.651 56.4386 262.651 56.0244Z" fill="#9CA3AF"/>
<path fill-rule="evenodd" clip-rule="evenodd" d="M269.401 38.5C274.648 38.5 278.901 34.2467 278.901 29C278.901 23.7533 274.648 19.5 269.401 19.5C264.155 19.5 259.901 23.7533 259.901 29C259.901 34.2467 264.155 38.5 269.401 38.5ZM269.401 40C275.476 40 280.401 35.0751 280.401 29C280.401 22.9249 275.476 18 269.401 18C263.326 18 258.401 22.9249 258.401 29C258.401 35.0751 263.326 40 269.401 40Z" fill="#DC2626"/>
<path fill-rule="evenodd" clip-rule="evenodd" d="M265.871 25.4697C266.164 25.1768 266.639 25.1768 266.932 25.4697L269.401 27.9393L271.871 25.4697C272.164 25.1768 272.639 25.1768 272.932 25.4697C273.225 25.7626 273.225 26.2374 272.932 26.5303L270.462 29L272.932 31.4697C273.225 31.7626 273.225 32.2374 272.932 32.5303C272.639 32.8232 272.164 32.8232 271.871 32.5303L269.401 30.0607L266.932 32.5303C266.639 32.8232 266.164 32.8232 265.871 32.5303C265.578 32.2374 265.578 31.7626 265.871 31.4697L268.341 29L265.871 26.5303C265.578 26.2374 265.578 25.7626 265.871 25.4697Z" fill="#DC2626"/>
<path d="M259.32 85C263.739 85 267.32 88.5817 267.32 93L267.32 113C267.32 117.418 263.739 121 259.32 121L225.32 121C220.902 121 217.32 117.418 217.32 113L217.32 93C217.32 88.5817 220.902 85 225.32 85L259.32 85Z" fill="#F9FAFB"/>
<path fill-rule="evenodd" clip-rule="evenodd" d="M259.32 84.25C264.153 84.25 268.07 88.1675 268.07 93L268.07 113C268.07 117.832 264.153 121.75 259.32 121.75L225.32 121.75C220.488 121.75 216.57 117.832 216.57 113L216.57 93C216.57 88.1675 220.488 84.25 225.32 84.25L259.32 84.25ZM266.57 93C266.57 88.9959 263.324 85.75 259.32 85.75L225.32 85.75C221.316 85.75 218.07 88.9959 218.07 93L218.07 113C218.07 117.004 221.316 120.25 225.32 120.25L259.32 120.25C263.324 120.25 266.57 117.004 266.57 113L266.57 93Z" fill="#9CA3AF"/>
<path d="M264.149 91.2915C265.472 90.3361 267.32 91.2811 267.32 92.9127L267.32 113.001C267.32 117.419 263.739 121.001 259.32 121.001L225.32 121.001C220.902 121.001 217.32 117.419 217.32 113.001L217.32 92.9128C217.32 91.2812 219.169 90.3361 220.491 91.2915L242.32 107.059L264.149 91.2915Z" fill="#E5E7EB"/>
<path fill-rule="evenodd" clip-rule="evenodd" d="M235.039 102.718L217.881 90.3259L218.759 89.1099L242.32 106.126L265.881 89.1099L266.759 90.3259L249.601 102.718L266.759 115.11L265.881 116.326L248.32 103.643L242.32 107.976L236.32 103.643L218.759 116.326L217.881 115.11L235.039 102.718Z" fill="#9CA3AF"/>
<path fill-rule="evenodd" clip-rule="evenodd" d="M259.32 84.25C264.153 84.25 268.07 88.1675 268.07 93L268.07 113C268.07 117.832 264.153 121.75 259.32 121.75L225.32 121.75C220.488 121.75 216.57 117.832 216.57 113L216.57 93C216.57 88.1675 220.488 84.25 225.32 84.25L259.32 84.25ZM266.57 93C266.57 88.9959 263.324 85.75 259.32 85.75L225.32 85.75C221.316 85.75 218.07 88.9959 218.07 93L218.07 113C218.07 117.004 221.316 120.25 225.32 120.25L259.32 120.25C263.324 120.25 266.57 117.004 266.57 113L266.57 93Z" fill="#9CA3AF"/>
</svg>
