<svg width="193" height="192" viewBox="0 0 193 192" fill="none" xmlns="http://www.w3.org/2000/svg">
<path d="M101.813 89.0796L92.5043 83.8145L92.5043 94.3447L101.813 89.0796Z" fill="#A3E635"/>
<path d="M92.9893 102.92L102.298 108.185L102.298 97.6553L92.9893 102.92Z" fill="#52ADF9"/>
<path d="M6.40137 36.0312C6.40137 29.4038 11.774 24.0312 18.4014 24.0312H72.4014C79.0288 24.0312 84.4014 29.4038 84.4014 36.0312V157.031C84.4014 163.659 79.0288 169.031 72.4014 169.031H18.4014C11.7739 169.031 6.40137 163.659 6.40137 157.031V36.0312Z" fill="#1E293B"/>
<path fill-rule="evenodd" clip-rule="evenodd" d="M72.4014 25.5312H18.4014C12.6024 25.5312 7.90137 30.2323 7.90137 36.0312V157.031C7.90137 162.83 12.6024 167.531 18.4014 167.531H72.4014C78.2004 167.531 82.9014 162.83 82.9014 157.031V36.0312C82.9014 30.2323 78.2004 25.5312 72.4014 25.5312ZM18.4014 24.0312C11.774 24.0312 6.40137 29.4038 6.40137 36.0312V157.031C6.40137 163.659 11.7739 169.031 18.4014 169.031H72.4014C79.0288 169.031 84.4014 163.659 84.4014 157.031V36.0312C84.4014 29.4038 79.0288 24.0312 72.4014 24.0312H18.4014Z" fill="#A3E635"/>
<path fill-rule="evenodd" clip-rule="evenodd" d="M45.4014 36.4092C44.5729 36.4092 43.9014 35.7376 43.9014 34.9092C43.9014 34.0808 44.5729 33.4092 45.4014 33.4092C46.2298 33.4092 46.9014 34.0808 46.9014 34.9092C46.9014 35.7376 46.2298 36.4092 45.4014 36.4092ZM45.4014 37.9092C43.7445 37.9092 42.4014 36.566 42.4014 34.9092C42.4014 33.2523 43.7445 31.9092 45.4014 31.9092C47.0582 31.9092 48.4014 33.2523 48.4014 34.9092C48.4014 36.566 47.0582 37.9092 45.4014 37.9092Z" fill="#A3E635"/>
<path fill-rule="evenodd" clip-rule="evenodd" d="M26.6514 34.5923C26.6514 34.1781 26.9872 33.8423 27.4014 33.8423H37.4014C37.8156 33.8423 38.1514 34.1781 38.1514 34.5923C38.1514 35.0065 37.8156 35.3423 37.4014 35.3423H27.4014C26.9872 35.3423 26.6514 35.0065 26.6514 34.5923Z" fill="#A3E635"/>
<path fill-rule="evenodd" clip-rule="evenodd" d="M52.6514 34.5923C52.6514 34.1781 52.9872 33.8423 53.4014 33.8423L63.4014 33.8423C63.8156 33.8423 64.1514 34.1781 64.1514 34.5923C64.1514 35.0065 63.8156 35.3423 63.4014 35.3423L53.4014 35.3423C52.9872 35.3423 52.6514 35.0065 52.6514 34.5923Z" fill="#A3E635"/>
<path d="M77.4014 51.6338C77.4014 47.2155 73.8196 43.6338 69.4014 43.6338H21.4014C16.9831 43.6338 13.4014 47.2155 13.4014 51.6338V147.634C13.4014 152.052 16.9831 155.634 21.4014 155.634H69.4014C73.8196 155.634 77.4014 152.052 77.4014 147.634V51.6338Z" fill="#0B1120"/>
<path fill-rule="evenodd" clip-rule="evenodd" d="M21.4014 45.1338H69.4014C72.9912 45.1338 75.9014 48.0439 75.9014 51.6338V147.634C75.9014 151.224 72.9912 154.134 69.4014 154.134H21.4014C17.8115 154.134 14.9014 151.224 14.9014 147.634V51.6338C14.9014 48.0439 17.8115 45.1338 21.4014 45.1338ZM69.4014 43.6338C73.8196 43.6338 77.4014 47.2155 77.4014 51.6338V147.634C77.4014 152.052 73.8196 155.634 69.4014 155.634H21.4014C16.9831 155.634 13.4014 152.052 13.4014 147.634V51.6338C13.4014 47.2155 16.9831 43.6338 21.4014 43.6338H69.4014Z" fill="#A3E635"/>
<path d="M51.068 114H47.2902V110.222H51.068V114ZM47.2902 100.778H43.5125V110.222H47.2902V100.778ZM62.4014 97H58.6236V104.556H62.4014V97ZM58.6236 93.2222H54.8458V97H58.6236V93.2222ZM35.9569 97H32.1791V100.778H35.9569V97ZM32.1791 93.2222H28.4014V97H32.1791V93.2222ZM45.4014 83.7778H49.1791V80H45.4014V83.7778ZM31.2347 82.8333V88.5H36.9014V82.8333H31.2347ZM39.7347 91.3333H28.4014V80H39.7347V91.3333ZM31.2347 105.5V111.167H36.9014V105.5H31.2347ZM39.7347 114H28.4014V102.667H39.7347V114ZM53.9014 82.8333V88.5H59.568V82.8333H53.9014ZM62.4014 91.3333H51.068V80H56.7347H62.4014V91.3333ZM58.6236 110.222V104.556H51.068V108.333H54.8458V114H62.4014V110.222H58.6236ZM54.8458 97H47.2902V100.778H54.8458V97ZM47.2902 93.2222H35.9569V97H39.7347V100.778H43.5125V97H47.2902V93.2222ZM49.1791 91.3333V87.5556H45.4014V83.7778H41.6236V91.3333H49.1791ZM35.4847 84.25H32.6513V87.0833H35.4847V84.25ZM35.4847 106.917H32.6513V109.75H35.4847V106.917ZM58.1514 84.25H55.318V87.0833H58.1514V84.25Z" fill="#A3E635"/>
<path d="M109.401 35.9502C109.401 29.3228 114.774 23.9502 121.401 23.9502H175.401C182.029 23.9502 187.401 29.3228 187.401 35.9502V156.95C187.401 163.578 182.029 168.95 175.401 168.95H121.401C114.774 168.95 109.401 163.578 109.401 156.95V35.9502Z" fill="#1E293B"/>
<path fill-rule="evenodd" clip-rule="evenodd" d="M175.401 25.4502H121.401C115.602 25.4502 110.901 30.1512 110.901 35.9502V156.95C110.901 162.749 115.602 167.45 121.401 167.45H175.401C181.2 167.45 185.901 162.749 185.901 156.95V35.9502C185.901 30.1512 181.2 25.4502 175.401 25.4502ZM121.401 23.9502C114.774 23.9502 109.401 29.3228 109.401 35.9502V156.95C109.401 163.578 114.774 168.95 121.401 168.95H175.401C182.029 168.95 187.401 163.578 187.401 156.95V35.9502C187.401 29.3228 182.029 23.9502 175.401 23.9502H121.401Z" fill="#52ADF9"/>
<path fill-rule="evenodd" clip-rule="evenodd" d="M148.401 36.4092C147.573 36.4092 146.901 35.7376 146.901 34.9092C146.901 34.0808 147.573 33.4092 148.401 33.4092C149.23 33.4092 149.901 34.0808 149.901 34.9092C149.901 35.7376 149.23 36.4092 148.401 36.4092ZM148.401 37.9092C146.745 37.9092 145.401 36.566 145.401 34.9092C145.401 33.2523 146.745 31.9092 148.401 31.9092C150.058 31.9092 151.401 33.2523 151.401 34.9092C151.401 36.566 150.058 37.9092 148.401 37.9092Z" fill="#52ADF9"/>
<path fill-rule="evenodd" clip-rule="evenodd" d="M129.651 34.5923C129.651 34.1781 129.987 33.8423 130.401 33.8423H140.401C140.816 33.8423 141.151 34.1781 141.151 34.5923C141.151 35.0065 140.816 35.3423 140.401 35.3423H130.401C129.987 35.3423 129.651 35.0065 129.651 34.5923Z" fill="#52ADF9"/>
<path fill-rule="evenodd" clip-rule="evenodd" d="M155.651 34.5923C155.651 34.1781 155.987 33.8423 156.401 33.8423L166.401 33.8423C166.816 33.8423 167.151 34.1781 167.151 34.5923C167.151 35.0065 166.816 35.3423 166.401 35.3423L156.401 35.3423C155.987 35.3423 155.651 35.0065 155.651 34.5923Z" fill="#52ADF9"/>
<path d="M180.401 51.6338C180.401 47.2155 176.82 43.6338 172.401 43.6338H124.401C119.983 43.6338 116.401 47.2155 116.401 51.6338V147.634C116.401 152.052 119.983 155.634 124.401 155.634H172.401C176.82 155.634 180.401 152.052 180.401 147.634V51.6338Z" fill="#0B1120"/>
<path fill-rule="evenodd" clip-rule="evenodd" d="M124.401 45.1338H172.401C175.991 45.1338 178.901 48.0439 178.901 51.6338V147.634C178.901 151.224 175.991 154.134 172.401 154.134H124.401C120.812 154.134 117.901 151.224 117.901 147.634V51.6338C117.901 48.0439 120.812 45.1338 124.401 45.1338ZM172.401 43.6338C176.82 43.6338 180.401 47.2155 180.401 51.6338V147.634C180.401 152.052 176.82 155.634 172.401 155.634H124.401C119.983 155.634 116.401 152.052 116.401 147.634V51.6338C116.401 47.2155 119.983 43.6338 124.401 43.6338H172.401Z" fill="#52ADF9"/>
<path d="M154.068 114H150.29V110.222H154.068V114ZM150.29 100.778H146.512V110.222H150.29V100.778ZM165.401 97H161.624V104.556H165.401V97ZM161.624 93.2222H157.846V97H161.624V93.2222ZM138.957 97H135.179V100.778H138.957V97ZM135.179 93.2222H131.401V97H135.179V93.2222ZM148.401 83.7778H152.179V80H148.401V83.7778ZM134.235 82.8333V88.5H139.901V82.8333H134.235ZM142.735 91.3333H131.401V80H142.735V91.3333ZM134.235 105.5V111.167H139.901V105.5H134.235ZM142.735 114H131.401V102.667H142.735V114ZM156.901 82.8333V88.5H162.568V82.8333H156.901ZM165.401 91.3333H154.068V80H159.735H165.401V91.3333ZM161.624 110.222V104.556H154.068V108.333H157.846V114H165.401V110.222H161.624ZM157.846 97H150.29V100.778H157.846V97ZM150.29 93.2222H138.957V97H142.735V100.778H146.512V97H150.29V93.2222ZM152.179 91.3333V87.5556H148.401V83.7778H144.624V91.3333H152.179ZM138.485 84.25H135.651V87.0833H138.485V84.25ZM138.485 106.917H135.651V109.75H138.485V106.917ZM161.151 84.25H158.318V87.0833H161.151V84.25Z" fill="#52ADF9"/>
</svg>
