<?xml version="1.0" encoding="UTF-8" standalone="no"?>
<svg
   width="192"
   height="96"
   viewBox="0 0 192 96"
   fill="none"
   version="1.1"
   id="svg38"
   sodipodi:docname="29.light-export(288x144)1.5x.svg"
   inkscape:version="1.2.1 (9c6d41e410, 2022-07-14)"
   xmlns:inkscape="http://www.inkscape.org/namespaces/inkscape"
   xmlns:sodipodi="http://sodipodi.sourceforge.net/DTD/sodipodi-0.dtd"
   xmlns="http://www.w3.org/2000/svg"
   xmlns:svg="http://www.w3.org/2000/svg">
  <defs
     id="defs42" />
  <sodipodi:namedview
     id="namedview40"
     pagecolor="#505050"
     bordercolor="#ffffff"
     borderopacity="1"
     inkscape:showpageshadow="0"
     inkscape:pageopacity="0"
     inkscape:pagecheckerboard="1"
     inkscape:deskcolor="#505050"
     showgrid="false"
     inkscape:zoom="3.3202211"
     inkscape:cx="140.80388"
     inkscape:cy="54.062664"
     inkscape:window-width="1920"
     inkscape:window-height="892"
     inkscape:window-x="1920"
     inkscape:window-y="144"
     inkscape:window-maximized="1"
     inkscape:current-layer="svg38" />
  <path
     d="m 180.901,17 c 0,-4.4183 -3.581,-8 -8,-8 h -26 c -4.418,0 -8,3.5817 -8,8 v 62 c 0,4.418 3.582,8 8,8 h 26 c 4.419,0 8,-3.582 8,-8 z"
     fill="#e5e7eb"
     id="path2" />
  <path
     fill-rule="evenodd"
     clip-rule="evenodd"
     d="m 146.901,10.5 h 26 c 3.59,0 6.5,2.9101 6.5,6.5 v 62 c 0,3.59 -2.91,6.5 -6.5,6.5 h -26 c -3.589,0 -6.5,-2.91 -6.5,-6.5 V 17 c 0,-3.5899 2.911,-6.5 6.5,-6.5 z m 26,-1.5 c 4.419,0 8,3.5817 8,8 v 62 c 0,4.418 -3.581,8 -8,8 h -26 c -4.418,0 -8,-3.582 -8,-8 V 17 c 0,-4.4183 3.582,-8 8,-8 z"
     fill="#9ca3af"
     id="path4" />
  <path
     d="m 180.901,23.248 h -41.999 v 54 h 41.999 z"
     fill="#f9fafb"
     id="path6" />
  <path
     fill-rule="evenodd"
     clip-rule="evenodd"
     d="m 140.402,24.748 h 38.999 v 51 h -38.999 z m 40.499,-1.5 v 54 h -41.999 v -54 z"
     fill="#9ca3af"
     id="path8" />
  <path
     d="m 163.235,60.248 h -2.223 v -2.2222 h 2.223 z m -2.223,-7.7777 h -2.222 v 5.5555 h 2.222 z m 8.889,-2.2223 h -2.222 v 4.4445 h 2.222 z m -2.222,-2.2222 h -2.222 v 2.2222 h 2.222 z m -13.333,2.2222 h -2.222 v 2.2223 h 2.222 z m -2.222,-2.2222 h -2.223 v 2.2222 h 2.223 z m 7.777,-5.5555 h 2.223 V 40.248 h -2.223 z m -8.333,-0.5556 v 3.3333 h 3.333 v -3.3333 z m 5,5 h -6.667 V 40.248 h 6.667 z m -5,8.3333 v 3.3334 h 3.333 V 55.248 Z m 5,5 h -6.667 v -6.6666 h 6.667 z m 8.333,-18.3333 v 3.3333 h 3.334 v -3.3333 z m 5,5 h -6.666 V 40.248 h 3.333 3.333 z m -2.222,11.1111 v -3.3333 h -4.444 v 2.2222 h 2.222 v 3.3333 h 4.444 v -2.2222 z m -2.222,-7.7778 h -4.445 v 2.2223 h 4.445 z m -4.445,-2.2222 h -6.666 v 2.2222 h 2.222 v 2.2223 h 2.222 V 50.248 h 2.222 z m 1.112,-1.1111 v -2.2222 h -2.223 v -2.2222 h -2.222 v 4.4444 z m -8.056,-4.1667 h -1.667 v 1.6667 h 1.667 z m 0,13.3334 h -1.667 v 1.6666 h 1.667 z M 167.401,42.748 h -1.666 v 1.6667 h 1.666 z"
     fill="#9ca3af"
     id="path10" />
  <path
     d="m 158.901,17.0012 c 0,0.5529 0.448,1.0012 1,1.0012 0.553,0 1,-0.4483 1,-1.0012 0,-0.553 -0.447,-1.0012 -1,-1.0012 -0.552,0 -1,0.4482 -1,1.0012 z"
     fill="#9ca3af"
     id="path12" />
  <path
     fill-rule="evenodd"
     clip-rule="evenodd"
     d="m 151.151,17.0244 c 0,-0.4142 0.336,-0.75 0.75,-0.75 h 4 c 0.415,0 0.75,0.3358 0.75,0.75 0,0.4142 -0.335,0.75 -0.75,0.75 h -4 c -0.414,0 -0.75,-0.3358 -0.75,-0.75 z"
     fill="#9ca3af"
     id="path14" />
  <path
     fill-rule="evenodd"
     clip-rule="evenodd"
     d="m 163.151,17.0244 c 0,-0.4142 0.336,-0.75 0.75,-0.75 h 4 c 0.415,0 0.75,0.3358 0.75,0.75 0,0.4142 -0.335,0.75 -0.75,0.75 h -4 c -0.414,0 -0.75,-0.3358 -0.75,-0.75 z"
     fill="#9ca3af"
     id="path16" />
  <path
     d="m 53.901,17 c 0,-4.4183 -3.581,-8 -8,-8 H 19.9014 c -4.4183,0 -8,3.5817 -8,8 v 62 c 0,4.418 3.5817,8 8,8 H 45.901 c 4.419,0 8,-3.582 8,-8 z"
     fill="#e5e7eb"
     id="path18" />
  <path
     fill-rule="evenodd"
     clip-rule="evenodd"
     d="M 19.9014,10.5 H 45.901 c 3.59,0 6.5,2.9101 6.5,6.5 v 62 c 0,3.59 -2.91,6.5 -6.5,6.5 H 19.9014 c -3.5899,0 -6.5,-2.91 -6.5,-6.5 V 17 c 0,-3.5899 2.9101,-6.5 6.5,-6.5 z M 45.901,9 c 4.419,0 8,3.5817 8,8 v 62 c 0,4.418 -3.581,8 -8,8 H 19.9014 c -4.4183,0 -8,-3.582 -8,-8 V 17 c 0,-4.4183 3.5817,-8 8,-8 z"
     fill="#9ca3af"
     id="path20" />
  <path
     d="M 53.901,23.248 H 11.9015 v 54 H 53.901 Z"
     fill="#f9fafb"
     id="path22" />
  <path
     fill-rule="evenodd"
     clip-rule="evenodd"
     d="M 13.4015,24.748 H 52.401 v 51 H 13.4015 Z m 40.4995,-1.5 v 54 H 11.9015 v -54 z"
     fill="#9ca3af"
     id="path24" />
  <path
     d="m 36.2347,60.248 h -2.2222 v -2.2222 h 2.2222 z m -2.2222,-7.7777 h -2.2223 v 5.5555 h 2.2223 z M 42.901,50.248 h -2.2219 v 4.4445 h 2.2219 z m -2.2219,-2.2222 h -2.2222 v 2.2222 h 2.2222 z M 27.3458,50.248 h -2.2222 v 2.2223 h 2.2222 z m -2.2222,-2.2222 h -2.2222 v 2.2222 h 2.2222 z m 7.7778,-5.5555 h 2.2222 V 40.248 H 32.9014 Z M 24.568,41.9147 v 3.3333 h 3.3334 v -3.3333 z m 5,5 H 22.9014 V 40.248 h 6.6666 z m -5,8.3333 v 3.3334 h 3.3334 V 55.248 Z m 5,5 h -6.6666 v -6.6666 h 6.6666 z m 8.3334,-18.3333 v 3.3333 h 3.3333 v -3.3333 z m 4.9996,5 H 36.2347 V 40.248 h 3.3333 3.333 z m -2.2219,11.1111 v -3.3333 h -4.4444 v 2.2222 h 2.2222 V 60.248 H 42.901 V 58.0258 Z M 38.4569,50.248 h -4.4444 v 2.2223 h 4.4444 z m -4.4444,-2.2222 h -6.6667 v 2.2222 h 2.2222 v 2.2223 h 2.2222 V 50.248 h 2.2223 z m 1.1111,-1.1111 v -2.2222 h -2.2222 v -2.2222 h -2.2223 v 4.4444 z M 27.068,42.748 h -1.6666 v 1.6667 h 1.6666 z m 0,13.3334 H 25.4014 V 57.748 H 27.068 Z M 40.4014,42.748 h -1.6667 v 1.6667 h 1.6667 z"
     fill="#9ca3af"
     id="path26" />
  <path
     d="m 31.9014,17.0012 c 0,0.5529 0.4477,1.0012 1,1.0012 0.5523,0 1,-0.4483 1,-1.0012 0,-0.553 -0.4477,-1.0012 -1,-1.0012 -0.5523,0 -1,0.4482 -1,1.0012 z"
     fill="#9ca3af"
     id="path28" />
  <path
     fill-rule="evenodd"
     clip-rule="evenodd"
     d="m 24.1514,17.0244 c 0,-0.4142 0.3358,-0.75 0.75,-0.75 h 4 c 0.4142,0 0.75,0.3358 0.75,0.75 0,0.4142 -0.3358,0.75 -0.75,0.75 h -4 c -0.4142,0 -0.75,-0.3358 -0.75,-0.75 z"
     fill="#9ca3af"
     id="path30" />
  <path
     fill-rule="evenodd"
     clip-rule="evenodd"
     d="m 36.1514,17.0244 c 0,-0.4142 0.3358,-0.75 0.75,-0.75 h 4 c 0.4142,0 0.75,0.3358 0.75,0.75 0,0.4142 -0.3358,0.75 -0.75,0.75 h -4 c -0.4142,0 -0.75,-0.3358 -0.75,-0.75 z"
     fill="#9ca3af"
     id="path32" />
  <path
     fill-rule="evenodd"
     clip-rule="evenodd"
     d="m 96.000005,42.488311 c -0.576779,0 -1.044887,0.467828 -1.044887,1.044881 v 12.58734 c 0,0.577053 0.468108,1.044882 1.044887,1.044882 0.578163,0 1.044877,-0.467829 1.044877,-1.044882 v -12.58734 c 0,-0.577053 -0.466714,-1.044881 -1.044877,-1.044881 z m 0,17.521827 c -0.576779,0 -1.044887,0.467829 -1.044887,1.044882 v 0.124968 c 0,0.577053 0.468108,1.044881 1.044887,1.044881 0.578163,0 1.044877,-0.467828 1.044877,-1.044881 V 61.05502 c 0,-0.577053 -0.466714,-1.044882 -1.044877,-1.044882 z"
     fill="#f59e0b"
     id="path34"
     style="stroke-width:1.39318" />
  <path
     fill-rule="evenodd"
     clip-rule="evenodd"
     d="M 114.70715,64.8602 96.690601,34.275682 c -0.29953,-0.507256 -1.082495,-0.507256 -1.38063,0 L 77.292031,64.8602 c -0.247986,0.422968 0.0195,1.078039 0.691015,1.078039 h 36.034484 c 0.67151,0 0.939,-0.655071 0.68962,-1.078039 z M 98.490584,33.214918 c -1.106178,-1.879254 -3.874418,-1.879254 -4.981991,0 L 75.492048,63.799575 c -1.107574,1.879255 0.277243,4.228427 2.490998,4.228427 h 36.034484 c 2.21376,0 3.59718,-2.349172 2.491,-4.228427 z"
     fill="#f59e0b"
     id="path36"
     style="stroke-width:1.39318" />
</svg>
