<svg width="193" height="193" viewBox="0 0 193 193" fill="none" xmlns="http://www.w3.org/2000/svg">
<path d="M112.401 21.8828C112.401 17.4645 108.82 13.8828 104.401 13.8828H88.4014C83.9831 13.8828 80.4014 17.4645 80.4014 21.8828V37.8828C80.4014 42.3011 83.9831 45.8828 88.4014 45.8828H104.401C108.82 45.8828 112.401 42.3011 112.401 37.8828V21.8828Z" fill="#1E293B"/>
<path fill-rule="evenodd" clip-rule="evenodd" d="M88.4014 15.3828H104.401C107.991 15.3828 110.901 18.293 110.901 21.8828V37.8828C110.901 41.4727 107.991 44.3828 104.401 44.3828H88.4014C84.8115 44.3828 81.9014 41.4727 81.9014 37.8828V21.8828C81.9014 18.293 84.8115 15.3828 88.4014 15.3828ZM104.401 13.8828C108.82 13.8828 112.401 17.4645 112.401 21.8828V37.8828C112.401 42.3011 108.82 45.8828 104.401 45.8828H88.4014C83.9831 45.8828 80.4014 42.3011 80.4014 37.8828V21.8828C80.4014 17.4645 83.9831 13.8828 88.4014 13.8828H104.401Z" fill="#64748B"/>
<path d="M60.4014 127.883C60.4014 123.465 56.8196 119.883 52.4014 119.883H36.4014C31.9831 119.883 28.4014 123.465 28.4014 127.883V143.883C28.4014 148.301 31.9831 151.883 36.4014 151.883H52.4014C56.8196 151.883 60.4014 148.301 60.4014 143.883V127.883Z" fill="#1E293B"/>
<path fill-rule="evenodd" clip-rule="evenodd" d="M36.4014 121.383H52.4014C55.9912 121.383 58.9014 124.293 58.9014 127.883V143.883C58.9014 147.473 55.9912 150.383 52.4014 150.383H36.4014C32.8115 150.383 29.9014 147.473 29.9014 143.883V127.883C29.9014 124.293 32.8115 121.383 36.4014 121.383ZM52.4014 119.883C56.8196 119.883 60.4014 123.465 60.4014 127.883V143.883C60.4014 148.301 56.8196 151.883 52.4014 151.883H36.4014C31.9831 151.883 28.4014 148.301 28.4014 143.883V127.883C28.4014 123.465 31.9831 119.883 36.4014 119.883H52.4014Z" fill="#64748B"/>
<path fill-rule="evenodd" clip-rule="evenodd" d="M43.6514 116.883L43.6514 100.883L45.1514 100.883L45.1514 116.883L43.6514 116.883Z" fill="#64748B"/>
<path fill-rule="evenodd" clip-rule="evenodd" d="M95.6514 66.8828L95.6514 48.8828L97.1514 48.8828L97.1514 66.8828L95.6514 66.8828Z" fill="#64748B"/>
<path fill-rule="evenodd" clip-rule="evenodd" d="M95.6514 155.883L95.6514 126.883L97.1514 126.883L97.1514 155.883L95.6514 155.883Z" fill="#64748B"/>
<path fill-rule="evenodd" clip-rule="evenodd" d="M150.151 67.8828V92.8828H148.651V67.8828H150.151Z" fill="#64748B"/>
<path fill-rule="evenodd" clip-rule="evenodd" d="M149.171 97.334H126.401V95.834H149.171C153.579 95.834 157.151 99.4068 157.151 103.814L157.151 122.584L155.651 122.584L155.651 103.814C155.651 100.235 152.75 97.334 149.171 97.334Z" fill="#64748B"/>
<path fill-rule="evenodd" clip-rule="evenodd" d="M43.6314 96.1328L66.4014 96.1328L66.4014 97.6328L43.6314 97.6328C39.2241 97.6328 35.6514 94.06 35.6515 89.6528L35.6518 70.8828L37.1518 70.8828L37.1515 89.6528C37.1514 93.2316 40.0526 96.1328 43.6314 96.1328Z" fill="#64748B"/>
<path d="M157.401 52.8828C157.401 50.6737 155.611 48.8828 153.401 48.8828H145.401C143.192 48.8828 141.401 50.6737 141.401 52.8828V60.8828C141.401 63.092 143.192 64.8828 145.401 64.8828H153.401C155.611 64.8828 157.401 63.092 157.401 60.8828V52.8828Z" fill="#1E293B"/>
<path fill-rule="evenodd" clip-rule="evenodd" d="M145.401 50.3828H153.401C154.782 50.3828 155.901 51.5021 155.901 52.8828V60.8828C155.901 62.2635 154.782 63.3828 153.401 63.3828H145.401C144.021 63.3828 142.901 62.2635 142.901 60.8828V52.8828C142.901 51.5021 144.021 50.3828 145.401 50.3828ZM153.401 48.8828C155.611 48.8828 157.401 50.6737 157.401 52.8828V60.8828C157.401 63.092 155.611 64.8828 153.401 64.8828H145.401C143.192 64.8828 141.401 63.092 141.401 60.8828V52.8828C141.401 50.6737 143.192 48.8828 145.401 48.8828H153.401Z" fill="#64748B"/>
<path d="M104.401 162.883C104.401 160.674 102.611 158.883 100.401 158.883H92.4014C90.1922 158.883 88.4014 160.674 88.4014 162.883V170.883C88.4014 173.092 90.1922 174.883 92.4014 174.883H100.401C102.611 174.883 104.401 173.092 104.401 170.883V162.883Z" fill="#1E293B"/>
<path fill-rule="evenodd" clip-rule="evenodd" d="M92.4014 160.383H100.401C101.782 160.383 102.901 161.502 102.901 162.883V170.883C102.901 172.264 101.782 173.383 100.401 173.383H92.4014C91.0207 173.383 89.9014 172.264 89.9014 170.883V162.883C89.9014 161.502 91.0207 160.383 92.4014 160.383ZM100.401 158.883C102.611 158.883 104.401 160.674 104.401 162.883V170.883C104.401 173.092 102.611 174.883 100.401 174.883H92.4014C90.1922 174.883 88.4014 173.092 88.4014 170.883V162.883C88.4014 160.674 90.1922 158.883 92.4014 158.883H100.401Z" fill="#64748B"/>
<path d="M123.524 81.8828C123.524 75.2554 118.152 69.8828 111.524 69.8828H81.5244C74.897 69.8828 69.5244 75.2554 69.5244 81.8828V111.883C69.5244 118.51 74.897 123.883 81.5244 123.883H111.524C118.152 123.883 123.524 118.51 123.524 111.883V81.8828Z" fill="#1E293B"/>
<path fill-rule="evenodd" clip-rule="evenodd" d="M81.5244 71.3828H111.524C117.323 71.3828 122.024 76.0838 122.024 81.8828V111.883C122.024 117.682 117.323 122.383 111.524 122.383H81.5244C75.7254 122.383 71.0244 117.682 71.0244 111.883V81.8828C71.0244 76.0838 75.7254 71.3828 81.5244 71.3828ZM111.524 69.8828C118.152 69.8828 123.524 75.2554 123.524 81.8828V111.883C123.524 118.51 118.152 123.883 111.524 123.883H81.5244C74.897 123.883 69.5244 118.51 69.5244 111.883V81.8828C69.5244 75.2554 74.897 69.8828 81.5244 69.8828H111.524Z" fill="#A3E635"/>
<path d="M89.4512 94.443V106.647C89.4512 107.638 90.258 108.455 91.2588 108.455H92.1065C93.0971 108.455 93.9142 107.638 93.9142 106.647V94.443H89.4512Z" fill="#82C91E"/>
<path d="M93.9039 88.5607V86.2628C93.9039 85.2721 93.0971 84.4551 92.1065 84.4551H91.2588C90.2682 84.4551 89.4512 85.2721 89.4512 86.2628V88.5607H93.9039Z" fill="#82C91E"/>
<path d="M103.81 98.4672V86.2628C103.81 85.2721 103.003 84.4551 102.013 84.4551H101.165C100.175 84.4551 99.3575 85.2721 99.3575 86.2628V98.4672H103.81Z" fill="#82C91E"/>
<path d="M99.3575 104.349V106.647C99.3575 107.638 100.175 108.455 101.165 108.455H102.013C103.003 108.455 103.82 107.638 103.82 106.647V104.349H99.3575Z" fill="#82C91E"/>
<path d="M88.7359 99.1817H86.438C85.4474 99.1817 84.6304 99.9886 84.6304 100.989V101.837C84.6304 102.828 85.4372 103.645 86.438 103.645H88.7359V99.1817Z" fill="#A3E635"/>
<path d="M106.823 99.1817H94.6184V103.645H106.823C107.813 103.645 108.63 102.828 108.63 101.837V100.989C108.63 99.9886 107.813 99.1817 106.823 99.1817Z" fill="#A3E635"/>
<path d="M98.6423 89.2754H86.438C85.4474 89.2754 84.6304 90.0822 84.6304 91.0831V91.9308C84.6304 92.9214 85.4372 93.7385 86.438 93.7385H98.6423V89.2754Z" fill="#A3E635"/>
<path d="M106.823 89.2754H104.525V93.7384H106.823C107.813 93.7384 108.63 92.9316 108.63 91.9307V91.0831C108.63 90.0822 107.813 89.2754 106.823 89.2754Z" fill="#A3E635"/>
<path d="M172.401 132.883C172.401 128.465 168.82 124.883 164.401 124.883H148.401C143.983 124.883 140.401 128.465 140.401 132.883V148.883C140.401 153.301 143.983 156.883 148.401 156.883H164.401C168.82 156.883 172.401 153.301 172.401 148.883V132.883Z" fill="#1E293B"/>
<path fill-rule="evenodd" clip-rule="evenodd" d="M148.401 126.383H164.401C167.991 126.383 170.901 129.293 170.901 132.883V148.883C170.901 152.473 167.991 155.383 164.401 155.383H148.401C144.812 155.383 141.901 152.473 141.901 148.883V132.883C141.901 129.293 144.812 126.383 148.401 126.383ZM164.401 124.883C168.82 124.883 172.401 128.465 172.401 132.883V148.883C172.401 153.301 168.82 156.883 164.401 156.883H148.401C143.983 156.883 140.401 153.301 140.401 148.883V132.883C140.401 128.465 143.983 124.883 148.401 124.883H164.401Z" fill="#64748B"/>
<path d="M52.4014 45C52.4014 40.5817 48.8196 37 44.4014 37H28.4014C23.9831 37 20.4014 40.5817 20.4014 45V61C20.4014 65.4183 23.9831 69 28.4014 69H44.4014C48.8196 69 52.4014 65.4183 52.4014 61V45Z" fill="#1E293B"/>
<path fill-rule="evenodd" clip-rule="evenodd" d="M28.4014 38.5H44.4014C47.9912 38.5 50.9014 41.4101 50.9014 45V61C50.9014 64.5899 47.9912 67.5 44.4014 67.5H28.4014C24.8115 67.5 21.9014 64.5899 21.9014 61V45C21.9014 41.4101 24.8115 38.5 28.4014 38.5ZM44.4014 37C48.8196 37 52.4014 40.5817 52.4014 45V61C52.4014 65.4183 48.8196 69 44.4014 69H28.4014C23.9831 69 20.4014 65.4183 20.4014 61V45C20.4014 40.5817 23.9831 37 28.4014 37H44.4014Z" fill="#64748B"/>
</svg>
