<svg width="289" height="144" viewBox="0 0 289 144" fill="none" xmlns="http://www.w3.org/2000/svg">
	<rect x="-0.75" y="0.75" width="40.5" height="76.5" rx="7.25"
		transform="matrix(-1 0 0 1 271.967 33)" fill="#1E293B" stroke="#52ADF9"
		stroke-width="1.5" />
	<path d="M272.717 47.9976H232.217V100.498H272.717V47.9976Z" fill="#0B1120" stroke="#52ADF9"
		stroke-width="1.5" />
	<rect x="236.072" y="65.1011" width="32.7896" height="18.293" rx="4" fill="#365314" />
	<path d="M242.584 71.5542H262.457" stroke="#A3E635" stroke-width="1.5" stroke-linecap="round" />
	<path d="M242.584 77.6519H253.264" stroke="#A3E635" stroke-width="1.5" stroke-linecap="round" />
	<ellipse rx="1" ry="1.00118" transform="matrix(-1 0 0 1 252.467 41.0012)" fill="#52ADF9" />
	<path
		d="M244.467 40.2744C244.053 40.2744 243.717 40.6102 243.717 41.0244C243.717 41.4386 244.053 41.7744 244.467 41.7744V40.2744ZM248.467 41.7744C248.881 41.7744 249.217 41.4386 249.217 41.0244C249.217 40.6102 248.881 40.2744 248.467 40.2744V41.7744ZM244.467 41.7744H248.467V40.2744H244.467V41.7744Z"
		fill="#52ADF9" />
	<path
		d="M256.467 40.2744C256.053 40.2744 255.717 40.6102 255.717 41.0244C255.717 41.4386 256.053 41.7744 256.467 41.7744V40.2744ZM260.467 41.7744C260.881 41.7744 261.217 41.4386 261.217 41.0244C261.217 40.6102 260.881 40.2744 260.467 40.2744V41.7744ZM256.467 41.7744H260.467V40.2744H256.467V41.7744Z"
		fill="#52ADF9" />
	<circle cx="89.467" cy="72" r="4" fill="#4D7C0F" />
	<circle cx="105.467" cy="72" r="4" fill="#82C91E" />
	<circle cx="73.467" cy="72" r="4" fill="#365314" />
	<circle cx="198.467" cy="72" r="4" fill="#4D7C0F" />
	<circle cx="214.467" cy="72" r="4" fill="#82C91E" />
	<circle cx="182.467" cy="72" r="4" fill="#365314" />
	<path
		d="M29.0383 43C29.0383 41.8954 29.9338 41 31.0383 41H49.8963C51.0008 41 51.8963 41.8954 51.8963 43V61.3864H29.0383L29.0383 43Z"
		fill="#123060" stroke="#52ADF9" stroke-width="1.5" />
	<path
		d="M24.4673 65.3789C24.4673 63.1698 26.2581 61.3789 28.4673 61.3789H52.4673C54.6764 61.3789 56.4673 63.1698 56.4673 65.3789L56.4673 100C56.4673 102.209 54.6764 104 52.4673 104H28.4673C26.2581 104 24.4673 102.209 24.4673 100L24.4673 65.3789Z"
		fill="#1E293B" stroke="#52ADF9" stroke-width="1.5" />
	<rect x="33.0901" y="49.4141" width="4.55576" height="3.12838" fill="#52ADF9" />
	<rect x="43.2888" y="49.4141" width="4.55576" height="3.12838" fill="#52ADF9" />
	<path fill-rule="evenodd" clip-rule="evenodd"
		d="M151.865 42L143.967 42H126.467C124.258 42 122.467 43.7909 122.467 46L122.467 98C122.467 100.209 124.258 102 126.467 102L161.467 102C163.676 102 165.467 100.209 165.467 98L165.467 55.9695L151.865 42Z"
		fill="#365314" />
	<path
		d="M143.967 42L143.967 41.25H143.967V42ZM151.865 42L152.402 41.4768L152.181 41.25L151.865 41.25L151.865 42ZM122.467 46H123.217H122.467ZM122.467 98H121.717H122.467ZM126.467 102V101.25V102ZM161.467 102V102.75V102ZM165.467 98H164.717H165.467ZM165.467 55.9695H166.217V55.6646L166.004 55.4462L165.467 55.9695ZM143.967 42.75L151.865 42.75L151.865 41.25L143.967 41.25L143.967 42.75ZM126.467 42.75H143.967V41.25H126.467V42.75ZM123.217 46C123.217 44.2051 124.672 42.75 126.467 42.75V41.25C123.844 41.25 121.717 43.3766 121.717 46H123.217ZM123.217 98L123.217 46H121.717L121.717 98H123.217ZM126.467 101.25C124.672 101.25 123.217 99.7949 123.217 98H121.717C121.717 100.623 123.844 102.75 126.467 102.75V101.25ZM161.467 101.25L126.467 101.25V102.75L161.467 102.75V101.25ZM164.717 98C164.717 99.7949 163.262 101.25 161.467 101.25V102.75C164.09 102.75 166.217 100.623 166.217 98H164.717ZM164.717 55.9695L164.717 98H166.217L166.217 55.9695H164.717ZM166.004 55.4462L152.402 41.4768L151.327 42.5232L164.93 56.4927L166.004 55.4462Z"
		fill="#A3E635" />
	<path
		d="M165.197 55.6787L156.162 55.6787C153.952 55.6787 152.162 53.8878 152.162 51.6787L152.162 42.2911L165.197 55.6787Z"
		fill="#65A30D" stroke="#A3E635" stroke-width="1.5" stroke-linejoin="round" />
	<path d="M134.07 63.4902H153.911" stroke="#A3E635" stroke-width="1.5" stroke-linecap="round" />
	<path d="M134.07 69.0361H144.733" stroke="#A3E635" stroke-width="1.5" stroke-linecap="round" />
	<path
		d="M135.636 80.7328V87.4129C135.636 89.4917 137.321 91.1769 139.4 91.1769C141.479 91.1769 143.164 89.4917 143.164 87.4129V80.7328C143.164 78.654 141.479 76.9688 139.4 76.9688C137.321 76.9688 135.636 78.654 135.636 80.7328Z"
		stroke="#A3E635" stroke-width="1.5" />
	<rect x="133.066" y="84.52" width="12.671" height="9.44635" rx="1.25" fill="#65A30D"
		stroke="#A3E635" stroke-width="1.5" />
</svg>
