<svg width="193" height="192" viewBox="0 0 193 192" fill="none" xmlns="http://www.w3.org/2000/svg">
<path d="M41.8301 84C41.8301 85.1046 40.9346 86 39.8301 86L20.9721 86C19.8676 86 18.9721 85.1046 18.9721 84L18.9721 65.6136L41.8301 65.6136L41.8301 84Z" fill="#123060"/>
<path fill-rule="evenodd" clip-rule="evenodd" d="M42.5801 84C42.5801 85.5188 41.3489 86.75 39.8301 86.75L20.9721 86.75C19.4533 86.75 18.2221 85.5188 18.2221 84L18.2221 64.8636L42.5801 64.8636L42.5801 84ZM39.8301 85.25C40.5204 85.25 41.0801 84.6904 41.0801 84L41.0801 66.3636L19.7221 66.3636L19.7221 84C19.7221 84.6904 20.2818 85.25 20.9721 85.25L39.8301 85.25Z" fill="#52ADF9"/>
<path d="M46.4014 61.6211C46.4014 63.8302 44.6105 65.6211 42.4014 65.6211L18.4014 65.6211C16.1922 65.6211 14.4014 63.8302 14.4014 61.6211L14.4014 27C14.4014 24.7909 16.1922 23 18.4014 23L42.4014 23C44.6105 23 46.4014 24.7909 46.4014 27L46.4014 61.6211Z" fill="#1E293B"/>
<path fill-rule="evenodd" clip-rule="evenodd" d="M47.1514 61.6211C47.1514 64.2445 45.0247 66.3711 42.4014 66.3711L18.4014 66.3711C15.778 66.3711 13.6514 64.2444 13.6514 61.6211L13.6514 27C13.6514 24.3767 15.778 22.25 18.4014 22.25L42.4014 22.25C45.0247 22.25 47.1514 24.3767 47.1514 27L47.1514 61.6211ZM42.4014 64.8711C44.1963 64.8711 45.6514 63.416 45.6514 61.6211L45.6514 27C45.6514 25.2051 44.1963 23.75 42.4014 23.75L18.4014 23.75C16.6064 23.75 15.1514 25.2051 15.1514 27L15.1514 61.6211C15.1514 63.416 16.6064 64.8711 18.4014 64.8711L42.4014 64.8711Z" fill="#52ADF9"/>
<path d="M37.7783 77.5859L33.2226 77.5859L33.2226 74.4576L37.7783 74.4576L37.7783 77.5859Z" fill="#52ADF9"/>
<path d="M27.5796 77.5859L23.0238 77.5859L23.0238 74.4576L27.5796 74.4576L27.5796 77.5859Z" fill="#52ADF9"/>
<path fill-rule="evenodd" clip-rule="evenodd" d="M152.001 121C152.001 118.791 153.792 117 156.001 117H180.402C182.611 117 184.402 118.791 184.402 121V164C184.402 166.209 182.611 168 180.402 168H152.001V167.996H149.401C147.192 167.996 145.401 166.205 145.401 163.996V152.676C145.401 152.129 145.626 151.605 146.022 151.228L146.665 150.615C147.062 150.238 147.286 149.714 147.286 149.167V147.094C147.286 146.567 147.078 146.061 146.707 145.687L145.98 144.952C145.609 144.578 145.401 144.072 145.401 143.545V141.437C145.401 140.788 145.716 140.179 146.246 139.804L152.001 135.732V121ZM156.964 123.659C156.964 122.554 157.86 121.659 158.964 121.659H160.258C161.363 121.659 162.258 122.554 162.258 123.659V132.074C162.258 133.179 161.363 134.074 160.258 134.074H158.964C157.86 134.074 156.964 133.179 156.964 132.074V123.659ZM167.555 121.659C166.45 121.659 165.555 122.554 165.555 123.659V132.074C165.555 133.179 166.45 134.074 167.555 134.074H168.849C169.953 134.074 170.849 133.179 170.849 132.074V123.659C170.849 122.554 169.953 121.659 168.849 121.659H167.555ZM174.145 123.659C174.145 122.554 175.041 121.659 176.145 121.659H177.439C178.544 121.659 179.439 122.554 179.439 123.659V132.074C179.439 133.179 178.544 134.074 177.439 134.074H176.145C175.041 134.074 174.145 133.179 174.145 132.074V123.659Z" fill="#1E293B"/>
<path fill-rule="evenodd" clip-rule="evenodd" d="M151.251 121C151.251 118.377 153.378 116.25 156.001 116.25H180.402C183.025 116.25 185.152 118.377 185.152 121V164C185.152 166.623 183.025 168.75 180.402 168.75H151.251V168.746H149.401C146.778 168.746 144.651 166.62 144.651 163.996V152.676C144.651 151.923 144.96 151.204 145.505 150.685L146.148 150.072C146.396 149.836 146.536 149.509 146.536 149.167V147.094C146.536 146.764 146.406 146.448 146.174 146.214L145.447 145.48C144.937 144.965 144.651 144.27 144.651 143.545V141.437C144.651 140.544 145.084 139.707 145.813 139.192L151.251 135.343V121ZM152.751 167.25H180.402C182.196 167.25 183.652 165.795 183.652 164V121C183.652 119.205 182.196 117.75 180.402 117.75H156.001C154.206 117.75 152.751 119.205 152.751 121V136.12L146.679 140.416C146.348 140.651 146.151 141.031 146.151 141.437V143.545C146.151 143.874 146.281 144.19 146.513 144.424L147.24 145.159C147.75 145.674 148.036 146.369 148.036 147.094V149.167C148.036 149.919 147.728 150.639 147.183 151.158L146.539 151.771C146.292 152.007 146.151 152.334 146.151 152.676V163.996C146.151 165.791 147.606 167.246 149.401 167.246H152.751V167.25ZM156.214 123.659C156.214 122.14 157.446 120.909 158.964 120.909H160.258C161.777 120.909 163.008 122.14 163.008 123.659V132.074C163.008 133.593 161.777 134.824 160.258 134.824H158.964C157.446 134.824 156.214 133.593 156.214 132.074V123.659ZM158.964 122.409C158.274 122.409 157.714 122.968 157.714 123.659V132.074C157.714 132.764 158.274 133.324 158.964 133.324H160.258C160.949 133.324 161.508 132.765 161.508 132.074V123.659C161.508 122.968 160.949 122.409 160.258 122.409H158.964ZM167.555 122.409C166.864 122.409 166.305 122.968 166.305 123.659V132.074C166.305 132.764 166.864 133.324 167.555 133.324H168.849C169.539 133.324 170.099 132.764 170.099 132.074V123.659C170.099 122.968 169.539 122.409 168.849 122.409H167.555ZM164.805 123.659C164.805 122.14 166.036 120.909 167.555 120.909H168.849C170.367 120.909 171.599 122.14 171.599 123.659V132.074C171.599 133.593 170.367 134.824 168.849 134.824H167.555C166.036 134.824 164.805 133.593 164.805 132.074V123.659ZM173.395 123.659C173.395 122.14 174.627 120.909 176.145 120.909H177.439C178.958 120.909 180.189 122.14 180.189 123.659V132.074C180.189 133.593 178.958 134.824 177.439 134.824H176.145C174.627 134.824 173.395 133.593 173.395 132.074V123.659ZM176.145 122.409C175.455 122.409 174.895 122.968 174.895 123.659V132.074C174.895 132.764 175.455 133.324 176.145 133.324H177.439C178.13 133.324 178.689 132.765 178.689 132.074V123.659C178.689 122.968 178.13 122.409 177.439 122.409H176.145Z" fill="#52ADF9"/>
<path d="M30.4014 111C32.6105 111 34.4014 112.791 34.4014 115C34.4014 117.209 32.6105 119 30.4014 119C28.1922 119 26.4014 117.209 26.4014 115C26.4014 112.791 28.1922 111 30.4014 111Z" fill="#1457C5"/>
<path d="M30.4014 95C32.6105 95 34.4014 96.7909 34.4014 99C34.4014 101.209 32.6105 103 30.4014 103C28.1922 103 26.4014 101.209 26.4014 99C26.4014 96.7909 28.1922 95 30.4014 95Z" fill="#2B8EF1"/>
<path d="M30.4014 127C32.6105 127 34.4014 128.791 34.4014 131C34.4014 133.209 32.6105 135 30.4014 135C28.1922 135 26.4014 133.209 26.4014 131C26.4014 128.791 28.1922 127 30.4014 127Z" fill="#184080"/>
<path d="M168.401 92C166.192 92 164.401 90.2091 164.401 88C164.401 85.7909 166.192 84 168.401 84C170.611 84 172.401 85.7909 172.401 88C172.401 90.2091 170.611 92 168.401 92Z" fill="#1457C5"/>
<path d="M168.401 108C166.192 108 164.401 106.209 164.401 104C164.401 101.791 166.192 100 168.401 100C170.611 100 172.401 101.791 172.401 104C172.401 106.209 170.611 108 168.401 108Z" fill="#2B8EF1"/>
<path d="M168.401 76C166.192 76 164.401 74.2091 164.401 72C164.401 69.7909 166.192 68 168.401 68C170.611 68 172.401 69.7909 172.401 72C172.401 74.2091 170.611 76 168.401 76Z" fill="#184080"/>
<path d="M57.4014 35.0312C57.4014 28.4038 62.774 23.0312 69.4014 23.0312H123.401C130.029 23.0312 135.401 28.4038 135.401 35.0312V156.031C135.401 162.659 130.029 168.031 123.401 168.031H69.4014C62.7739 168.031 57.4014 162.659 57.4014 156.031V35.0312Z" fill="#1E293B"/>
<path fill-rule="evenodd" clip-rule="evenodd" d="M123.401 24.5312H69.4014C63.6024 24.5312 58.9014 29.2323 58.9014 35.0312V156.031C58.9014 161.83 63.6024 166.531 69.4014 166.531H123.401C129.2 166.531 133.901 161.83 133.901 156.031V35.0312C133.901 29.2323 129.2 24.5312 123.401 24.5312ZM69.4014 23.0312C62.774 23.0312 57.4014 28.4038 57.4014 35.0312V156.031C57.4014 162.659 62.7739 168.031 69.4014 168.031H123.401C130.029 168.031 135.401 162.659 135.401 156.031V35.0312C135.401 28.4038 130.029 23.0312 123.401 23.0312H69.4014Z" fill="#A3E635"/>
<path fill-rule="evenodd" clip-rule="evenodd" d="M96.4014 35.4092C95.5729 35.4092 94.9014 34.7376 94.9014 33.9092C94.9014 33.0808 95.5729 32.4092 96.4014 32.4092C97.2298 32.4092 97.9014 33.0808 97.9014 33.9092C97.9014 34.7376 97.2298 35.4092 96.4014 35.4092ZM96.4014 36.9092C94.7445 36.9092 93.4014 35.566 93.4014 33.9092C93.4014 32.2523 94.7445 30.9092 96.4014 30.9092C98.0582 30.9092 99.4014 32.2523 99.4014 33.9092C99.4014 35.566 98.0582 36.9092 96.4014 36.9092Z" fill="#A3E635"/>
<path fill-rule="evenodd" clip-rule="evenodd" d="M77.6514 33.5923C77.6514 33.1781 77.9872 32.8423 78.4014 32.8423H88.4014C88.8156 32.8423 89.1514 33.1781 89.1514 33.5923C89.1514 34.0065 88.8156 34.3423 88.4014 34.3423H78.4014C77.9872 34.3423 77.6514 34.0065 77.6514 33.5923Z" fill="#A3E635"/>
<path fill-rule="evenodd" clip-rule="evenodd" d="M103.651 33.5923C103.651 33.1781 103.987 32.8423 104.401 32.8423L114.401 32.8423C114.816 32.8423 115.151 33.1781 115.151 33.5923C115.151 34.0065 114.816 34.3423 114.401 34.3423L104.401 34.3423C103.987 34.3423 103.651 34.0065 103.651 33.5923Z" fill="#A3E635"/>
<path d="M128.401 50.6338C128.401 46.2155 124.82 42.6338 120.401 42.6338H72.4014C67.9831 42.6338 64.4014 46.2155 64.4014 50.6338V146.634C64.4014 151.052 67.9831 154.634 72.4014 154.634H120.401C124.82 154.634 128.401 151.052 128.401 146.634V50.6338Z" fill="#0B1120"/>
<path fill-rule="evenodd" clip-rule="evenodd" d="M72.4014 44.1338H120.401C123.991 44.1338 126.901 47.0439 126.901 50.6338V146.634C126.901 150.224 123.991 153.134 120.401 153.134H72.4014C68.8115 153.134 65.9014 150.224 65.9014 146.634V50.6338C65.9014 47.0439 68.8115 44.1338 72.4014 44.1338ZM120.401 42.6338C124.82 42.6338 128.401 46.2155 128.401 50.6338V146.634C128.401 151.052 124.82 154.634 120.401 154.634H72.4014C67.9831 154.634 64.4014 151.052 64.4014 146.634V50.6338C64.4014 46.2155 67.9831 42.6338 72.4014 42.6338H120.401Z" fill="#A3E635"/>
<path d="M71.4014 104C71.4014 95.1634 78.5648 88 87.4014 88H105.401C114.238 88 121.401 95.1634 121.401 104V148H87.4014C78.5648 148 71.4014 140.837 71.4014 132V104Z" fill="#184080"/>
<path fill-rule="evenodd" clip-rule="evenodd" d="M105.401 89.5H87.4014C79.3932 89.5 72.9014 95.9919 72.9014 104V132C72.9014 140.008 79.3932 146.5 87.4014 146.5H119.901V104C119.901 95.9919 113.409 89.5 105.401 89.5ZM87.4014 88C78.5648 88 71.4014 95.1634 71.4014 104V132C71.4014 140.837 78.5648 148 87.4014 148H121.401V104C121.401 95.1634 114.238 88 105.401 88H87.4014Z" fill="#52ADF9"/>
<path fill-rule="evenodd" clip-rule="evenodd" d="M83.957 109.911C83.957 109.496 84.2928 109.161 84.707 109.161H108.031C108.445 109.161 108.781 109.496 108.781 109.911C108.781 110.325 108.445 110.661 108.031 110.661H84.707C84.2928 110.661 83.957 110.325 83.957 109.911Z" fill="#52ADF9"/>
<path fill-rule="evenodd" clip-rule="evenodd" d="M83.957 118.004C83.957 117.59 84.2928 117.254 84.707 117.254H108.031C108.445 117.254 108.781 117.59 108.781 118.004C108.781 118.418 108.445 118.754 108.031 118.754H84.707C84.2928 118.754 83.957 118.418 83.957 118.004Z" fill="#52ADF9"/>
<path fill-rule="evenodd" clip-rule="evenodd" d="M83.957 134.179C83.957 133.764 84.2928 133.429 84.707 133.429H96.3689C96.7831 133.429 97.1189 133.764 97.1189 134.179C97.1189 134.593 96.7831 134.929 96.3689 134.929H84.707C84.2928 134.929 83.957 134.593 83.957 134.179Z" fill="#52ADF9"/>
<path fill-rule="evenodd" clip-rule="evenodd" d="M83.957 101.825C83.957 101.411 84.2928 101.075 84.707 101.075H108.031C108.445 101.075 108.781 101.411 108.781 101.825C108.781 102.239 108.445 102.575 108.031 102.575H84.707C84.2928 102.575 83.957 102.239 83.957 101.825Z" fill="#52ADF9"/>
<path fill-rule="evenodd" clip-rule="evenodd" d="M83.957 126.093C83.957 125.679 84.2928 125.343 84.707 125.343H108.1C108.514 125.343 108.85 125.679 108.85 126.093C108.85 126.507 108.514 126.843 108.1 126.843H84.707C84.2928 126.843 83.957 126.507 83.957 126.093Z" fill="#52ADF9"/>
</svg>
