<svg width="289" height="144" viewBox="0 0 289 144" fill="none" xmlns="http://www.w3.org/2000/svg">
	<rect x="-0.75" y="0.75" width="40.5" height="76.5" rx="7.25"
		transform="matrix(-1 0 0 1 55.4341 33)" fill="#1E293B" stroke="#A3E635"
		stroke-width="1.5" />
	<path d="M56.1841 47.9976H15.6843V100.498H56.1841V47.9976Z" fill="#0B1120" stroke="#A3E635"
		stroke-width="1.5" />
	<rect x="19.5393" y="65.1011" width="32.7896" height="18.293" rx="4" fill="#184080" />
	<path d="M26.0515 71.5542H45.924" stroke="#52ADF9" stroke-width="1.5" stroke-linecap="round" />
	<path d="M26.0515 77.6519H36.7315" stroke="#52ADF9" stroke-width="1.5" stroke-linecap="round" />
	<ellipse rx="1" ry="1.00118" transform="matrix(-1 0 0 1 35.9341 41.0012)" fill="#A3E635" />
	<path
		d="M27.9341 40.2744C27.5199 40.2744 27.1841 40.6102 27.1841 41.0244C27.1841 41.4386 27.5199 41.7744 27.9341 41.7744V40.2744ZM31.9341 41.7744C32.3483 41.7744 32.6841 41.4386 32.6841 41.0244C32.6841 40.6102 32.3483 40.2744 31.9341 40.2744V41.7744ZM27.9341 41.7744H31.9341V40.2744H27.9341V41.7744Z"
		fill="#A3E635" />
	<path
		d="M39.9341 40.2744C39.5199 40.2744 39.1841 40.6102 39.1841 41.0244C39.1841 41.4386 39.5199 41.7744 39.9341 41.7744V40.2744ZM43.9341 41.7744C44.3483 41.7744 44.6841 41.4386 44.6841 41.0244C44.6841 40.6102 44.3483 40.2744 43.9341 40.2744V41.7744ZM39.9341 41.7744H43.9341V40.2744H39.9341V41.7744Z"
		fill="#A3E635" />
	<circle cx="89.9341" cy="72" r="4" fill="#1457C5" />
	<circle cx="105.934" cy="72" r="4" fill="#2B8EF1" />
	<circle cx="73.9341" cy="72" r="4" fill="#184080" />
	<circle cx="198.934" cy="72" r="4" fill="#1457C5" />
	<circle cx="214.934" cy="72" r="4" fill="#2B8EF1" />
	<circle cx="182.934" cy="72" r="4" fill="#184080" />
	<path
		d="M236.505 43C236.505 41.8954 237.401 41 238.505 41H257.363C258.468 41 259.363 41.8954 259.363 43V61.3864H236.505V43Z"
		fill="#123060" stroke="#A3E635" stroke-width="1.5" />
	<path
		d="M231.934 65.3789C231.934 63.1698 233.725 61.3789 235.934 61.3789H259.934C262.143 61.3789 263.934 63.1698 263.934 65.3789V100C263.934 102.209 262.143 104 259.934 104H235.934C233.725 104 231.934 102.209 231.934 100V65.3789Z"
		fill="#1E293B" stroke="#A3E635" stroke-width="1.5" />
	<rect x="240.557" y="49.4141" width="4.55576" height="3.12838" fill="#A3E635" />
	<rect x="250.756" y="49.4141" width="4.55576" height="3.12838" fill="#A3E635" />
	<path fill-rule="evenodd" clip-rule="evenodd"
		d="M152.332 42L144.434 42H126.934C124.725 42 122.934 43.7909 122.934 46L122.934 98C122.934 100.209 124.725 102 126.934 102L161.934 102C164.143 102 165.934 100.209 165.934 98L165.934 55.9695L152.332 42Z"
		fill="#184080" />
	<path
		d="M144.434 42L144.434 41.25H144.434V42ZM152.332 42L152.869 41.4768L152.648 41.25L152.332 41.25L152.332 42ZM122.934 46H123.684H122.934ZM122.934 98H122.184H122.934ZM126.934 102V101.25V102ZM161.934 102V102.75V102ZM165.934 98H165.184H165.934ZM165.934 55.9695H166.684V55.6646L166.471 55.4462L165.934 55.9695ZM144.434 42.75L152.332 42.75L152.332 41.25L144.434 41.25L144.434 42.75ZM126.934 42.75H144.434V41.25H126.934V42.75ZM123.684 46C123.684 44.2051 125.139 42.75 126.934 42.75V41.25C124.311 41.25 122.184 43.3766 122.184 46H123.684ZM123.684 98L123.684 46H122.184L122.184 98H123.684ZM126.934 101.25C125.139 101.25 123.684 99.7949 123.684 98H122.184C122.184 100.623 124.311 102.75 126.934 102.75V101.25ZM161.934 101.25L126.934 101.25V102.75L161.934 102.75V101.25ZM165.184 98C165.184 99.7949 163.729 101.25 161.934 101.25V102.75C164.557 102.75 166.684 100.623 166.684 98H165.184ZM165.184 55.9695L165.184 98H166.684L166.684 55.9695H165.184ZM166.471 55.4462L152.869 41.4768L151.795 42.5232L165.397 56.4927L166.471 55.4462Z"
		fill="#52ADF9" />
	<path
		d="M165.664 55.6787L156.629 55.6787C154.419 55.6787 152.629 53.8878 152.629 51.6787L152.629 42.2911L165.664 55.6787Z"
		fill="#196FDE" stroke="#52ADF9" stroke-width="1.5" stroke-linejoin="round" />
	<path d="M134.537 63.4902H154.378" stroke="#52ADF9" stroke-width="1.5" stroke-linecap="round" />
	<path d="M134.537 69.0361H145.2" stroke="#52ADF9" stroke-width="1.5" stroke-linecap="round" />
	<path
		d="M143.631 80.7328C143.631 78.654 141.946 76.9688 139.867 76.9688C137.788 76.9688 136.103 78.654 136.103 80.7328V87.4129C136.103 89.4917 137.788 91.1769 139.867 91.1769C141.946 91.1769 143.631 89.4917 143.631 87.4129V80.7328Z"
		stroke="#52ADF9" stroke-width="1.5" />
	<rect x="133.533" y="84.52" width="12.671" height="9.44635" rx="1.25" fill="#196FDE"
		stroke="#52ADF9" stroke-width="1.5" />
</svg>
