<?xml version="1.0" encoding="UTF-8" standalone="no"?>
<!-- Generator: Adobe Illustrator 19.0.0, SVG Export Plug-In . SVG Version: 6.00 Build 0)  -->

<svg
   xmlns:dc="http://purl.org/dc/elements/1.1/"
   xmlns:cc="http://creativecommons.org/ns#"
   xmlns:rdf="http://www.w3.org/1999/02/22-rdf-syntax-ns#"
   xmlns:svg="http://www.w3.org/2000/svg"
   xmlns="http://www.w3.org/2000/svg"
   xmlns:sodipodi="http://sodipodi.sourceforge.net/DTD/sodipodi-0.dtd"
   xmlns:inkscape="http://www.inkscape.org/namespaces/inkscape"
   version="1.1"
   id="Ebene_1"
   x="0px"
   y="0px"
   xml:space="preserve"
   inkscape:version="0.92.3 (2405546, 2018-03-11)"
   sodipodi:docname="logo_horizontal_white.svg"
   width="138"
   height="50"><metadata
     id="metadata71"><rdf:RDF><cc:Work
         rdf:about=""><dc:format>image/svg+xml</dc:format><dc:type
           rdf:resource="http://purl.org/dc/dcmitype/StillImage" /><dc:title /></cc:Work></rdf:RDF></metadata><defs
     id="defs69" /><sodipodi:namedview
     pagecolor="#000000"
     bordercolor="#666666"
     borderopacity="1"
     objecttolerance="10"
     gridtolerance="10"
     guidetolerance="10"
     inkscape:pageopacity="0"
     inkscape:pageshadow="2"
     inkscape:window-width="1920"
     inkscape:window-height="1020"
     id="namedview67"
     showgrid="false"
     fit-margin-top="0"
     fit-margin-left="0"
     fit-margin-right="0"
     fit-margin-bottom="0"
     inkscape:zoom="5.640316"
     inkscape:cx="47.227033"
     inkscape:cy="7.5801079"
     inkscape:window-x="1440"
     inkscape:window-y="24"
     inkscape:window-maximized="0"
     inkscape:current-layer="Ebene_1" /><style
     type="text/css"
     id="style3">
	.st0{display:none;fill:#87C214;}
	.st1{fill:#87C214;}
	.st2{display:none;fill:#FFFFFF;}
	.st3{fill:#95D220;}
	.st4{display:none;fill:#95D220;}
	.st5{fill:#FFFFFF;}
</style><path
     style="fill:#ffffff"
     d="m 57.097656,30.69922 0,19.30078 9.06836,0 c 4.22557,0 6.474893,-2.12355 6.496093,-5.47852 0,-2.14464 -1.017672,-3.78004 -3.013671,-4.67187 l 0,-0.041 c 1.507609,-0.9343 2.166015,-2.10331 2.166015,-3.9082 0,-2.73919 -1.848098,-5.20117 -5.861328,-5.20117 l -8.855469,0 z m 18.75,0 0,19.30078 2.271485,0 0,-7.72852 -0.232422,-0.23437 4.585937,0 c 2.54808,0 4.012966,0.91391 4.947266,2.88867 L 89.820312,50 92.367188,50 89.4375,43.96875 c -0.63702,-1.35898 -1.614284,-2.20763 -2.527344,-2.58984 l 0,-0.043 c 2.1234,-0.55208 3.865235,-2.42042 3.865235,-4.94727 0,-3.80089 -2.951713,-5.68945 -6.476563,-5.68945 l -8.451172,0 z m 18.876953,0 0,19.30078 2.273438,0 0,-19.30078 -2.273438,0 z m 13.419921,0 L 99.650391,50 l 2.484379,0 2.03906,-4.65039 -0.12695,-0.23438 10.57421,0 -0.12695,0.23438 2.03906,4.65039 2.48438,0 -8.47266,-19.30078 -2.40039,0 z m 13.33594,0 0,19.30078 2.27148,0 0,-7.72852 -0.23437,-0.23437 4.58789,0 c 2.54808,0 4.01296,0.91391 4.94726,2.88867 L 135.45117,50 138,50 135.07031,43.96875 c -0.63702,-1.35898 -1.61427,-2.20763 -2.52734,-2.58984 l 0,-0.043 c 2.12341,-0.55208 3.86523,-2.42042 3.86523,-4.94727 0,-3.80089 -2.95171,-5.68945 -6.47656,-5.68945 l -8.45117,0 z m -62.322267,2.14453 6.560547,0 c 2.46315,0 3.759766,0.9967 3.759766,3.03516 0,1.71996 -0.999336,3.10156 -3.759766,3.10156 l -6.560547,0 0.234375,-0.23438 0,-5.66992 -0.234375,-0.23242 z m 18.728516,0 6.433593,0 c 2.378211,0 4.14091,0.97535 4.16211,3.52344 0,2.03846 -1.634356,3.5039 -4.416016,3.5039 l -6.179687,0 0.232422,-0.23242 0,-6.5625 -0.232422,-0.23242 z m 45.652341,0 6.4336,0 c 2.35698,0 4.14062,0.97535 4.14062,3.52344 0,2.03846 -1.61288,3.5039 -4.39453,3.5039 l -6.17969,0 0.23438,-0.23242 0,-6.5625 -0.23438,-0.23242 z m -14.20508,0.21094 0.043,0 0.57227,1.93359 3.39844,7.75 0.23242,0.23242 -8.4707,0 0.23242,-0.23242 3.39843,-7.75 0.59375,-1.93359 z m -50.197261,8.07031 7.007812,0 c 2.84536,0 4.16211,1.3153 4.16211,3.375 0,2.14464 -1.189095,3.33398 -4.140625,3.33398 l -7.029297,0 0.234375,-0.23437 0,-6.24219 -0.234375,-0.23242 z"
     id="path57"
     inkscape:connector-curvature="0" /><g
     id="g4770"
     transform="matrix(0.21276595,0,0,0.21276595,32.24269,18.624329)"><path
       id="path13-3"
       d="m -86.640255,-87.534339 c -9.7,0 -17.701175,7.999219 -17.701175,17.699219 l 0,22.5 43.601565,0 0,-22.5 c 0,-9.7 -7.901562,-17.699219 -17.601562,-17.699219 l -8.298828,0 z m 96.999999,0 c -9.69999995,0 -17.7011699,7.999219 -17.7011699,17.699219 l 0,119.500001 43.6015599,0 0,-119.500001 c 0,-9.7 -7.90156,-17.699219 -17.60156,-17.699219 l -8.29883,0 z m -114.701174,97.800781 0,119.499998 c 0,9.7 7.901175,17.69922 17.701175,17.69922 l 8.298828,0 c 9.7,0 17.701172,-7.99922 17.701172,-17.69922 l 0,-119.499998 -43.701175,0 z m 97.0000041,96.999998 0,22.5 c 0,9.7 8.00116995,17.69922 17.7011699,17.69922 l 8.29883,0 c 9.7,0 17.70117,-7.99922 17.70117,-17.69922 l 0,-22.5 -43.7011699,0 z"
       style="fill:#87c214"
       inkscape:connector-curvature="0" /><path
       id="path35"
       d="m -133.84143,-40.33512 c -9.7,0 -17.69922,7.901172 -17.69922,17.701172 l 0,8.298828 c 0,9.7000005 7.89922,17.7011725 17.69922,17.7011725 l 119.500004,0 0,-43.7011725 -119.500004,0 z m 177.101564,0 0,43.7011725 22.5,0 c 9.7,0 17.69922,-7.901172 17.69922,-17.7011725 l 0,-8.298828 c 0,-9.8 -7.99922,-17.701172 -17.69922,-17.701172 l -22.5,0 z M -133.84143,56.664881 c -9.7,0 -17.69922,7.90117 -17.69922,17.70117 l 0,8.29883 c 0,9.7 7.89922,17.701169 17.69922,17.701169 l 22.5,0 0,-43.701169 -22.5,0 z m 80.101565,0 0,43.701169 119.499999,0 c 9.7,0 17.69922,-8.001169 17.69922,-17.701169 l 0,-8.29883 c 0,-9.8 -7.99922,-17.70117 -17.69922,-17.70117 l -119.499999,0 z"
       style="fill:#95d220"
       inkscape:connector-curvature="0" /></g></svg>