<?xml version="1.0" encoding="UTF-8" standalone="no"?>
<!-- Generator: Adobe Illustrator 19.0.0, SVG Export Plug-In . SVG Version: 6.00 Build 0)  -->

<svg
   xmlns:dc="http://purl.org/dc/elements/1.1/"
   xmlns:cc="http://creativecommons.org/ns#"
   xmlns:rdf="http://www.w3.org/1999/02/22-rdf-syntax-ns#"
   xmlns:svg="http://www.w3.org/2000/svg"
   xmlns="http://www.w3.org/2000/svg"
   xmlns:sodipodi="http://sodipodi.sourceforge.net/DTD/sodipodi-0.dtd"
   xmlns:inkscape="http://www.inkscape.org/namespaces/inkscape"
   version="1.1"
   id="Ebene_1"
   x="0px"
   y="0px"
   viewBox="0 0 235 309.99999"
   xml:space="preserve"
   inkscape:version="0.91 r13725"
   sodipodi:docname="logo_vertical_black.svg"
   width="235"
   height="310"><metadata
     id="metadata71"><rdf:RDF><cc:Work
         rdf:about=""><dc:format>image/svg+xml</dc:format><dc:type
           rdf:resource="http://purl.org/dc/dcmitype/StillImage" /><dc:title></dc:title></cc:Work></rdf:RDF></metadata><defs
     id="defs69" /><sodipodi:namedview
     pagecolor="#ffffff"
     bordercolor="#666666"
     borderopacity="1"
     objecttolerance="10"
     gridtolerance="10"
     guidetolerance="10"
     inkscape:pageopacity="0"
     inkscape:pageshadow="2"
     inkscape:window-width="1920"
     inkscape:window-height="1021"
     id="namedview67"
     showgrid="false"
     inkscape:zoom="2"
     inkscape:cx="44.30241"
     inkscape:cy="167.18188"
     inkscape:window-x="1440"
     inkscape:window-y="23"
     inkscape:window-maximized="0"
     inkscape:current-layer="Ebene_1" /><style
     type="text/css"
     id="style3">
	.st0{display:none;fill:#87C214;}
	.st1{fill:#87C214;}
	.st2{display:none;fill:#FFFFFF;}
	.st3{fill:#95D220;}
	.st4{display:none;fill:#95D220;}
</style><rect
     style="display:none;fill:#87c214"
     id="rect11"
     height="43.700001"
     width="43.700001"
     class="st0"
     y="47.199989"
     x="47.200001" /><path
     style="fill:#87c214"
     d="M 64.900391 0 C 55.200391 0 47.199219 7.9992183 47.199219 17.699219 L 47.199219 40.199219 L 90.800781 40.199219 L 90.800781 17.699219 C 90.800781 7.9992183 82.899219 -4.7369516e-15 73.199219 0 L 64.900391 0 z M 161.90039 0 C 152.20039 0 144.19922 7.9992183 144.19922 17.699219 L 144.19922 137.19922 L 187.80078 137.19922 L 187.80078 17.699219 C 187.80078 7.9992183 179.89922 -4.7369516e-15 170.19922 0 L 161.90039 0 z M 47.199219 97.800781 L 47.199219 217.30078 C 47.199219 227.00078 55.100391 235 64.900391 235 L 73.199219 235 C 82.899219 235 90.900391 227.00078 90.900391 217.30078 L 90.900391 97.800781 L 47.199219 97.800781 z M 144.19922 194.80078 L 144.19922 217.30078 C 144.19922 227.00078 152.20039 235 161.90039 235 L 170.19922 235 C 179.89922 235 187.90039 227.00078 187.90039 217.30078 L 187.90039 194.80078 L 144.19922 194.80078 z "
     id="path13" /><path
     class="st2"
     d="m 73.2,-1.221e-5 c 9.7,0 17.7,8.00000001 17.7,17.70000021 l 0,199.700002 c 0,9.7 -8,17.7 -17.7,17.7 l -8.3,0 c -9.7,0 -17.7,-8 -17.7,-17.7 l 0,-199.700002 C 47.2,7.9999878 55.1,-1.221e-5 64.8,-1.221e-5 l 8.4,0 m 0,-6.99999999 -8.3,0 c -13.7,0 -24.7,11.1 -24.7,24.7000002 l 0,199.700002 c 0,13.6 11.1,24.7 24.7,24.7 l 8.3,0 c 13.6,0 24.7,-11.1 24.7,-24.7 l 0,-199.700002 C 97.8,4.0999878 86.8,-7.0000122 73.2,-7.0000122 l 0,0 z"
     id="path17"
     inkscape:connector-curvature="0"
     style="display:none;fill:#ffffff" /><rect
     style="display:none;fill:#87c214"
     id="rect25"
     height="43.700001"
     width="43.700001"
     class="st0"
     y="144.19998"
     x="144.2" /><path
     class="st2"
     d="m 170.2,-1.221e-5 c 9.7,0 17.7,8.00000001 17.7,17.70000021 l 0,199.700002 c 0,9.7 -7.9,17.7 -17.7,17.7 l -8.3,0 c -9.7,0 -17.7,-8 -17.7,-17.7 l 0,-199.700002 c 0,-9.7000002 8,-17.70000021 17.7,-17.70000021 l 8.3,0 m 0,-6.99999999 -8.3,0 c -13.6,0 -24.7,11.1 -24.7,24.7000002 l 0,199.700002 c 0,13.6 11.1,24.7 24.7,24.7 l 8.3,0 c 13.6,0 24.7,-11.1 24.7,-24.7 l 0,-199.700002 C 194.8,4.0999878 183.8,-7.0000122 170.2,-7.0000122 l 0,0 z"
     id="path29"
     inkscape:connector-curvature="0"
     style="display:none;fill:#ffffff" /><path
     style="fill:#95d220"
     d="M 17.699219 47.199219 C 7.9992186 47.199219 2.3684758e-15 55.100391 0 64.900391 L 0 73.199219 C 0 82.899219 7.8992186 90.900391 17.699219 90.900391 L 137.19922 90.900391 L 137.19922 47.199219 L 17.699219 47.199219 z M 194.80078 47.199219 L 194.80078 90.900391 L 217.30078 90.900391 C 227.00078 90.900391 235 82.999219 235 73.199219 L 235 64.900391 C 235 55.100391 227.00078 47.199219 217.30078 47.199219 L 194.80078 47.199219 z M 17.699219 144.19922 C 7.9992186 144.19922 2.3684758e-15 152.10039 0 161.90039 L 0 170.19922 C 0 179.89922 7.8992186 187.90039 17.699219 187.90039 L 40.199219 187.90039 L 40.199219 144.19922 L 17.699219 144.19922 z M 97.800781 144.19922 L 97.800781 187.90039 L 217.30078 187.90039 C 227.00078 187.90039 235 179.89922 235 170.19922 L 235 161.90039 C 235 152.10039 227.00078 144.19922 217.30078 144.19922 L 97.800781 144.19922 z "
     id="path35" /><rect
     style="display:none;fill:#95d220"
     id="rect37"
     height="43.700001"
     width="43.700001"
     class="st4"
     y="144.19998"
     x="47.200001" /><path
     class="st2"
     d="m 217.3,144.19999 c 9.7,0 17.7,7.9 17.7,17.7 l 0,8.3 c 0,9.7 -8,17.7 -17.7,17.7 l -199.6,0 c -9.7,0 -17.7,-8 -17.7,-17.7 l 0,-8.3 c 0,-9.7 7.9,-17.7 17.7,-17.7 l 199.6,0 m 0,-7 -199.6,0 c -13.6,0 -24.7,11.1 -24.7,24.7 l 0,8.3 c 0,13.6 11.1,24.7 24.7,24.7 l 199.7,0 c 13.6,0 24.7,-11.1 24.7,-24.7 l 0,-8.3 c -0.1,-13.7 -11.2,-24.7 -24.8,-24.7 l 0,0 z"
     id="path41"
     inkscape:connector-curvature="0"
     style="display:none;fill:#ffffff" /><rect
     style="display:none;fill:#95d220"
     id="rect47"
     height="43.700001"
     width="43.700001"
     class="st4"
     y="47.199989"
     x="144.2" /><path
     class="st2"
     d="m 217.3,47.199988 c 9.7,0 17.7,7.9 17.7,17.7 l 0,8.3 c 0,9.7 -8,17.7 -17.7,17.7 l -199.6,0 c -9.7,0 -17.7,-7.9 -17.7,-17.7 l 0,-8.3 c 0,-9.7 7.9,-17.7 17.7,-17.7 l 199.6,0 m 0,-7 -199.6,0 c -13.6,0 -24.7,11 -24.7,24.6 l 0,8.3 c 0,13.6 11.1,24.7 24.7,24.7 l 199.7,0 c 13.6,0 24.7,-11.1 24.7,-24.7 l 0,-8.3 c -0.1,-13.6 -11.2,-24.6 -24.8,-24.6 l 0,0 z"
     id="path53"
     inkscape:connector-curvature="0"
     style="display:none;fill:#ffffff" /><path
     d="M 0 253.90039 L 0 310 L 26.265625 310 C 38.649816 310 45.142578 303.79961 45.142578 294.09961 C 45.142578 287.79961 42.24573 283.1 36.453125 280.5 L 36.453125 280.40039 C 40.847515 277.70039 42.746094 274.3 42.746094 269 C 42.746094 261 37.25318 253.90039 25.667969 253.90039 L 0 253.90039 z M 54.53125 253.90039 L 54.53125 310 L 61.121094 310 L 61.121094 287.5 L 60.423828 286.80078 L 73.705078 286.80078 C 81.095643 286.80078 85.291724 289.39922 87.988281 295.19922 L 94.978516 310 L 102.36914 310 L 94.080078 292.5 C 92.282373 288.6 89.385747 286.1 86.789062 285 L 86.789062 284.90039 C 92.881286 283.30039 97.974609 277.8 97.974609 270.5 C 97.974609 259.4 89.386477 253.90039 79.099609 253.90039 L 54.53125 253.90039 z M 109.25977 253.90039 L 109.25977 310 L 115.85156 310 L 115.85156 253.90039 L 109.25977 253.90039 z M 148.01172 253.90039 L 123.3418 310 L 130.5332 310 L 136.52539 296.5 L 136.22656 295.80078 L 166.88672 295.80078 L 166.58789 296.5 L 172.58008 310 L 179.77148 310 L 155.00195 253.90039 L 148.01172 253.90039 z M 187.16016 253.90039 L 187.16016 310 L 193.75195 310 L 193.75195 287.5 L 193.05273 286.80078 L 206.33594 286.80078 C 213.72651 286.80078 217.92258 289.39922 220.61914 295.19922 L 227.60938 310 L 235 310 L 226.71094 292.5 C 224.91324 288.6 222.0166 286.1 219.41992 285 L 219.41992 284.90039 C 225.51214 283.30039 230.60547 277.8 230.60547 270.5 C 230.60547 259.4 222.01733 253.90039 211.73047 253.90039 L 187.16016 253.90039 z M 5.8925781 260.09961 L 24.96875 260.09961 C 32.15957 260.09961 35.953125 263 35.953125 269 C 35.953125 274 32.95855 278 24.96875 278 L 5.8925781 278 L 6.5917969 277.30078 L 6.5917969 260.80078 L 5.8925781 260.09961 z M 60.423828 260.09961 L 79.099609 260.09961 C 85.89094 260.09961 91.083724 262.90039 91.183594 270.40039 C 91.183594 276.40039 86.490064 280.59961 78.400391 280.59961 L 60.423828 280.59961 L 61.121094 279.90039 L 61.121094 260.80078 L 60.423828 260.09961 z M 192.95312 260.09961 L 211.62891 260.09961 C 218.52012 260.09961 223.71484 262.90039 223.71484 270.40039 C 223.71484 276.40039 219.02131 280.59961 210.93164 280.59961 L 192.95312 280.59961 L 193.65234 279.90039 L 193.65234 260.80078 L 192.95312 260.09961 z M 151.60547 260.80078 L 151.70703 260.80078 L 153.4043 266.40039 L 163.29102 288.90039 L 163.99023 289.59961 L 139.32227 289.59961 L 140.02148 288.90039 L 149.9082 266.40039 L 151.60547 260.80078 z M 5.8925781 284.19922 L 26.265625 284.19922 C 34.555043 284.19922 38.351562 287.99961 38.351562 294.09961 C 38.351562 300.29961 34.854661 303.80078 26.265625 303.80078 L 5.8925781 303.80078 L 6.5917969 303.09961 L 6.5917969 284.90039 L 5.8925781 284.19922 z "
     id="path57" /></svg>