<?xml version="1.0" encoding="UTF-8" standalone="no"?>
<!-- Generator: Adobe Illustrator 19.0.0, SVG Export Plug-In . SVG Version: 6.00 Build 0)  -->

<svg
   xmlns:dc="http://purl.org/dc/elements/1.1/"
   xmlns:cc="http://creativecommons.org/ns#"
   xmlns:rdf="http://www.w3.org/1999/02/22-rdf-syntax-ns#"
   xmlns:svg="http://www.w3.org/2000/svg"
   xmlns="http://www.w3.org/2000/svg"
   xmlns:sodipodi="http://sodipodi.sourceforge.net/DTD/sodipodi-0.dtd"
   xmlns:inkscape="http://www.inkscape.org/namespaces/inkscape"
   version="1.1"
   id="Ebene_1"
   x="0px"
   y="0px"
   viewBox="0 0 235 234.99999"
   xml:space="preserve"
   inkscape:version="0.91 r13725"
   sodipodi:docname="logo_no_text.svg"
   width="235"
   height="235"><metadata
     id="metadata71"><rdf:RDF><cc:Work
         rdf:about=""><dc:format>image/svg+xml</dc:format><dc:type
           rdf:resource="http://purl.org/dc/dcmitype/StillImage" /><dc:title></dc:title></cc:Work></rdf:RDF></metadata><defs
     id="defs69" /><sodipodi:namedview
     pagecolor="#ffffff"
     bordercolor="#666666"
     borderopacity="1"
     objecttolerance="10"
     gridtolerance="10"
     guidetolerance="10"
     inkscape:pageopacity="0"
     inkscape:pageshadow="2"
     inkscape:window-width="1920"
     inkscape:window-height="1021"
     id="namedview67"
     showgrid="false"
     inkscape:zoom="2"
     inkscape:cx="42.80241"
     inkscape:cy="93.181868"
     inkscape:window-x="1443"
     inkscape:window-y="23"
     inkscape:window-maximized="0"
     inkscape:current-layer="Ebene_1"
     fit-margin-top="0"
     fit-margin-left="0"
     fit-margin-right="0"
     fit-margin-bottom="0" /><style
     type="text/css"
     id="style3">
	.st0{display:none;fill:#87C214;}
	.st1{fill:#87C214;}
	.st2{display:none;fill:#FFFFFF;}
	.st3{fill:#95D220;}
	.st4{display:none;fill:#95D220;}
</style><g
     id="g5"
     transform="translate(-0.5,0)"><g
       id="g7"><g
         id="g9"><rect
           x="47.700001"
           y="47.200001"
           class="st0"
           width="43.700001"
           height="43.700001"
           id="rect11"
           style="display:none;fill:#87c214" /><path
           class="st1"
           d="m 47.7,97.8 0,119.5 c 0,9.7 7.9,17.7 17.7,17.7 l 8.3,0 c 9.7,0 17.7,-8 17.7,-17.7 l 0,-119.5 -43.7,0 z"
           id="path13"
           inkscape:connector-curvature="0"
           style="fill:#87c214" /><path
           class="st1"
           d="m 91.3,40.2 0,-22.5 C 91.3,8 83.4,0 73.7,0 L 65.4,0 C 55.7,0 47.7,8 47.7,17.7 l 0,22.5 43.6,0 z"
           id="path15"
           inkscape:connector-curvature="0"
           style="fill:#87c214" /></g><path
         class="st2"
         d="m 73.7,0 c 9.7,0 17.7,8 17.7,17.7 l 0,199.7 c 0,9.7 -8,17.7 -17.7,17.7 l -8.3,0 c -9.7,0 -17.7,-8 -17.7,-17.7 l 0,-199.7 C 47.7,8 55.6,0 65.3,0 l 8.4,0 m 0,-7 -8.3,0 C 51.7,-7 40.7,4.1 40.7,17.7 l 0,199.7 c 0,13.6 11.1,24.7 24.7,24.7 l 8.3,0 c 13.6,0 24.7,-11.1 24.7,-24.7 l 0,-199.7 C 98.3,4.1 87.3,-7 73.7,-7 l 0,0 z"
         id="path17"
         inkscape:connector-curvature="0"
         style="display:none;fill:#ffffff" /></g><g
       id="g19"><g
         id="g21"><path
           class="st1"
           d="m 188.3,137.2 0,-119.5 C 188.3,8 180.4,0 170.7,0 l -8.3,0 c -9.7,0 -17.7,8 -17.7,17.7 l 0,119.5 43.6,0 z"
           id="path23"
           inkscape:connector-curvature="0"
           style="fill:#87c214" /><rect
           x="144.7"
           y="144.2"
           class="st0"
           width="43.700001"
           height="43.700001"
           id="rect25"
           style="display:none;fill:#87c214" /><path
           class="st1"
           d="m 144.7,194.8 0,22.5 c 0,9.7 8,17.7 17.7,17.7 l 8.3,0 c 9.7,0 17.7,-8 17.7,-17.7 l 0,-22.5 -43.7,0 z"
           id="path27"
           inkscape:connector-curvature="0"
           style="fill:#87c214" /></g><path
         class="st2"
         d="m 170.7,0 c 9.7,0 17.7,8 17.7,17.7 l 0,199.7 c 0,9.7 -7.9,17.7 -17.7,17.7 l -8.3,0 c -9.7,0 -17.7,-8 -17.7,-17.7 l 0,-199.7 C 144.7,8 152.7,0 162.4,0 l 8.3,0 m 0,-7 -8.3,0 c -13.6,0 -24.7,11.1 -24.7,24.7 l 0,199.7 c 0,13.6 11.1,24.7 24.7,24.7 l 8.3,0 c 13.6,0 24.7,-11.1 24.7,-24.7 l 0,-199.7 C 195.3,4.1 184.3,-7 170.7,-7 l 0,0 z"
         id="path29"
         inkscape:connector-curvature="0"
         style="display:none;fill:#ffffff" /></g><g
       id="g31"><g
         id="g33"><path
           class="st3"
           d="m 40.7,144.2 -22.5,0 c -9.7,0 -17.7,7.9 -17.7,17.7 l 0,8.3 c 0,9.7 7.9,17.7 17.7,17.7 l 22.5,0 0,-43.7 z"
           id="path35"
           inkscape:connector-curvature="0"
           style="fill:#95d220" /><rect
           x="47.700001"
           y="144.2"
           class="st4"
           width="43.700001"
           height="43.700001"
           id="rect37"
           style="display:none;fill:#95d220" /><path
           class="st3"
           d="m 217.8,144.2 -119.5,0 0,43.7 119.5,0 c 9.7,0 17.7,-8 17.7,-17.7 l 0,-8.3 c 0,-9.8 -8,-17.7 -17.7,-17.7 z"
           id="path39"
           inkscape:connector-curvature="0"
           style="fill:#95d220" /></g><path
         class="st2"
         d="m 217.8,144.2 c 9.7,0 17.7,7.9 17.7,17.7 l 0,8.3 c 0,9.7 -8,17.7 -17.7,17.7 l -199.6,0 c -9.7,0 -17.7,-8 -17.7,-17.7 l 0,-8.3 c 0,-9.7 7.9,-17.7 17.7,-17.7 l 199.6,0 m 0,-7 -199.6,0 c -13.6,0 -24.7,11.1 -24.7,24.7 l 0,8.3 c 0,13.6 11.1,24.7 24.7,24.7 l 199.7,0 c 13.6,0 24.7,-11.1 24.7,-24.7 l 0,-8.3 c -0.1,-13.7 -11.2,-24.7 -24.8,-24.7 l 0,0 z"
         id="path41"
         inkscape:connector-curvature="0"
         style="display:none;fill:#ffffff" /></g><g
       id="g43"><g
         id="g45"><rect
           x="144.7"
           y="47.200001"
           class="st4"
           width="43.700001"
           height="43.700001"
           id="rect47"
           style="display:none;fill:#95d220" /><path
           class="st3"
           d="m 137.7,47.2 -119.5,0 C 8.5,47.2 0.5,55.1 0.5,64.9 l 0,8.3 c 0,9.7 7.9,17.7 17.7,17.7 l 119.5,0 0,-43.7 z"
           id="path49"
           inkscape:connector-curvature="0"
           style="fill:#95d220" /><path
           class="st3"
           d="m 217.8,47.2 -22.5,0 0,43.7 22.5,0 c 9.7,0 17.7,-7.9 17.7,-17.7 l 0,-8.3 c 0,-9.8 -8,-17.7 -17.7,-17.7 z"
           id="path51"
           inkscape:connector-curvature="0"
           style="fill:#95d220" /></g><path
         class="st2"
         d="m 217.8,47.2 c 9.7,0 17.7,7.9 17.7,17.7 l 0,8.3 c 0,9.7 -8,17.7 -17.7,17.7 l -199.6,0 C 8.5,90.9 0.5,83 0.5,73.2 l 0,-8.3 c 0,-9.7 7.9,-17.7 17.7,-17.7 l 199.6,0 m 0,-7 -199.6,0 c -13.6,0 -24.7,11 -24.7,24.6 l 0,8.3 c 0,13.6 11.1,24.7 24.7,24.7 l 199.7,0 c 13.6,0 24.7,-11.1 24.7,-24.7 l 0,-8.3 C 242.5,51.2 231.4,40.2 217.8,40.2 l 0,0 z"
         id="path53"
         inkscape:connector-curvature="0"
         style="display:none;fill:#ffffff" /></g></g></svg>