<svg width="250" height="199" viewBox="0 0 250 199" fill="none" xmlns="http://www.w3.org/2000/svg">
	<path
		d="M95.4363 100.233C95.4363 93.5233 100.876 88.084 107.585 88.084H130.365C137.074 88.084 142.514 93.5233 142.514 100.233V123.012C142.514 129.722 137.074 135.161 130.365 135.161H107.585C100.876 135.161 95.4363 129.722 95.4363 123.012V100.233Z"
		fill="#15212D" />
	<path
		d="M102.336 10.2609C102.336 4.59395 106.93 0 112.597 0H131.836C137.503 0 142.097 4.59395 142.097 10.2609V29.5C142.097 35.1669 137.503 39.7609 131.836 39.7609H112.597C106.93 39.7609 102.336 35.1669 102.336 29.5V10.2609Z"
		fill="#15212D" />
	<path
		d="M34.8184 148.09C34.8184 143.427 38.5986 139.646 43.2618 139.646H59.0933C63.7565 139.646 67.5368 143.427 67.5368 148.09V163.921C67.5368 168.585 63.7565 172.365 59.0933 172.365H43.2618C38.5986 172.365 34.8184 168.585 34.8184 163.921V148.09Z"
		fill="#15212D" />
	<path
		d="M110.024 186.044C110.024 183.557 112.04 181.541 114.527 181.541H122.971C125.458 181.541 127.475 183.557 127.475 186.044V194.488C127.475 196.976 125.458 198.992 122.971 198.992H114.527C112.04 198.992 110.024 196.976 110.024 194.488V186.044Z"
		fill="#15212D" />
	<path
		d="M173.713 141.6C173.713 134.89 179.152 129.451 185.862 129.451H208.641C215.351 129.451 220.79 134.89 220.79 141.6V164.38C220.79 171.089 215.351 176.528 208.641 176.528H185.862C179.152 176.528 173.713 171.089 173.713 164.38V141.6Z"
		fill="#15212D" />
	<path
		d="M232.049 95.4156C232.049 92.9284 234.065 90.9121 236.553 90.9121H244.997C247.484 90.9121 249.5 92.9284 249.5 95.4156V103.86C249.5 106.347 247.484 108.363 244.997 108.363H236.553C234.065 108.363 232.049 106.347 232.049 103.86V95.4156Z"
		fill="#15212D" />
	<path fill-rule="evenodd" clip-rule="evenodd"
		d="M120.481 84.2273V45.2676H122.481V84.2273H120.481Z" fill="#657D99" />
	<path fill-rule="evenodd" clip-rule="evenodd"
		d="M117.685 176.101L117.685 139.646H119.685L119.685 176.101H117.685Z" fill="#657D99" />
	<path fill-rule="evenodd" clip-rule="evenodd"
		d="M3.27959 108.445L4.0457 106.598C4.3381 106.719 4.66032 106.787 5.00345 106.787H7.11444V108.787H5.00345C4.39282 108.787 3.81058 108.665 3.27959 108.445ZM11.3364 108.787V106.787H13.4474C13.7905 106.787 14.1128 106.719 14.4052 106.598L15.1713 108.445C14.6403 108.665 14.058 108.787 13.4474 108.787H11.3364ZM17.9509 97.9504H15.9509V95.8394C15.9509 95.4963 15.8829 95.174 15.7617 94.8816L17.6091 94.1155C17.8293 94.6465 17.9509 95.2288 17.9509 95.8394V97.9504ZM7.11444 91.3359H5.00345C4.39282 91.3359 3.81058 91.4575 3.27959 91.6777L4.0457 93.5251C4.3381 93.4039 4.66032 93.3359 5.00345 93.3359H7.11444V91.3359ZM0.500008 102.172H2.50001V104.283C2.50001 104.626 2.56793 104.949 2.68918 105.241L0.841732 106.007C0.621538 105.476 0.500008 104.894 0.500008 104.283V102.172ZM0.500008 97.9504H2.50001V95.8394C2.50001 95.4963 2.56793 95.174 2.68918 94.8816L0.841731 94.1155C0.621538 94.6465 0.500008 95.2288 0.500008 95.8394V97.9504ZM11.3364 91.3359V93.3359H13.4474C13.7905 93.3359 14.1128 93.4039 14.4052 93.5251L15.1713 91.6777C14.6403 91.4575 14.058 91.3359 13.4474 91.3359H11.3364ZM17.9509 102.172H15.9509V104.283C15.9509 104.626 15.8829 104.949 15.7617 105.241L17.6091 106.007C17.8293 105.476 17.9509 104.894 17.9509 104.283V102.172Z"
		fill="#657D99" />
	<path fill-rule="evenodd" clip-rule="evenodd"
		d="M41.1771 64.5169V62.6484H43.1771V64.5169H41.1771ZM41.1771 71.9908V68.2538H43.1771V71.9908H41.1771ZM41.1771 79.4647V75.7277H43.1771V79.4647H41.1771ZM41.1771 86.9385V83.2016H43.1771V86.9385H41.1771ZM41.1771 94.4124V90.6755H43.1771V94.4124H41.1771ZM41.1771 99.0178V98.1493H43.1771V99.0178H44.9095V101.018H39.681V99.0178H41.1771ZM24.7048 101.018H22.2087V99.0178H24.7048V101.018ZM34.6889 101.018H29.6969V99.0178H34.6889V101.018ZM52.1068 101.018H50.3744V99.0178H54.8543V101.018H54.1068V102.148H52.1068V101.018ZM61.8442 101.018H58.3493V99.0178H61.8442V101.018ZM67.0867 101.018H65.3392V99.0178H67.0867C68.0476 99.0178 68.9663 99.2092 69.8048 99.557L69.0387 101.404C68.4388 101.156 67.7801 101.018 67.0867 101.018ZM72.187 106.118C72.187 105.425 72.0492 104.766 71.8004 104.166L73.6478 103.4C73.9955 104.239 74.187 105.157 74.187 106.118C74.187 106.812 74.3248 107.47 74.5736 108.07L72.7261 108.836C72.3784 107.998 72.187 107.079 72.187 106.118ZM52.1068 110.668V106.408H54.1068V110.668H52.1068ZM79.2873 113.218C78.3264 113.218 77.4077 113.027 76.5691 112.679L77.3352 110.832C77.9352 111.081 78.5939 111.218 79.2873 111.218H81.5905V113.218H79.2873ZM88.5 113.218H86.1968V111.218H88.5V113.218ZM52.1068 119.188V114.928H54.1068V119.188H52.1068ZM52.1068 127.709V123.449H54.1068V127.709H52.1068ZM52.1068 134.099V131.969H54.1068V134.099H52.1068Z"
		fill="#74B816" />
	<path fill-rule="evenodd" clip-rule="evenodd"
		d="M105.214 134.93L105.602 132.968C106.242 133.095 106.905 133.161 107.585 133.161H109.484V135.161H107.585C106.774 135.161 105.981 135.082 105.214 134.93ZM128.466 135.161V133.161H130.365C131.045 133.161 131.708 133.095 132.347 132.968L132.736 134.93C131.969 135.082 131.176 135.161 130.365 135.161H128.466ZM137.115 133.115L136.002 131.453C137.11 130.712 138.064 129.757 138.805 128.65L140.467 129.762C139.58 131.087 138.44 132.228 137.115 133.115ZM142.514 102.131H140.514V100.233C140.514 99.5526 140.447 98.8898 140.32 98.2501L142.282 97.8619C142.434 98.6288 142.514 99.4216 142.514 100.233V102.131ZM140.467 93.4828L138.805 94.5954C138.064 93.4878 137.11 92.5338 136.002 91.7922L137.115 90.1303C138.44 91.0173 139.58 92.1579 140.467 93.4828ZM109.484 88.084H107.585C106.774 88.084 105.981 88.1635 105.214 88.3152L105.602 90.2772C106.242 90.1507 106.905 90.084 107.585 90.084H109.484V88.084ZM100.835 90.1303L101.948 91.7922C100.84 92.5338 99.8861 93.4878 99.1445 94.5954L97.4826 93.4828C98.3696 92.1579 99.5102 91.0173 100.835 90.1303ZM95.4363 121.114H97.4363V123.012C97.4363 123.693 97.503 124.355 97.6295 124.995L95.6675 125.383C95.5158 124.616 95.4363 123.824 95.4363 123.012V121.114ZM97.4826 129.762L99.1445 128.65C99.8861 129.757 100.84 130.712 101.948 131.453L100.835 133.115C99.5102 132.228 98.3696 131.087 97.4826 129.762ZM95.4363 117.317H97.4363V113.521H95.4363V117.317ZM95.4363 109.724H97.4363V105.928H95.4363V109.724ZM95.4363 102.131H97.4363V100.233C97.4363 99.5526 97.503 98.8898 97.6295 98.2501L95.6675 97.8619C95.5158 98.6288 95.4363 99.4216 95.4363 100.233V102.131ZM113.28 88.084V90.084H117.077V88.084H113.28ZM120.873 88.084V90.084H124.67V88.084H120.873ZM128.466 88.084V90.084H130.365C131.045 90.084 131.708 90.1507 132.347 90.2772L132.736 88.3152C131.969 88.1635 131.176 88.084 130.365 88.084H128.466ZM142.514 105.928H140.514V109.724H142.514V105.928ZM142.514 113.521H140.514V117.317H142.514V113.521ZM142.514 121.114H140.514V123.012C140.514 123.693 140.447 124.355 140.32 124.995L142.282 125.383C142.434 124.616 142.514 123.824 142.514 123.012V121.114ZM124.67 135.161V133.161H120.873V135.161H124.67ZM117.077 135.161V133.161H113.28V135.161H117.077Z"
		fill="#74B816" />
	<path fill-rule="evenodd" clip-rule="evenodd"
		d="M188.618 86.5389V84.6738H190.618V86.5389H188.618ZM188.618 93.9991V90.269H190.618V93.9991H188.618ZM188.618 97.7293H190.618V98.5943H191.517V100.594H190.618V101.183H188.618V97.7293ZM199.112 100.594H195.315V98.5943H199.112V100.594ZM206.707 100.594H202.91V98.5943H206.707V100.594ZM214.303 100.594H210.505V98.5943H214.303V100.594ZM221.898 100.594H218.1V98.5943H221.898V100.594ZM227.595 100.594H225.696V98.5943H227.595V100.594ZM188.618 107.537V104.36H190.618V107.537H188.618ZM188.618 111.303V110.715H190.618V111.359C190.865 111.387 191.109 111.425 191.35 111.472L190.962 113.434C190.528 113.349 190.079 113.303 189.618 113.303H187.737V111.303H188.618ZM153.881 113.303H152V111.303H153.881V113.303ZM161.405 113.303H157.643V111.303H161.405V113.303ZM168.928 113.303H165.166V111.303H168.928V113.303ZM176.452 113.303H172.69V111.303H176.452V113.303ZM183.975 113.303H180.214V111.303H183.975V113.303ZM195.34 116.361C194.837 115.611 194.19 114.964 193.44 114.462L194.552 112.8C195.52 113.448 196.353 114.281 197.001 115.249L195.34 116.361ZM196.498 120.183C196.498 119.722 196.453 119.273 196.367 118.839L198.329 118.451C198.44 119.012 198.498 119.591 198.498 120.183V121.203H196.498V120.183ZM196.498 124.261V123.242H198.498V124.261H196.498Z"
		fill="#74B816" />
	<path fill-rule="evenodd" clip-rule="evenodd"
		d="M183.491 176.297L183.879 174.335C184.519 174.462 185.182 174.528 185.862 174.528H187.76V176.528H185.862C185.051 176.528 184.258 176.449 183.491 176.297ZM206.743 176.528V174.528H208.641C209.322 174.528 209.985 174.462 210.624 174.335L211.012 176.297C210.246 176.449 209.453 176.528 208.641 176.528H206.743ZM215.392 174.482L214.279 172.82C215.387 172.079 216.341 171.125 217.082 170.017L218.744 171.13C217.857 172.455 216.717 173.595 215.392 174.482ZM220.79 143.498H218.79V141.6C218.79 140.92 218.724 140.257 218.597 139.617L220.559 139.229C220.711 139.996 220.79 140.789 220.79 141.6V143.498ZM218.744 134.85L217.082 135.963C216.341 134.855 215.387 133.901 214.279 133.159L215.392 131.497C216.717 132.384 217.857 133.525 218.744 134.85ZM187.76 129.451H185.862C185.051 129.451 184.258 129.531 183.491 129.682L183.879 131.644C184.519 131.518 185.182 131.451 185.862 131.451H187.76V129.451ZM179.112 131.497L180.225 133.159C179.117 133.901 178.163 134.855 177.421 135.963L175.759 134.85C176.646 133.525 177.787 132.384 179.112 131.497ZM173.713 162.481H175.713V164.38C175.713 165.06 175.78 165.723 175.906 166.362L173.944 166.751C173.793 165.984 173.713 165.191 173.713 164.38V162.481ZM175.759 171.13L177.421 170.017C178.163 171.125 179.117 172.079 180.225 172.82L179.112 174.482C177.787 173.595 176.646 172.455 175.759 171.13ZM173.713 158.685H175.713V154.888H173.713V158.685ZM173.713 151.092H175.713V147.295H173.713V151.092ZM173.713 143.498H175.713V141.6C175.713 140.92 175.78 140.257 175.906 139.617L173.944 139.229C173.793 139.996 173.713 140.789 173.713 141.6V143.498ZM191.557 129.451V131.451H195.354V129.451H191.557ZM199.15 129.451V131.451H202.947V129.451H199.15ZM206.743 129.451V131.451H208.641C209.322 131.451 209.985 131.518 210.624 131.644L211.012 129.682C210.246 129.531 209.453 129.451 208.641 129.451H206.743ZM220.79 147.295H218.79V151.092H220.79V147.295ZM220.79 154.888H218.79V158.685H220.79V154.888ZM220.79 162.481H218.79V164.38C218.79 165.06 218.724 165.723 218.597 166.362L220.559 166.751C220.711 165.984 220.79 165.191 220.79 164.38V162.481ZM202.947 176.528V174.528H199.15V176.528H202.947ZM195.354 176.528V174.528H191.557V176.528H195.354Z"
		fill="#74B816" />
	<path fill-rule="evenodd" clip-rule="evenodd"
		d="M110.594 39.5656L110.982 37.6036C111.503 37.7066 112.042 37.7609 112.597 37.7609H115.001V39.7609H112.597C111.911 39.7609 111.242 39.6937 110.594 39.5656ZM129.431 39.7609V37.7609H131.836C132.39 37.7609 132.93 37.7066 133.45 37.6036L133.838 39.5656C133.191 39.6937 132.521 39.7609 131.836 39.7609H129.431ZM137.537 38.0326L136.424 36.3706C137.326 35.767 138.103 34.9902 138.706 34.0885L140.368 35.2011C139.619 36.3201 138.656 37.2835 137.537 38.0326ZM142.097 12.6658H140.097V10.2609C140.097 9.7066 140.042 9.167 139.939 8.64647L141.901 8.25834C142.029 8.90601 142.097 9.57559 142.097 10.2609V12.6658ZM140.368 4.55977L138.706 5.67241C138.103 4.77069 137.326 3.99391 136.424 3.39022L137.537 1.72828C138.656 2.47741 139.619 3.44081 140.368 4.55977ZM115.001 0H112.597C111.911 0 111.242 0.0671774 110.594 0.195306L110.982 2.15728C111.503 2.05431 112.042 2 112.597 2H115.001V0ZM106.895 1.72829L108.008 3.39022C107.106 3.99391 106.33 4.77069 105.726 5.67241L104.064 4.55977C104.813 3.44081 105.777 2.47741 106.895 1.72829ZM102.336 27.0951H104.336V29.5C104.336 30.0543 104.39 30.5939 104.493 31.1144L102.531 31.5025C102.403 30.8549 102.336 30.1853 102.336 29.5V27.0951ZM104.064 35.2011L105.726 34.0885C106.33 34.9902 107.106 35.767 108.008 36.3706L106.895 38.0326C105.777 37.2835 104.813 36.3201 104.064 35.2011ZM102.336 22.2853H104.336V17.4755H102.336V22.2853ZM102.336 12.6658H104.336V10.2609C104.336 9.7066 104.39 9.167 104.493 8.64647L102.531 8.25834C102.403 8.90601 102.336 9.57559 102.336 10.2609V12.6658ZM119.811 0V2H124.621V0H119.811ZM129.431 0V2H131.836C132.39 2 132.93 2.05431 133.45 2.15728L133.838 0.195306C133.191 0.0671773 132.521 0 131.836 0H129.431ZM142.097 17.4755H140.097V22.2853H142.097V17.4755ZM142.097 27.0951H140.097V29.5C140.097 30.0543 140.042 30.5939 139.939 31.1144L141.901 31.5025C142.029 30.8549 142.097 30.1853 142.097 29.5V27.0951ZM124.621 39.7609V37.7609H119.811V39.7609H124.621Z"
		fill="#435B77" />
	<path fill-rule="evenodd" clip-rule="evenodd"
		d="M40.0298 171.724L40.7959 169.877C41.5528 170.191 42.3845 170.365 43.2618 170.365H45.2408V172.365H43.2618C42.117 172.365 41.0253 172.137 40.0298 171.724ZM57.1144 172.365V170.365H59.0933C59.9707 170.365 60.8023 170.191 61.5593 169.877L62.3254 171.724C61.3298 172.137 60.2382 172.365 59.0933 172.365H57.1144ZM67.5368 150.069H65.5368V148.09C65.5368 147.213 65.3625 146.381 65.0486 145.624L66.8961 144.858C67.3089 145.853 67.5368 146.945 67.5368 148.09V150.069ZM45.2408 139.646H43.2618C42.117 139.646 41.0253 139.874 40.0298 140.287L40.7959 142.135C41.5528 141.821 42.3845 141.646 43.2618 141.646H45.2408V139.646ZM34.8184 161.943H36.8184V163.921C36.8184 164.799 36.9926 165.63 37.3065 166.387L35.4591 167.153C35.0462 166.158 34.8184 165.066 34.8184 163.921V161.943ZM34.8184 157.985H36.8184V154.027H34.8184V157.985ZM34.8184 150.069H36.8184V148.09C36.8184 147.213 36.9926 146.381 37.3065 145.624L35.4591 144.858C35.0462 145.853 34.8184 146.945 34.8184 148.09V150.069ZM49.1986 139.646V141.646H53.1565V139.646H49.1986ZM57.1144 139.646V141.646H59.0933C59.9707 141.646 60.8023 141.821 61.5593 142.135L62.3254 140.287C61.3298 139.874 60.2382 139.646 59.0933 139.646H57.1144ZM67.5368 154.027H65.5368V157.985H67.5368V154.027ZM67.5368 161.943H65.5368V163.921C65.5368 164.799 65.3625 165.63 65.0486 166.387L66.8961 167.154C67.3089 166.158 67.5368 165.066 67.5368 163.921V161.943ZM53.1565 172.365V170.365H49.1986V172.365H53.1565Z"
		fill="#435B77" />
	<path fill-rule="evenodd" clip-rule="evenodd"
		d="M112.803 198.65L113.569 196.803C113.862 196.924 114.184 196.992 114.527 196.992H116.638V198.992H114.527C113.917 198.992 113.334 198.87 112.803 198.65ZM120.86 198.992V196.992H122.971C123.314 196.992 123.636 196.924 123.929 196.803L124.695 198.65C124.164 198.87 123.582 198.992 122.971 198.992H120.86ZM127.475 188.155H125.475V186.044C125.475 185.701 125.407 185.379 125.285 185.087L127.133 184.321C127.353 184.852 127.475 185.434 127.475 186.044V188.155ZM116.638 181.541H114.527C113.917 181.541 113.334 181.663 112.803 181.883L113.569 183.73C113.862 183.609 114.184 183.541 114.527 183.541H116.638V181.541ZM110.024 192.377H112.024V194.488C112.024 194.832 112.092 195.154 112.213 195.446L110.365 196.212C110.145 195.681 110.024 195.099 110.024 194.488V192.377ZM110.024 188.155H112.024V186.044C112.024 185.701 112.092 185.379 112.213 185.087L110.365 184.321C110.145 184.852 110.024 185.434 110.024 186.044V188.155ZM120.86 181.541V183.541H122.971C123.314 183.541 123.636 183.609 123.929 183.73L124.695 181.883C124.164 181.663 123.582 181.541 122.971 181.541H120.86ZM127.475 192.377H125.475V194.488C125.475 194.832 125.407 195.154 125.285 195.446L127.133 196.212C127.353 195.681 127.475 195.099 127.475 194.488V192.377Z"
		fill="#435B77" />
	<path fill-rule="evenodd" clip-rule="evenodd"
		d="M178.996 79.8234L179.762 77.976C180.48 78.2737 181.269 78.4391 182.101 78.4391H184.003V80.4391H182.101C181.001 80.4391 179.952 80.2201 178.996 79.8234ZM195.412 80.4391V78.4391H197.314C198.146 78.4391 198.935 78.2737 199.653 77.976L200.419 79.8234C199.463 80.2201 198.414 80.4391 197.314 80.4391H195.412ZM205.427 59.0149H203.427V57.1133C203.427 56.2807 203.262 55.4918 202.964 54.7737L204.811 54.0076C205.208 54.9643 205.427 56.0132 205.427 57.1133V59.0149ZM184.003 49H182.101C181.001 49 179.952 49.2189 178.996 49.6156L179.762 51.4631C180.48 51.1653 181.269 51 182.101 51H184.003V49ZM173.988 70.4242H175.988V72.3258C175.988 73.1584 176.153 73.9473 176.451 74.6653L174.604 75.4315C174.207 74.4748 173.988 73.4259 173.988 72.3258V70.4242ZM173.988 66.6211H175.988V62.818H173.988V66.6211ZM173.988 59.0149H175.988V57.1133C175.988 56.2807 176.153 55.4918 176.451 54.7737L174.604 54.0076C174.207 54.9643 173.988 56.0132 173.988 57.1133V59.0149ZM187.806 49V51H191.609V49H187.806ZM195.412 49V51H197.314C198.146 51 198.935 51.1653 199.653 51.4631L200.419 49.6156C199.463 49.2189 198.414 49 197.314 49H195.412ZM205.427 62.818H203.427V66.6211H205.427V62.818ZM205.427 70.4242H203.427V72.3258C203.427 73.1584 203.262 73.9473 202.964 74.6653L204.811 75.4315C205.208 74.4748 205.427 73.4259 205.427 72.3258V70.4242ZM191.609 80.4391V78.4391H187.806V80.4391H191.609Z"
		fill="#657D99" />
	<path fill-rule="evenodd" clip-rule="evenodd"
		d="M234.829 108.021L235.595 106.174C235.887 106.295 236.209 106.363 236.553 106.363H238.664V108.363H236.553C235.942 108.363 235.36 108.241 234.829 108.021ZM242.886 108.363V106.363H244.997C245.34 106.363 245.662 106.295 245.954 106.174L246.72 108.021C246.189 108.241 245.607 108.363 244.997 108.363H242.886ZM249.5 97.5265H247.5V95.4156C247.5 95.0724 247.432 94.7502 247.311 94.4578L249.158 93.6917C249.378 94.2227 249.5 94.8049 249.5 95.4156V97.5265ZM238.664 90.9121H236.553C235.942 90.9121 235.36 91.0336 234.829 91.2538L235.595 93.1013C235.887 92.98 236.209 92.9121 236.553 92.9121H238.664V90.9121ZM232.049 101.749H234.049V103.86C234.049 104.203 234.117 104.525 234.238 104.817L232.391 105.583C232.171 105.052 232.049 104.47 232.049 103.86V101.749ZM232.049 97.5265H234.049V95.4156C234.049 95.0724 234.117 94.7502 234.238 94.4578L232.391 93.6917C232.171 94.2227 232.049 94.8049 232.049 95.4156V97.5265ZM242.886 90.9121V92.9121H244.997C245.34 92.9121 245.662 92.98 245.954 93.1013L246.72 91.2538C246.189 91.0336 245.607 90.9121 244.997 90.9121H242.886ZM249.5 101.749H247.5V103.86C247.5 104.203 247.432 104.525 247.311 104.817L249.158 105.583C249.378 105.052 249.5 104.47 249.5 103.86V101.749Z"
		fill="#435B77" />
	<path
		d="M29.8254 34.377V53.6604C29.8254 55.2256 31.1003 56.5166 32.6817 56.5166H34.021C35.5863 56.5166 36.8772 55.2256 36.8772 53.6604V34.377H29.8254Z"
		fill="#82C91E" />
	<path
		d="M36.8611 25.0827V21.4519C36.8611 19.8866 35.5863 18.5957 34.021 18.5957H32.6817C31.1164 18.5957 29.8254 19.8866 29.8254 21.4519V25.0827H36.8611Z"
		fill="#82C91E" />
	<path
		d="M52.5136 40.7353V21.4519C52.5136 19.8866 51.2388 18.5957 49.6735 18.5957H48.3342C46.7689 18.5957 45.478 19.8866 45.478 21.4519V40.7353H52.5136Z"
		fill="#82C91E" />
	<path
		d="M45.478 50.0293V53.6601C45.478 55.2253 46.7689 56.5163 48.3342 56.5163H49.6735C51.2388 56.5163 52.5298 55.2253 52.5298 53.6601V50.0293H45.478Z"
		fill="#82C91E" />
	<path
		d="M28.6957 41.8652H25.065C23.4997 41.8652 22.2087 43.14 22.2087 44.7214V46.0608C22.2087 47.6261 23.4836 48.917 25.065 48.917H28.6957V41.8652Z"
		fill="#95DE2D" />
	<path
		d="M57.2738 41.8652H37.9903V48.917H57.2738C58.839 48.917 60.13 47.6261 60.13 46.0608V44.7214C60.13 43.14 58.839 41.8652 57.2738 41.8652Z"
		fill="#95DE2D" />
	<path
		d="M44.3484 26.2129H25.065C23.4997 26.2129 22.2087 27.4877 22.2087 29.0691V30.4084C22.2087 31.9737 23.4836 33.2647 25.065 33.2647H44.3484V26.2129Z"
		fill="#95DE2D" />
	<path
		d="M57.2738 26.2128H53.6431V33.2646H57.2738C58.8391 33.2646 60.1301 31.9898 60.1301 30.4084V29.069C60.1301 27.4876 58.8391 26.2128 57.2738 26.2128Z"
		fill="#95DE2D" />
	<path fill-rule="evenodd" clip-rule="evenodd"
		d="M108.864 99.4959H129.086C129.852 99.4959 130.587 99.8008 131.129 100.343C131.671 100.886 131.975 101.622 131.975 102.39L131.975 127.191C131.975 128.296 130.688 128.899 129.841 128.191L124.6 123.804H108.864C108.098 123.804 107.363 123.499 106.821 122.956C106.279 122.413 105.975 121.677 105.975 120.91V102.39C105.975 101.622 106.279 100.886 106.821 100.343C107.363 99.8008 108.098 99.4959 108.864 99.4959ZM116.549 112.318H110.597V104.126H127.353V112.318H121.499V115.152H123.64C124.026 115.152 124.22 115.619 123.947 115.893L119.331 120.517C119.161 120.686 118.887 120.686 118.718 120.517L114.102 115.893C113.829 115.619 114.022 115.152 114.408 115.152H116.549V112.318Z"
		fill="#95DE2D" />
	<path
		d="M190.408 151.152V162.299C190.408 163.204 191.145 163.95 192.059 163.95H192.833C193.738 163.95 194.484 163.204 194.484 162.299V151.152H190.408Z"
		fill="#82C91E" />
	<path
		d="M194.475 145.779V143.68C194.475 142.775 193.738 142.029 192.833 142.029H192.059C191.154 142.029 190.408 142.775 190.408 143.68V145.779H194.475Z"
		fill="#82C91E" />
	<path
		d="M203.523 154.827V143.68C203.523 142.775 202.786 142.029 201.881 142.029H201.107C200.202 142.029 199.456 142.775 199.456 143.68V154.827H203.523Z"
		fill="#82C91E" />
	<path
		d="M199.456 160.201V162.3C199.456 163.204 200.202 163.951 201.107 163.951H201.881C202.786 163.951 203.533 163.204 203.533 162.3V160.201H199.456Z"
		fill="#82C91E" />
	<path
		d="M189.755 155.48H187.656C186.751 155.48 186.005 156.217 186.005 157.131V157.905C186.005 158.81 186.742 159.556 187.656 159.556H189.755V155.48Z"
		fill="#95DE2D" />
	<path
		d="M206.275 155.48H195.128V159.556H206.275C207.18 159.556 207.926 158.81 207.926 157.905V157.131C207.926 156.217 207.18 155.48 206.275 155.48Z"
		fill="#95DE2D" />
	<path
		d="M198.803 146.433H187.656C186.751 146.433 186.005 147.17 186.005 148.084V148.859C186.005 149.763 186.742 150.51 187.656 150.51H198.803V146.433Z"
		fill="#95DE2D" />
	<path
		d="M206.275 146.433H204.176V150.51H206.275C207.18 150.51 207.926 149.773 207.926 148.859V148.084C207.926 147.17 207.18 146.433 206.275 146.433Z"
		fill="#95DE2D" />
</svg>
