<svg width="250" height="200" viewBox="0 0 250 200" fill="none" xmlns="http://www.w3.org/2000/svg">
	<path
		d="M95.4363 100.737C95.4363 94.0273 100.876 88.588 107.585 88.588H130.365C137.074 88.588 142.514 94.0273 142.514 100.737V123.516C142.514 130.226 137.074 135.665 130.365 135.665H107.585C100.876 135.665 95.4363 130.226 95.4363 123.516V100.737Z"
		fill="#F6FAFE" />
	<path
		d="M102.336 10.7649C102.336 5.09801 106.93 0.504059 112.597 0.504059H131.836C137.503 0.504059 142.097 5.09801 142.097 10.7649V30.0041C142.097 35.671 137.503 40.2649 131.836 40.2649H112.597C106.93 40.2649 102.336 35.671 102.336 30.0041V10.7649Z"
		fill="#F6FAFE" />
	<path
		d="M34.8184 148.594C34.8184 143.931 38.5986 140.151 43.2618 140.151H59.0933C63.7565 140.151 67.5368 143.931 67.5368 148.594V164.426C67.5368 169.089 63.7565 172.869 59.0933 172.869H43.2618C38.5986 172.869 34.8184 169.089 34.8184 164.426V148.594Z"
		fill="#F6FAFE" />
	<path
		d="M110.024 186.549C110.024 184.061 112.04 182.045 114.527 182.045H122.971C125.458 182.045 127.475 184.061 127.475 186.549V194.992C127.475 197.48 125.458 199.496 122.971 199.496H114.527C112.04 199.496 110.024 197.48 110.024 194.992V186.549Z"
		fill="#F6FAFE" />
	<path
		d="M173.713 142.104C173.713 135.395 179.152 129.955 185.862 129.955H208.641C215.351 129.955 220.79 135.395 220.79 142.104V164.884C220.79 171.593 215.351 177.033 208.641 177.033H185.862C179.152 177.033 173.713 171.593 173.713 164.884V142.104Z"
		fill="#F6FAFE" />
	<path
		d="M232.049 95.9196C232.049 93.4324 234.065 91.4162 236.553 91.4162H244.997C247.484 91.4162 249.5 93.4324 249.5 95.9196V104.364C249.5 106.851 247.484 108.867 244.997 108.867H236.553C234.065 108.867 232.049 106.851 232.049 104.364V95.9196Z"
		fill="#F6FAFE" />
	<path fill-rule="evenodd" clip-rule="evenodd"
		d="M120.481 84.7314V45.7716H122.481V84.7314H120.481Z" fill="#657D99" />
	<path fill-rule="evenodd" clip-rule="evenodd"
		d="M117.685 176.605L117.685 140.151H119.685L119.685 176.605H117.685Z" fill="#657D99" />
	<path fill-rule="evenodd" clip-rule="evenodd"
		d="M3.27959 108.949L4.0457 107.102C4.3381 107.223 4.66032 107.291 5.00345 107.291H7.11444V109.291H5.00345C4.39282 109.291 3.81058 109.169 3.27959 108.949ZM11.3364 109.291V107.291H13.4474C13.7905 107.291 14.1128 107.223 14.4052 107.102L15.1713 108.949C14.6403 109.169 14.058 109.291 13.4474 109.291H11.3364ZM17.9509 98.4544H15.9509V96.3434C15.9509 96.0003 15.8829 95.6781 15.7617 95.3857L17.6091 94.6196C17.8293 95.1506 17.9509 95.7328 17.9509 96.3434V98.4544ZM7.11444 91.84H5.00345C4.39282 91.84 3.81058 91.9615 3.27959 92.1817L4.0457 94.0292C4.3381 93.9079 4.66032 93.84 5.00345 93.84H7.11444V91.84ZM0.500008 102.676H2.50001V104.787C2.50001 105.131 2.56793 105.453 2.68918 105.745L0.841732 106.511C0.621538 105.98 0.500008 105.398 0.500008 104.787V102.676ZM0.500008 98.4544H2.50001V96.3434C2.50001 96.0003 2.56793 95.6781 2.68918 95.3857L0.841731 94.6196C0.621538 95.1506 0.500008 95.7328 0.500008 96.3434V98.4544ZM11.3364 91.84V93.84H13.4474C13.7905 93.84 14.1128 93.9079 14.4052 94.0292L15.1713 92.1817C14.6403 91.9615 14.058 91.84 13.4474 91.84H11.3364ZM17.9509 102.676H15.9509V104.787C15.9509 105.131 15.8829 105.453 15.7617 105.745L17.6091 106.511C17.8293 105.98 17.9509 105.398 17.9509 104.787V102.676Z"
		fill="#657D99" />
	<path fill-rule="evenodd" clip-rule="evenodd"
		d="M41.1771 65.021V63.1525H43.1771V65.021H41.1771ZM41.1771 72.4948V68.7579H43.1771V72.4948H41.1771ZM41.1771 79.9687V76.2318H43.1771V79.9687H41.1771ZM41.1771 87.4426V83.7057H43.1771V87.4426H41.1771ZM41.1771 94.9165V91.1795H43.1771V94.9165H41.1771ZM41.1771 99.5219V98.6534H43.1771V99.5219H44.9095V101.522H39.681V99.5219H41.1771ZM24.7048 101.522H22.2087V99.5219H24.7048V101.522ZM34.6889 101.522H29.6969V99.5219H34.6889V101.522ZM52.1068 101.522H50.3744V99.5219H54.8543V101.522H54.1068V102.652H52.1068V101.522ZM61.8442 101.522H58.3493V99.5219H61.8442V101.522ZM67.0867 101.522H65.3392V99.5219H67.0867C68.0476 99.5219 68.9663 99.7133 69.8048 100.061L69.0387 101.908C68.4388 101.66 67.7801 101.522 67.0867 101.522ZM72.187 106.622C72.187 105.929 72.0492 105.27 71.8004 104.67L73.6478 103.904C73.9955 104.743 74.187 105.661 74.187 106.622C74.187 107.316 74.3248 107.974 74.5736 108.574L72.7261 109.34C72.3784 108.502 72.187 107.583 72.187 106.622ZM52.1068 111.172V106.912H54.1068V111.172H52.1068ZM79.2873 113.722C78.3264 113.722 77.4077 113.531 76.5691 113.183L77.3352 111.336C77.9352 111.585 78.5939 111.722 79.2873 111.722H81.5905V113.722H79.2873ZM88.5 113.722H86.1968V111.722H88.5V113.722ZM52.1068 119.692V115.432H54.1068V119.692H52.1068ZM52.1068 128.213V123.953H54.1068V128.213H52.1068ZM52.1068 134.603V132.473H54.1068V134.603H52.1068Z"
		fill="#74B816" />
	<path fill-rule="evenodd" clip-rule="evenodd"
		d="M105.214 135.434L105.602 133.472C106.242 133.599 106.905 133.665 107.585 133.665H109.484V135.665H107.585C106.774 135.665 105.981 135.586 105.214 135.434ZM128.466 135.665V133.665H130.365C131.045 133.665 131.708 133.599 132.347 133.472L132.736 135.434C131.969 135.586 131.176 135.665 130.365 135.665H128.466ZM137.115 133.619L136.002 131.957C137.11 131.216 138.064 130.262 138.805 129.154L140.467 130.267C139.58 131.591 138.44 132.732 137.115 133.619ZM142.514 102.635H140.514V100.737C140.514 100.057 140.447 99.3939 140.32 98.7541L142.282 98.366C142.434 99.1329 142.514 99.9257 142.514 100.737V102.635ZM140.467 93.9869L138.805 95.0995C138.064 93.9919 137.11 93.0378 136.002 92.2963L137.115 90.6344C138.44 91.5213 139.58 92.662 140.467 93.9869ZM109.484 88.588H107.585C106.774 88.588 105.981 88.6676 105.214 88.8193L105.602 90.7813C106.242 90.6547 106.905 90.588 107.585 90.588H109.484V88.588ZM100.835 90.6344L101.948 92.2963C100.84 93.0378 99.8861 93.9919 99.1445 95.0995L97.4826 93.9869C98.3696 92.662 99.5102 91.5213 100.835 90.6344ZM95.4363 121.618H97.4363V123.516C97.4363 124.197 97.503 124.86 97.6295 125.499L95.6675 125.887C95.5158 125.121 95.4363 124.328 95.4363 123.516V121.618ZM97.4826 130.267L99.1445 129.154C99.8861 130.262 100.84 131.216 101.948 131.957L100.835 133.619C99.5102 132.732 98.3696 131.591 97.4826 130.267ZM95.4363 117.822H97.4363V114.025H95.4363V117.822ZM95.4363 110.228H97.4363V106.432H95.4363V110.228ZM95.4363 102.635H97.4363V100.737C97.4363 100.057 97.503 99.3939 97.6295 98.7541L95.6675 98.366C95.5158 99.1329 95.4363 99.9257 95.4363 100.737V102.635ZM113.28 88.588V90.588H117.077V88.588H113.28ZM120.873 88.588V90.588H124.67V88.588H120.873ZM128.466 88.588V90.588H130.365C131.045 90.588 131.708 90.6547 132.347 90.7813L132.736 88.8193C131.969 88.6676 131.176 88.588 130.365 88.588H128.466ZM142.514 106.432H140.514V110.228H142.514V106.432ZM142.514 114.025H140.514V117.822H142.514V114.025ZM142.514 121.618H140.514V123.516C140.514 124.197 140.447 124.86 140.32 125.499L142.282 125.887C142.434 125.121 142.514 124.328 142.514 123.516V121.618ZM124.67 135.665V133.665H120.873V135.665H124.67ZM117.077 135.665V133.665H113.28V135.665H117.077Z"
		fill="#74B816" />
	<path fill-rule="evenodd" clip-rule="evenodd"
		d="M188.618 87.0429V85.1779H190.618V87.0429H188.618ZM188.618 94.5032V90.7731H190.618V94.5032H188.618ZM188.618 98.2333H190.618V99.0984H191.517V101.098H190.618V101.687H188.618V98.2333ZM199.112 101.098H195.315V99.0984H199.112V101.098ZM206.707 101.098H202.91V99.0984H206.707V101.098ZM214.303 101.098H210.505V99.0984H214.303V101.098ZM221.898 101.098H218.1V99.0984H221.898V101.098ZM227.595 101.098H225.696V99.0984H227.595V101.098ZM188.618 108.042V104.864H190.618V108.042H188.618ZM188.618 111.807V111.219H190.618V111.863C190.865 111.891 191.109 111.929 191.35 111.976L190.962 113.938C190.528 113.853 190.079 113.807 189.618 113.807H187.737V111.807H188.618ZM153.881 113.807H152V111.807H153.881V113.807ZM161.405 113.807H157.643V111.807H161.405V113.807ZM168.928 113.807H165.166V111.807H168.928V113.807ZM176.452 113.807H172.69V111.807H176.452V113.807ZM183.975 113.807H180.214V111.807H183.975V113.807ZM195.34 116.865C194.837 116.115 194.19 115.468 193.44 114.966L194.552 113.304C195.52 113.952 196.353 114.785 197.001 115.753L195.34 116.865ZM196.498 120.687C196.498 120.226 196.453 119.777 196.367 119.343L198.329 118.955C198.44 119.516 198.498 120.095 198.498 120.687V121.707H196.498V120.687ZM196.498 124.765V123.746H198.498V124.765H196.498Z"
		fill="#74B816" />
	<path fill-rule="evenodd" clip-rule="evenodd"
		d="M183.491 176.801L183.879 174.839C184.519 174.966 185.182 175.033 185.862 175.033H187.76V177.033H185.862C185.051 177.033 184.258 176.953 183.491 176.801ZM206.743 177.033V175.033H208.641C209.322 175.033 209.985 174.966 210.624 174.839L211.012 176.801C210.246 176.953 209.453 177.033 208.641 177.033H206.743ZM215.392 174.986L214.279 173.324C215.387 172.583 216.341 171.629 217.082 170.521L218.744 171.634C217.857 172.959 216.717 174.099 215.392 174.986ZM220.79 144.002H218.79V142.104C218.79 141.424 218.724 140.761 218.597 140.121L220.559 139.733C220.711 140.5 220.79 141.293 220.79 142.104V144.002ZM218.744 135.354L217.082 136.467C216.341 135.359 215.387 134.405 214.279 133.663L215.392 132.002C216.717 132.889 217.857 134.029 218.744 135.354ZM187.76 129.955H185.862C185.051 129.955 184.258 130.035 183.491 130.186L183.879 132.148C184.519 132.022 185.182 131.955 185.862 131.955H187.76V129.955ZM179.112 132.002L180.225 133.663C179.117 134.405 178.163 135.359 177.421 136.467L175.759 135.354C176.646 134.029 177.787 132.889 179.112 132.002ZM173.713 162.985H175.713V164.884C175.713 165.564 175.78 166.227 175.906 166.866L173.944 167.255C173.793 166.488 173.713 165.695 173.713 164.884V162.985ZM175.759 171.634L177.421 170.521C178.163 171.629 179.117 172.583 180.225 173.324L179.112 174.986C177.787 174.099 176.646 172.959 175.759 171.634ZM173.713 159.189H175.713V155.392H173.713V159.189ZM173.713 151.596H175.713V147.799H173.713V151.596ZM173.713 144.002H175.713V142.104C175.713 141.424 175.78 140.761 175.906 140.121L173.944 139.733C173.793 140.5 173.713 141.293 173.713 142.104V144.002ZM191.557 129.955V131.955H195.354V129.955H191.557ZM199.15 129.955V131.955H202.947V129.955H199.15ZM206.743 129.955V131.955H208.641C209.322 131.955 209.985 132.022 210.624 132.148L211.012 130.186C210.246 130.035 209.453 129.955 208.641 129.955H206.743ZM220.79 147.799H218.79V151.596H220.79V147.799ZM220.79 155.392H218.79V159.189H220.79V155.392ZM220.79 162.985H218.79V164.884C218.79 165.564 218.724 166.227 218.597 166.866L220.559 167.255C220.711 166.488 220.79 165.695 220.79 164.884V162.985ZM202.947 177.033V175.033H199.15V177.033H202.947ZM195.354 177.033V175.033H191.557V177.033H195.354Z"
		fill="#74B816" />
	<path fill-rule="evenodd" clip-rule="evenodd"
		d="M110.594 40.0696L110.982 38.1076C111.503 38.2106 112.042 38.2649 112.597 38.2649H115.001V40.2649H112.597C111.911 40.2649 111.242 40.1978 110.594 40.0696ZM129.431 40.2649V38.2649H131.836C132.39 38.2649 132.93 38.2106 133.45 38.1076L133.838 40.0696C133.191 40.1978 132.521 40.2649 131.836 40.2649H129.431ZM137.537 38.5366L136.424 36.8747C137.326 36.271 138.103 35.4942 138.706 34.5925L140.368 35.7052C139.619 36.8241 138.656 37.7875 137.537 38.5366ZM142.097 13.1698H140.097V10.7649C140.097 10.2107 140.042 9.67106 139.939 9.15053L141.901 8.76239C142.029 9.41006 142.097 10.0797 142.097 10.7649V13.1698ZM140.368 5.06383L138.706 6.17647C138.103 5.27474 137.326 4.49797 136.424 3.89428L137.537 2.23234C138.656 2.98147 139.619 3.94486 140.368 5.06383ZM115.001 0.504059H112.597C111.911 0.504059 111.242 0.571236 110.594 0.699365L110.982 2.66134C111.503 2.55836 112.042 2.50406 112.597 2.50406H115.001V0.504059ZM106.895 2.23235L108.008 3.89428C107.106 4.49797 106.33 5.27475 105.726 6.17647L104.064 5.06383C104.813 3.94487 105.777 2.98147 106.895 2.23235ZM102.336 27.5992H104.336V30.0041C104.336 30.5583 104.39 31.0979 104.493 31.6185L102.531 32.0066C102.403 31.3589 102.336 30.6893 102.336 30.0041V27.5992ZM104.064 35.7052L105.726 34.5925C106.33 35.4942 107.106 36.271 108.008 36.8747L106.895 38.5366C105.777 37.7875 104.813 36.8241 104.064 35.7052ZM102.336 22.7894H104.336V17.9796H102.336V22.7894ZM102.336 13.1698H104.336V10.7649C104.336 10.2107 104.39 9.67106 104.493 9.15053L102.531 8.7624C102.403 9.41007 102.336 10.0797 102.336 10.7649V13.1698ZM119.811 0.504059V2.50406H124.621V0.504059H119.811ZM129.431 0.504059V2.50406H131.836C132.39 2.50406 132.93 2.55836 133.45 2.66134L133.838 0.699365C133.191 0.571236 132.521 0.504059 131.836 0.504059H129.431ZM142.097 17.9796H140.097V22.7894H142.097V17.9796ZM142.097 27.5992H140.097V30.0041C140.097 30.5583 140.042 31.0979 139.939 31.6185L141.901 32.0066C142.029 31.3589 142.097 30.6893 142.097 30.0041V27.5992ZM124.621 40.2649V38.2649H119.811V40.2649H124.621Z"
		fill="#435B77" />
	<path fill-rule="evenodd" clip-rule="evenodd"
		d="M40.0298 172.228L40.7959 170.381C41.5528 170.695 42.3845 170.869 43.2618 170.869H45.2408V172.869H43.2618C42.117 172.869 41.0253 172.641 40.0298 172.228ZM57.1144 172.869V170.869H59.0933C59.9707 170.869 60.8023 170.695 61.5593 170.381L62.3254 172.228C61.3298 172.641 60.2382 172.869 59.0933 172.869H57.1144ZM67.5368 150.573H65.5368V148.594C65.5368 147.717 65.3625 146.885 65.0486 146.128L66.8961 145.362C67.3089 146.358 67.5368 147.449 67.5368 148.594V150.573ZM45.2408 140.151H43.2618C42.117 140.151 41.0253 140.378 40.0298 140.791L40.7959 142.639C41.5528 142.325 42.3845 142.151 43.2618 142.151H45.2408V140.151ZM34.8184 162.447H36.8184V164.426C36.8184 165.303 36.9926 166.134 37.3065 166.891L35.4591 167.658C35.0462 166.662 34.8184 165.57 34.8184 164.426V162.447ZM34.8184 158.489H36.8184V154.531H34.8184V158.489ZM34.8184 150.573H36.8184V148.594C36.8184 147.717 36.9926 146.885 37.3065 146.128L35.4591 145.362C35.0462 146.358 34.8184 147.449 34.8184 148.594V150.573ZM49.1986 140.151V142.151H53.1565V140.151H49.1986ZM57.1144 140.151V142.151H59.0933C59.9707 142.151 60.8023 142.325 61.5593 142.639L62.3254 140.791C61.3298 140.378 60.2382 140.151 59.0933 140.151H57.1144ZM67.5368 154.531H65.5368V158.489H67.5368V154.531ZM67.5368 162.447H65.5368V164.426C65.5368 165.303 65.3625 166.134 65.0486 166.891L66.8961 167.658C67.3089 166.662 67.5368 165.57 67.5368 164.426V162.447ZM53.1565 172.869V170.869H49.1986V172.869H53.1565Z"
		fill="#435B77" />
	<path fill-rule="evenodd" clip-rule="evenodd"
		d="M112.803 199.154L113.569 197.307C113.862 197.428 114.184 197.496 114.527 197.496H116.638V199.496H114.527C113.917 199.496 113.334 199.374 112.803 199.154ZM120.86 199.496V197.496H122.971C123.314 197.496 123.636 197.428 123.929 197.307L124.695 199.154C124.164 199.374 123.582 199.496 122.971 199.496H120.86ZM127.475 188.66H125.475V186.549C125.475 186.205 125.407 185.883 125.285 185.591L127.133 184.825C127.353 185.356 127.475 185.938 127.475 186.549V188.66ZM116.638 182.045H114.527C113.917 182.045 113.334 182.167 112.803 182.387L113.569 184.234C113.862 184.113 114.184 184.045 114.527 184.045H116.638V182.045ZM110.024 192.881H112.024V194.992C112.024 195.336 112.092 195.658 112.213 195.95L110.365 196.716C110.145 196.185 110.024 195.603 110.024 194.992V192.881ZM110.024 188.66H112.024V186.549C112.024 186.205 112.092 185.883 112.213 185.591L110.365 184.825C110.145 185.356 110.024 185.938 110.024 186.549V188.66ZM120.86 182.045V184.045H122.971C123.314 184.045 123.636 184.113 123.929 184.234L124.695 182.387C124.164 182.167 123.582 182.045 122.971 182.045H120.86ZM127.475 192.881H125.475V194.992C125.475 195.336 125.407 195.658 125.285 195.95L127.133 196.716C127.353 196.185 127.475 195.603 127.475 194.992V192.881Z"
		fill="#435B77" />
	<path fill-rule="evenodd" clip-rule="evenodd"
		d="M178.996 80.3275L179.762 78.4801C180.48 78.7778 181.269 78.9431 182.101 78.9431H184.003V80.9431H182.101C181.001 80.9431 179.952 80.7242 178.996 80.3275ZM195.412 80.9431V78.9431H197.314C198.146 78.9431 198.935 78.7778 199.653 78.4801L200.419 80.3275C199.463 80.7242 198.414 80.9431 197.314 80.9431H195.412ZM205.427 59.5189H203.427V57.6174C203.427 56.7848 203.262 55.9958 202.964 55.2778L204.811 54.5117C205.208 55.4683 205.427 56.5173 205.427 57.6174V59.5189ZM184.003 49.5041H182.101C181.001 49.5041 179.952 49.723 178.996 50.1197L179.762 51.9672C180.48 51.6694 181.269 51.5041 182.101 51.5041H184.003V49.5041ZM173.988 70.9283H175.988V72.8298C175.988 73.6624 176.153 74.4514 176.451 75.1694L174.604 75.9355C174.207 74.9789 173.988 73.9299 173.988 72.8298V70.9283ZM173.988 67.1252H175.988V63.322H173.988V67.1252ZM173.988 59.5189H175.988V57.6174C175.988 56.7848 176.153 55.9958 176.451 55.2778L174.604 54.5117C174.207 55.4683 173.988 56.5173 173.988 57.6174V59.5189ZM187.806 49.5041V51.5041H191.609V49.5041H187.806ZM195.412 49.5041V51.5041H197.314C198.146 51.5041 198.935 51.6694 199.653 51.9672L200.419 50.1197C199.463 49.723 198.414 49.5041 197.314 49.5041H195.412ZM205.427 63.322H203.427V67.1252H205.427V63.322ZM205.427 70.9283H203.427V72.8298C203.427 73.6624 203.262 74.4514 202.964 75.1694L204.811 75.9355C205.208 74.9789 205.427 73.9299 205.427 72.8298V70.9283ZM191.609 80.9431V78.9431H187.806V80.9431H191.609Z"
		fill="#657D99" />
	<path fill-rule="evenodd" clip-rule="evenodd"
		d="M234.829 108.525L235.595 106.678C235.887 106.799 236.209 106.867 236.553 106.867H238.664V108.867H236.553C235.942 108.867 235.36 108.745 234.829 108.525ZM242.886 108.867V106.867H244.997C245.34 106.867 245.662 106.799 245.954 106.678L246.72 108.525C246.189 108.745 245.607 108.867 244.997 108.867H242.886ZM249.5 98.0306H247.5V95.9196C247.5 95.5765 247.432 95.2543 247.311 94.9619L249.158 94.1957C249.378 94.7267 249.5 95.309 249.5 95.9196V98.0306ZM238.664 91.4162H236.553C235.942 91.4162 235.36 91.5377 234.829 91.7579L235.595 93.6053C235.887 93.4841 236.209 93.4162 236.553 93.4162H238.664V91.4162ZM232.049 102.253H234.049V104.364C234.049 104.707 234.117 105.029 234.238 105.321L232.391 106.087C232.171 105.556 232.049 104.974 232.049 104.364V102.253ZM232.049 98.0306H234.049V95.9196C234.049 95.5765 234.117 95.2543 234.238 94.9619L232.391 94.1957C232.171 94.7267 232.049 95.309 232.049 95.9196V98.0306ZM242.886 91.4162V93.4162H244.997C245.34 93.4162 245.662 93.4841 245.954 93.6053L246.72 91.7579C246.189 91.5377 245.607 91.4162 244.997 91.4162H242.886ZM249.5 102.253H247.5V104.364C247.5 104.707 247.432 105.029 247.311 105.321L249.158 106.087C249.378 105.556 249.5 104.974 249.5 104.364V102.253Z"
		fill="#435B77" />
	<path
		d="M29.8254 34.881V54.1644C29.8254 55.7297 31.1003 57.0206 32.6817 57.0206H34.021C35.5863 57.0206 36.8772 55.7297 36.8772 54.1644V34.881H29.8254Z"
		fill="#82C91E" />
	<path
		d="M36.8611 25.5867V21.956C36.8611 20.3907 35.5863 19.0998 34.021 19.0998H32.6817C31.1164 19.0998 29.8254 20.3907 29.8254 21.956V25.5867H36.8611Z"
		fill="#82C91E" />
	<path
		d="M52.5136 41.2394V21.956C52.5136 20.3907 51.2388 19.0998 49.6735 19.0998H48.3342C46.7689 19.0998 45.478 20.3907 45.478 21.956V41.2394H52.5136Z"
		fill="#82C91E" />
	<path
		d="M45.478 50.5334V54.1641C45.478 55.7294 46.7689 57.0203 48.3342 57.0203H49.6735C51.2388 57.0203 52.5298 55.7294 52.5298 54.1641V50.5334H45.478Z"
		fill="#82C91E" />
	<path
		d="M28.6957 42.3693H25.065C23.4997 42.3693 22.2087 43.6441 22.2087 45.2255V46.5648C22.2087 48.1301 23.4836 49.4211 25.065 49.4211H28.6957V42.3693Z"
		fill="#95DE2D" />
	<path
		d="M57.2738 42.3693H37.9903V49.4211H57.2738C58.839 49.4211 60.13 48.1301 60.13 46.5648V45.2255C60.13 43.6441 58.839 42.3693 57.2738 42.3693Z"
		fill="#95DE2D" />
	<path
		d="M44.3484 26.7169H25.065C23.4997 26.7169 22.2087 27.9918 22.2087 29.5732V30.9125C22.2087 32.4778 23.4836 33.7687 25.065 33.7687H44.3484V26.7169Z"
		fill="#95DE2D" />
	<path
		d="M57.2738 26.7169H53.6431V33.7687H57.2738C58.8391 33.7687 60.1301 32.4938 60.1301 30.9124V29.5731C60.1301 27.9917 58.8391 26.7169 57.2738 26.7169Z"
		fill="#95DE2D" />
	<path fill-rule="evenodd" clip-rule="evenodd"
		d="M108.864 100H129.086C129.852 100 130.587 100.305 131.129 100.848C131.671 101.39 131.975 102.126 131.975 102.894L131.975 127.695C131.975 128.8 130.688 129.403 129.841 128.695L124.6 124.308H108.864C108.098 124.308 107.363 124.003 106.821 123.46C106.279 122.917 105.975 122.181 105.975 121.414V102.894C105.975 102.126 106.279 101.39 106.821 100.848C107.363 100.305 108.098 100 108.864 100ZM116.549 112.823H110.597V104.63H127.353V112.823H121.499V115.656H123.64C124.026 115.656 124.22 116.123 123.947 116.397L119.331 121.021C119.161 121.19 118.887 121.19 118.718 121.021L114.102 116.397C113.829 116.123 114.022 115.656 114.408 115.656H116.549V112.823Z"
		fill="#95DE2D" />
	<path
		d="M190.408 151.656V162.803C190.408 163.708 191.145 164.454 192.059 164.454H192.833C193.738 164.454 194.484 163.708 194.484 162.803V151.656H190.408Z"
		fill="#82C91E" />
	<path
		d="M194.475 146.283V144.184C194.475 143.279 193.738 142.533 192.833 142.533H192.059C191.154 142.533 190.408 143.279 190.408 144.184V146.283H194.475Z"
		fill="#82C91E" />
	<path
		d="M203.523 155.331V144.184C203.523 143.279 202.786 142.533 201.881 142.533H201.107C200.202 142.533 199.456 143.279 199.456 144.184V155.331H203.523Z"
		fill="#82C91E" />
	<path
		d="M199.456 160.705V162.804C199.456 163.709 200.202 164.455 201.107 164.455H201.881C202.786 164.455 203.533 163.709 203.533 162.804V160.705H199.456Z"
		fill="#82C91E" />
	<path
		d="M189.755 155.984H187.656C186.751 155.984 186.005 156.721 186.005 157.635V158.409C186.005 159.314 186.742 160.061 187.656 160.061H189.755V155.984Z"
		fill="#95DE2D" />
	<path
		d="M206.275 155.984H195.128V160.061H206.275C207.18 160.061 207.926 159.314 207.926 158.409V157.635C207.926 156.721 207.18 155.984 206.275 155.984Z"
		fill="#95DE2D" />
	<path
		d="M198.803 146.937H187.656C186.751 146.937 186.005 147.674 186.005 148.588V149.363C186.005 150.267 186.742 151.014 187.656 151.014H198.803V146.937Z"
		fill="#95DE2D" />
	<path
		d="M206.275 146.937H204.176V151.014H206.275C207.18 151.014 207.926 150.277 207.926 149.363V148.588C207.926 147.674 207.18 146.937 206.275 146.937Z"
		fill="#95DE2D" />
</svg>
