<?xml version="1.0" encoding="UTF-8" standalone="no"?>
<!-- Generator: Adobe Illustrator 19.0.0, SVG Export Plug-In . SVG Version: 6.00 Build 0)  -->

<svg
   xmlns:dc="http://purl.org/dc/elements/1.1/"
   xmlns:cc="http://creativecommons.org/ns#"
   xmlns:rdf="http://www.w3.org/1999/02/22-rdf-syntax-ns#"
   xmlns:svg="http://www.w3.org/2000/svg"
   xmlns="http://www.w3.org/2000/svg"
   xmlns:sodipodi="http://sodipodi.sourceforge.net/DTD/sodipodi-0.dtd"
   xmlns:inkscape="http://www.inkscape.org/namespaces/inkscape"
   version="1.1"
   id="Ebene_1"
   x="0px"
   y="0px"
   xml:space="preserve"
   inkscape:version="0.92.3 (2405546, 2018-03-11)"
   sodipodi:docname="navigation_drawer_header.svg"
   width="146"
   height="50"><metadata
     id="metadata71"><rdf:RDF><cc:Work
         rdf:about=""><dc:format>image/svg+xml</dc:format><dc:type
           rdf:resource="http://purl.org/dc/dcmitype/StillImage" /><dc:title></dc:title></cc:Work></rdf:RDF></metadata><defs
     id="defs69" /><sodipodi:namedview
     pagecolor="#000000"
     bordercolor="#666666"
     borderopacity="1"
     objecttolerance="10"
     gridtolerance="10"
     guidetolerance="10"
     inkscape:pageopacity="0"
     inkscape:pageshadow="2"
     inkscape:window-width="1920"
     inkscape:window-height="1020"
     id="namedview67"
     showgrid="false"
     fit-margin-top="0"
     fit-margin-left="0"
     fit-margin-right="0"
     fit-margin-bottom="0"
     inkscape:zoom="3.9883057"
     inkscape:cx="55.084459"
     inkscape:cy="13.664636"
     inkscape:window-x="1442"
     inkscape:window-y="24"
     inkscape:window-maximized="0"
     inkscape:current-layer="Ebene_1"
     showguides="true"
     inkscape:guide-bbox="true" /><style
     type="text/css"
     id="style3">
	.st0{display:none;fill:#87C214;}
	.st1{fill:#87C214;}
	.st2{display:none;fill:#FFFFFF;}
	.st3{fill:#95D220;}
	.st4{display:none;fill:#95D220;}
	.st5{fill:#FFFFFF;}
</style><path
     style="fill:#ffffff;fill-opacity:1"
     d="m 65.097656,30.699216 v 19.30078 h 9.06836 c 4.22557,0 6.474893,-2.12355 6.496093,-5.47852 0,-2.14464 -1.017672,-3.78004 -3.013671,-4.67187 v -0.041 c 1.507609,-0.9343 2.166015,-2.10331 2.166015,-3.9082 0,-2.73919 -1.848098,-5.20117 -5.861328,-5.20117 h -8.855469 z m 18.75,0 v 19.30078 h 2.271485 v -7.72852 l -0.232422,-0.23437 h 4.585937 c 2.54808,0 4.012966,0.91391 4.947266,2.88867 l 2.40039,5.07422 h 2.546878 l -2.92969,-6.03125 c -0.63702,-1.35898 -1.614284,-2.20763 -2.527344,-2.58984 v -0.043 c 2.1234,-0.55208 3.865235,-2.42042 3.865235,-4.94727 0,-3.80089 -2.951713,-5.68945 -6.476563,-5.68945 h -8.451172 z m 18.876954,0 v 19.30078 h 2.27344 v -19.30078 z m 13.41992,0 -8.49414,19.30078 h 2.48438 l 2.03906,-4.65039 -0.12695,-0.23438 h 10.57421 l -0.12695,0.23438 2.03906,4.65039 h 2.48438 l -8.47266,-19.30078 z m 13.33594,0 v 19.30078 h 2.27148 v -7.72852 l -0.23437,-0.23437 h 4.58789 c 2.54808,0 4.01296,0.91391 4.94726,2.88867 l 2.39844,5.07422 H 146 l -2.92969,-6.03125 c -0.63702,-1.35898 -1.61427,-2.20763 -2.52734,-2.58984 v -0.043 c 2.12341,-0.55208 3.86523,-2.42042 3.86523,-4.94727 0,-3.80089 -2.95171,-5.68945 -6.47656,-5.68945 h -8.45117 z m -62.322267,2.14453 h 6.560547 c 2.46315,0 3.759766,0.9967 3.759766,3.03516 0,1.71996 -0.999336,3.10156 -3.759766,3.10156 h -6.560547 l 0.234375,-0.23438 v -5.66992 z m 18.728516,0 h 6.433593 c 2.378211,0 4.14091,0.97535 4.16211,3.52344 0,2.03846 -1.634356,3.5039 -4.416016,3.5039 h -6.179687 l 0.232422,-0.23242 v -6.5625 z m 45.652341,0 h 6.4336 c 2.35698,0 4.14062,0.97535 4.14062,3.52344 0,2.03846 -1.61288,3.5039 -4.39453,3.5039 h -6.17969 l 0.23438,-0.23242 v -6.5625 z m -14.20508,0.21094 h 0.043 l 0.57227,1.93359 3.39844,7.75 0.23242,0.23242 h -8.4707 l 0.23242,-0.23242 3.39843,-7.75 0.59375,-1.93359 z m -50.197261,8.07031 h 7.007812 c 2.84536,0 4.16211,1.3153 4.16211,3.375 0,2.14464 -1.189095,3.33398 -4.140625,3.33398 h -7.029297 l 0.234375,-0.23437 v -6.24219 z"
     id="path57"
     inkscape:connector-curvature="0" /><path
     inkscape:connector-curvature="0"
     style="fill:#87c214;stroke-width:0.21276595"
     d="m 13.808594,0 c -2.06383,0 -3.766207,1.7019614 -3.766207,3.7657911 V 8.553025 h 9.276928 V 3.7657911 C 19.319315,1.7019614 17.638132,0 15.574302,0 Z m 20.638297,0 c -2.06383,0 -3.766206,1.7019614 -3.766206,3.7657911 V 29.191323 h 9.276927 V 3.7657911 C 39.957612,1.7019614 38.276429,0 36.212599,0 Z M 10.042387,20.808676 v 25.425531 c 0,2.06383 1.681101,3.765791 3.766207,3.765791 h 1.765708 c 2.06383,0 3.766207,-1.701961 3.766207,-3.765791 V 20.808676 Z m 20.638298,20.638297 v 4.787234 c 0,2.06383 1.702376,3.765791 3.766206,3.765791 h 1.765708 c 2.06383,0 3.766206,-1.701961 3.766206,-3.765791 v -4.787234 z"
     id="path13-3" /><path
     inkscape:connector-curvature="0"
     style="fill:#95d220;stroke-width:0.21276595"
     d="M 3.7657914,10.042387 C 1.7019617,10.042387 0,11.723487 0,13.808594 v 1.765708 c 0,2.063829 1.6806851,3.766206 3.7657914,3.766206 H 29.191323 v -9.298121 z m 37.6811826,0 v 9.298121 h 4.787233 c 2.06383,0 3.765792,-1.6811 3.765792,-3.766206 v -1.765708 c 0,-2.085107 -1.701962,-3.766207 -3.765792,-3.766207 z M 3.7657914,30.680684 C 1.7019617,30.680684 0,32.361784 0,34.44689 v 1.765709 c 0,2.06383 1.6806851,3.766206 3.7657914,3.766206 h 4.7872339 v -9.298121 z m 17.0428856,0 v 9.298121 h 25.42553 c 2.06383,0 3.765792,-1.702376 3.765792,-3.766206 V 34.44689 c 0,-2.085106 -1.701962,-3.766206 -3.765792,-3.766206 z"
     id="path35" /></svg>