<?xml version="1.0" encoding="UTF-8" standalone="no"?>
<svg
   xmlns:dc="http://purl.org/dc/elements/1.1/"
   xmlns:cc="http://creativecommons.org/ns#"
   xmlns:rdf="http://www.w3.org/1999/02/22-rdf-syntax-ns#"
   xmlns:svg="http://www.w3.org/2000/svg"
   xmlns="http://www.w3.org/2000/svg"
   xmlns:sodipodi="http://sodipodi.sourceforge.net/DTD/sodipodi-0.dtd"
   xmlns:inkscape="http://www.inkscape.org/namespaces/inkscape"
   width="150"
   height="178"
   viewBox="0 0 150 178"
   fill="none"
   version="1.1"
   id="svg129"
   sodipodi:docname="nickname.svg"
   inkscape:version="0.92.3 (2405546, 2018-03-11)">
  <metadata
     id="metadata133">
    <rdf:RDF>
      <cc:Work
         rdf:about="">
        <dc:format>image/svg+xml</dc:format>
        <dc:type
           rdf:resource="http://purl.org/dc/dcmitype/StillImage" />
      </cc:Work>
    </rdf:RDF>
  </metadata>
  <sodipodi:namedview
     pagecolor="#ffffff"
     bordercolor="#666666"
     borderopacity="1"
     objecttolerance="10"
     gridtolerance="10"
     guidetolerance="10"
     inkscape:pageopacity="0"
     inkscape:pageshadow="2"
     inkscape:window-width="1920"
     inkscape:window-height="1020"
     id="namedview131"
     showgrid="false"
     inkscape:zoom="3.7500494"
     inkscape:cx="84.461975"
     inkscape:cy="96.344913"
     inkscape:window-x="1440"
     inkscape:window-y="24"
     inkscape:window-maximized="0"
     inkscape:current-layer="svg129" />
  <path
     d="M 85.1905,0.127869 3.35693,0.328805 C 2.46521,0.330621 1.6107,0.690255 0.981217,1.32866 0.351735,1.96706 -0.0011965,2.83198 3.04782e-6,3.73331 L 0.372743,156.201 c 0.001185,0.446 0.089367,0.888 0.259505,1.3 0.170138,0.412 0.418902,0.786 0.732092,1.101 0.31319,0.315 0.68466,0.564 1.09322,0.734 0.40856,0.17 0.84619,0.257 1.28792,0.256 l 81.83362,-0.201 c 0.8917,-0.003 1.746,-0.363 2.375,-1.002 0.6291,-0.639 0.9814,-1.504 0.9796,-2.405 L 88.5542,3.51639 C 88.5512,2.61665 88.1955,1.75479 87.565,1.11965 86.9345,0.484503 86.0807,0.127864 85.1905,0.127869 Z"
     id="path2"
     inkscape:connector-curvature="0"
     style="display:inline;opacity:0.25;fill:url(#paint0_linear)" />
  <path
     d="M 84.2815,-0.0019907 4.27572,0.195606 C 2.57395,0.199809 1.19777,1.59763 1.20193,3.31772 L 1.56691,154.298 c 0.00416,1.72 1.38709,3.111 3.08885,3.107 l 80.00584,-0.198 c 1.7017,-0.004 3.0779,-1.402 3.0737,-3.122 L 87.3704,3.1049 C 87.3662,1.38481 85.9833,-0.0061937 84.2815,-0.0019907 Z"
     id="path4"
     inkscape:connector-curvature="0"
     style="display:inline;opacity:0.25;fill:#6d6d6d;fill-opacity:0.7" />
  <path
     style="display:inline;opacity:0.25;fill:#646464"
     d="M 81.939453 3.9570312 L 65.933594 3.9960938 C 65.688694 5.6638138 64.861562 7.1881588 63.601562 8.2929688 C 62.341563 9.3977688 60.732453 10.010031 59.064453 10.019531 L 29.302734 10.091797 C 27.634734 10.090597 26.021259 9.4871919 24.755859 8.3886719 C 23.490459 7.2901519 22.655444 5.7700256 22.402344 4.1035156 L 6.6367188 4.1425781 C 5.7689587 4.1449981 4.9382819 4.4954875 4.3261719 5.1171875 C 3.7140519 5.7388975 3.3712469 6.5799313 3.3730469 7.4570312 L 3.4609375 44.068359 L 3.7167969 150.16797 C 3.7209769 151.04497 4.0691969 151.88495 4.6855469 152.50195 C 5.3018969 153.11895 6.1361462 153.46394 7.0039062 153.46094 L 82.306641 153.27539 C 83.171641 153.27039 83.999475 152.92078 84.609375 152.30078 C 85.219375 151.68078 85.560547 150.8408 85.560547 149.9668 L 85.306641 43.5625 L 85.220703 7.2558594 C 85.218303 6.3787594 84.870959 5.5386319 84.255859 4.9199219 C 83.640859 4.3012219 82.807253 3.9552112 81.939453 3.9570312 z M 52.652344 5.7910156 L 34.357422 6.0683594 C 34.107922 6.0721494 33.908409 6.27906 33.912109 6.53125 L 33.916016 6.8300781 C 33.919716 7.0822681 34.1255 7.28504 34.375 7.28125 L 52.671875 7.0019531 C 52.921375 6.9981731 53.118934 6.7912525 53.115234 6.5390625 L 53.111328 6.2402344 C 53.107628 5.9880444 52.901844 5.7872256 52.652344 5.7910156 z "
     id="path6" />
  <path
     d="M 57.2036,6.934 C 57.6016,6.92797 57.9193,6.59699 57.9133,6.19476 57.9074,5.79252 57.5799,5.47134 57.182,5.47738 c -0.398,0.00604 -0.7157,0.33701 -0.7098,0.73924 0.006,0.40224 0.3335,0.72342 0.7314,0.71738 z"
     id="path10"
     inkscape:connector-curvature="0"
     style="opacity:0.25;fill:#dbdbdb" />
  <path
     style="display:inline;opacity:0.25;fill:#e0e0e0"
     d="m 17.640625,19.458984 c -4.1846,0 -7.576172,3.445513 -7.576172,7.695313 0,4.2498 3.391572,7.695312 7.576172,7.695312 4.1845,0 7.576172,-3.445512 7.576172,-7.695312 0,-4.2498 -3.391672,-7.695313 -7.576172,-7.695313 z m 19.882813,4.177735 v 3.234375 h 40.117187 v -3.234375 z m 0,6.466797 v 3.234375 H 77.640625 V 30.103516 Z M 17.640625,44.087891 c -4.1846,0 -7.576172,3.443559 -7.576172,7.693359 0,4.2498 3.391572,7.695313 7.576172,7.695312 4.1845,0 7.576172,-3.445512 7.576172,-7.695312 0,-4.2498 -3.391672,-7.693359 -7.576172,-7.693359 z m 19.882813,4.177734 V 51.5 h 40.117187 v -3.234375 z m 0,6.466797 v 3.232422 H 77.640625 V 54.732422 Z M 17.640625,68.714844 c -4.1846,0 -7.576172,3.445512 -7.576172,7.695312 0,4.2498 3.391572,7.695313 7.576172,7.695313 4.1845,0 7.576172,-3.445513 7.576172,-7.695313 0,-4.2498 -3.391672,-7.695312 -7.576172,-7.695312 z m 19.882813,4.179687 v 3.232422 h 40.117187 v -3.232422 z m 0,6.466797 V 82.59375 H 77.640625 V 79.361328 Z M 17.640625,93.34375 c -4.1846,0 -7.576172,3.445613 -7.576172,7.69531 0,4.25 3.391572,7.69532 7.576172,7.69532 4.1845,0 7.576172,-3.44532 7.576172,-7.69532 0,-4.249698 -3.391672,-7.69531 -7.576172,-7.69531 z m 19.882813,4.179688 v 3.232422 h 40.117187 v -3.232422 z m 0,6.464842 v 3.23438 h 40.117187 v -3.23438 z m -19.882813,13.98438 c -4.1846,0 -7.576172,3.44631 -7.576172,7.69531 0,4.25 3.391572,7.69336 7.576172,7.69336 4.1845,0 7.576172,-3.44336 7.576172,-7.69336 0,-4.249 -3.391672,-7.69531 -7.576172,-7.69531 z m 19.882813,4.17773 v 3.23438 h 40.117187 v -3.23438 z m 0,6.4668 v 3.23437 h 40.117187 v -3.23437 z"
     id="path12"
     inkscape:connector-curvature="0" />
  <path
     style="display:inline;fill:#313131"
     inkscape:connector-curvature="0"
     id="path44"
     d="m 136.95,18.4066 -80.0056,0.1976 c -1.7018,0.0042 -3.078,1.402 -3.0738,3.1221 l 0.365,150.9807 c 0.0041,1.72 1.3871,3.111 3.0888,3.107 l 80.0056,-0.198 c 1.702,-0.004 3.078,-1.402 3.074,-3.122 L 140.039,21.5135 c -0.004,-1.7201 -1.387,-3.1111 -3.089,-3.1069 z" />
  <path
     style="display:inline;fill:#3e3e3e"
     d="M 134.60938 22.357422 L 118.59961 22.394531 C 118.35561 24.062231 117.52758 25.586606 116.26758 26.691406 C 115.00758 27.796206 113.39847 28.408469 111.73047 28.417969 L 81.96875 28.492188 C 80.30065 28.490987 78.689228 27.885609 77.423828 26.787109 C 76.158428 25.688609 75.323313 24.168453 75.070312 22.501953 L 59.304688 22.541016 C 58.436887 22.543416 57.604288 22.893925 56.992188 23.515625 C 56.380088 24.137325 56.037262 24.980322 56.039062 25.857422 L 56.128906 62.46875 L 56.748047 62.466797 L 56.128906 62.470703 L 56.382812 168.57031 C 56.385213 169.44731 56.732656 170.28725 57.347656 170.90625 C 57.962756 171.52425 58.796362 171.87114 59.664062 171.86914 L 134.9668 171.68359 C 135.8348 171.68159 136.66534 171.33098 137.27734 170.70898 C 137.88934 170.08798 138.23247 169.24614 138.23047 168.36914 L 137.97266 62.21875 L 137.97461 62.21875 L 137.88867 25.65625 C 137.88667 24.77915 137.54078 23.939012 136.92578 23.320312 C 136.31078 22.701612 135.47738 22.355522 134.60938 22.357422 z "
     id="path46" />
  <path
     style="display:inline;fill:#e0e0e0"
     d="M 109.84961 23.890625 C 109.45161 23.896725 109.13462 24.228559 109.14062 24.630859 C 109.14663 25.033059 109.47309 25.353756 109.87109 25.347656 C 110.26909 25.341656 110.58608 25.009622 110.58008 24.607422 C 110.57408 24.205222 110.24761 23.884625 109.84961 23.890625 z M 105.32031 24.201172 L 87.025391 24.478516 C 86.775891 24.482316 86.576378 24.691159 86.580078 24.943359 L 86.583984 25.242188 C 86.587684 25.494387 86.793469 25.695206 87.042969 25.691406 L 105.33984 25.414062 C 105.58884 25.410363 105.7872 25.203372 105.7832 24.951172 L 105.7793 24.650391 C 105.7753 24.398191 105.56931 24.197372 105.32031 24.201172 z M 63.365234 37.568359 L 63.365234 53.738281 L 79.365234 53.738281 L 79.365234 37.568359 L 63.365234 37.568359 z M 86.748047 37.568359 L 86.748047 40.800781 L 126.86523 40.800781 L 126.86523 37.568359 L 86.748047 37.568359 z M 86.748047 44.037109 L 86.748047 47.269531 L 126.86523 47.269531 L 126.86523 44.037109 L 86.748047 44.037109 z M 71.787109 112.99609 C 67.602609 112.99609 64.210937 116.44141 64.210938 120.69141 C 64.210938 124.94141 67.602609 128.38672 71.787109 128.38672 C 75.971709 128.38672 79.365234 124.94141 79.365234 120.69141 C 79.365234 116.44141 75.971709 112.99609 71.787109 112.99609 z M 86.748047 116.92773 L 86.748047 120.16016 L 126.86523 120.16016 L 126.86523 116.92773 L 86.748047 116.92773 z M 86.748047 123.39258 L 86.748047 126.62695 L 126.86523 126.62695 L 126.86523 123.39258 L 86.748047 123.39258 z M 71.787109 142.60156 C 67.602609 142.60156 64.210937 146.04687 64.210938 150.29688 C 64.210938 154.54688 67.602609 157.99023 71.787109 157.99023 C 75.971709 157.99023 79.365234 154.54688 79.365234 150.29688 C 79.365234 146.04688 75.971709 142.60156 71.787109 142.60156 z M 86.748047 145.53516 L 86.748047 148.76758 L 126.86523 148.76758 L 126.86523 145.53516 L 86.748047 145.53516 z M 86.748047 152.00195 L 86.748047 155.23438 L 126.86523 155.23438 L 126.86523 152.00195 L 86.748047 152.00195 z "
     id="path50" />
  <path
     style="display:inline;fill:#d5d6d7"
     inkscape:connector-curvature="0"
     id="path56"
     d="M 148.744,68.6655 H 45.619 v 33.5835 h 103.125 z" />
  <path
     style="display:inline;fill:#87c214"
     d="m 97.822266,50.503906 v 5.722656 h 17.966794 v -5.722656 z m -11.074219,30.59961 v 3.232422 h 40.117183 v -3.232422 z m 0,6.46875 v 3.232422 h 40.117183 v -3.232422 z"
     id="path58"
     inkscape:connector-curvature="0" />
  <path
     style="display:inline;fill:#f5f5f5"
     inkscape:connector-curvature="0"
     id="path68"
     d="m 66.8652,92.3143 c 4.1846,0 7.5768,-3.4451 7.5768,-7.695 0,-4.2498 -3.3922,-7.6949 -7.5768,-7.6949 -4.1846,0 -7.5768,3.4451 -7.5768,7.6949 0,4.2499 3.3922,7.695 7.5768,7.695 z" />
  <path
     style="display:inline;fill:#87c214"
     inkscape:connector-curvature="0"
     id="path70"
     d="m 70.1296,90.0058 h -6.5738 c -0.3153,0.0024 -0.6253,0.0818 -0.9038,0.2312 -0.2784,0.1495 -0.5171,0.3647 -0.6956,0.6274 1.4766,0.8563 3.1474,1.3114 4.8498,1.321 1.7023,0.0096 3.3781,-0.4266 4.864,-1.2662 -0.1666,-0.265 -0.3932,-0.486 -0.6612,-0.6448 -0.2679,-0.1588 -0.5693,-0.2509 -0.8794,-0.2686 z" />
  <path
     style="display:inline;fill:#333333"
     d="m 66.861328,80.746094 c -2.0798,0 -3.765625,1.70444 -3.765625,3.80664 0,0.393506 0.07586,0.766 0.185547,1.123047 -0.327549,0.812667 -0.821888,1.878261 -1.158203,1.708985 0,0 5.069822,4.4252 9.544922,0 -0.355198,-0.613452 -0.773279,-1.18389 -1.21875,-1.732422 0.10502,-0.350063 0.177734,-0.714879 0.177734,-1.09961 0,-2.1022 -1.685825,-3.80664 -3.765625,-3.80664 z"
     id="path72"
     inkscape:connector-curvature="0" />
  <path
     style="display:inline;fill:#fda57d"
     d="m 66.861328,81.570312 c -1.800651,0 -3.302121,1.279176 -3.673828,2.986329 -0.0049,-3.79e-4 -0.0088,-0.0059 -0.01367,-0.0059 -0.1933,0 -0.349609,0.297063 -0.349609,0.664063 0,0.347156 0.141531,0.622551 0.320312,0.652344 0.180942,1.407599 1.108928,2.5691 2.38086,3.058593 v 0.732422 c 0,0.3234 0.127315,0.634681 0.353515,0.863281 0.2263,0.2287 0.533616,0.357422 0.853516,0.357422 h 0.224609 c 0.1588,3e-4 0.316091,-0.03245 0.462891,-0.09375 0.1467,-0.0613 0.280278,-0.150172 0.392578,-0.263672 0.1123,-0.1135 0.201119,-0.248084 0.261719,-0.396484 0.0606,-0.1483 0.0921,-0.30825 0.0918,-0.46875 v -0.720703 c 1.288752,-0.483775 2.232282,-1.654559 2.412109,-3.076172 0.168226,-0.0485 0.298828,-0.311757 0.298828,-0.644531 0,-0.363137 -0.153161,-0.655938 -0.34375,-0.66211 -0.373249,-1.705035 -1.87271,-2.982422 -3.671875,-2.982422 z"
     id="path78"
     inkscape:connector-curvature="0" />
  <path
     style="display:inline;fill:#333333"
     inkscape:connector-curvature="0"
     id="path84"
     d="m 63.2529,83.9344 h 7.1792 c 0,0 -0.6122,-2.9296 -3.3275,-2.7401 -2.7154,0.1895 -3.8517,2.7401 -3.8517,2.7401 z" />
  <defs
     id="defs127">
    <linearGradient
       id="paint0_linear"
       x1="10.0511"
       y1="162.566"
       x2="80.1467"
       y2="-2.31086"
       gradientUnits="userSpaceOnUse">
      <stop
         stop-color="#808080"
         stop-opacity="0.25"
         id="stop110" />
      <stop
         offset="0.54"
         stop-color="#808080"
         stop-opacity="0.12"
         id="stop112" />
      <stop
         offset="1"
         stop-color="#808080"
         stop-opacity="0.1"
         id="stop114" />
    </linearGradient>
    <linearGradient
       id="paint1_linear"
       x1="45488.3"
       y1="16529.6"
       x2="45488.3"
       y2="10752.2"
       gradientUnits="userSpaceOnUse">
      <stop
         stop-color="#808080"
         stop-opacity="0.25"
         id="stop117" />
      <stop
         offset="0.54"
         stop-color="#808080"
         stop-opacity="0.12"
         id="stop119" />
      <stop
         offset="1"
         stop-color="#808080"
         stop-opacity="0.1"
         id="stop121" />
    </linearGradient>
    <clipPath
       id="clip0">
      <rect
         width="150"
         height="178"
         fill="white"
         id="rect124" />
    </clipPath>
  </defs>
</svg>
