<?xml version="1.0" encoding="UTF-8" standalone="no"?>
<!-- Generator: Adobe Illustrator 19.0.0, SVG Export Plug-In . SVG Version: 6.00 Build 0)  -->

<svg
   xmlns:dc="http://purl.org/dc/elements/1.1/"
   xmlns:cc="http://creativecommons.org/ns#"
   xmlns:rdf="http://www.w3.org/1999/02/22-rdf-syntax-ns#"
   xmlns:svg="http://www.w3.org/2000/svg"
   xmlns="http://www.w3.org/2000/svg"
   xmlns:sodipodi="http://sodipodi.sourceforge.net/DTD/sodipodi-0.dtd"
   xmlns:inkscape="http://www.inkscape.org/namespaces/inkscape"
   version="1.1"
   id="Ebene_1"
   x="0px"
   y="0px"
   viewBox="0 0 24 24"
   xml:space="preserve"
   inkscape:version="0.92.3 (2405546, 2018-03-11)"
   sodipodi:docname="notification_ongoing.svg"
   width="24"
   height="24"><metadata
     id="metadata61"><rdf:RDF><cc:Work
         rdf:about=""><dc:format>image/svg+xml</dc:format><dc:type
           rdf:resource="http://purl.org/dc/dcmitype/StillImage" /><dc:title /></cc:Work></rdf:RDF></metadata><defs
     id="defs59" /><sodipodi:namedview
     pagecolor="#000000"
     bordercolor="#666666"
     borderopacity="1"
     objecttolerance="10"
     gridtolerance="10"
     guidetolerance="10"
     inkscape:pageopacity="0"
     inkscape:pageshadow="2"
     inkscape:window-width="1920"
     inkscape:window-height="1020"
     id="namedview57"
     showgrid="false"
     inkscape:zoom="11.466748"
     inkscape:cx="-4.790356"
     inkscape:cy="17.536496"
     inkscape:window-x="1442"
     inkscape:window-y="24"
     inkscape:window-maximized="0"
     inkscape:current-layer="Ebene_1"
     units="px" /><style
     type="text/css"
     id="style3">
	.st0{fill:#FFFFFF;}
	.st1{display:none;fill:#87C214;}
	.st2{fill:#87C214;}
	.st3{display:none;fill:#FFFFFF;}
	.st4{fill:#95D220;}
	.st5{display:none;fill:#95D220;}
</style><path
     style="fill:#ffffff;stroke-width:0.07272727"
     d="M 12,0 A 12,12 0 0 0 0,12 12,12 0 0 0 12,24 12,12 0 0 0 24,12 12,12 0 0 0 12,0 Z M 8.1454545,3.4764204 h 0.6036931 c 0.7054546,0 1.2872164,0.5817614 1.2872164,1.287216 V 6.4 H 6.8582386 V 4.7636364 c 0,-0.7054546 0.5817614,-1.287216 1.2872159,-1.287216 z m 7.0545455,0 h 0.603693 c 0.712727,0 1.287216,0.5817614 1.287216,1.287216 V 13.454545 H 13.912784 V 4.7636364 c 0,-0.7054546 0.581761,-1.287216 1.287216,-1.287216 z M 4.7127841,6.9090909 H 13.403693 V 10.087216 H 4.7127841 c -0.7127273,0 -1.287358,-0.5817618 -1.287358,-1.2872156 V 8.1963069 c 0,-0.7127273 0.5819034,-1.287216 1.287358,-1.287216 z m 12.8872159,0 h 1.636364 c 0.705454,0 1.279943,0.5817615 1.287216,1.287216 v 0.6036935 c 0,0.7127269 -0.581762,1.2872156 -1.287216,1.2872156 H 17.6 Z M 6.8582386,10.596307 h 3.1781254 v 8.690909 c 0,0.705454 -0.5817618,1.287358 -1.2872164,1.287358 H 8.1454545 c -0.7127272,0 -1.2872159,-0.581904 -1.2872159,-1.287358 z m -2.1454545,3.367329 h 1.6363636 v 3.178125 H 4.7127841 c -0.7127273,0 -1.287358,-0.581761 -1.287358,-1.287216 v -0.603693 c 0,-0.712727 0.5819034,-1.287216 1.287358,-1.287216 z m 5.8326709,0 h 8.690909 c 0.705454,0 1.279943,0.581761 1.287216,1.287216 v 0.603693 c 0,0.705455 -0.581762,1.287216 -1.287216,1.287216 h -8.690909 z m 3.367329,3.687216 h 3.178125 v 1.636364 c 0,0.705454 -0.581761,1.287358 -1.287216,1.287358 H 15.2 c -0.705455,0 -1.287216,-0.581904 -1.287216,-1.287358 z"
     id="circle7"
     inkscape:connector-curvature="0" /></svg>
