<?xml version="1.0" encoding="UTF-8" standalone="no"?>
<!-- Generator: Adobe Illustrator 19.0.0, SVG Export Plug-In . SVG Version: 6.00 Build 0)  -->

<svg
   xmlns:dc="http://purl.org/dc/elements/1.1/"
   xmlns:cc="http://creativecommons.org/ns#"
   xmlns:rdf="http://www.w3.org/1999/02/22-rdf-syntax-ns#"
   xmlns:svg="http://www.w3.org/2000/svg"
   xmlns="http://www.w3.org/2000/svg"
   xmlns:sodipodi="http://sodipodi.sourceforge.net/DTD/sodipodi-0.dtd"
   xmlns:inkscape="http://www.inkscape.org/namespaces/inkscape"
   version="1.1"
   id="Ebene_1"
   x="0px"
   y="0px"
   viewBox="0 0 24 24"
   xml:space="preserve"
   inkscape:version="0.92.3 (2405546, 2018-03-11)"
   sodipodi:docname="notification_reminder.svg"
   width="24"
   height="24"><metadata
     id="metadata61"><rdf:RDF><cc:Work
         rdf:about=""><dc:format>image/svg+xml</dc:format><dc:type
           rdf:resource="http://purl.org/dc/dcmitype/StillImage" /><dc:title /></cc:Work></rdf:RDF></metadata><defs
     id="defs59" /><sodipodi:namedview
     pagecolor="#000000"
     bordercolor="#666666"
     borderopacity="1"
     objecttolerance="10"
     gridtolerance="10"
     guidetolerance="10"
     inkscape:pageopacity="0"
     inkscape:pageshadow="2"
     inkscape:window-width="1920"
     inkscape:window-height="1020"
     id="namedview57"
     showgrid="false"
     inkscape:zoom="32.43286"
     inkscape:cx="6.4172501"
     inkscape:cy="12.231457"
     inkscape:window-x="1442"
     inkscape:window-y="24"
     inkscape:window-maximized="0"
     inkscape:current-layer="Ebene_1"
     units="px" /><style
     type="text/css"
     id="style3">
	.st0{fill:#FFFFFF;}
	.st1{display:none;fill:#87C214;}
	.st2{fill:#87C214;}
	.st3{display:none;fill:#FFFFFF;}
	.st4{fill:#95D220;}
	.st5{display:none;fill:#95D220;}
</style><path
     style="display:inline;fill:#ffffff;stroke-width:0.07272727"
     d="M 12 0 A 12 12 0 0 0 4.875 2.3613281 L 6.9316406 4.4160156 C 7.0875805 3.8805807 7.5639651 3.4765625 8.1464844 3.4765625 L 8.7480469 3.4765625 C 9.4535014 3.4765625 10.035156 4.0582174 10.035156 4.7636719 L 10.035156 6.4003906 L 8.9140625 6.4003906 L 9.4238281 6.9101562 L 13.404297 6.9101562 L 13.404297 10.085938 L 12.601562 10.085938 L 13.914062 11.398438 L 13.914062 4.7636719 C 13.914062 4.0582174 14.495717 3.4765625 15.201172 3.4765625 L 15.802734 3.4765625 C 16.515461 3.4765625 17.089844 4.0582174 17.089844 4.7636719 L 17.089844 13.455078 L 15.96875 13.455078 L 16.478516 13.964844 L 19.236328 13.964844 C 19.941782 13.964844 20.516165 14.546498 20.523438 15.251953 L 20.523438 15.853516 C 20.523438 16.436036 20.119418 16.91242 19.583984 17.068359 L 21.638672 19.125 A 12 12 0 0 0 24 12 A 12 12 0 0 0 12 0 z M 1.2617188 1.3632812 L 0 2.6269531 L 2.3125 4.9472656 A 12 12 0 0 0 0 12 A 12 12 0 0 0 12 24 A 12 12 0 0 0 19.027344 21.707031 L 21.314453 24 L 22.576172 22.734375 L 2.7519531 2.8554688 L 1.9863281 2.0898438 L 1.2617188 1.3632812 z M 17.599609 6.9101562 L 19.236328 6.9101562 C 19.941782 6.9101562 20.516165 7.4918111 20.523438 8.1972656 L 20.523438 8.7988281 C 20.523438 9.511555 19.941782 10.085937 19.236328 10.085938 L 17.599609 10.085938 L 17.599609 6.9101562 z M 4.359375 6.9980469 L 7.4394531 10.085938 L 4.7128906 10.085938 C 4.0001632 10.085938 3.4257813 9.504282 3.4257812 8.7988281 L 3.4257812 8.1972656 C 3.4257812 7.6133228 3.8294199 7.1540656 4.359375 6.9980469 z M 6.859375 10.595703 L 7.9472656 10.595703 L 10.035156 12.689453 L 10.035156 19.287109 C 10.035156 19.992562 9.4535014 20.574219 8.7480469 20.574219 L 8.1464844 20.574219 C 7.4337573 20.574219 6.859375 19.992563 6.859375 19.287109 L 6.859375 10.595703 z M 4.7128906 13.964844 L 6.3496094 13.964844 L 6.3496094 17.140625 L 4.7128906 17.140625 C 4.0001632 17.140625 3.4257813 16.558971 3.4257812 15.853516 L 3.4257812 15.251953 C 3.4257812 14.539226 4.007436 13.964844 4.7128906 13.964844 z M 10.544922 13.964844 L 11.306641 13.964844 L 14.474609 17.140625 L 10.544922 17.140625 L 10.544922 13.964844 z M 13.914062 17.650391 L 14.982422 17.650391 L 16.992188 19.666016 C 16.827053 20.182975 16.371277 20.574219 15.802734 20.574219 L 15.201172 20.574219 C 14.495717 20.574219 13.914063 19.992563 13.914062 19.287109 L 13.914062 17.650391 z "
     id="circle7" /></svg>