<?xml version="1.0" encoding="utf-8"?>
<!-- Generator: Adobe Illustrator 19.0.0, SVG Export Plug-In . SVG Version: 6.00 Build 0)  -->
<svg version="1.1" id="svg2" xmlns="http://www.w3.org/2000/svg" xmlns:xlink="http://www.w3.org/1999/xlink" x="0px" y="0px"
	 viewBox="-47 347.2 409.2 161.7" style="enable-background:new -47 347.2 409.2 161.7;" xml:space="preserve">
<style type="text/css">
	.st0{display:none;fill:none;stroke:#FFFFFF;stroke-width:4.3281;}
	.st1{fill-rule:evenodd;clip-rule:evenodd;fill:#020202;}
</style>
<path id="path4201" d="M322.8,504.6l-4.3-4.3l-7.1-2.4c-3.9-1.3-8.7-3-10.7-3.7l-3.7-1.3l3.5-0.2c8.2-0.4,13-4,14.3-10.9
	c0.8-4.1,1.1-17.3,0.8-33c-0.2-8.1-0.2-15.4,0-16.3c0.1-0.9,0.5-2.4,0.9-3.4c1.2-3.5,0.3-11.9-1.9-17.6c-0.3-0.9-1.9-4.2-3.5-7.4
	c-4.2-8.2-4.5-8.9-4.9-10.5c-0.5-1.8-0.2-5.4,0.5-6.8c0.7-1.3,2.2-2.9,3.2-3.5c1.3-0.7,2.6,0.1,4.7,2.9c3.4,4.5,14,19.4,15.7,22.2
	c3.7,6,6,11.2,8,18.8c0.7,2.5,1.9,7,2.7,10.1c0.8,3.1,2.7,10.2,4.1,15.8l2.6,10.2l4.6,5.2c2.6,2.9,5.8,6.5,7.2,8
	c1.4,1.6,2.5,3,2.5,3.2c0,0.3-34.5,29.3-34.9,29.3C327.2,508.9,325.2,506.9,322.8,504.6z M228.9,488.2c-1.3-0.6-2.2-1.4-2.9-2.3
	c-2.1-2.7-2,2.4-1.9-68.5l0.1-64l0.7-1.2c1-1.9,2-2.9,3.7-3.9l1.6-0.9l37.8-0.1c42.5-0.1,39.4-0.2,42.1,2.2c0.9,0.8,1.8,2,2.2,2.9
	c0.7,1.6,0.7,1.6,0.8,14.2l0.1,12.6l-1.8-0.1c-1.4-0.1-2.1,0-3.2,0.5c-2,1-3.9,2.9-5.1,5.1l-1,2l0-12.8l0-12.8h-33.6h-33.6v51.3
	v51.3h33.6h33.6l0.1-34.4c0.1-33,0.1-34.4,0.6-32.9c0.3,0.8,1.8,4,3.4,7c5.5,10.6,5.4,9.9,5.4,47.2c0,27.6-0.1,30-1.7,33.1
	c-1.1,2.2-2.7,3.7-5.1,4.7l-1.7,0.7L267,489l-36.2,0.1L228.9,488.2L228.9,488.2z M271.3,483.1c2.9-1.3,4.5-3.7,4.4-6.6
	c0-4.1-3.1-7.2-7.1-7.2c-2.1,0-3.6,0.6-5.2,2.2c-2.2,2.2-2.8,5.4-1.3,8.3c0.7,1.4,2.5,3,4,3.5C267.6,483.8,270,483.8,271.3,483.1z"
	/>
<path id="path4201-1" d="M-7.6,504.6l4.3-4.3l7.1-2.4c3.9-1.3,8.7-3,10.7-3.7l3.7-1.3l-3.5-0.2c-8.2-0.4-13-4-14.3-10.9
	c-0.8-4.1-1.1-17.3-0.8-33c0.2-8.1,0.2-15.4,0-16.3c-0.1-0.9-0.5-2.4-0.9-3.4c-1.2-3.5-0.3-11.9,1.9-17.6c0.3-0.9,1.9-4.2,3.5-7.4
	c4.2-8.2,4.5-8.9,4.9-10.5c0.5-1.8,0.2-5.4-0.5-6.8c-0.7-1.3-2.2-2.9-3.2-3.5c-1.3-0.7-2.6,0.1-4.7,2.9c-3.4,4.5-14,19.4-15.7,22.2
	c-3.7,6-6,11.2-8,18.8c-0.7,2.5-1.9,7-2.7,10.1c-0.8,3.1-2.7,10.2-4.1,15.8l-2.6,10.2l-4.6,5.2c-2.6,2.9-5.8,6.5-7.2,8
	s-2.5,3-2.5,3.2c0,0.3,34.5,29.3,34.9,29.3C-12,508.9-9.9,506.9-7.6,504.6z M86.3,488.2c1.3-0.6,2.2-1.4,2.9-2.3
	c2.1-2.7,2,2.4,1.9-68.5l-0.1-64l-0.7-1.2c-1-1.9-2-2.9-3.7-3.9l-1.6-0.9l-37.8-0.1c-42.5-0.1-39.4-0.2-42.1,2.2
	c-0.9,0.8-1.8,2-2.2,2.9c-0.7,1.6-0.7,1.6-0.8,14.2L2,379.2l1.8-0.1c1.4-0.1,2.1,0,3.2,0.5c2,1,3.9,2.9,5.1,5.1l1,2l0-12.8l0-12.8
	h33.6h33.6v51.3v51.3H46.8H13.2l-0.1-34.4c-0.1-33-0.1-34.4-0.6-32.9c-0.3,0.8-1.8,4-3.4,7c-5.5,10.6-5.4,9.9-5.4,47.2
	c0,27.6,0.1,30,1.7,33.1c1.1,2.2,2.7,3.7,5.1,4.7l1.7,0.7l36.2,0.1l36.2,0.1L86.3,488.2L86.3,488.2z M43.9,483.1
	c-2.9-1.3-4.5-3.7-4.4-6.6c0-4.1,3.1-7.2,7.1-7.2c2.1,0,3.6,0.6,5.2,2.2c2.2,2.2,2.8,5.4,1.3,8.3c-0.7,1.4-2.5,3-4,3.5
	C47.6,483.8,45.3,483.8,43.9,483.1z"/>
<g>
	<path d="M33.5,410.2h2.3v2.3h2.3v2.3H26.6v-2.3h2.3v-4.6h4.6L33.5,410.2L33.5,410.2z M63.5,431h2.3v-2.3h-2.3V431z M35.8,410.2h2.3
		v-2.3h-2.3V410.2z M68.1,431h2.3v-2.3h-2.3V431z M40.4,433.3H45V431h-4.6V433.3z M61.2,433.3V431h-2.3v2.3H61.2z M52,433.3h2.3
		v-4.6H52V433.3z M33.5,403.3v2.3h6.9v-2.3H33.5z M31.2,405.6v-2.3h-4.6v4.6h2.3v-2.3H31.2z M38.1,401H22v-16.1h16.1V401z
		 M35.8,387.2H24.3v11.5h11.5V387.2z M26.6,428.7h6.9v-6.9h-6.9V428.7z M49.6,426.3v2.3H52v-2.3H49.6z M33.5,389.5h-6.9v6.9h6.9
		V389.5z M70.4,384.9V401H54.3v-16.1H70.4z M68.1,387.2H56.6v11.5h11.5V387.2z M22,417.1h16.1v16.1H22V417.1z M24.3,431h11.5v-11.5
		H24.3V431z M24.3,403.3H22v11.5h2.3V403.3z M54.3,414.8v2.3h2.3v-2.3H54.3z M47.3,424.1v-2.3H45v2.3h-4.6v4.6H45v2.3h2.3v-4.6h2.3
		v-2.3H47.3z M40.4,394.1H45v-2.3h-4.6V394.1z M58.9,412.5h4.6v2.3h2.3v-6.9h-2.3v-4.6h-2.3v6.9h-6.9v2.3h2.3v2.3h2.3V412.5z
		 M61.2,419.4h-2.3v-2.3h-2.3v4.6h-6.9v2.3h4.6v4.6h2.3v2.3h2.3v-4.6h9.2v-2.3h-6.9V419.4z M61.2,419.4h2.3v-4.6h-2.3V419.4z
		 M42.7,419.4v-2.3H45v-2.3h2.3v-2.3h2.3v-4.6h6.9v-4.6h-2.3v2.3H52v-9.2h-2.3v-4.6H52v-6.9h-2.3v4.6h-2.3v-4.6h-6.9v4.6h2.3v-2.3
		H45v4.6h2.3v6.9h2.3v2.3h-2.3v4.6H45V401h-2.3v-2.3h-2.3v4.6h2.3v2.3h-2.3v6.9h2.3v-4.6H45v4.6h-2.3v2.3h-2.3v6.9H45v-2.3H42.7z
		 M68.1,421.7v-2.3h-4.6v2.3H68.1z M65.8,389.5h-6.9v6.9h6.9V389.5z M47.3,419.4H52v-2.3h-2.3v-2.3h-2.3V419.4z M52,414.8v-2.3h-2.3
		v2.3H52z M65.8,405.6h4.6v-2.3h-4.6V405.6z M68.1,424.1h2.3v-2.3h-2.3V424.1z M68.1,410.2h2.3v-2.3h-2.3V410.2z M47.3,398.7H45v2.3
		h2.3V398.7z M47.3,398.7"/>
</g>
<g>
	<path d="M256.5,410.2h2.3v2.3h2.3v2.3h-11.5v-2.3h2.3v-4.6h4.6L256.5,410.2L256.5,410.2z M286.5,431h2.3v-2.3h-2.3V431z
		 M258.8,410.2h2.3v-2.3h-2.3V410.2z M291.1,431h2.3v-2.3h-2.3V431z M263.4,433.3h4.6V431h-4.6V433.3z M284.2,433.3V431h-2.3v2.3
		H284.2z M275,433.3h2.3v-4.6H275V433.3z M256.5,403.3v2.3h6.9v-2.3H256.5z M254.2,405.6v-2.3h-4.6v4.6h2.3v-2.3H254.2z M261.1,401
		H245v-16.1h16.1V401z M258.8,387.2h-11.5v11.5h11.5V387.2z M249.6,428.7h6.9v-6.9h-6.9V428.7z M272.6,426.3v2.3h2.3v-2.3H272.6z
		 M256.5,389.5h-6.9v6.9h6.9V389.5z M293.4,384.9V401h-16.1v-16.1H293.4z M291.1,387.2h-11.5v11.5h11.5V387.2z M245,417.1h16.1v16.1
		H245V417.1z M247.3,431h11.5v-11.5h-11.5V431z M247.3,403.3H245v11.5h2.3V403.3z M277.3,414.8v2.3h2.3v-2.3H277.3z M270.3,424.1
		v-2.3H268v2.3h-4.6v4.6h4.6v2.3h2.3v-4.6h2.3v-2.3H270.3z M263.4,394.1h4.6v-2.3h-4.6V394.1z M281.9,412.5h4.6v2.3h2.3v-6.9h-2.3
		v-4.6h-2.3v6.9h-6.9v2.3h2.3v2.3h2.3V412.5z M284.2,419.4h-2.3v-2.3h-2.3v4.6h-6.9v2.3h4.6v4.6h2.3v2.3h2.3v-4.6h9.2v-2.3h-6.9
		V419.4z M284.2,419.4h2.3v-4.6h-2.3V419.4z M265.7,419.4v-2.3h2.3v-2.3h2.3v-2.3h2.3v-4.6h6.9v-4.6h-2.3v2.3H275v-9.2h-2.3v-4.6
		h2.3v-6.9h-2.3v4.6h-2.3v-4.6h-6.9v4.6h2.3v-2.3h2.3v4.6h2.3v6.9h2.3v2.3h-2.3v4.6H268V401h-2.3v-2.3h-2.3v4.6h2.3v2.3h-2.3v6.9
		h2.3v-4.6h2.3v4.6h-2.3v2.3h-2.3v6.9h4.6v-2.3H265.7z M291.1,421.7v-2.3h-4.6v2.3H291.1z M288.8,389.5h-6.9v6.9h6.9V389.5z
		 M270.3,419.4h4.6v-2.3h-2.3v-2.3h-2.3V419.4z M275,414.8v-2.3h-2.3v2.3H275z M288.8,405.6h4.6v-2.3h-4.6V405.6z M291.1,424.1h2.3
		v-2.3h-2.3V424.1z M291.1,410.2h2.3v-2.3h-2.3V410.2z M270.3,398.7H268v2.3h2.3V398.7z M270.3,398.7"/>
</g>
<polygon class="st0" points="152,392 152,411.8 110,411.8 126,383.1 126,392 "/>
<polygon class="st0" points="152,392 152,411.8 110,411.8 126,383.1 126,392 "/>
<g>
	<path class="st1" d="M132.6,396.1l-20.6,18l20.6,16.7v-5.2H152v-24.3h-19.3V396.1z"/>
	<path class="st1" d="M182.4,430.9l20.6-18l-20.6-16.7v5.2H163v24.3h19.3V430.9z"/>
</g>
</svg>
