<?xml version="1.0" encoding="UTF-8" standalone="no"?>
<svg xmlns:dc="http://purl.org/dc/elements/1.1/" xmlns:cc="http://creativecommons.org/ns#"
	xmlns:rdf="http://www.w3.org/1999/02/22-rdf-syntax-ns#" xmlns="http://www.w3.org/2000/svg"
	xmlns:sodipodi="http://sodipodi.sourceforge.net/DTD/sodipodi-0.dtd"
	xmlns:inkscape="http://www.inkscape.org/namespaces/inkscape" width="256" height="204"
	viewBox="0 0 256 204" fill="none" version="1.1" id="svg42" sodipodi:docname="share_app.svg"
	inkscape:version="1.0.2 (e86c870879, 2021-01-15)">
	<metadata id="metadata48">
		<rdf:RDF>
			<cc:Work rdf:about="">
				<dc:format>image/svg+xml</dc:format>
				<dc:type rdf:resource="http://purl.org/dc/dcmitype/StillImage" />
				<dc:title></dc:title>
			</cc:Work>
		</rdf:RDF>
	</metadata>
	<defs id="defs46" />
	<sodipodi:namedview pagecolor="#000000" bordercolor="#666666" borderopacity="1"
		objecttolerance="10" gridtolerance="10" guidetolerance="10" inkscape:pageopacity="0"
		inkscape:pageshadow="2" inkscape:window-width="1920" inkscape:window-height="964"
		id="namedview44" showgrid="false" inkscape:zoom="2.4705882" inkscape:cx="123.34752"
		inkscape:cy="83.759737" inkscape:window-x="1920" inkscape:window-y="72"
		inkscape:window-maximized="0" inkscape:current-layer="svg42" />
	<path opacity="0.5" fill-rule="evenodd" clip-rule="evenodd"
		d="M41.583 100.841H22.1807V102.841H52.7503V136.663H54.7503V102.841H68.0341C70.9241 102.841 73.267 105.184 73.267 108.074C73.267 112.068 76.5053 115.307 80.4999 115.307H92.727V113.307H80.4999C77.6098 113.307 75.267 110.964 75.267 108.074C75.267 104.079 72.0287 100.841 68.0341 100.841H43.583V63.6593H41.583V100.841Z"
		fill="#657D99" id="path2" />
	<path opacity="0.5" fill-rule="evenodd" clip-rule="evenodd"
		d="M122.611 86.0596V46.2531H124.611V86.0596H122.611Z" fill="#657D99" id="path4" />
	<path opacity="0.5" fill-rule="evenodd" clip-rule="evenodd"
		d="M119.754 179.928L119.754 142.682L121.754 142.682L121.754 179.928L119.754 179.928Z"
		fill="#657D99" id="path6" />
	<path opacity="0.5" fill-rule="evenodd" clip-rule="evenodd"
		d="M195.251 100.841V86.5962H193.251V113.826H148.362V115.826H194.251C198.125 115.826 201.301 118.969 201.301 122.826V127.044H203.301V122.826C203.301 118.186 199.75 114.378 195.251 113.881V102.841H233.052V100.841H195.251Z"
		fill="#657D99" id="path8" />
	<path fill-rule="evenodd" clip-rule="evenodd"
		d="M32.1213 57.4112L32.8875 55.5637C33.5961 55.8576 34.3747 56.0208 35.1966 56.0208H37.0795V58.0208H35.1966C34.1072 58.0208 33.0686 57.804 32.1213 57.4112ZM48.3769 58.0208V56.0208H50.2598C51.0816 56.0208 51.8602 55.8576 52.5689 55.5637L53.335 57.4112C52.3877 57.804 51.3491 58.0208 50.2598 58.0208H48.3769ZM58.2935 36.8067H56.2935V34.9238C56.2935 34.102 56.1303 33.3234 55.8364 32.6147L57.6839 31.8486C58.0767 32.7959 58.2935 33.8345 58.2935 34.9238V36.8067ZM37.0795 26.8901H35.1966C34.1072 26.8901 33.0686 27.1069 32.1213 27.4997L32.8875 29.3472C33.5961 29.0533 34.3747 28.8901 35.1966 28.8901H37.0795V26.8901ZM27.1628 48.1042H29.1628V49.9871C29.1628 50.8089 29.326 51.5875 29.6199 52.2962L27.7724 53.0623C27.3796 52.115 27.1628 51.0764 27.1628 49.9871V48.1042ZM27.1628 44.3384H29.1628V40.5725H27.1628V44.3384ZM27.1628 36.8067H29.1628V34.9238C29.1628 34.102 29.326 33.3234 29.6199 32.6147L27.7724 31.8486C27.3796 32.7959 27.1628 33.8345 27.1628 34.9238V36.8067ZM40.8453 26.8901V28.8901H44.6111V26.8901H40.8453ZM48.3769 26.8901V28.8901H50.2598C51.0816 28.8901 51.8602 29.0533 52.5689 29.3472L53.335 27.4997C52.3877 27.1069 51.3491 26.8901 50.2598 26.8901H48.3769ZM58.2935 40.5725H56.2935V44.3383H58.2935V40.5725ZM58.2935 48.1042H56.2935V49.9871C56.2935 50.8089 56.1303 51.5875 55.8364 52.2962L57.6839 53.0623C58.0767 52.115 58.2935 51.0764 58.2935 49.9871V48.1042ZM44.6111 58.0208V56.0208H40.8453V58.0208H44.6111Z"
		fill="#657D99" id="path10" />
	<path fill-rule="evenodd" clip-rule="evenodd"
		d="M112.487 40.4256L112.875 38.4636C113.41 38.5694 113.964 38.6251 114.533 38.6251H116.99V40.6251H114.533C113.833 40.6251 113.149 40.5565 112.487 40.4256ZM131.733 40.6251V38.6251H134.191C134.76 38.6251 135.314 38.5694 135.848 38.4636L136.237 40.4256C135.575 40.5565 134.891 40.6251 134.191 40.6251H131.733ZM140.016 38.8593L138.903 37.1973C139.829 36.5774 140.627 35.7797 141.247 34.8536L142.909 35.9663C142.143 37.1095 141.159 38.0939 140.016 38.8593ZM144.674 12.9411H142.674V10.4839C142.674 9.91475 142.619 9.36059 142.513 8.82599L144.475 8.43785C144.606 9.0996 144.674 9.78374 144.674 10.4839V12.9411ZM142.909 4.65889L141.247 5.77152C140.627 4.84548 139.829 4.04776 138.903 3.42779L140.016 1.76585C141.159 2.53126 142.143 3.5156 142.909 4.65889ZM116.99 0H114.533C113.833 0 113.149 0.0686375 112.487 0.199551L112.875 2.16153C113.41 2.05577 113.964 2 114.533 2H116.99V0ZM108.708 1.76585L109.821 3.42779C108.895 4.04776 108.097 4.84548 107.477 5.77152L105.815 4.65888C106.581 3.5156 107.565 2.53126 108.708 1.76585ZM104.049 27.6841H106.049V30.1412C106.049 30.7104 106.105 31.2645 106.211 31.7992L104.249 32.1873C104.118 31.5255 104.049 30.8414 104.049 30.1412V27.6841ZM105.815 35.9663L107.477 34.8536C108.097 35.7797 108.895 36.5774 109.821 37.1973L108.708 38.8593C107.565 38.0939 106.581 37.1095 105.815 35.9663ZM104.049 22.7697H106.049V17.8554H104.049V22.7697ZM104.049 12.9411H106.049V10.4839C106.049 9.91475 106.105 9.36059 106.211 8.82598L104.249 8.43785C104.118 9.09959 104.049 9.78374 104.049 10.4839V12.9411ZM121.905 0V2H126.819V0H121.905ZM131.733 0V2H134.191C134.76 2 135.314 2.05577 135.848 2.16153L136.237 0.199552C135.575 0.0686377 134.891 0 134.191 0H131.733ZM144.674 17.8554H142.674V22.7697H144.674V17.8554ZM144.674 27.6841H142.674V30.1412C142.674 30.7104 142.619 31.2645 142.513 31.7992L144.475 32.1873C144.606 31.5255 144.674 30.8414 144.674 30.1412V27.6841ZM126.819 40.6251V38.6251H121.905V40.6251H126.819Z"
		fill="#657D99" id="path12" />
	<path fill-rule="evenodd" clip-rule="evenodd"
		d="M183.397 81.9904L184.163 80.1429C184.902 80.4493 185.714 80.6194 186.57 80.6194H188.513V82.6194H186.57C185.446 82.6194 184.375 82.3957 183.397 81.9904ZM200.171 82.6194V80.6194H202.114C202.97 80.6194 203.782 80.4493 204.521 80.1429L205.287 81.9904C204.309 82.3957 203.238 82.6194 202.114 82.6194H200.171ZM210.403 60.7295H208.403V58.7866C208.403 57.9301 208.233 57.1184 207.927 56.3795L209.774 55.6134C210.18 56.5908 210.403 57.6626 210.403 58.7866V60.7295ZM188.513 50.4969H186.57C185.446 50.4969 184.375 50.7207 183.397 51.126L184.163 52.9734C184.902 52.667 185.714 52.4969 186.57 52.4969H188.513V50.4969ZM178.281 72.3869H180.281V74.3297C180.281 75.1863 180.451 75.998 180.757 76.7368L178.91 77.5029C178.504 76.5255 178.281 75.4538 178.281 74.3297V72.3869ZM178.281 68.5011H180.281V64.6153H178.281V68.5011ZM178.281 60.7295H180.281V58.7866C180.281 57.9301 180.451 57.1184 180.757 56.3795L178.91 55.6134C178.504 56.5908 178.281 57.6626 178.281 58.7866V60.7295ZM192.399 50.4969V52.4969H196.285V50.4969H192.399ZM200.171 50.4969V52.4969H202.114C202.97 52.4969 203.782 52.667 204.521 52.9734L205.287 51.126C204.309 50.7207 203.238 50.4969 202.114 50.4969H200.171ZM210.403 64.6153H208.403V68.5011H210.403V64.6153ZM210.403 72.3869H208.403V74.3297C208.403 75.1863 208.233 75.998 207.927 76.7368L209.774 77.5029C210.18 76.5255 210.403 75.4538 210.403 74.3297V72.3869ZM196.285 82.6194V80.6194H192.399V82.6194H196.285Z"
		fill="#657D99" id="path14" />
	<path fill-rule="evenodd" clip-rule="evenodd"
		d="M188.271 180.562L188.659 178.6C189.316 178.73 189.996 178.798 190.694 178.798H192.633V180.798H190.694C189.865 180.798 189.055 180.717 188.271 180.562ZM212.029 180.798V178.798H213.968C214.666 178.798 215.346 178.73 216.003 178.6L216.391 180.562C215.607 180.717 214.797 180.798 213.968 180.798H212.029ZM220.865 178.708L219.753 177.046C220.889 176.285 221.868 175.306 222.629 174.17L224.291 175.282C223.384 176.636 222.219 177.801 220.865 178.708ZM226.381 147.05H224.381V145.111C224.381 144.413 224.313 143.733 224.183 143.077L226.145 142.688C226.3 143.472 226.381 144.282 226.381 145.111V147.05ZM224.291 138.214L222.629 139.327C221.868 138.19 220.889 137.211 219.753 136.451L220.865 134.789C222.219 135.695 223.384 136.86 224.291 138.214ZM192.633 132.698H190.694C189.865 132.698 189.055 132.779 188.271 132.934L188.659 134.896C189.316 134.766 189.996 134.698 190.694 134.698H192.633V132.698ZM183.797 134.789L184.91 136.451C183.773 137.211 182.794 138.19 182.033 139.327L180.372 138.214C181.278 136.86 182.443 135.695 183.797 134.789ZM178.281 166.446H180.281V168.385C180.281 169.083 180.349 169.763 180.479 170.42L178.517 170.808C178.362 170.024 178.281 169.214 178.281 168.385V166.446ZM180.372 175.282L182.033 174.17C182.794 175.306 183.773 176.285 184.91 177.046L183.797 178.708C182.443 177.801 181.278 176.636 180.372 175.282ZM178.281 162.567H180.281V158.688H178.281V162.567ZM178.281 154.809H180.281V150.93H178.281V154.809ZM178.281 147.05H180.281V145.111C180.281 144.413 180.349 143.733 180.479 143.077L178.517 142.688C178.362 143.472 178.281 144.282 178.281 145.111V147.05ZM196.512 132.698V134.698H200.392V132.698H196.512ZM204.271 132.698V134.698H208.15V132.698H204.271ZM212.029 132.698V134.698H213.968C214.666 134.698 215.346 134.766 216.003 134.896L216.391 132.934C215.607 132.779 214.797 132.698 213.968 132.698H212.029ZM226.381 150.93H224.381V154.809H226.381V150.93ZM226.381 158.688H224.381V162.567H226.381V158.688ZM226.381 166.446H224.381V168.385C224.381 169.083 224.313 169.763 224.183 170.42L226.145 170.808C226.3 170.024 226.381 169.214 226.381 168.385V166.446ZM208.15 180.798V178.798H204.271V180.798H208.15ZM200.392 180.798V178.798H196.512V180.798H200.392Z"
		fill="#657D99" id="path16" />
	<path fill-rule="evenodd" clip-rule="evenodd"
		d="M40.3891 175.457L41.1552 173.609C41.9338 173.932 42.7892 174.111 43.6915 174.111H45.7134V176.111H43.6915C42.5217 176.111 41.4063 175.878 40.3891 175.457ZM57.8451 176.111V174.111H59.8671C60.7693 174.111 61.6247 173.932 62.4033 173.609L63.1694 175.457C62.1522 175.878 61.0368 176.111 59.8671 176.111H57.8451ZM68.4941 153.33H66.4941V151.309C66.4941 150.406 66.3149 149.551 65.992 148.772L67.8395 148.006C68.2613 149.023 68.4941 150.139 68.4941 151.309V153.33ZM45.7134 142.682H43.6915C42.5217 142.682 41.4063 142.914 40.3891 143.336L41.1552 145.184C41.9338 144.861 42.7892 144.682 43.6915 144.682H45.7134V142.682ZM35.0645 165.462H37.0645V167.484C37.0645 168.386 37.2437 169.242 37.5665 170.02L35.7191 170.786C35.2973 169.769 35.0645 168.654 35.0645 167.484V165.462ZM35.0645 161.418H37.0645V157.374H35.0645V161.418ZM35.0645 153.33H37.0645V151.309C37.0645 150.406 37.2437 149.551 37.5665 148.772L35.7191 148.006C35.2973 149.023 35.0645 150.139 35.0645 151.309V153.33ZM49.7573 142.682V144.682H53.8012V142.682H49.7573ZM57.8451 142.682V144.682H59.8671C60.7693 144.682 61.6247 144.861 62.4033 145.184L63.1694 143.336C62.1522 142.914 61.0368 142.682 59.8671 142.682H57.8451ZM68.4941 157.374H66.4941V161.418H68.4941V157.374ZM68.4941 165.462H66.4941V167.484C66.4941 168.386 66.3149 169.242 65.992 170.02L67.8395 170.786C68.2613 169.769 68.4941 168.654 68.4941 167.484V165.462ZM53.8012 176.111V174.111H49.7573V176.111H53.8012Z"
		fill="#657D99" id="path18" />
	<path fill-rule="evenodd" clip-rule="evenodd"
		d="M2.84 110.802L3.60611 108.954C3.91005 109.081 4.24493 109.151 4.60133 109.151H6.75821V111.151H4.60133C3.97743 111.151 3.38253 111.027 2.84 110.802ZM11.072 111.151V109.151H13.2288C13.5852 109.151 13.9201 109.081 14.2241 108.954L14.9902 110.802C14.4476 111.027 13.8527 111.151 13.2288 111.151H11.072ZM17.8302 100.079H15.8302V97.9223C15.8302 97.5659 15.7596 97.231 15.6336 96.927L17.481 96.1609C17.706 96.7035 17.8302 97.2984 17.8302 97.9223V100.079ZM6.75821 93.3209H4.60133C3.97743 93.3209 3.38253 93.4451 2.84 93.6701L3.60611 95.5175C3.91005 95.3915 4.24493 95.3209 4.60133 95.3209H6.75821V93.3209ZM0 104.393H2V106.55C2 106.906 2.07056 107.241 2.1966 107.545L0.349152 108.311C0.124172 107.769 0 107.174 0 106.55V104.393ZM0 100.079H2V97.9223C2 97.5659 2.07056 97.231 2.1966 96.927L0.349152 96.1609C0.124172 96.7035 0 97.2984 0 97.9223V100.079ZM11.072 93.3209V95.3209H13.2288C13.5852 95.3209 13.9201 95.3915 14.2241 95.5175L14.9902 93.6701C14.4476 93.4451 13.8527 93.3209 13.2288 93.3209H11.072ZM17.8302 104.393H15.8302V106.55C15.8302 106.906 15.7596 107.241 15.6336 107.545L17.481 108.311C17.706 107.769 17.8302 107.174 17.8302 106.55V104.393Z"
		fill="#657D99" id="path20" />
	<path fill-rule="evenodd" clip-rule="evenodd"
		d="M114.745 202.969L115.511 201.122C115.815 201.248 116.149 201.318 116.506 201.318H118.663V203.318H116.506C115.882 203.318 115.287 203.194 114.745 202.969ZM122.977 203.318V201.318H125.133C125.49 201.318 125.825 201.248 126.129 201.122L126.895 202.969C126.352 203.194 125.757 203.318 125.133 203.318H122.977ZM129.735 192.246H127.735V190.09C127.735 189.733 127.664 189.398 127.538 189.094L129.386 188.328C129.611 188.871 129.735 189.466 129.735 190.09V192.246ZM118.663 185.488H116.506C115.882 185.488 115.287 185.612 114.745 185.837L115.511 187.685C115.815 187.559 116.149 187.488 116.506 187.488H118.663V185.488ZM111.905 196.56H113.905V198.717C113.905 199.074 113.975 199.408 114.101 199.712L112.254 200.478C112.029 199.936 111.905 199.341 111.905 198.717V196.56ZM111.905 192.246H113.905V190.09C113.905 189.733 113.975 189.398 114.101 189.094L112.254 188.328C112.029 188.871 111.905 189.466 111.905 190.09V192.246ZM122.977 185.488V187.488H125.133C125.49 187.488 125.825 187.559 126.129 187.685L126.895 185.837C126.352 185.612 125.757 185.488 125.133 185.488H122.977ZM129.735 196.56H127.735V198.717C127.735 199.074 127.664 199.408 127.538 199.712L129.386 200.478C129.611 199.936 129.735 199.341 129.735 198.717V196.56Z"
		fill="#657D99" id="path22" />
	<path fill-rule="evenodd" clip-rule="evenodd"
		d="M240.444 110.802L241.21 108.954C241.514 109.081 241.849 109.151 242.205 109.151H244.362V111.151H242.205C241.581 111.151 240.987 111.027 240.444 110.802ZM248.676 111.151V109.151H250.833C251.189 109.151 251.524 109.081 251.828 108.954L252.594 110.802C252.052 111.027 251.457 111.151 250.833 111.151H248.676ZM255.434 100.079H253.434V97.9223C253.434 97.5659 253.364 97.231 253.238 96.927L255.085 96.1609C255.31 96.7035 255.434 97.2984 255.434 97.9223V100.079ZM244.362 93.3209H242.205C241.581 93.3209 240.987 93.4451 240.444 93.6701L241.21 95.5175C241.514 95.3915 241.849 95.3209 242.205 95.3209H244.362V93.3209ZM237.604 104.393H239.604V106.55C239.604 106.906 239.675 107.241 239.801 107.545L237.953 108.311C237.728 107.769 237.604 107.174 237.604 106.55V104.393ZM237.604 100.079H239.604V97.9223C239.604 97.5659 239.675 97.231 239.801 96.927L237.953 96.1609C237.728 96.7035 237.604 97.2984 237.604 97.9223V100.079ZM248.676 93.3209V95.3209H250.833C251.189 95.3209 251.524 95.3915 251.828 95.5175L252.594 93.6701C252.052 93.4451 251.457 93.3209 250.833 93.3209H248.676ZM255.434 104.393H253.434V106.55C253.434 106.906 253.364 107.241 253.238 107.545L255.085 108.311C255.31 107.769 255.434 107.174 255.434 106.55V104.393Z"
		fill="#657D99" id="path24" />
	<path
		d="M108.75 109.808V129.511C108.75 131.11 110.052 132.429 111.668 132.429H113.036C114.636 132.429 115.955 131.11 115.955 129.511V109.808H108.75V109.808Z"
		fill="#87C214" id="path26" />
	<path
		d="M115.938 100.312V96.6023C115.938 95.003 114.636 93.684 113.036 93.684H111.668C110.069 93.684 108.75 95.003 108.75 96.6023V100.312H115.938V100.312Z"
		fill="#87C214" id="path28" />
	<path
		d="M131.931 116.305V96.6023C131.931 95.003 130.628 93.684 129.029 93.684H127.66C126.061 93.684 124.742 95.003 124.742 96.6023V116.305H131.931V116.305Z"
		fill="#87C214" id="path30" />
	<path
		d="M124.742 125.801V129.511C124.742 131.11 126.061 132.429 127.66 132.429H129.029C130.628 132.429 131.947 131.11 131.947 129.511V125.801H124.742Z"
		fill="#87C214" id="path32" />
	<path
		d="M107.595 117.459H103.886C102.286 117.459 100.967 118.761 100.967 120.377V121.746C100.967 123.345 102.27 124.664 103.886 124.664H107.595V117.459Z"
		fill="#95D220" id="path34" />
	<path
		d="M136.795 117.459H117.092V124.664H136.795C138.394 124.664 139.713 123.345 139.713 121.746V120.377C139.713 118.761 138.394 117.459 136.795 117.459Z"
		fill="#95D220" id="path36" />
	<path
		d="M123.588 101.466H103.886C102.286 101.466 100.967 102.769 100.967 104.385V105.753C100.967 107.352 102.27 108.671 103.886 108.671H123.588V101.466Z"
		fill="#95D220" id="path38" />
	<path
		d="M136.795 101.466H133.085V108.671H136.795C138.394 108.671 139.713 107.369 139.713 105.753V104.384C139.713 102.769 138.394 101.466 136.795 101.466Z"
		fill="#95D220" id="path40" />
</svg>
