<?xml version="1.0" encoding="UTF-8" standalone="no"?>
<svg xmlns:dc="http://purl.org/dc/elements/1.1/" xmlns:cc="http://creativecommons.org/ns#"
    xmlns:rdf="http://www.w3.org/1999/02/22-rdf-syntax-ns#" xmlns="http://www.w3.org/2000/svg"
    xmlns:sodipodi="http://sodipodi.sourceforge.net/DTD/sodipodi-0.dtd"
    xmlns:inkscape="http://www.inkscape.org/namespaces/inkscape" width="120" height="52"
    viewBox="0 0 120 52" fill="none" version="1.1" id="svg24"
    sodipodi:docname="transfer_data_receive.svg" inkscape:version="1.0.2 (e86c870879, 2021-01-15)">
  <defs id="defs11" />
  <sodipodi:namedview pagecolor="#ffffff" bordercolor="#666666" borderopacity="1"
      objecttolerance="10" gridtolerance="10" guidetolerance="10" inkscape:pageopacity="0"
      inkscape:pageshadow="2" inkscape:window-width="1920" inkscape:window-height="982"
      id="namedview9" showgrid="false" inkscape:zoom="4.1077454" inkscape:cx="81.48675"
      inkscape:cy="18.42645" inkscape:window-x="1920" inkscape:window-y="72"
      inkscape:window-maximized="0" inkscape:current-layer="svg24" inkscape:document-rotation="0"
      fit-margin-top="0" fit-margin-left="0" fit-margin-right="0" fit-margin-bottom="0" />
  <metadata id="metadata30">
    <rdf:RDF>
      <cc:Work rdf:about="">
        <dc:format>image/svg+xml</dc:format>
        <dc:type rdf:resource="http://purl.org/dc/dcmitype/StillImage" />
        <dc:title></dc:title>
      </cc:Work>
    </rdf:RDF>
  </metadata>
  <path id="path8"
      style="fill:#8a9cb3;stroke:none;stroke-width:0.749281;stroke-miterlimit:4;stroke-dasharray:none"
      d="m 15.97512,14.267003 c -0.596207,0 -1.167798,0.237677 -1.588736,0.659365 -0.421693,0.42094 -0.659371,0.992537 -0.659371,1.588743 v 10.111264 c -0.596207,0 -1.16631,0.236178 -1.58725,0.657875 -0.421682,0.420938 -0.659361,0.992529 -0.659361,1.588736 v 12.35937 h 2.246611 v -12.35937 h 17.977398 v 12.359369 h 2.24662 V 28.872986 c 0,-0.596207 -0.23619,-1.167798 -0.65788,-1.588737 -0.42094,-0.421697 -0.99253,-0.657875 -1.58874,-0.657875 V 16.515111 c 0,-0.596206 -0.23768,-1.167804 -0.65937,-1.588743 -0.42094,-0.421688 -0.99252,-0.659365 -1.58873,-0.659365 z m 0,2.248108 H 29.456311 V 26.626375 H 15.97512 Z m 2.24662,2.224241 v 2.246609 h 3.369915 v -2.246609 z m 5.618031,0 v 2.246609 h 3.36993 v -2.246609 z"
      sodipodi:nodetypes="scsccsccccccsccscssccccccccccccccc" />
  <path
      d="m 47.827564,24.463076 v 3.073847 h 18.443085 l -8.45308,8.453081 2.182432,2.182432 12.172435,-12.172438 -12.172435,-12.172434 -2.182432,2.182431 8.45308,8.45308 z"
      id="path895" style="fill:#82c91e;fill-opacity:1;stroke:none;stroke-width:1.53692" />
  <path id="path8-3"
      style="fill:#8a9cb3;stroke:none;stroke-width:0.985186;stroke-miterlimit:4;stroke-dasharray:none"
      d="M 93.999021,5.9999999e-8 C 92.275189,5.9999999e-8 90.624219,0.68560941 89.405306,1.9045678 88.186391,3.1235212 87.500737,4.7763832 87.500737,6.5002454 V 45.497793 c 0,1.723833 0.685654,3.378723 1.904569,4.597639 C 90.624219,51.314343 92.275189,52 93.999021,52 h 19.500739 c 1.72383,0 3.37676,-0.685657 4.59567,-1.904568 C 119.31435,48.876515 120,47.221626 120,45.497793 V 6.5002454 C 120,4.7763832 119.31435,3.1235212 118.09543,1.9045678 116.87652,0.68560941 115.22359,5.9999999e-8 113.49976,5.9999999e-8 Z m 0,3.252084740000001 h 19.500739 c 0.86192,0 1.68931,0.339865 2.29881,0.9493417 0.60941,0.6094767 0.95131,1.4368929 0.95131,2.2988189 V 45.497793 c 0,0.861917 -0.3419,1.689315 -0.95131,2.29882 -0.6095,0.609408 -1.43689,0.953264 -2.29881,0.953264 H 93.999021 c -0.861916,0 -1.687352,-0.343856 -2.296858,-0.953264 -0.609407,-0.609505 -0.951304,-1.436903 -0.951304,-2.29882 V 6.5002454 c 0,-0.861926 0.341897,-1.6893422 0.951304,-2.2988189 0.609506,-0.6094767 1.434942,-0.9493417 2.296858,-0.9493417 z m 9.750369,32.7640582 c -0.86191,0 -1.68745,0.341895 -2.29686,0.951303 -0.6095,0.609506 -0.95326,1.436904 -0.95326,2.298819 0,0.861916 0.34376,1.687452 0.95326,2.29686 0.60941,0.609507 1.43495,0.951302 2.29686,0.951302 0.86192,0 1.68931,-0.341797 2.29882,-0.951302 0.6094,-0.609408 0.9513,-1.434942 0.9513,-2.29686 0,-0.861915 -0.3419,-1.689311 -0.9513,-2.298819 -0.60951,-0.609408 -1.4369,-0.951303 -2.29882,-0.951303 z"
      sodipodi:nodetypes="sssssssscsssssscsscsscsscsssscssscs" />
</svg>
