<?xml version="1.0" encoding="UTF-8" standalone="no"?>
<!-- Generator: Adobe Illustrator 17.1.0, SVG Export Plug-In . SVG Version: 6.00 Build 0)  -->

<svg
   xmlns:dc="http://purl.org/dc/elements/1.1/"
   xmlns:cc="http://creativecommons.org/ns#"
   xmlns:rdf="http://www.w3.org/1999/02/22-rdf-syntax-ns#"
   xmlns:svg="http://www.w3.org/2000/svg"
   xmlns="http://www.w3.org/2000/svg"
   xmlns:sodipodi="http://sodipodi.sourceforge.net/DTD/sodipodi-0.dtd"
   xmlns:inkscape="http://www.inkscape.org/namespaces/inkscape"
   version="1.1"
   id="Layer_1"
   x="0px"
   y="0px"
   viewBox="0 0 24 24"
   enable-background="new 0 0 150.5 91.1"
   xml:space="preserve"
   sodipodi:docname="transport_tor.svg"
   width="24"
   height="24"
   inkscape:version="0.92.4 (unknown)"><metadata
   id="metadata45"><rdf:RDF><cc:Work
       rdf:about=""><dc:format>image/svg+xml</dc:format><dc:type
         rdf:resource="http://purl.org/dc/dcmitype/StillImage" /><dc:title /></cc:Work></rdf:RDF></metadata><defs
   id="defs43">
	
	

		
		
		
	
		
	
			
			
		
				
				
				
				
				
			
				
				
			
					
				
					
				
					
				
					
				
					
				
					
				
					
				</defs><sodipodi:namedview
   pagecolor="#ffffff"
   bordercolor="#666666"
   borderopacity="1"
   objecttolerance="10"
   gridtolerance="10"
   guidetolerance="10"
   inkscape:pageopacity="0"
   inkscape:pageshadow="2"
   inkscape:window-width="1920"
   inkscape:window-height="982"
   id="namedview41"
   showgrid="false"
   inkscape:zoom="24.807467"
   inkscape:cx="5.2233253"
   inkscape:cy="12.263917"
   inkscape:window-x="1920"
   inkscape:window-y="72"
   inkscape:window-maximized="0"
   inkscape:current-layer="Layer_1" />
<path
   style="color:#000000;font-style:normal;font-variant:normal;font-weight:normal;font-stretch:normal;font-size:medium;line-height:normal;font-family:sans-serif;font-variant-ligatures:normal;font-variant-position:normal;font-variant-caps:normal;font-variant-numeric:normal;font-variant-alternates:normal;font-feature-settings:normal;text-indent:0;text-align:start;text-decoration:none;text-decoration-line:none;text-decoration-style:solid;text-decoration-color:#000000;letter-spacing:normal;word-spacing:normal;text-transform:none;writing-mode:lr-tb;direction:ltr;text-orientation:mixed;dominant-baseline:auto;baseline-shift:baseline;text-anchor:start;white-space:normal;shape-padding:0;clip-rule:nonzero;display:inline;overflow:visible;visibility:visible;opacity:1;isolation:auto;mix-blend-mode:normal;color-interpolation:sRGB;color-interpolation-filters:linearRGB;solid-color:#000000;solid-opacity:1;vector-effect:none;fill:#000000;fill-opacity:1;fill-rule:nonzero;stroke:none;stroke-width:0.5;stroke-linecap:butt;stroke-linejoin:miter;stroke-miterlimit:4;stroke-dasharray:none;stroke-dashoffset:0;stroke-opacity:1;color-rendering:auto;image-rendering:auto;shape-rendering:auto;text-rendering:auto;enable-background:accumulate"
   d="M 16.177734 0.296875 C 14.940855 1.1803607 13.897083 2.2338354 13.039062 3.4453125 L 13.330078 2.2792969 L 12.869141 2.0957031 C 12.05425 3.5492908 11.4836 5.0469513 11.21875 6.5429688 L 10.091797 6.078125 L 9.75 6.34375 L 9.6523438 6.3007812 L 9.7070312 6.3769531 L 9.5800781 6.4746094 L 9.6855469 6.6621094 C 10.223419 7.627833 10.334107 8.33942 10.267578 8.8300781 C 10.201049 9.3207363 9.9599188 9.604872 9.7441406 9.7421875 L 9.7402344 9.7441406 L 9.7363281 9.7460938 C 8.6369611 10.495661 7.0215106 11.443097 6.1855469 12.332031 C 4.6057035 13.963674 4.1161512 15.586137 4.2714844 17.605469 C 4.4324229 20.26703 6.3535267 22.470056 8.9394531 23.332031 L 8.9414062 23.333984 C 10.064968 23.699752 11.10885 23.75 12.228516 23.75 C 14.067627 23.75 15.992235 23.262159 17.392578 22.099609 C 18.892047 20.863206 19.757812 19.00048 19.757812 17.080078 C 19.757812 15.164242 18.943404 13.327988 17.501953 12.017578 L 17.501953 12.015625 C 16.744607 11.336625 15.818196 10.774427 14.851562 10.240234 L 14.849609 10.238281 L 14.847656 10.236328 C 14.678497 10.146865 14.256707 9.8438782 13.960938 9.4160156 C 13.665166 8.9881531 13.477356 8.4546902 13.679688 7.8027344 L 13.748047 7.5839844 L 13.023438 7.2851562 C 14.27436 5.4042904 15.857623 3.5174443 17.828125 1.7734375 L 17.580078 1.3515625 C 16.740169 1.6487611 15.938693 2.0180593 15.205078 2.5117188 C 15.662071 1.8958261 15.974795 1.2826918 16.511719 0.6640625 L 16.177734 0.296875 z M 10.898438 7.3925781 L 12.025391 7.8867188 C 11.999406 8.4182267 11.993127 8.8990425 12.03125 9.34375 L 11.726562 9.3515625 C 11.726562 9.3515625 11.726562 9.3535156 11.726562 9.3535156 C 11.739213 9.7961648 11.756637 10.43114 11.804688 11.042969 C 11.852557 11.652588 11.922007 12.226774 12.070312 12.615234 C 12.105552 12.718478 12.158202 12.811389 12.234375 12.951172 C 12.311975 13.093565 12.410374 13.270723 12.519531 13.476562 C 12.737846 13.888241 12.998198 14.414826 13.207031 14.992188 L 13.207031 14.994141 C 13.352067 15.380901 13.444352 15.759701 13.505859 16.070312 C 13.567369 16.380924 13.594659 16.61054 13.626953 16.755859 C 13.682227 17.020025 13.688793 17.373157 13.675781 17.757812 C 13.581106 17.331146 13.446128 16.857672 13.242188 16.376953 C 13.050453 15.887199 12.739457 15.424058 12.574219 15.117188 L 12.572266 15.111328 L 12.570312 15.107422 C 12.413457 14.845996 12.378716 14.135198 12.275391 13.308594 L 12.027344 13.328125 C 12.026812 13.323832 12.025928 13.320705 12.025391 13.316406 C 12.025528 13.321205 12.025261 13.323351 12.025391 13.328125 L 11.777344 13.347656 C 11.777626 13.357556 11.778997 13.361314 11.779297 13.371094 C 11.782097 13.480298 11.801101 13.534219 11.800781 13.632812 L 11.59375 13.578125 C 11.594478 13.57458 11.594976 13.571914 11.595703 13.568359 C 11.594608 13.571826 11.592892 13.574663 11.591797 13.578125 L 11.357422 13.517578 C 11.056779 14.469613 10.800858 15.154256 9.8867188 15.646484 C 8.3786271 16.440793 7.5735345 17.768349 7.65625 19.091797 L 7.65625 19.09375 C 7.6897751 19.604999 7.7866217 20.063566 7.9355469 20.486328 C 7.4888657 19.805909 7.0714145 19.013915 6.8867188 18.261719 C 6.7861277 17.834167 6.7039306 17.42343 6.8066406 17.074219 L 6.8085938 17.072266 C 7.3437706 15.15049 8.4723721 14.433076 9.7128906 13.597656 C 10.016188 13.395458 10.321617 13.192765 10.605469 12.986328 L 10.609375 12.982422 L 10.613281 12.980469 C 11.031233 12.655395 11.249633 12.12171 11.404297 11.582031 C 11.556102 11.052329 11.636068 10.510207 11.708984 10.128906 C 11.709286 10.127306 11.710638 10.124647 11.710938 10.123047 C 11.712037 10.117447 11.713744 10.107083 11.714844 10.101562 L 11.46875 10.042969 C 11.4694 10.03959 11.470054 10.034606 11.470703 10.03125 C 11.469762 10.0345 11.467738 10.03776 11.466797 10.041016 L 11.230469 9.984375 C 11.228469 9.991435 11.226709 9.9987824 11.224609 10.005859 C 11.086229 10.48539 10.948389 11.008527 10.78125 11.447266 C 10.611644 11.89248 10.403128 12.236836 10.197266 12.371094 L 10.185547 12.378906 L 10.173828 12.388672 C 9.9270984 12.590543 9.5844559 12.763194 9.2890625 12.951172 L 9.2851562 12.953125 L 9.2832031 12.955078 C 8.0217367 13.812877 6.6765439 14.714342 6.0742188 16.859375 C 5.9052919 17.45062 6.0220655 17.924193 6.1484375 18.429688 C 6.4414536 19.670457 7.2160184 20.909269 7.90625 21.753906 C 6.3742696 20.728222 5.3841731 18.983035 5.3007812 17.597656 L 5.3007812 17.595703 C 5.2148745 15.907005 5.5708137 14.866568 6.1269531 14.074219 C 6.6833498 13.281503 7.4617653 12.731488 8.2421875 12.091797 C 9.0439661 11.431508 10.326585 11.046978 11.058594 9.6914062 L 11.0625 9.6855469 L 11.066406 9.6777344 C 11.233879 9.3092982 11.297345 8.6836113 11.132812 7.9980469 L 11.128906 7.9882812 L 11.126953 7.9785156 C 11.086151 7.8559713 10.99499 7.6238943 10.898438 7.3925781 z M 12.330078 10.582031 C 12.471349 10.867552 12.656895 11.162666 12.853516 11.482422 C 13.164789 11.988633 13.493128 12.543129 13.683594 13.113281 C 13.910006 13.807613 14.039595 14.577652 14.107422 15.373047 C 14.040859 15.147037 13.961525 14.90899 13.849609 14.658203 L 13.849609 14.65625 C 13.604239 14.075374 13.309785 13.513091 13.068359 13.068359 C 12.947527 12.845773 12.838731 12.653293 12.757812 12.503906 C 12.676892 12.35452 12.619453 12.231409 12.617188 12.224609 L 12.611328 12.207031 L 12.603516 12.191406 C 12.583776 12.151926 12.532686 11.991392 12.490234 11.787109 C 12.447784 11.582827 12.406464 11.325276 12.369141 11.046875 C 12.348809 10.895245 12.347094 10.742162 12.330078 10.582031 z M 12.142578 12.382812 C 12.144478 12.388613 12.150244 12.396554 12.152344 12.402344 C 12.154044 12.405944 12.15445 12.412466 12.15625 12.416016 L 12.142578 12.382812 z M 10.492188 12.775391 L 10.46875 12.791016 C 10.46875 12.791016 10.46875 12.789062 10.46875 12.789062 C 10.47635 12.782963 10.484627 12.781561 10.492188 12.775391 z M 11.808594 13.738281 C 11.802294 14.339323 11.743084 14.836974 11.943359 15.394531 C 11.943359 15.394531 11.943359 15.396484 11.943359 15.396484 C 12.026599 15.6423 12.186177 15.862802 12.333984 16.09375 C 12.482914 16.326452 12.618097 16.562233 12.667969 16.761719 L 12.669922 16.763672 L 12.669922 16.765625 C 12.847144 17.42388 13.041016 18.166003 13.041016 18.546875 C 13.041016 19.044039 13.013876 19.986971 12.792969 20.96875 L 12.792969 20.970703 C 12.770524 21.076514 12.735161 21.171832 12.705078 21.271484 C 12.727075 21.042495 12.756815 20.827333 12.78125 20.570312 L 12.78125 20.568359 C 12.83508 20.081931 12.80676 19.481369 12.675781 18.851562 L 12.675781 18.849609 C 12.519025 18.066886 12.239097 17.273903 12.119141 16.746094 L 11.625 16.8125 C 11.62557 16.82619 11.632113 16.843652 11.632812 16.857422 L 11.630859 16.857422 C 11.631847 16.861722 11.633766 16.868677 11.634766 16.873047 C 11.636066 16.895787 11.644764 16.924316 11.646484 16.947266 L 11.484375 16.90625 C 11.465435 16.9678 11.447248 16.97538 11.429688 17.025391 C 11.374448 17.271886 11.23216 17.435053 11.162109 17.568359 C 11.056586 17.705492 10.922362 17.847091 10.699219 18.105469 C 10.096303 18.796296 10.033203 19.768112 10.033203 20.517578 C 10.033203 20.888214 10.173175 21.25706 10.302734 21.568359 C 10.302734 21.568359 10.304688 21.570312 10.304688 21.570312 C 10.305138 21.571413 10.304236 21.573119 10.304688 21.574219 C 10.403861 21.832425 10.514996 22.108916 10.65625 22.363281 C 10.426479 22.264748 10.217122 22.153934 10.070312 22.023438 L 10.068359 22.023438 L 10.066406 22.021484 C 9.2079929 21.282113 8.4505928 19.995604 8.3574219 18.955078 L 8.3574219 18.953125 C 8.3269939 18.571387 8.4984853 18.030281 8.8339844 17.513672 C 9.1698937 16.996431 9.6631568 16.503561 10.228516 16.185547 L 10.230469 16.183594 L 10.234375 16.181641 C 11.2628 15.564586 11.579378 14.807318 11.808594 13.738281 z M 11.742188 17.529297 C 11.825888 18.006 11.915088 18.475728 11.980469 18.982422 C 12.052599 19.535483 12.029126 20.101223 12.003906 20.605469 L 12.003906 20.607422 C 11.984076 21.063554 11.807859 21.821311 11.625 22.341797 C 11.57311 22.289707 11.511253 22.261966 11.439453 22.179688 C 11.256385 21.925936 11.115491 21.648319 10.996094 21.337891 L 10.996094 21.335938 L 10.994141 21.333984 C 10.891975 21.078567 10.776967 20.795392 10.732422 20.505859 C 10.700202 20.291051 10.695824 20.007822 10.746094 19.699219 C 10.753194 19.652139 10.77254 19.614949 10.78125 19.568359 C 10.85007 19.253135 10.969111 18.91373 11.21875 18.566406 L 11.21875 18.564453 L 11.220703 18.5625 C 11.42187 18.271925 11.449728 18.060583 11.556641 17.875 C 11.572011 17.85507 11.598431 17.829154 11.613281 17.808594 C 11.664881 17.737144 11.69847 17.61268 11.742188 17.529297 z "
   id="path2" />
</svg>