<?xml version="1.0" encoding="UTF-8" standalone="no"?>
<svg xmlns:dc="http://purl.org/dc/elements/1.1/" xmlns:cc="http://creativecommons.org/ns#"
    xmlns:rdf="http://www.w3.org/1999/02/22-rdf-syntax-ns#" xmlns="http://www.w3.org/2000/svg"
    xmlns:sodipodi="http://sodipodi.sourceforge.net/DTD/sodipodi-0.dtd"
    xmlns:inkscape="http://www.inkscape.org/namespaces/inkscape" width="155" height="155"
    viewBox="0 0 155 158.05972" fill="none" version="1.1" id="svg24"
    sodipodi:docname="transfer_data.svg" inkscape:version="1.0.2 (e86c870879, 2021-01-15)">
  <defs id="defs11" />
  <sodipodi:namedview pagecolor="#ffffff" bordercolor="#666666" borderopacity="1"
      objecttolerance="10" gridtolerance="10" guidetolerance="10" inkscape:pageopacity="0"
      inkscape:pageshadow="2" inkscape:window-width="1920" inkscape:window-height="982"
      id="namedview9" showgrid="false" inkscape:zoom="1.4523073" inkscape:cx="8.2820655"
      inkscape:cy="-28.56208" inkscape:window-x="1920" inkscape:window-y="72"
      inkscape:window-maximized="0" inkscape:current-layer="svg24" />
  <metadata id="metadata30">
    <rdf:RDF>
      <cc:Work rdf:about="">
        <dc:format>image/svg+xml</dc:format>
        <dc:type rdf:resource="http://purl.org/dc/dcmitype/StillImage" />
        <dc:title></dc:title>
      </cc:Work>
    </rdf:RDF>
  </metadata>
  <g id="g844" transform="translate(0,3.0301033)">
    <path id="path2" style="fill:#82c91e"
        d="m 34.888672,24.835938 c -0.929975,-0.02143 -1.778628,0.612487 -1.994141,1.554687 -0.2463,1.0768 0.427106,2.148231 1.503907,2.394531 l 5.339843,1.222656 c -6.856612,4.77068 -12.781629,10.788147 -17.445312,17.767579 -5.4771,8.1968 -9.072016,17.49215 -10.541016,27.21875 -0.217,1.4367 0.827383,2.738037 2.271485,2.898437 1.4442,0.1604 2.74109,-0.880406 2.96289,-2.316406 1.3729,-8.8885 4.672941,-17.381253 9.681641,-24.876953 4.280712,-6.40624 9.717062,-11.928555 16.003906,-16.316407 l -1.271484,5.558594 c -0.2463,1.0768 0.427106,2.150185 1.503906,2.396485 1.0767,0.2463 2.150184,-0.427207 2.396484,-1.503907 l 2.076172,-9.080078 c 0.167435,-0.732007 0.107609,-1.457562 -0.109375,-2.123047 -0.03323,-0.347577 -0.135561,-0.692647 -0.314453,-1.017578 -0.353538,-0.6421 -0.935043,-1.078378 -1.585937,-1.257812 -0.310286,-0.16723 -0.63775,-0.310162 -0.998047,-0.392578 l -9.078125,-2.076172 c -0.134588,-0.03079 -0.269491,-0.04772 -0.402344,-0.05078 z m 76.982418,2.876953 c -0.836,0.0548 -1.63328,0.526718 -2.08203,1.316406 -0.717,1.2635 -0.27106,2.863965 0.96094,3.634765 8.143,5.095901 14.99795,12.028813 20.00195,20.257813 4.93587,8.11686 7.91993,17.252829 8.7461,26.689453 l -4.25,-3.394531 c -0.863,-0.6893 -2.12055,-0.548547 -2.81055,0.314453 -0.689,0.8631 -0.54855,2.121147 0.31445,2.810547 l 7.27735,5.8125 c 1.726,1.3788 4.24209,1.097194 5.62109,-0.628906 l 5.8125,-7.277344 c 0.69,-0.863 0.54855,-2.121147 -0.31445,-2.810547 -0.863,-0.6894 -2.12155,-0.548647 -2.81055,0.314453 l -3.58984,4.494141 c -0.8855,-10.27436 -4.12841,-20.220841 -9.50196,-29.056641 -5.469,-8.9943 -12.97353,-16.564369 -21.89453,-22.105469 -0.46312,-0.287512 -0.97886,-0.40397 -1.48047,-0.371093 z M 45.191406,137.83008 c -0.851573,0.0281 -1.670687,0.44648 -2.164062,1.20898 -0.7895,1.219 -0.44326,2.85471 0.80664,3.59571 9.034,5.356 19.211344,8.51779 29.714844,9.21679 10.5035,0.699 21.011881,-1.08626 30.675782,-5.19726 1.337,-0.569 1.89734,-2.14303 1.27734,-3.45703 -0.621,-1.313 -2.18834,-1.86969 -3.52734,-1.30469 -8.852401,3.73 -18.466473,5.34798 -28.076172,4.70898 -9.609701,-0.64 -18.922925,-3.51767 -27.203126,-8.38867 -0.469612,-0.27637 -0.992962,-0.39966 -1.503906,-0.38281 z" />
    <path id="path8" style="fill:#8a9cb3"
        d="M 68.474609,0 C 66.724209,0 65.046294,0.6958487 63.808594,1.9335938 62.570894,3.1713338 61.875,4.8491794 61.875,6.5996094 V 46.199219 c 0,1.7504 0.695894,3.430267 1.933594,4.667969 1.2377,1.237698 2.915615,1.933593 4.666015,1.933593 h 19.800782 c 1.7504,0 3.428315,-0.695895 4.666015,-1.933593 1.2377,-1.237702 1.933594,-2.917569 1.933594,-4.667969 V 6.5996094 c 0,-1.75043 -0.695894,-3.4282757 -1.933594,-4.6660156 C 91.703706,0.6958487 90.025791,0 88.275391,0 Z m 0,3.3007812 h 19.800782 c 0.8752,0 1.715084,0.3459738 2.333984,0.9648438 0.6188,0.61887 0.964844,1.4587744 0.964844,2.3339844 V 46.199219 c 0,0.8752 -0.346044,1.715084 -0.964844,2.333984 C 89.990475,49.152003 89.150591,49.5 88.275391,49.5 H 68.474609 c -0.8752,0 -1.715084,-0.347997 -2.333984,-0.966797 -0.6188,-0.6189 -0.964844,-1.458784 -0.964844,-2.333984 V 6.5996094 c 0,-0.87521 0.346044,-1.7151144 0.964844,-2.3339844 0.6189,-0.61887 1.458784,-0.9648437 2.333984,-0.9648438 z M 11.25,97 0,108.40039 v 22.79883 C 0,133.28922 1.6875,135 3.75,135 h 22.5 c 2.0625,0 3.75,-1.71078 3.75,-3.80078 V 100.80078 C 30,98.710782 28.3125,97 26.25,97 Z M 131,100.59961 c -0.796,0 -1.55909,0.31591 -2.12109,0.87891 -0.563,0.562 -0.87891,1.32509 -0.87891,2.12109 v 13.5 c -0.796,0 -1.55909,0.31591 -2.12109,0.87891 -0.563,0.562 -0.87891,1.32509 -0.87891,2.12109 v 16.5 h 3 v -16.5 h 24 v 16.5 h 3 v -16.5 c 0,-0.796 -0.31591,-1.55909 -0.87891,-2.12109 -0.562,-0.563 -1.32509,-0.87891 -2.12109,-0.87891 v -13.5 c 0,-0.796 -0.31591,-1.55909 -0.87891,-2.12109 -0.562,-0.563 -1.32509,-0.87891 -2.12109,-0.87891 z M 12.806641,100.80078 H 26.25 v 30.39844 H 3.75 V 109.97656 Z M 131,103.59961 h 18 v 13.5 H 131 Z M 9.375,106.5 v 7.59961 h 3.75 V 106.5 Z m 5.625,0 v 7.59961 h 3.75 V 106.5 Z m 5.625,0 v 7.59961 h 3.75 V 106.5 Z" />
  </g>
  <path
      d="m 78.375,46.2 c 0.8752,0 1.7146,-0.3477 2.3335,-0.9666 0.6188,-0.6188 0.9665,-1.4582 0.9665,-2.3334 0,-0.8752 -0.3477,-1.7146 -0.9665,-2.3335 C 80.0896,39.9477 79.2502,39.6 78.375,39.6 c -0.8752,0 -1.7146,0.3477 -2.3334,0.9665 -0.6189,0.6189 -0.9666,1.4583 -0.9666,2.3335 0,0.8752 0.3477,1.7146 0.9666,2.3334 0.6188,0.6189 1.4582,0.9666 2.3334,0.9666 z"
      fill="#8a9cb3" id="path10" />
  <path d="m 134,109.6 h 4.5 v 3 H 134 Z" fill="#8a9cb3" id="path14" />
  <path d="m 141.5,109.6 h 4.5 v 3 h -4.5 z" fill="#8a9cb3" id="path16" />
</svg>
