<?xml version="1.0" encoding="UTF-8" standalone="no"?>
<svg xmlns:dc="http://purl.org/dc/elements/1.1/" xmlns:cc="http://creativecommons.org/ns#"
    xmlns:rdf="http://www.w3.org/1999/02/22-rdf-syntax-ns#" xmlns="http://www.w3.org/2000/svg"
    xmlns:sodipodi="http://sodipodi.sourceforge.net/DTD/sodipodi-0.dtd"
    xmlns:inkscape="http://www.inkscape.org/namespaces/inkscape" width="120" height="52"
    viewBox="0 0 120 52" fill="none" version="1.1" id="svg24"
    sodipodi:docname="transfer_data_send.svg" inkscape:version="1.0.2 (e86c870879, 2021-01-15)">
  <defs id="defs11" />
  <sodipodi:namedview pagecolor="#ffffff" bordercolor="#666666" borderopacity="1"
      objecttolerance="10" gridtolerance="10" guidetolerance="10" inkscape:pageopacity="0"
      inkscape:pageshadow="2" inkscape:window-width="1920" inkscape:window-height="982"
      id="namedview9" showgrid="false" inkscape:zoom="4.1077454" inkscape:cx="35.020218"
      inkscape:cy="26.319497" inkscape:window-x="1920" inkscape:window-y="72"
      inkscape:window-maximized="1" inkscape:current-layer="svg24" inkscape:document-rotation="0"
      fit-margin-top="0" fit-margin-left="0" fit-margin-right="0" fit-margin-bottom="0"
      lock-margins="true" />
  <metadata id="metadata30">
    <rdf:RDF>
      <cc:Work rdf:about="">
        <dc:format>image/svg+xml</dc:format>
        <dc:type rdf:resource="http://purl.org/dc/dcmitype/StillImage" />
        <dc:title></dc:title>
      </cc:Work>
    </rdf:RDF>
  </metadata>
  <path id="path8"
      style="fill:#8a9cb3;stroke:none;stroke-width:0.749281;stroke-miterlimit:4;stroke-dasharray:none"
      d="m 91.223138,12.30985 c -0.596207,0 -1.167798,0.237677 -1.588736,0.659365 -0.421693,0.42094 -0.659371,0.992537 -0.659371,1.588743 v 10.111264 c -0.596207,0 -1.16631,0.236178 -1.58725,0.657875 -0.421682,0.420938 -0.659361,0.992529 -0.659361,1.588736 v 12.35937 h 2.246611 v -12.35937 h 17.977399 v 12.359369 h 2.24662 V 26.915833 c 0,-0.596207 -0.23619,-1.167798 -0.65788,-1.588737 -0.42094,-0.421697 -0.99253,-0.657875 -1.58874,-0.657875 V 14.557958 c 0,-0.596206 -0.23768,-1.167804 -0.65937,-1.588743 -0.42094,-0.421688 -0.99252,-0.659365 -1.58873,-0.659365 z m 0,2.248108 H 104.70433 V 24.669222 H 91.223138 Z m 2.24662,2.224241 v 2.246609 h 3.369915 v -2.246609 z m 5.618031,0 v 2.246609 h 3.369931 v -2.246609 z"
      sodipodi:nodetypes="scsccsccccccsccscssccccccccccccccc" />
  <path
      d="m 47.827564,24.463076 v 3.073847 h 18.443085 l -8.45308,8.453081 2.182432,2.182432 12.172435,-12.172438 -12.172435,-12.172434 -2.182432,2.182431 8.45308,8.45308 z"
      id="path895" style="fill:#82c91e;fill-opacity:1;stroke:none;stroke-width:1.53692" />
  <path id="path8-3"
      style="fill:#8a9cb3;stroke:none;stroke-width:0.985186;stroke-miterlimit:4;stroke-dasharray:none"
      d="M 6.4982841,0 C 4.7744519,0 3.1234817,0.68560936 1.9045686,1.9045677 0.68565358,3.1235212 0,4.7763832 0,6.5002454 V 45.497793 c 0,1.723832 0.68565358,3.378724 1.9045686,4.597639 C 3.1234817,51.314343 4.7744519,52 6.4982841,52 H 25.999019 c 1.723832,0 3.376764,-0.685657 4.595677,-1.904568 1.218914,-1.218917 1.904569,-2.873807 1.904568,-4.597639 V 6.5002454 c 0,-1.7238622 -0.685654,-3.3767242 -1.904568,-4.5956777 C 29.375783,0.68560936 27.722851,0 25.999019,0 Z m 0,3.2520847 H 25.999019 c 0.861916,0 1.689313,0.339865 2.29882,0.9493418 0.609407,0.6094767 0.951302,1.4368929 0.951302,2.2988189 V 45.497793 c 0,0.861916 -0.341895,1.689315 -0.951302,2.29882 -0.609507,0.609408 -1.436904,0.953264 -2.29882,0.953264 H 6.4982841 c -0.8619161,0 -1.6873525,-0.343856 -2.2968577,-0.953264 C 3.5920186,47.187108 3.2501219,46.359709 3.2501219,45.497793 V 6.5002454 c 0,-0.861926 0.3418967,-1.6893422 0.9513045,-2.2988189 C 4.8109316,3.5919497 5.636368,3.2520847 6.4982841,3.2520847 Z M 16.248652,36.016144 c -0.861916,0 -1.68745,0.341895 -2.296859,0.951302 -0.609506,0.609506 -0.953264,1.436905 -0.953264,2.29882 0,0.861916 0.343758,1.687452 0.953264,2.29686 0.609409,0.609507 1.434943,0.951302 2.296859,0.951302 0.861916,0 1.689312,-0.341797 2.298819,-0.951302 0.609408,-0.609408 0.951303,-1.434942 0.951303,-2.29686 0,-0.861915 -0.341895,-1.689311 -0.951303,-2.29882 -0.609507,-0.609407 -1.436903,-0.951302 -2.298819,-0.951302 z"
      sodipodi:nodetypes="sssssssscsssssscsscsscsscsssscssscs" />
</svg>
