<?xml version="1.0" encoding="UTF-8" standalone="no"?>
<!-- Created with Inkscape (http://www.inkscape.org/) -->

<svg
   xmlns:dc="http://purl.org/dc/elements/1.1/"
   xmlns:cc="http://creativecommons.org/ns#"
   xmlns:rdf="http://www.w3.org/1999/02/22-rdf-syntax-ns#"
   xmlns:svg="http://www.w3.org/2000/svg"
   xmlns="http://www.w3.org/2000/svg"
   xmlns:sodipodi="http://sodipodi.sourceforge.net/DTD/sodipodi-0.dtd"
   xmlns:inkscape="http://www.inkscape.org/namespaces/inkscape"
   width="49"
   height="20"
   viewBox="0 0 49.000004 20"
   id="svg2"
   version="1.1"
   inkscape:version="0.91 r13725"
   sodipodi:docname="trust-indicator.svg">
  <defs
     id="defs4" />
  <sodipodi:namedview
     id="base"
     pagecolor="#ffffff"
     bordercolor="#666666"
     borderopacity="1.0"
     inkscape:pageopacity="0.0"
     inkscape:pageshadow="2"
     inkscape:zoom="15.839192"
     inkscape:cx="19.828141"
     inkscape:cy="4.1791031"
     inkscape:document-units="px"
     inkscape:current-layer="layer1"
     showgrid="false"
     units="px"
     fit-margin-top="0"
     fit-margin-left="0"
     fit-margin-right="0"
     fit-margin-bottom="0"
     inkscape:window-width="1920"
     inkscape:window-height="993"
     inkscape:window-x="1440"
     inkscape:window-y="0"
     inkscape:window-maximized="1" />
  <metadata
     id="metadata7">
    <rdf:RDF>
      <cc:Work
         rdf:about="">
        <dc:format>image/svg+xml</dc:format>
        <dc:type
           rdf:resource="http://purl.org/dc/dcmitype/StillImage" />
        <dc:title />
      </cc:Work>
    </rdf:RDF>
  </metadata>
  <g
     inkscape:label="Layer 1"
     inkscape:groupmode="layer"
     id="layer1"
     transform="translate(-216.17711,-507.04154)">
    <g
       style="font-style:normal;font-variant:normal;font-weight:normal;font-stretch:normal;font-size:25px;line-height:125%;font-family:FreeSans;-inkscape-font-specification:FreeSans;letter-spacing:0px;word-spacing:0px;fill:#b7b7b7;fill-opacity:1;stroke:none;stroke-width:1px;stroke-linecap:butt;stroke-linejoin:miter;stroke-opacity:1"
       id="text4136"
       transform="matrix(1,0,0,0.90497738,-18.96574,55.694085)">
      <path
         d="m 250.64285,514.07648 0,-2.275 -2.55,0 0,-3.8 2.55,0 0,-2.275 -2.55,0 0,-4.225 -2.375,0 0,4.225 -3.15,0 0,-4.225 -2.375,0 0,4.225 -2.55,0 0,2.275 2.55,0 0,3.8 -2.55,0 0,2.275 2.55,0 0,4 2.375,0 0,-4 3.15,0 0,4 2.375,0 0,-4 2.55,0 z m -4.925,-2.275 -3.15,0 0,-3.8 3.15,0 0,3.8 z"
         style="font-style:normal;font-variant:normal;font-weight:600;font-stretch:normal;font-family:Titillium;-inkscape-font-specification:'Titillium Semi-Bold';fill:#b7b7b7;fill-opacity:1"
         id="path4745"
         inkscape:connector-curvature="0" />
    </g>
    <g
       transform="matrix(1,0,0,0.90497738,-3.4657389,55.694085)"
       id="g4755"
       style="font-style:normal;font-variant:normal;font-weight:normal;font-stretch:normal;font-size:25px;line-height:125%;font-family:FreeSans;-inkscape-font-specification:FreeSans;letter-spacing:0px;word-spacing:0px;fill:#b7b7b7;fill-opacity:1;stroke:none;stroke-width:1px;stroke-linecap:butt;stroke-linejoin:miter;stroke-opacity:1">
      <path
         inkscape:connector-curvature="0"
         id="path4757"
         style="font-style:normal;font-variant:normal;font-weight:600;font-stretch:normal;font-family:Titillium;-inkscape-font-specification:'Titillium Semi-Bold';fill:#b7b7b7;fill-opacity:1"
         d="m 250.64285,514.07648 0,-2.275 -2.55,0 0,-3.8 2.55,0 0,-2.275 -2.55,0 0,-4.225 -2.375,0 0,4.225 -3.15,0 0,-4.225 -2.375,0 0,4.225 -2.55,0 0,2.275 2.55,0 0,3.8 -2.55,0 0,2.275 2.55,0 0,4 2.375,0 0,-4 3.15,0 0,4 2.375,0 0,-4 2.55,0 z m -4.925,-2.275 -3.15,0 0,-3.8 3.15,0 0,3.8 z" />
    </g>
    <g
       style="font-style:normal;font-variant:normal;font-weight:normal;font-stretch:normal;font-size:25px;line-height:125%;font-family:FreeSans;-inkscape-font-specification:FreeSans;letter-spacing:0px;word-spacing:0px;fill:#b7b7b7;fill-opacity:1;stroke:none;stroke-width:1px;stroke-linecap:butt;stroke-linejoin:miter;stroke-opacity:1"
       id="g4139"
       transform="matrix(1,0,0,0.90497738,12.034262,55.694085)">
      <path
         d="m 250.64285,514.07648 0,-2.275 -2.55,0 0,-3.8 2.55,0 0,-2.275 -2.55,0 0,-4.225 -2.375,0 0,4.225 -3.15,0 0,-4.225 -2.375,0 0,4.225 -2.55,0 0,2.275 2.55,0 0,3.8 -2.55,0 0,2.275 2.55,0 0,4 2.375,0 0,-4 3.15,0 0,4 2.375,0 0,-4 2.55,0 z m -4.925,-2.275 -3.15,0 0,-3.8 3.15,0 0,3.8 z"
         style="font-style:normal;font-variant:normal;font-weight:600;font-stretch:normal;font-family:Titillium;-inkscape-font-specification:'Titillium Semi-Bold';fill:#b7b7b7;fill-opacity:1"
         id="path4141"
         inkscape:connector-curvature="0" />
    </g>
  </g>
</svg>
